<svg xmlns="http://www.w3.org/2000/svg" viewBox="0 0 511.67 163.45"><defs><style>.cls-1{fill:#fff;}</style></defs><g id="Capa_2" data-name="Capa 2"><g id="Capa_1-2" data-name="Capa 1"><path class="cls-1" d="M45.42,140.13,34.88,163.45H0L70,7.6,73.41,0,77,7.71,147,163.45H112L101.6,140l-.51-1.12H45.93Zm40.87-33.87L73.51,77.67,60.63,106.26Z"/><path class="cls-1" d="M153.52,114.37V0h57.19q23.63,0,40.45,16.83T268,57.19A55.08,55.08,0,0,1,257.6,90a56.54,56.54,0,0,1-26.51,20.63L268,163.45H228.05l-41.78-59.82v59.82H153.52Zm57.19-32.65a24.57,24.57,0,0,0,24.54-24.53,23.67,23.67,0,0,0-7.2-17.29,23.57,23.57,0,0,0-17.34-7.25H186.27V81.72Z"/><path class="cls-1" d="M356.52,0h40.86V32.65H356.52v130.8H323.77V32.65H282.91V0h73.61Z"/><path class="cls-1" d="M511.67,0V32.65h-65.3V65.4h49V98.05h-49V130.7h65.3v32.75H413.62V0Z"/></g></g></svg>