<svg xmlns="http://www.w3.org/2000/svg" viewBox="0 0 436.05 115.06"><defs><style>.cls-1{fill:#fff;}.cls-2{fill:#f18b00;}.cls-3{fill:#f9b800;}</style></defs><g id="Capa_2" data-name="Capa 2"><g id="Capa_1-2" data-name="Capa 1"><path class="cls-1" d="M132.53,113.45H107.18V46c-1.91-.29-3.74,0-5.61-.2V26.26h5V23.64l4.52-1.18c0-.45.07-.88.07-1.31,0-3.89,0-7.79,0-11.68a1.77,1.77,0,0,1,1-1.85c2-1.08,4-2.3,6-3.42A1.29,1.29,0,0,0,119,2.82a11,11,0,0,1,0-1.52A1.29,1.29,0,0,1,120.17,0a1.3,1.3,0,0,1,1.3,1.28,9.75,9.75,0,0,1,0,1.62,1.24,1.24,0,0,0,.75,1.29c2.07,1.16,4.1,2.39,6.17,3.54a1.51,1.51,0,0,1,.89,1.51c0,4,0,8,0,12v1.21l4.5,1.17V26.2h4.45V45.85l-5.3.06a1.52,1.52,0,0,0-.2.18.19.19,0,0,0,0,.09c0,.06,0,.13-.05.19a.31.31,0,0,1,0,.1v.41q0,33,0,66.05a.34.34,0,0,1,0,.1v.1l0,.1A1.33,1.33,0,0,1,132.53,113.45Zm-8.69-8.81.17-.18c-.3-1-.59-2-.88-3s-.32-1.12.61-1.86L125.82,98c.16-.14.29-.31.61-.66-1.45,0-2.66,0-3.88,0a.89.89,0,0,1-1-.69c-.31-.93-.65-1.85-1-2.77-.09-.23-.23-.45-.4-.79-.17.4-.28.64-.37.89-.3.82-.58,1.66-.89,2.48s-.32.85-1.24.88l-2.75,0c-.24,0-.49.06-.93.11l2.68,2.14c1,.75,1,.75.61,1.94-.29,1-.57,2-.86,3l.17.13,2.59-1.73c1-.68,1-.68,2,0Zm-9.58-28.87a4.24,4.24,0,0,0,.49.58c.76.62,1.52,1.24,2.3,1.83a1,1,0,0,1,.39,1.23c-.31.93-.57,1.87-.83,2.82a4.94,4.94,0,0,0-.09.76l2.25-1.47c1.69-1.1,1.19-1.11,2.88,0L124,83c-.09-.42-.12-.61-.17-.79-.23-.81-.47-1.62-.71-2.43-.33-1.15-.33-1.15.56-1.86.67-.53,1.34-1,2-1.58a5,5,0,0,0,.51-.61c-1.31-.06-2.46-.14-3.6-.16a.91.91,0,0,1-1-.74c-.08-.29-.21-.57-.31-.86l-1-2.74c-.2.45-.31.68-.4.92-.31.86-.63,1.71-.91,2.58a1.07,1.07,0,0,1-1.18.85C116.65,75.62,115.53,75.71,114.26,75.77Zm12-21.51,0-.19c-.29,0-.59,0-.88,0-.88,0-1.76-.05-2.64,0a1,1,0,0,1-1.12-.79c-.3-.94-.64-1.85-1-2.77a3.79,3.79,0,0,0-.39-.64c-.15.34-.26.54-.34.76-.33.89-.66,1.77-1,2.67a1,1,0,0,1-1,.77c-.34,0-.68,0-1,0h-2.59a2.42,2.42,0,0,0,.7.84l1.91,1.51c.79.63.79.63.5,1.62-.22.78-.46,1.55-.69,2.33-.07.27-.11.55-.19,1A5,5,0,0,0,117,61c.88-.58,1.76-1.14,2.62-1.75a1,1,0,0,1,1.28,0c.8.57,1.62,1.1,2.45,1.63a5.25,5.25,0,0,0,.72.3c-.36-1.23-.64-2.31-1-3.36a1.11,1.11,0,0,1,.48-1.46C124.46,55.73,125.33,55,126.22,54.26ZM103.81,36.31h0v1.12c0,1,0,2,0,2.94a1.4,1.4,0,0,0,1.43,1.51,1.44,1.44,0,0,0,1.46-1.5c0-.2,0-.4,0-.6V32.87a4.93,4.93,0,0,0-.09-1,1.4,1.4,0,0,0-1.88-1,1.46,1.46,0,0,0-1,1.52Zm11.19,0h0V34.68c0-.85,0-1.7,0-2.54a1.37,1.37,0,0,0-1.35-1.38A1.44,1.44,0,0,0,112.11,32a5.43,5.43,0,0,0,0,.91v6.5a10.23,10.23,0,0,0,0,1.11,1.45,1.45,0,0,0,1.38,1.38,1.39,1.39,0,0,0,1.53-1.5C115,39,115,37.66,115,36.3Zm6.52.07h0c0-1.39,0-2.78,0-4.16a1.36,1.36,0,0,0-1.38-1.45,1.46,1.46,0,0,0-1.51,1.34,4.16,4.16,0,0,0,0,.61c0,2.4,0,4.81,0,7.21a3.39,3.39,0,0,0,.13,1,1.37,1.37,0,0,0,1.5.95,1.39,1.39,0,0,0,1.29-1.54C121.53,39,121.52,37.69,121.52,36.37Zm6.51,0h0c0-1.42,0-2.85,0-4.27a1.32,1.32,0,0,0-1.27-1.33,1.4,1.4,0,0,0-1.55,1.16,4.49,4.49,0,0,0-.07.9v7a4.2,4.2,0,0,0,.11,1,1.4,1.4,0,0,0,1.83,1,1.42,1.42,0,0,0,1-1.5C128.05,39,128,37.68,128,36.36Zm8.64,0c0-1.18,0-2.37,0-3.55a3.4,3.4,0,0,0-.15-1.1,1.42,1.42,0,0,0-2.73.3,5.49,5.49,0,0,0,0,.81v7.11a5.49,5.49,0,0,0,0,.81,1.43,1.43,0,0,0,2.74.27,4.06,4.06,0,0,0,.15-1.1C136.68,38.68,136.67,37.49,136.67,36.31Zm-11.48-21c0-.94,0-1.89,0-2.84a1.73,1.73,0,0,0-1.78-1.8,1.76,1.76,0,0,0-1.78,1.82c0,1.82,0,3.65,0,5.48a1.79,1.79,0,1,0,3.58,0C125.17,17.05,125.19,16.17,125.19,15.29Zm-9.93,0c0,.92,0,1.83,0,2.74a1.78,1.78,0,1,0,3.56,0c0-1.83,0-3.65,0-5.48a1.79,1.79,0,1,0-3.57,0C115.23,13.43,115.25,14.34,115.26,15.25Z"/><path class="cls-1" d="M222.32,115.06a33.35,33.35,0,0,1-17.09-4.55c-8.54-5.1-13.58-12.59-14.81-22.47a30.08,30.08,0,0,1,6.4-23.25A30.38,30.38,0,0,1,214.26,54,33.65,33.65,0,0,1,238,56.69c9.21,4.79,14.72,12.4,16.29,22.68a30.45,30.45,0,0,1-23.88,34.74,30.82,30.82,0,0,1-3.3.59C225.5,114.88,223.91,115,222.32,115.06ZM239,84.4A15.89,15.89,0,0,0,236.26,75c-4.17-5.89-10-8-17-6.9A15.83,15.83,0,0,0,205.94,81.9a16,16,0,0,0,7.66,15.89,17,17,0,0,0,11,2.21C233,98.93,238.88,92.4,239,84.4Z"/><path class="cls-1" d="M188.28,114.1c-1.56,0-3,0-4.53,0-.3,0-.64-.33-.89-.57l-8-7.72L154.19,85.67a4.2,4.2,0,0,0-1-.74c-.11,9.5-.11,19-.11,28.39-.78.24-13.82.32-15.37.12-.19-.73-.24-58.07,0-59.42.67,0,1.37,0,2.07,0a8.17,8.17,0,0,1,2.81.15c.78.31,1.36,1.18,2,1.82l27,26.21c.31.3.63.6.92.86l.18-.07.06-.07c0-.1,0-.2.05-.3s0-.2,0-.3q0-13.68,0-27.34a1.25,1.25,0,0,1,0-.19,1,1,0,0,1,0-.1c.7-.25,14.35-.3,15.42,0Z"/><path class="cls-1" d="M55,54.65H70.31v21.9c.83.26,16,.34,17.57.11,0-.37.06-.75.06-1.14q0-9.81,0-19.61V54.66h15.33c.2.77.25,57.54,0,58.77H88c-.1-1.78,0-3.59,0-5.4s0-3.73,0-5.59V91.51c-.8-.26-16.39-.31-17.57-.07V113.3c-.8.25-14.16.3-15.37.09C54.8,112.55,54.78,55.69,55,54.65Z"/><path class="cls-1" d="M54,62.08,45.16,73.5l-.91-.72a19.77,19.77,0,0,0-9.76-4.49C26,67.12,17.61,72.66,16,81.13c-1.79,9.5,4.85,16.94,12.68,18.63a16.39,16.39,0,0,0,11-1.56,26.08,26.08,0,0,0,5.33-3.68c.65.48,7.41,9.35,8.91,11.69-.25.23-.5.49-.77.72A31.87,31.87,0,0,1,37,114.45c-12.1,1.8-24.43-3-31.49-12.88A29.19,29.19,0,0,1,.18,87.39C-1.47,71.85,8.27,58.16,23.62,54.25a32,32,0,0,1,10.58-1A32.92,32.92,0,0,1,47.49,57.4,34.08,34.08,0,0,1,54,62.08Z"/><path class="cls-2" d="M399.4,93.18c.4-.05.6-.08.8-.09,2.37,0,4.75-.06,7.11,0a11.82,11.82,0,0,1,5.78,1.68,8.86,8.86,0,0,1,4,5.4,12.15,12.15,0,0,1,0,6.71c-1.08,3.81-3.75,5.93-7.51,6.74a24.57,24.57,0,0,1-4,.41c-1.7.06-3.39,0-5.08,0-1.11,0-1.11,0-1.11-1.14V93.18Zm5.2,15.72a9.92,9.92,0,0,0,4.3-.38,5.4,5.4,0,0,0,.08-9.93,8.58,8.58,0,0,0-3.17-.56c-1.24,0-1.26,0-1.27,1.23q0,4.24,0,8.51C404.55,108.1,404.58,108.43,404.6,108.9Z"/><path class="cls-2" d="M436,93.22V98l-1.16.06h-5.79C428,98,428,98.08,428,99.1c0,.66,0,1.33,0,2.07l1.22.06c1.53,0,3.05,0,4.58,0,.81,0,.87.07.88.87,0,1.14,0,2.29,0,3.57-2.23.15-4.39,0-6.49.1a5.86,5.86,0,0,0,0,3.19c1.26,0,2.57,0,3.88,0s2.62-.06,4,0v4.84a121.06,121.06,0,0,1-13.09.08c-.23-.71-.31-19.29-.09-20.65A114.33,114.33,0,0,1,436,93.22Z"/><path class="cls-2" d="M310.57,114.06c-1.29,0-2.41-.09-3.51,0-1.55.16-2.72-.1-3.06-1.87a.87.87,0,0,0-1-.68h-6.7a.9.9,0,0,0-1,.71c-.34,1.6-1.34,2-2.88,1.85a30.84,30.84,0,0,0-3.62,0,9.06,9.06,0,0,1,.34-1c1.85-4.07,3.72-8.12,5.58-12.19,1.08-2.36,2.18-4.72,3.23-7.11a1.27,1.27,0,0,1,1.46-.92,2.49,2.49,0,0,0,.61,0,1.09,1.09,0,0,1,1.24.77c2.12,4.69,4.28,9.36,6.42,14,.8,1.76,1.61,3.51,2.41,5.26C310.24,113.23,310.36,113.54,310.57,114.06Zm-13.15-6.51a11.1,11.1,0,0,0,4.5-.1,28.17,28.17,0,0,0-2.29-4.85A36.72,36.72,0,0,0,297.42,107.55Z"/><path class="cls-2" d="M376.49,114c-.45,0-.74.06-1,.06-1.22,0-2.45-.06-3.66,0a1.23,1.23,0,0,1-1.48-1c-.07-.25-.24-.48-.31-.74a1.09,1.09,0,0,0-1.23-.81q-3.16,0-6.31,0a1.12,1.12,0,0,0-1.28.9c-.31,1.41-1.18,1.83-2.58,1.68a35,35,0,0,0-3.55,0c-.06,0-.12,0-.25-.11a6.13,6.13,0,0,1,.25-.72q4.45-9.8,8.93-19.59a1.09,1.09,0,0,1,1.14-.78c2.05.05,1.62-.19,2.4,1.49L376,112.7C376.13,113.09,376.28,113.49,376.49,114Zm-10.76-11.41-.25,0c-.37.82-.77,1.62-1.09,2.45a7.88,7.88,0,0,0-.95,2.69c1.51,0,2.91.06,4.46,0A42.23,42.23,0,0,0,365.73,102.59Z"/><path class="cls-2" d="M348.34,99.49c-.85-.47-1.53-.92-2.26-1.24a6.07,6.07,0,0,0-8,3,5.83,5.83,0,0,0,4.62,8.14,6.38,6.38,0,0,0,4.6-1.17l1-.68c1,1.33,2,2.62,3,4-.41.34-.73.62-1.08.87A11.7,11.7,0,0,1,335,110.79a10.82,10.82,0,0,1,4-17.29,11.34,11.34,0,0,1,11.69,1.63,7,7,0,0,1,.61.57Z"/><path class="cls-2" d="M320.52,109h7.16c.92,0,1,0,1,1,0,1.12,0,2.24,0,3.35,0,.68-.09.76-.77.77H316c-.76,0-.8-.07-.8-1V97.89c0-1.22,0-2.44,0-3.66,0-.32,0-.65.05-1.07.4,0,.73-.07,1.06-.07q1.72,0,3.45,0c.69,0,.74.08.77.77,0,.24,0,.47,0,.71V109Z"/><path class="cls-2" d="M386.48,93.21v15.67c.47,0,.83.07,1.19.07h5.79c1.11,0,1.11,0,1.11,1.14s0,2,0,3.05c0,.87,0,.91-.93.91H382.05c-.72,0-.79-.1-.83-.84,0-.3,0-.6,0-.91V94.44c0-1.35,0-1.35,1.34-1.35h3.26A5.16,5.16,0,0,1,386.48,93.21Z"/><path class="cls-1" d="M320.55,81.49A7.76,7.76,0,1,1,312.88,74,7.48,7.48,0,0,1,320.55,81.49Zm-7.75,3.86a3.94,3.94,0,1,0,.05-7.87,3.94,3.94,0,1,0-.05,7.87Z"/><path class="cls-1" d="M307.41,54.59A7.64,7.64,0,0,1,315,60.26a7.39,7.39,0,0,1-6,9.17,8.54,8.54,0,0,1-4.59-.46,7.29,7.29,0,0,1-4.62-7.58,7.38,7.38,0,0,1,5.9-6.54C306.2,54.73,306.81,54.68,307.41,54.59Zm0,11.44a3.95,3.95,0,1,0-4-3.91A3.92,3.92,0,0,0,307.44,66Z"/><path class="cls-1" d="M427.91,54.59a7.58,7.58,0,0,1,7.76,7.61,7.4,7.4,0,0,1-6.22,7.22,8.51,8.51,0,0,1-5-.58,7.24,7.24,0,0,1-4.31-7.38,7.33,7.33,0,0,1,5.83-6.6C426.64,54.73,427.28,54.68,427.91,54.59Zm0,11.44a3.95,3.95,0,1,0-4.05-3.9A3.89,3.89,0,0,0,427.92,66Z"/><path class="cls-1" d="M391.05,54.59a7.66,7.66,0,0,1,7.52,5.58,7.39,7.39,0,0,1-6,9.26,8.54,8.54,0,0,1-4.67-.5,7.29,7.29,0,0,1-4.53-7.45,7.39,7.39,0,0,1,5.82-6.62C389.78,54.73,390.42,54.68,391.05,54.59ZM391,66a3.95,3.95,0,1,0-4-4A3.9,3.9,0,0,0,391,66Z"/><path class="cls-1" d="M404.13,62.5v6.63h-3.52c-.23-.67-.31-12.59-.08-14.16a1.34,1.34,0,0,1,1.59.42c1.95,1.93,3.92,3.83,5.89,5.74.24.22.49.43.93.81,0-2.4,0-4.58,0-6.83a31.12,31.12,0,0,1,3.45-.09,126.3,126.3,0,0,1,.1,14.21,1.24,1.24,0,0,1-1.52-.39c-1.93-1.9-3.88-3.78-5.82-5.67l-.8-.75Z"/><path class="cls-1" d="M296.85,80.49h7a5.24,5.24,0,0,1-.07,3.3,6.45,6.45,0,0,1-4.43,4.65,7.86,7.86,0,0,1-6.48-.57A6.93,6.93,0,0,1,289,81a7.07,7.07,0,0,1,4.78-6.37c2.81-1.12,5.43-.58,8,1.23l-2,2.71a13.17,13.17,0,0,0-1.79-.86,3.84,3.84,0,0,0-4.19,1,3.72,3.72,0,0,0-.85,4.13,4.3,4.3,0,0,0,5.84,2.22,1.91,1.91,0,0,0,1.18-1.86l-3.08-.13Z"/><path class="cls-1" d="M322.28,74.29a1.31,1.31,0,0,1,1.52.37c1.93,1.91,3.88,3.79,5.83,5.68.26.25.54.49,1,.87a20.49,20.49,0,0,0,.12-3.45c0-1.08,0-2.16,0-3.33h3.5c.2.71.25,13,0,14.14a1.26,1.26,0,0,1-1.52-.41c-1.93-1.9-3.88-3.79-5.83-5.67-.26-.26-.53-.51-1-.93-.19,2.41,0,4.62-.13,6.88h-3.51Z"/><path class="cls-1" d="M359.22,55a1.42,1.42,0,0,1,1.67.4c1.9,1.88,3.82,3.74,5.74,5.6l.85.77c.35-.28.25-.64.25-.95,0-1.52,0-3,0-4.56,0-.37,0-.73.06-1.16h3.53V69.21a1.25,1.25,0,0,1-1.55-.35c-2-2-4-3.88-6-5.81-.24-.22-.49-.43-.94-.82,0,2.45,0,4.65,0,6.91h-3.56a33.39,33.39,0,0,1-.06-3.47c0-1.22,0-2.44,0-3.65V55Z"/><path class="cls-1" d="M358,69.17H354a6.84,6.84,0,0,1-.41-.86,1,1,0,0,0-1.11-.78c-1.52,0-3,0-4.6,0l-.78,1.61h-3.95l6.52-14.27h1.74Zm-7.26-7.59-.28,0-1.36,3.19h3Z"/><path class="cls-1" d="M328.12,55.07H337a18.34,18.34,0,0,1,.06,3.33h-5.38v2.11h4.41v3h-4.27a4.33,4.33,0,0,0-.18,2.2c1.8.12,3.55,0,5.37.09v3.3h-8.85C328,68.42,327.91,56.38,328.12,55.07Z"/><path class="cls-1" d="M352.22,86.9l-.75,1.57h-3.75c.08-.77,5-11.74,6.37-14.26h1.69c2.14,4.68,4.3,9.41,6.51,14.23h-4l-.76-1.54ZM355,80.8a8,8,0,0,0-1.37,3.36,7.93,7.93,0,0,0,2.77-.11Z"/><path class="cls-1" d="M383.11,85.06v3.38h-9c-.15-1.51,0-3.06-.06-4.59s0-3.12,0-4.68v-4.8c3.07,0,6,0,9.06,0v3.41h-5.37v2c1.42.16,2.87,0,4.37.1v3l-4.37,0v2.14Z"/><path class="cls-1" d="M341.92,85.1h4.77v3.34H336.18l4.73-10.58c-1.64-.22-3.15,0-4.77-.15-.06-1.09,0-2.15,0-3.28h10.54Z"/><path class="cls-1" d="M390.36,85.09h4.74v3.35H384.65c.12-.32.23-.62.36-.91l3.84-8.61c.15-.32.26-.66.44-1.13h-4.72c-.08-1.16,0-2.22,0-3.36h10.52C393.58,78,391.93,81.38,390.36,85.09Z"/><path class="cls-1" d="M324,59.17a3.14,3.14,0,0,0-2.34-1,2.19,2.19,0,0,0-.87.22.71.71,0,0,0-.07,1.3,10.76,10.76,0,0,0,1.28.61,20.07,20.07,0,0,1,2.62,1.32,4,4,0,0,1-.7,7.17,6.77,6.77,0,0,1-6.16-.3,3.36,3.36,0,0,1-1.58-1.6l2.25-2A3.74,3.74,0,0,0,321.19,66h.31c.69-.06,1.26-.37,1.31-.78.06-.61-.4-.91-.84-1.16-.68-.38-1.4-.68-2.08-1.06a11.59,11.59,0,0,1-2-1.3,3.67,3.67,0,0,1-.2-5.28,5.7,5.7,0,0,1,7.34-.53,10.5,10.5,0,0,1,1,1.15Z"/><path class="cls-1" d="M272,54.51h1.21c.22.71.32,57.23.09,59.05H272Z"/><path class="cls-1" d="M379.81,69.15h-3.6V58.49h-3.38V55.11H383.2c.09,1,0,2.1,0,3.31h-3.38C379.8,62.06,379.86,65.56,379.81,69.15Z"/><path class="cls-1" d="M367.19,85.09h5.41c.09,1.12,0,2.19,0,3.24a62.83,62.83,0,0,1-9,.09v-14h3.55Z"/><path class="cls-1" d="M288.7,68.45l1.75-2.86.79.25a2.43,2.43,0,0,0,3.29-2.36c0-1.72,0-3.45-.06-5.18,0-1,0-2.08,0-3.19h3.59a7.66,7.66,0,0,1,.08.85c0,2.57.05,5.14,0,7.72a5.74,5.74,0,0,1-5.47,5.72A6.09,6.09,0,0,1,288.7,68.45Z"/><path class="cls-1" d="M418.51,69.2h-3.59V55.09h3.51a29,29,0,0,1,.07,3.49c0,1.18,0,2.36,0,3.54V69.2Z"/><path class="cls-1" d="M335.1,51c-.61.86-1.15,1.67-1.73,2.45a.91.91,0,0,1-.6.27c-.54,0-1.08,0-1.81,0,.47-1,.89-1.79,1.32-2.61a.56.56,0,0,1,.4-.26A6.72,6.72,0,0,1,335.1,51Z"/><path class="cls-1" d="M353.52,73.05c.48-.93.87-1.73,1.3-2.52a.71.71,0,0,1,.47-.3c.73,0,1.46,0,2.44,0-.72,1-1.3,1.87-1.91,2.68a.65.65,0,0,1-.45.16C354.81,73.06,354.25,73.05,353.52,73.05Z"/><path class="cls-3" d="M123.84,104.64l-2.6-1.73c-1-.67-1-.67-2,0l-2.59,1.73-.17-.13c.29-1,.57-2,.86-3,.34-1.19.35-1.19-.61-1.94L114,97.46c.44,0,.69-.1.93-.11l2.75,0c.92,0,.93,0,1.24-.88s.59-1.66.89-2.48c.09-.25.2-.49.37-.89.17.34.31.56.4.79.34.92.68,1.84,1,2.77a.89.89,0,0,0,1,.69c1.22,0,2.43,0,3.88,0-.32.35-.45.52-.61.66l-2.08,1.63c-.93.74-.93.74-.61,1.86s.58,2,.88,3Z"/><path class="cls-3" d="M114.26,75.77c1.27-.06,2.39-.15,3.5-.15a1.07,1.07,0,0,0,1.18-.85c.28-.87.6-1.72.91-2.58.09-.24.2-.47.4-.92l1,2.74c.1.29.23.57.31.86a.91.91,0,0,0,1,.74c1.14,0,2.29.1,3.6.16a5,5,0,0,1-.51.61c-.65.53-1.32,1.05-2,1.58-.89.71-.89.71-.56,1.86.24.81.48,1.62.71,2.43.05.18.08.37.17.79l-2.37-1.54c-1.69-1.09-1.19-1.08-2.88,0L116.52,83a4.94,4.94,0,0,1,.09-.76c.26-1,.52-1.89.83-2.82a1,1,0,0,0-.39-1.23c-.78-.59-1.54-1.21-2.3-1.83A4.24,4.24,0,0,1,114.26,75.77Z"/><path class="cls-3" d="M126.22,54.26c-.89.71-1.76,1.47-2.69,2.13a1.11,1.11,0,0,0-.48,1.46c.35,1,.63,2.13,1,3.36a5.25,5.25,0,0,1-.72-.3c-.83-.53-1.65-1.06-2.45-1.63a1,1,0,0,0-1.28,0c-.86.61-1.74,1.17-2.62,1.75a5,5,0,0,1-.49.23c.08-.4.12-.68.19-1,.23-.78.47-1.55.69-2.33.29-1,.29-1-.5-1.62L115,54.84a2.42,2.42,0,0,1-.7-.84h2.59c.34,0,.68,0,1,0a1,1,0,0,0,1-.77c.29-.9.62-1.78,1-2.67.08-.22.19-.42.34-.76a3.79,3.79,0,0,1,.39.64c.34.92.68,1.83,1,2.77a1,1,0,0,0,1.12.79c.88,0,1.76,0,2.64,0,.29,0,.59,0,.88,0Z"/></g></g></svg>