<svg xmlns="http://www.w3.org/2000/svg" viewBox="0 0 966.98 175.5"><defs><style>.cls-1{fill:#fff;}</style></defs><g id="Capa_2" data-name="Capa 2"><g id="Capa_1-2" data-name="Capa 1"><path class="cls-1" d="M97.11,25.8q25.81,25.8,25.81,62t-25.81,62q-25.8,25.75-61.94,25.75H0V0H35.17Q71.3,0,97.11,25.8ZM72.29,124.93A50.56,50.56,0,0,0,87.75,87.75,50.8,50.8,0,0,0,72.29,50.57Q56.82,35.06,35.17,35.06V140.34A50.72,50.72,0,0,0,72.29,124.93Z"/><path class="cls-1" d="M284.48,25.8q25.8,25.8,25.8,62t-25.8,62q-25.8,25.75-62,25.75t-62-25.75q-25.75-25.74-25.75-62T160.53,25.8Q186.27,0,222.53,0T284.48,25.8ZM185.35,50.57a50.9,50.9,0,0,0-15.41,37.18,50.66,50.66,0,0,0,15.41,37.18,52.56,52.56,0,0,0,74.36,0,50.49,50.49,0,0,0,15.51-37.18q0-21.66-15.51-37.18T222.53,35.06A50.49,50.49,0,0,0,185.35,50.57Z"/><path class="cls-1" d="M425.79,95.92V0H461V175.5l-105.28-96v96H320.51V0Z"/><path class="cls-1" d="M577.22,25.8Q603,51.6,603,87.75t-25.81,62q-25.8,25.75-61.94,25.75H480.11V0h35.17Q551.42,0,577.22,25.8ZM552.4,124.93a50.56,50.56,0,0,0,15.46-37.18A50.8,50.8,0,0,0,552.4,50.57a50.53,50.53,0,0,0-37.12-15.51V140.34A50.71,50.71,0,0,0,552.4,124.93Z"/><path class="cls-1" d="M720.17,0V35.06H650.06V70.22h52.58v35.06H650.06v35.06h70.11V175.5H614.89V0Z"/><path class="cls-1" d="M790.39,0h35.16V175.5H790.39Z"/><path class="cls-1" d="M844.06,122.81V0h61.4q25.38,0,43.44,18.07T967,61.4a59.1,59.1,0,0,1-11.16,35.22,60.79,60.79,0,0,1-28.47,22.16L967,175.5h-42.9l-44.85-64.23V175.5H844.06Zm61.4-35.06A26.39,26.39,0,0,0,931.81,61.4a25.45,25.45,0,0,0-7.73-18.56,25.28,25.28,0,0,0-18.62-7.78H879.23V87.75Z"/></g></g></svg>