<svg xmlns="http://www.w3.org/2000/svg" viewBox="0 0 1844.73 105.72"><defs><style>.cls-1{fill:#fff;}</style></defs><g id="Capa_2" data-name="Capa 2"><g id="Capa_1-2" data-name="Capa 1"><path class="cls-1" d="M63.42,0V21.12H21.18V42.3H52.86V63.42H21.18V84.54H63.42v21.18H0V0Z"/><path class="cls-1" d="M96.91,60.66a45.12,45.12,0,0,1-10.1-5.18,37.88,37.88,0,0,1-9.61-9.34q-4.26-5.8-4.27-14.46A30.52,30.52,0,0,1,82.25,9.31a31.59,31.59,0,0,1,44.79,0,30.51,30.51,0,0,1,9.31,22.37H115.24a10.56,10.56,0,0,0-21.12,0,9.51,9.51,0,0,0,4.56,8.55,29.2,29.2,0,0,0,6.91,3.58q1.13.39,6.07,1.84a43.56,43.56,0,0,1,10.43,4.78,36.84,36.84,0,0,1,9.87,9q4.39,5.67,4.39,14.53A30.58,30.58,0,0,1,127,96.41a31.59,31.59,0,0,1-44.79,0A30.59,30.59,0,0,1,72.93,74H94.12a10.56,10.56,0,0,0,21.12,0q0-6.69-5.35-8.66t-7.25-2.69C102,62.41,100.07,61.76,96.91,60.66Z"/><path class="cls-1" d="M192.63,0h26.43V21.12H192.63v84.6H171.45V21.12H145V0h47.61Z"/><path class="cls-1" d="M229.56,74V0h37a35.68,35.68,0,0,1,26.17,10.89A35.62,35.62,0,0,1,303.6,37a35.6,35.6,0,0,1-6.72,21.21,36.56,36.56,0,0,1-17.15,13.35l23.87,34.17H277.76L250.74,67v38.69H229.56Zm37-21.12a15.25,15.25,0,0,0,11.21-4.66A15.25,15.25,0,0,0,282.42,37a15.28,15.28,0,0,0-4.66-11.18,15.21,15.21,0,0,0-11.21-4.69H250.74V52.86Z"/><path class="cls-1" d="M397.85,0V63.42a40.67,40.67,0,0,1-12.43,29.9,42.21,42.21,0,0,1-59.77,0,40.72,40.72,0,0,1-12.4-29.9V0h21.18V63.42a21.12,21.12,0,0,0,42.24,0V0Z"/><path class="cls-1" d="M481.12,4.16A55.36,55.36,0,0,1,498,15.48l-15,15a30.83,30.83,0,0,0-22.43-9.31,30.39,30.39,0,0,0-22.39,9.34A30.65,30.65,0,0,0,429,52.86a30.53,30.53,0,0,0,9.28,22.4,31.65,31.65,0,0,0,44.82,0l15,15a54.79,54.79,0,0,1-16.89,11.37,52.64,52.64,0,0,1-57.85-11.34,50.91,50.91,0,0,1-15.51-37.35,51,51,0,0,1,15.51-37.32A52.63,52.63,0,0,1,481.12,4.16Z"/><path class="cls-1" d="M553.17,0H579.6V21.12H553.17v84.6H532V21.12H505.56V0h47.61Z"/><path class="cls-1" d="M674.7,0V63.42a40.67,40.67,0,0,1-12.43,29.9,42.21,42.21,0,0,1-59.77,0,40.72,40.72,0,0,1-12.4-29.9V0h21.18V63.42a21.12,21.12,0,0,0,42.24,0V0Z"/><path class="cls-1" d="M684.61,74V0h37a35.68,35.68,0,0,1,26.17,10.89A35.59,35.59,0,0,1,758.66,37a35.54,35.54,0,0,1-6.73,21.21,36.51,36.51,0,0,1-17.15,13.35l23.88,34.17H732.82L705.8,67v38.69H684.61Zm37-21.12A15.89,15.89,0,0,0,737.47,37a15.31,15.31,0,0,0-4.65-11.18,15.24,15.24,0,0,0-11.22-4.69H705.8V52.86Z"/><path class="cls-1" d="M796.18,90.63l-6.82,15.09H766.8L812.05,4.92,814.28,0l2.29,5,45.32,100.74H839.26l-6.75-15.15-.33-.72H796.5Zm26.43-21.9-8.27-18.49L806,68.73Z"/><path class="cls-1" d="M957.39,15.54a50.91,50.91,0,0,1,15.54,37.32,50.86,50.86,0,0,1-15.54,37.35,50.94,50.94,0,0,1-37.32,15.51H898.89V0h21.18A50.89,50.89,0,0,1,957.39,15.54ZM942.44,75.26a30.48,30.48,0,0,0,9.31-22.4,30.61,30.61,0,0,0-9.31-22.4,30.44,30.44,0,0,0-22.37-9.34V84.54A30.58,30.58,0,0,0,942.44,75.26Z"/><path class="cls-1" d="M1043.51,0V21.12h-42.24V42.3H1033V63.42h-31.68V84.54h42.24v21.18H980.09V0Z"/><path class="cls-1" d="M1074.21,0V84.54h42.23v21.18H1053V0Z"/><path class="cls-1" d="M1210.3,68.73,1261.85,0V105.72h-21.18V63.42L1210.3,104l-30.36-40.59v42.3h-21.19V0Z"/><path class="cls-1" d="M1356.1,0V63.42a40.67,40.67,0,0,1-12.43,29.9,42.21,42.21,0,0,1-59.77,0,40.72,40.72,0,0,1-12.4-29.9V0h21.18V63.42a21.12,21.12,0,0,0,42.24,0V0Z"/><path class="cls-1" d="M1429.43,57.78V0h21.19V105.72L1387.2,47.88v57.84H1366V0Z"/><path class="cls-1" d="M1462.17,0h21.18V105.72h-21.18Z"/><path class="cls-1" d="M1567.86,4.16a55.19,55.19,0,0,1,16.88,11.32l-15,15a30.85,30.85,0,0,0-22.43-9.31,30.43,30.43,0,0,0-22.4,9.34,30.69,30.69,0,0,0-9.28,22.4,30.56,30.56,0,0,0,9.28,22.4,31.66,31.66,0,0,0,44.83,0l15,15a54.63,54.63,0,0,1-16.88,11.37A52.64,52.64,0,0,1,1510,90.21a50.91,50.91,0,0,1-15.51-37.35A51,51,0,0,1,1510,15.54a52.63,52.63,0,0,1,57.85-11.38Z"/><path class="cls-1" d="M1592.29,0h21.19V105.72h-21.19Z"/><path class="cls-1" d="M1624.63,74V0h37a35.66,35.66,0,0,1,26.16,10.89A35.59,35.59,0,0,1,1698.67,37a35.54,35.54,0,0,1-10.89,26.13A35.71,35.71,0,0,1,1661.62,74h-15.81v31.74h-21.18Zm37-21.12a15.25,15.25,0,0,0,11.21-4.66A15.25,15.25,0,0,0,1677.49,37a15.28,15.28,0,0,0-4.66-11.18,15.21,15.21,0,0,0-11.21-4.69h-15.81V52.86Z"/><path class="cls-1" d="M1706.68,0h21.18V105.72h-21.18Z"/><path class="cls-1" d="M1829.19,15.54a50.91,50.91,0,0,1,15.54,37.32,50.86,50.86,0,0,1-15.54,37.35,52.68,52.68,0,0,1-74.66,0A50.91,50.91,0,0,1,1739,52.86a51,51,0,0,1,15.51-37.32,52.61,52.61,0,0,1,74.66,0Zm-59.71,14.92a30.65,30.65,0,0,0-9.28,22.4,30.53,30.53,0,0,0,9.28,22.4,31.66,31.66,0,0,0,44.79,0,30.44,30.44,0,0,0,9.35-22.4,30.57,30.57,0,0,0-9.35-22.4,31.52,31.52,0,0,0-44.79,0Z"/></g></g></svg>