<svg xmlns="http://www.w3.org/2000/svg" viewBox="0 0 917.97 161.85"><defs><style>.cls-1{fill:#fff;}</style></defs><g id="Capa_2" data-name="Capa 2"><g id="Capa_1-2" data-name="Capa 1"><path class="cls-1" d="M97.09,0V32.33H32.43V64.76H80.92V97.09H32.43v32.33H97.09v32.43H0V0Z"/><path class="cls-1" d="M182,161.85l-3.42-7.63L109.34,0h34.23l38.36,85.24L220.28,0h34.64Z"/><path class="cls-1" d="M358.43,0V32.33H293.77V64.76h48.5V97.09h-48.5v32.33h64.66v32.43H261.34V0Z"/><path class="cls-1" d="M470.08,88.45V0h32.43V161.85L405.42,73.29v88.56H373V0Z"/><path class="cls-1" d="M593.07,0h40.46V32.33H593.07V161.85H560.64V32.33H520.18V0h72.89Z"/><path class="cls-1" d="M787.65,23.8q23.79,23.79,23.79,57.12T787.65,138.1q-23.8,23.75-57.13,23.75T673.34,138.1q-23.75-23.75-23.75-57.18T673.34,23.8Q697.08,0,730.52,0T787.65,23.8ZM696.23,46.64A46.93,46.93,0,0,0,682,80.92a46.73,46.73,0,0,0,14.21,34.29,48.48,48.48,0,0,0,68.58,0,46.58,46.58,0,0,0,14.3-34.29,46.78,46.78,0,0,0-14.3-34.28,48.24,48.24,0,0,0-68.58,0Z"/><path class="cls-1" d="M857.58,92.87a68.94,68.94,0,0,1-15.47-7.93A58.18,58.18,0,0,1,827.4,70.63q-6.52-8.88-6.52-22.14a46.68,46.68,0,0,1,14.25-34.23,48.36,48.36,0,0,1,68.58,0A46.69,46.69,0,0,1,918,48.49H885.64a16.29,16.29,0,0,0-16.17-16.16,16.2,16.2,0,0,0-16.16,16.16q0,8.64,7,13.11t10.59,5.47q1.71.6,9.29,2.81a67,67,0,0,1,16,7.33A56.17,56.17,0,0,1,911.24,91Q918,99.71,918,113.25a46.82,46.82,0,0,1-14.26,34.34,48.36,48.36,0,0,1-68.58,0,46.81,46.81,0,0,1-14.25-34.34h32.43a16.17,16.17,0,0,0,32.33,0q0-10.23-8.18-13.25t-11.1-4.12Q864.86,95.39,857.58,92.87Z"/></g></g></svg>