<svg xmlns="http://www.w3.org/2000/svg" viewBox="0 0 44.46 44.46"><defs><style>.cls-1{fill:#fff;}</style></defs><g id="Capa_2" data-name="Capa 2"><g id="Capa_1-2" data-name="Capa 1"><path class="cls-1" d="M39.7,0H4.76A4.76,4.76,0,0,0,0,4.76V39.7a4.76,4.76,0,0,0,4.76,4.76H18.39V29.35H12.13V22.23h6.26V16.81c0-6.17,3.67-9.58,9.29-9.58a37.78,37.78,0,0,1,5.51.48v6.06h-3.1c-3.06,0-4,1.9-4,3.84v4.62H32.9l-1.09,7.12H26.08V44.46H39.7a4.76,4.76,0,0,0,4.76-4.76V4.76A4.76,4.76,0,0,0,39.7,0Z"/></g></g></svg>