<svg xmlns="http://www.w3.org/2000/svg" viewBox="0 0 147.68 733.98"><defs><style>.cls-1{isolation:isolate;}.cls-2{fill:#f2f2f2;}.cls-3{fill:#d1c9c3;}.cls-4{fill:#b51c32;}.cls-5{fill:#dbd3ce;mix-blend-mode:darken;opacity:0.5;}.cls-6{fill:#a01a33;}</style></defs><g class="cls-1"><g id="Capa_2" data-name="Capa 2"><g id="Capa_1-2" data-name="Capa 1"><polygon class="cls-2" points="132.43 65.69 15.34 65.69 0 733.98 147.68 733.98 132.43 65.69"/><path class="cls-3" d="M75,71.4h0a27.13,27.13,0,0,1,27.13,27.13v59.74a0,0,0,0,1,0,0H47.86a0,0,0,0,1,0,0V98.53A27.13,27.13,0,0,1,75,71.4Z"/><path class="cls-4" d="M5,107.84V165H145V107.84Zm30.61,39.73a7.87,7.87,0,0,1-7.87,7.87h0a7.87,7.87,0,0,1-7.87-7.87V125.23a7.87,7.87,0,0,1,7.87-7.87h0a7.87,7.87,0,0,1,7.87,7.87Zm31.49,0a7.88,7.88,0,0,1-15.75,0V125.23a7.88,7.88,0,0,1,15.75,0Zm31.48,0a7.87,7.87,0,1,1-15.74,0V125.23a7.87,7.87,0,1,1,15.74,0Zm31.49,0a7.88,7.88,0,0,1-15.75,0V125.23a7.88,7.88,0,0,1,15.75,0Z"/><path class="cls-4" d="M135,47V31.42L83.55,0h-20L15,28.56V45.63L3.59,48.55v20h142.8V51.41Z"/><polygon class="cls-4" points="10.84 271.61 137.31 271.61 140.08 388.41 8.07 388.41 10.84 271.61"/><polygon class="cls-4" points="5.31 505.9 142.15 505.9 144.91 622.7 2.54 622.7 5.31 505.9"/><path class="cls-4" d="M74.07,228.76h0A7.95,7.95,0,0,1,82,236.71v30.06a0,0,0,0,1,0,0H66.13a0,0,0,0,1,0,0V236.71A7.95,7.95,0,0,1,74.07,228.76Z"/><path class="cls-2" d="M74.07,343.49h0A7.95,7.95,0,0,1,82,351.44V381.5a0,0,0,0,1,0,0H66.13a0,0,0,0,1,0,0V351.44a7.95,7.95,0,0,1,7.95-7.95Z"/><path class="cls-4" d="M74.07,461h0A7.95,7.95,0,0,1,82,468.93V499a0,0,0,0,1,0,0H66.13a0,0,0,0,1,0,0V468.93A7.95,7.95,0,0,1,74.07,461Z"/><path class="cls-2" d="M74.07,577.78h0A7.95,7.95,0,0,1,82,585.73v30.06a0,0,0,0,1,0,0H66.13a0,0,0,0,1,0,0V585.73a7.95,7.95,0,0,1,7.95-7.95Z"/><polygon class="cls-5" points="12.76 177.91 116.58 177.62 127.24 733.98 147.68 733.98 134.69 164.96 12.76 164.96 12.76 177.91"/><polygon class="cls-6" points="118.38 271.61 120.62 388.41 139.79 388.41 137.13 271.61 118.38 271.61"/><polygon class="cls-6" points="126.49 622.7 144.91 622.7 142.15 505.9 124.25 505.9 126.49 622.7"/><polygon class="cls-5" points="15.09 76.33 114.5 76.02 115.69 164.96 133.17 164.96 132.49 68.54 15.09 68.54 15.09 76.33"/><polygon class="cls-6" points="60.73 1.66 122.8 33.17 122.8 52.53 135.93 56.67 135.93 68.54 146.3 68.54 146.3 51.14 134.89 47.34 134.89 31.45 84.3 0.45 63.71 0.35 60.73 1.66"/></g></g></g></svg>