<svg xmlns="http://www.w3.org/2000/svg" viewBox="0 0 2124.77 514.05"><defs><style>.cls-1{isolation:isolate;}.cls-2{mix-blend-mode:overlay;}.cls-3{fill:#566e3e;}.cls-4{fill:#668944;}.cls-5{fill:#63442b;}.cls-6{fill:#95693f;}.cls-7{fill:#93ad3f;}.cls-8{fill:#4f3522;}.cls-9{fill:#755032;}.cls-10{fill:#7f5737;}.cls-11{fill:#66442d;}</style></defs><g class="cls-1"><g id="Capa_2" data-name="Capa 2"><g id="Capa_1-2" data-name="Capa 1"><g class="cls-2"><path class="cls-3" d="M1933.42,292.21a13.2,13.2,0,0,1,3.72-6.54q7.83,22.69,14.63,45.71l11.76-32.82,4.55,8.47q-1-20.5-2-41l13.29,15a406.85,406.85,0,0,0-16.81-51.79,51.38,51.38,0,0,1,14.5,11.9q-6-26.26-11.92-52.53c-2.15-9.46-4.53-19.38-11.07-26.55-17.09-18.76-48.6-5.72-50.11,18.9-.58,9.4,3.26,19.23,3.58,28.75a147.06,147.06,0,0,0,7,40.15c4.74,14.75,11.37,28.85,18.81,42.42Z"/><path class="cls-4" d="M2003.25,117.06c18.32,5,35.37,15.27,47.49,29.9,19.79,23.9,24.72,56.51,27.26,87.44,1.79,21.78,2.77,43.76,0,65.43q-5.55-11.74-11.08-23.5-1.5,9.75-3,19.49-9.37-24.3-19.46-48.32l-11.16,19.2A48.55,48.55,0,0,0,2030.8,253l-12.15,17.17a425.79,425.79,0,0,0-9-54.64L1996.94,227a30.68,30.68,0,0,0-6.84-11.6l-8.91,10.94c1-1.29-29.1-26.37-31.85-28.74-11-9.44-21.85-19.27-30.32-31.1-6.33-8.85-14.83-21.91-8-32.7s23.69-15.58,35.19-18c18.75-3.91,38.58-3.89,57.09,1.22"/><path class="cls-4" d="M1803.25,218.13c-.29-28.34,9-58.15,30.83-76.24,19.78-16.4,47.09-21,72.71-19.11,8.1.61,17,2.28,21.93,8.73,3.26,4.26,4.13,9.85,4.55,15.21a125.64,125.64,0,0,1-1.89,33.58c-2.57,13.29-7.27,26.06-12,38.76L1906,255.43a201.86,201.86,0,0,0-25.59-18.81,76.62,76.62,0,0,0-2.25,17.26,29.65,29.65,0,0,0-9.15-7.4,416.21,416.21,0,0,1-3.8,50.74,108.12,108.12,0,0,0-25.89-18.89q-1,12.18-2,24.35c-2.11-4.32-7.44-16.9-9.54-21.21,1.55,1.55-2.57,30.38-4.16,35.2-6.29-6.81-10.92-21.46-12.29-31.32-3.1-22.24-7.83-44.56-8.07-67.22"/><path class="cls-5" d="M1878.59,513.63s-5-106.66,1.82-167.3c13.82-123.7,49.14-204.44,49.14-204.44h20.18s-37,156.43-36.63,208.58c.67,95,27.38,163.16,27.38,163.16h-61.89"/><path class="cls-6" d="M1905.36,385a17.2,17.2,0,0,0-6.26-1.28,38.1,38.1,0,0,0-6.41.2,31.19,31.19,0,0,0-11.74,3.77,26,26,0,0,0-3.44,2.34c-.33,9.48-.52,19.19-.61,28.79l6.86-5.35a40.09,40.09,0,0,1,9.9-6.18,20.35,20.35,0,0,1,12-.57,45.85,45.85,0,0,1,11.38,4.53q-.9-7.37-1.63-15.12c-1.46-2.08-3-4.11-4.55-6.09s-3.16-4-5.49-5"/><path class="cls-6" d="M1904.51,305.44c-1.8-.69-3.3-.2-4.94.68a169.9,169.9,0,0,0-15.12,9.26q-.5,3.31-1,6.68a16.77,16.77,0,0,1,5.25-2.15,13.87,13.87,0,0,1,11.12,2.49,35.21,35.21,0,0,1,7.72,8.47c2,2.81,3.94,5.65,5.9,8.49.51-7.92,1.5-17.16,2.86-27.23-2.29-1.52-4.65-2.95-7.06-4.27a41.06,41.06,0,0,0-4.77-2.42"/><path class="cls-6" d="M1885.63,354.61c5.91-4,13.18-9.07,20.72-6.9a18.68,18.68,0,0,1,5.2,2.66l1.56,1.1c0-.27,0-.53,0-.8,0-2.15,0-4.48.14-7-2.78-4-5.52-8.09-8.37-12.06a28.13,28.13,0,0,0-7.08-7.43,11.17,11.17,0,0,0-9.94-1.29,16.09,16.09,0,0,0-4.86,2.74q-1.38,10.21-2.59,20.87c-.44,4-.83,8.12-1.18,12.43l6.41-4.35"/><path class="cls-6" d="M1909.23,384.32a31.16,31.16,0,0,1,4.59,5.21c.39.49.75,1,1.13,1.49q-.57-6.75-1-13.76l-.39-.2-12.22-6.29-6.16-3.17a24.67,24.67,0,0,0-5.46-2.29c-3.6-.87-7.12.74-9.68,3.25a18,18,0,0,0-1.64,1.86c-.31,5.27-.57,10.69-.78,16.21a34.59,34.59,0,0,1,19.11-5.64c4.36,0,9,.47,12.48,3.33"/><path class="cls-6" d="M1936.48,201.68c1.11-5.21,2.18-10.23,3.22-15a38.49,38.49,0,0,0-6.18-3.36,15.75,15.75,0,0,0-8.12-1.51c-4.67.58-8.72,3.55-12.33,6.5-.61,2-1.23,4-1.85,6.06a79.07,79.07,0,0,1,10,.73c5.56.77,11.18,2.75,15.28,6.57Z"/><path class="cls-6" d="M1900,439.07c-2.55-.74-5.08-1.53-7.61-2.35a51.13,51.13,0,0,0-7.18-2,12.86,12.86,0,0,0-8.35,1.08c0,11.27.16,22.11.34,31.93l6.77-3.38,13.24-6.62a131.26,131.26,0,0,1,12.68-6c3.78-1.41,8.05-2.05,11.89-.51a13.56,13.56,0,0,1,1.87.93c-.5-2.45-1-5-1.46-7.54-2.28-.51-4.55-1-6.82-1.56-5.15-1.21-10.29-2.52-15.37-4"/><path class="cls-6" d="M1904.33,350c-3.3-.52-6.68.65-9.59,2.12a86.69,86.69,0,0,0-9.5,6l-6.28,4.25q-.14,1.9-.27,3.84c.22-.2.45-.4.69-.59a12.78,12.78,0,0,1,11.41-2.78,31.19,31.19,0,0,1,6,2.6l6.4,3.29,10.62,5.47q-.49-9.49-.65-19.42c-1.3-.95-2.61-1.89-4-2.76a12.68,12.68,0,0,0-4.86-2"/><path class="cls-6" d="M1921.68,209.25a45.94,45.94,0,0,1,5.91-1.85,6.83,6.83,0,0,1,5.45,1.31,19.43,19.43,0,0,1,1.69,1.3l1.09-5.21a18.67,18.67,0,0,0-5.32-4.13c-5.5-2.93-11.88-3.35-18-3.55l-2.09-.08q-2.49,8.37-5.08,17.87,5.28-1.91,10.58-3.72l5.76-1.94Z"/><path class="cls-6" d="M1930.51,210.27c-1.59-.8-3.31,0-4.86.47Q1915,214.24,1904.5,218q-.95,3.54-1.9,7.21a20,20,0,0,1,9,3.63,65.41,65.41,0,0,1,9.61,8.84q3.36,3.54,6.52,7.24c2.11-10.91,4.28-21.69,6.41-31.94a15.45,15.45,0,0,0-3.6-2.74Z"/><path class="cls-6" d="M1885.42,432.12a48.29,48.29,0,0,1,7.66,2c2.65.86,5.3,1.68,8,2.46,6.8,1.95,13.68,3.61,20.59,5.16-1.54-8.48-3-17.59-4.21-27.24-1-.59-2-1.15-3.07-1.68a39.07,39.07,0,0,0-10.73-3.83,17.07,17.07,0,0,0-10.6,1.42,53,53,0,0,0-9.09,6.23l-7.08,5.52c0,3.59,0,7.17,0,10.7a16.57,16.57,0,0,1,8.58-.77"/><path class="cls-6" d="M1925.16,156.7a38.3,38.3,0,0,1,8.45-2.48,47.85,47.85,0,0,1,8.53-.81,30.49,30.49,0,0,1,4.84.4c1.72-7.54,2.76-11.92,2.76-11.92h-20.19s-2.38,5.45-6.15,15.67c.58-.31,1.16-.6,1.76-.86"/><path class="cls-6" d="M1915.68,484.05q8.88,3.22,17.46,7.23c-2.66-9.21-5.73-21-8.66-34.94a9.51,9.51,0,0,0-5.56-3.17c-3.78-.76-7.75.75-11.13,2.32-4.12,1.92-8.16,4.05-12.23,6.08l-18.32,9.16c.09,4.34.19,8.46.29,12.32a26.78,26.78,0,0,1,4.37-2.46c11-4.82,23.23-.37,33.78,3.46"/><path class="cls-6" d="M1929.28,492.63q-7.79-3.51-15.83-6.35a86.52,86.52,0,0,0-16.44-4.59c-5.27-.77-10.69-.33-15.44,2.22a30.45,30.45,0,0,0-4,2.58c.46,16.72,1,27.56,1,27.56h61.9s-2.68-6.83-6.35-19.15q-2.42-1.17-4.86-2.27"/><path class="cls-6" d="M1933.1,157.22a27.3,27.3,0,0,0-11.2,4.66c-.6,1.68-1.23,3.45-1.89,5.33a43.69,43.69,0,0,1,8-.31,21.93,21.93,0,0,1,7.68,1.61,14.3,14.3,0,0,1,5.44,4.56c.39.49.79,1,1.22,1.52,1.53-6.93,2.9-13,4-18a36.9,36.9,0,0,0-13.29.63Z"/><path class="cls-6" d="M1939.24,175a12.52,12.52,0,0,0-5-4.17,21.23,21.23,0,0,0-7.37-1.26,40.69,40.69,0,0,0-7.88.54q-2.15,6.27-4.57,13.85a36.54,36.54,0,0,1,3.44-2.21,19.31,19.31,0,0,1,8.25-2.61,19.63,19.63,0,0,1,9.13,2.12,37.86,37.86,0,0,1,5,2.7c.47-2.14.92-4.21,1.37-6.23a22.66,22.66,0,0,1-2.43-2.73Z"/><path class="cls-6" d="M1903.1,253a67.82,67.82,0,0,1,12.58-3.56,15.55,15.55,0,0,1,6.62,0,13.72,13.72,0,0,1,4.16,1.93l.6-3.14c-2.72-3.23-5.54-6.39-8.47-9.43a54.52,54.52,0,0,0-9-8.15,17.09,17.09,0,0,0-7.62-2.88q-3.43,13.49-6.79,28.78a74.63,74.63,0,0,1,7.95-3.59Z"/><path class="cls-6" d="M1899.38,265.07a19.8,19.8,0,0,1,5.4,2.2q2.74,1.37,5.46,2.78,5.9,3.07,11.68,6.35c1.26-7.27,2.6-14.67,4-22.06a12.72,12.72,0,0,0-2.17-1.43c-3.43-1.79-7.12-1-10.7-.16a71.56,71.56,0,0,0-18.63,7.32q-.66,3.09-1.31,6.24a9.48,9.48,0,0,1,6.28-1.24Z"/><path class="cls-6" d="M1911.14,284.86a22.74,22.74,0,0,1,7.93,8.69q1.11-7.05,2.36-14.35c-.8-.46-1.6-.93-2.41-1.38-3.42-1.91-6.87-3.78-10.35-5.58q-2.61-1.37-5.24-2.67a15.49,15.49,0,0,0-4.82-1.94c-2.36-.29-4.56.93-6.29,2.53-1.06,5.29-2.11,10.71-3.11,16.27,7-3.07,14.88-5.75,21.93-1.57Z"/><path class="cls-6" d="M1890,308.62q2.57-1.59,5.19-3.1a31.71,31.71,0,0,1,5.24-2.71,7.52,7.52,0,0,1,5.75.47c1.79.81,3.54,1.77,5.25,2.74s3.56,2.07,5.29,3.19q.75-5.46,1.63-11.18a40.79,40.79,0,0,0-3-5.4,17.29,17.29,0,0,0-6.69-6.07c-3.47-1.66-7.43-1.4-11.05-.43a57,57,0,0,0-9,3.46q-1.92,10.8-3.67,22.26,2.51-1.65,5-3.23Z"/><path class="cls-7" d="M1816.27,180.36c-14.89,17.92-25,39.47-31.64,61.8s-10.05,45.5-12.61,68.66q12.17-23.37,24.34-46.72a110,110,0,0,0-3.6,36.92c3.93-5.91,5.88-12.88,8-19.66a361.76,361.76,0,0,1,34.17-77.17c-2.76,22.41-5.53,45-3.32,67.51l6.57-30.67q1.23,6.74,2.44,13.49A275.92,275.92,0,0,1,1860.88,195a68.71,68.71,0,0,0,7.08,31.33q4.38-12.92,8.74-25.83l.45,20.93A301.21,301.21,0,0,1,1896,168.77a142.37,142.37,0,0,0,14.9,43.52c-.94-1.76,10.11-19.28,11.38-22q5.22-11.23,9.48-22.89c3.72-10.19,9.32-24.4-1.47-32.45-9.63-7.19-26.48-2.86-37.14-.56a141,141,0,0,0-39.66,15.08,134.2,134.2,0,0,0-37.22,30.89"/><path class="cls-7" d="M2065.24,165.9c33.66,28.44,54.4,70.79,59.53,114.55l-22.15-50.53a281.06,281.06,0,0,1-4.25,51.55q-8.52-28.82-14.16-58.38L2081.72,251A300.68,300.68,0,0,0,2063.6,191l-2.67,56.82q-5-17.61-11.07-34.89.82,12.72,1.64,25.44c-6.62-23.86-13.48-48.24-27.7-68.5a114.4,114.4,0,0,1,3.87,34.35,264.83,264.83,0,0,1-15.19-22.37,82.55,82.55,0,0,1,4.18,26.73q-16.23-28.73-32.45-57.47,3.3,14.15,6.58,28.29-11.85-12.74-24.58-24.63,4.17,11.37,8.33,22.76c-2.37-5.17-12.33-11-16.65-14.91-5.83-5.22-12.22-10.17-17.64-15.8-11.93-12.42,2.87-14.13,13.69-15.43,25.39-3,51.43,1.44,74.77,11.72a151,151,0,0,1,36.53,22.76Z"/><path class="cls-7" d="M1885.33,124.3c-1.15-1.2-2.34-2.7-2.09-4.35a5.56,5.56,0,0,1,2-3c19.47-18.23,50.72-22.48,74.34-10.1,3.55,1.86,7,4.12,9.39,7.34s3.55,7.56,2.21,11.33-4.68,6.19-8.06,8.13c-23.53,13.57-58.61,10.57-77.79-9.34"/><path class="cls-3" d="M1360,77.68a162.56,162.56,0,0,0-61.16-31.85c2.92,4.2,7.38,7,11.73,9.71l-18.13-1a70.07,70.07,0,0,1,15,9.3,102.06,102.06,0,0,0-30.22-.63,45.79,45.79,0,0,1,8.35,6.18,18.46,18.46,0,0,0-12.16,3.27,10.62,10.62,0,0,1,4.14,4.49l-3.38.68c4.22,8.68,13.84,13,22.54,17.21a271.36,271.36,0,0,1,36,20.74,178.3,178.3,0,0,0-46.53,17.45,36.89,36.89,0,0,0,9.89.62,38.22,38.22,0,0,0-7.91,5.5l7.36,1.3-4.81,3.7c8.43-.25,16.51,3,24.57,5.47,21.85,6.69,44.93,7.9,67.75,9.06a15.21,15.21,0,0,0,5.75-.44c3-1,5.13-3.87,6.11-6.9,2.28-7.1-.75-14.72-3.89-21.48a451.14,451.14,0,0,0-24.1-45L1360,77.68Z"/><path class="cls-3" d="M1434.8,107.51a64.65,64.65,0,0,0-10.48,17.92c11.2-13.42,22.63-27,37.2-36.7a127.82,127.82,0,0,0-15.63,21.63A129,129,0,0,1,1489,79.82a113.51,113.51,0,0,0-13.06,14.73q10.77-6.1,21.6-12.12c6.32-3.51,12.92-7.09,20.14-7.52l-19.21,18.57c16.31-7.06,33.5-14.27,51.19-12.6q-11.64,6.54-22.73,14a199.57,199.57,0,0,1,48.86-3,231.56,231.56,0,0,0-35.1,11.5,231.07,231.07,0,0,1,48.11,1.7l-31.54,9,44.33,3.69c-16.06,3.29-30.49,12.44-46.61,15.44-18.85,3.5-38.12-1.69-57.28-2.48a125.5,125.5,0,0,0-59,12.27c-5.14,2.46-18.23,14-23.59,12.4-6.28-1.84-5.09-13.17-3.3-17.5,4.61-11.24,15.09-21.38,23-30.41Z"/><path class="cls-3" d="M1384.39,38.5a22.4,22.4,0,0,0-2.05,8.39A44.07,44.07,0,0,1,1407.58,36a34.77,34.77,0,0,0-7,13.25,27,27,0,0,1,8.86-4.79,37.66,37.66,0,0,0-4.36,11.61,49,49,0,0,0,10.49-6.2,70.7,70.7,0,0,0-9.09,25.76c5.53-7.26,12.38-15.21,21.5-15.29-6.93,10.26-14,21-15.64,33.29a67.83,67.83,0,0,1,14.83-14.9,73.22,73.22,0,0,0-10.84,22.66q6-6.07,12-12.16a134.05,134.05,0,0,0-12,22.78,37.81,37.81,0,0,0,9.48-10.9,147,147,0,0,0-15.57,48.67c-.84,6.11-1.33,12.45-4.18,17.92a3,3,0,0,1-1.76,1.78c-1.62.4-2.71-1.58-3.16-3.18-1.89-6.73-3.34-13.58-5.52-20.22-2.74-8.35-6.61-16.28-10.47-24.17-8.33-17-17.4-33.91-25.06-51.27-3.46-7.85.87-12.49,6.33-18.44,1.95-2.13,17.9-12.52,18-13.69Z"/><path class="cls-4" d="M1358.66,134l15.13,13.56a259.66,259.66,0,0,0-47.23-15.47q13,7.41,25.42,15.83a295.51,295.51,0,0,0-52.27-9.72l31.4,14.38a173.53,173.53,0,0,0-61.61.47c1.5,2.55,4.68,3.48,7.55,4.19l30.72,7.57a268.87,268.87,0,0,0-64.68,14.13q18.73,1.71,37.54,2.32a173.12,173.12,0,0,0-59.45,25.23q19.27-3.36,38.7-5.87a141.4,141.4,0,0,0-45.48,29.85q20.94-10.16,41.5-21a82.64,82.64,0,0,0-32.33,31.24l47.75-37.25a79.92,79.92,0,0,0-15.5,26.08l34.26-39.5-19.62,35.27,36.1-43.85-19.63,34.32c6.94-5.49,12.23-12.74,17.43-19.89L1321.7,172q-9,17.81-18,35.6a305.24,305.24,0,0,1,35.63-44.51l-22.56,37.78c10.37-13.54,20.84-27.19,33.73-38.37a136,136,0,0,1-16,25.76c12-6.5,19-20.35,31.43-26a67.9,67.9,0,0,0-14.43,16,153.76,153.76,0,0,1,30.75-16.69,108.5,108.5,0,0,0-20.68,16q13.47-6.69,27.5-12.17A31,31,0,0,0,1377.14,176c2.15-3.36,17.17-6,21.1-7-1.46,1.35-3.08,2.55-4.54,3.89,15.7-2.55,6.56-13.1-1.59-19.12A190.38,190.38,0,0,0,1358.66,134Z"/><path class="cls-6" d="M1456.07,502.88c-1.39-2.05-30.28-24.69-48-70.81-15.56-40.49-18.31-92.15-20.23-144.69-2-55.41,10.55-121.55,10.55-121.55l13.78,4.28s-10.72,48.77-5.79,109.85c3.92,48.6,13.94,106.24,34.05,135.31,15.4,22.26,57.34,45.42,57.34,45.42s-1.27,17.89-15,24.84l-26.71,17.35"/><path class="cls-4" d="M1424,128.91a59.19,59.19,0,0,0-4.58,18.27,110.25,110.25,0,0,1,32.17-32.29q-6,10.47-12.09,20.93c13.48-11.88,27.81-24.21,45.4-27.87a101.51,101.51,0,0,0-16.39,17.14,115.39,115.39,0,0,1,48.42-12,88.24,88.24,0,0,0-20.93,9.33c18.52-2.23,37.64-4.43,55.54.82a36.87,36.87,0,0,0-17.86.75,142.82,142.82,0,0,1,44.16,8.32l-28-.1c18.85,6,38.26,12.37,53.29,25.26A145.7,145.7,0,0,1,1566,145.3,53.32,53.32,0,0,1,1579.1,164a169.28,169.28,0,0,0-31.39-19.22,100.66,100.66,0,0,1,16,24.23q-23.13-16.09-47.67-30a109.83,109.83,0,0,1,21.27,23.2,360.54,360.54,0,0,0-44.74-26,134.51,134.51,0,0,1,27.22,27,298.54,298.54,0,0,0-57.13-21.84,154.58,154.58,0,0,1,35.53,21.42q-23.51-8.35-47.43-15.52c10.29,4.77,20.63,9.57,30,16a454.49,454.49,0,0,0-44.18-11.56,222.9,222.9,0,0,1,28.68,15.82,234.71,234.71,0,0,0-46.83-11.92,145.42,145.42,0,0,1,28,12.46,276.94,276.94,0,0,0-35.75-.24l16.45,3.33c-9,1.39-29.64,9.22-26.44-8,1.17-6.28,6.25-12.61,9.83-17.74s11.22-11,13.61-16.58"/><path class="cls-4" d="M1390.25,152a264.53,264.53,0,0,0-53.59-55.49q1.18,3.6,2.35,7.21-12.79-8.41-26.34-15.6,3,3.43,5.92,6.88a163.88,163.88,0,0,0-34.54-15.47l13.72,8.76a274.4,274.4,0,0,0-44-2.93L1265.66,92a95.42,95.42,0,0,0-24.93,6.8,122.64,122.64,0,0,1,28.35,5.38,68.1,68.1,0,0,0-18.22,12.38q17.61.16,35.21-.83l-14,9.39c18.59,0,36.73-11,54.91-7.09a85.67,85.67,0,0,0-20.73,12.41,136.09,136.09,0,0,1,40.24-7.68,52,52,0,0,0-21.39,12.41,114.62,114.62,0,0,1,32.27-5.79,97,97,0,0,0-26.51,17.13c10.51-3.44,21.22-6.93,32.28-6.92a52.72,52.72,0,0,1,35.42,13.91c.53.49,1.09,1.25.71,1.87s-1.47-.54-.75-.61l-8.3-2.77Z"/><path class="cls-7" d="M1402.17,166.33A166.3,166.3,0,0,1,1375,139.71l22,13c-18.23-10.72-31.32-28.18-43.81-45.25q15.72,14.13,32.67,26.79a273.92,273.92,0,0,1-37.19-45l26.51,22.73q-16.87-17.81-32.15-37a277.59,277.59,0,0,1,22.28,16.81,445.54,445.54,0,0,1-30.84-36.26,166.22,166.22,0,0,0,17.87,13.37l-19.65-23.4q12,7.2,23.23,15.44a282.61,282.61,0,0,0-20.49-26.65,150.37,150.37,0,0,1,25.22,29.34A83.22,83.22,0,0,1,1356.61,40q5.72,17.72,11.44,35.42A67.16,67.16,0,0,1,1371,52.93l5.37,39c.54-9.8,2-21.22,10.48-26.19a132.93,132.93,0,0,0-7.3,37.81,98.27,98.27,0,0,1,13.83-23.16,279.59,279.59,0,0,0-10.28,36.43,57.39,57.39,0,0,1,13.28-18.27,94.92,94.92,0,0,0-7.39,28.73,52,52,0,0,1,11.37-14,202.48,202.48,0,0,0-8.36,24.57q6.09-7.43,12.2-14.84l-6.4,24.82c4.2-6,8.6-12.26,15-16-3,6.36-6,12.78-7.5,19.66s-1.23,14.36,2.07,20.57l-5.14-5.74Z"/><path class="cls-7" d="M1418.82,166.72a186.58,186.58,0,0,1,43-.52c26,2.69,51.66,11.07,72.68,26.54s37.07,38.34,41.83,64q-8.43-15.11-18.18-29.42a179.55,179.55,0,0,1,6.72,31.35,443,443,0,0,0-17.33-45.36,193.5,193.5,0,0,0,9.27,47.4c-5.9-6.59-8.87-15.23-11.63-23.63q-5.24-16-10.12-32a173,173,0,0,0,4.35,50.3c-3.8-5.5-4.8-12.39-5.87-19a352,352,0,0,0-8.4-38c-3.74,18.39-1.82,37.4.11,56.07-10.38-19.8-12.61-42.83-12.66-65.18a224.7,224.7,0,0,0-4.3,61.6c-8.56-21.39-5.68-46.3-15.6-67.1q2,25.07,1.58,50.23c-4.76-10.34-5.87-21.92-8.45-33a126.73,126.73,0,0,0-7-21.38,231.28,231.28,0,0,0,6.62,31.9c-10.71-10.45-14.18-26.85-25.38-36.78a121.49,121.49,0,0,1,14.32,38.87q-11.76-21.42-25.5-41.66a108.14,108.14,0,0,1,11.93,32.54A290.66,290.66,0,0,0,1431.63,172l14.3,18.93c-8.5-7.13-17.58-14.53-28.53-16.29a49.33,49.33,0,0,0-5.76.12c-5.64.27-13.16.54-13.1-1.65.11-4,17.27-6,20.28-6.37"/><path class="cls-8" d="M1414.73,178.18l-7.34-4.79a20.44,20.44,0,0,0-20.76,5.24,22.71,22.71,0,0,0-5.38,21,25.63,25.63,0,0,0,14.14,16.67,3.26,3.26,0,0,0,2.46.36,4.59,4.59,0,0,0,1.51-1.34c2.55-2.72,6.78-2.75,10.28-4.06,6-2.25,9.8-8.58,10.31-14.95s-1.83-12.68-5.22-18.09"/><path class="cls-8" d="M1426.72,170.47l-7,5.19a20.43,20.43,0,0,0-2.37,21.28,22.75,22.75,0,0,0,17.75,12.39,25.61,25.61,0,0,0,20.56-7.41,3.22,3.22,0,0,0,1.21-2.18,4.62,4.62,0,0,0-.72-1.88c-1.66-3.35-.21-7.32-.21-11.05,0-6.39-4.6-12.19-10.38-14.9s-12.53-2.73-18.79-1.44"/><path class="cls-9" d="M1399.17,185.86c-1.15,4.76-1.07,10.41,2.44,13.81,2.36,2.29,5.75,3.07,9,3.76l15.81,3.38a3.54,3.54,0,0,0,1.33.11,3.33,3.33,0,0,0,1.78-1.21,32.7,32.7,0,0,0,8.38-18.13,19.55,19.55,0,0,0-1.09-10.12,16.66,16.66,0,0,0-9.69-8.69c-13.29-4.88-24.83,4.18-27.93,17.09"/><path class="cls-7" d="M1333.78,182l32.88,1.7c-22.07,6.22-42.09,15.91-58.51,28.33q21.46-7.86,44.17-13.83-25.46,9.14-49.44,20.22l35.19-11.75q-25.21,12.54-48.89,26.67,17.55-8.78,36.46-16a422,422,0,0,0-62.77,36.81c14.08-7.83,28.25-15.71,44.16-21.42q-31.14,20.61-59.93,43.12l38.8-24.71c-19.38,14.28-38.94,28.74-52.82,46.41,15-12.34,30.25-24.8,48.87-34.05-11,9.51-22,19.13-29.6,30.48a209.19,209.19,0,0,1,30.18-25.46c-1.66,11-13.26,20-12.49,31.22L1295,263.93a93.65,93.65,0,0,0-10.79,28.18,274.21,274.21,0,0,1,28.43-43.44q-2.38,11.19-4.78,22.39c-.47,2.22-.84,4.75,1.07,6.64q8.28-21,16.54-42a69.14,69.14,0,0,0-5.1,32.77q7-21.47,14-42.94a235.08,235.08,0,0,0-7.16,35.35c8.36-13.61,13.78-28.28,19.17-42.89a148.49,148.49,0,0,0-5.37,30.64l20-44q-2.93,15.28-5.87,30.58a210.08,210.08,0,0,0,21.08-46.71c-1,10.16-4.08,20-7.18,29.77a81.1,81.1,0,0,0,16.41-31.83,127.59,127.59,0,0,1-5.35,20.78,249.78,249.78,0,0,0,17.15-28.38q-3.77,9-7.52,18.1,7.48-11.19,15-22.37c5.64-8.42,1.48-9.7-9.84-7.54A619.41,619.41,0,0,0,1333.78,182Z"/><path class="cls-10" d="M1440.39,415.27c-20.12-29.07-30.13-86.71-34.06-135.31a426.33,426.33,0,0,1,.39-70.95,4.15,4.15,0,0,0-1.85.3c-.21.1-6.95,14.41-7,14.32a15.93,15.93,0,0,1,2.52,14.6c-1.35,4.06-4.22,8.93-1.29,12.05a23.43,23.43,0,0,1,1.91,1.81,6.56,6.56,0,0,1,.85,3.7c.28,7.84,1.81,15.66,1.28,23.49s-3.58,16.06-10.23,20.24l10.11-1.47a6.9,6.9,0,0,1-4.21,6.73,6,6,0,0,1,5.7,2.69c1.47,2.11,1.86,4.76,2.22,7.31.75,5.38,1.49,10.86.66,16.23s-3.49,10.72-8.15,13.51c3.09,2.23,8.3-3.51,10.68-.53,1.31,1.63-.11,4-1.49,5.55l4.34.81a92.67,92.67,0,0,1-10.5,14.39c1.62,1.16,3.86.45,5.67-.38s3.89-1.74,5.7-.9,1.7,4.34-.29,4.21c4.05,1.29,4.93,6.78,3.76,10.87s-3.63,7.9-3.6,12.15l6.76-.7a49.42,49.42,0,0,1-3.8,15.07c1.44.49,3-.18,4.4-.72s3.15-.91,4.34,0,.47,3.5-1,3.08l9.69,9.19a10.59,10.59,0,0,1,2.92,3.78c2.49,6.77-9.36,12.87-6.6,19.53l13.52-9.69q.24,3.94.47,7.89c1.58-2.15,5.69-1.2,6.15,1.43l4-.46-9.54,19.38q6.72-5,13.71-9.63a72.75,72.75,0,0,1-7.22,19.6c8-.73,12.54-12.34,20.55-11.42a9.68,9.68,0,0,1-1.79,6.91l4.46-3.34a3.78,3.78,0,0,0,6,1.12l.42,5.87a1.44,1.44,0,0,0,2.4,1.36c4.77-2,9.64-4,13.47-7.46.28-.25.55-.52.82-.79v0s-41.93-23.16-57.33-45.42Z"/><path class="cls-9" d="M1670.19,485.62s11.62-166.17,16.3-217.17C1693.41,193,1687.8,61,1687.8,61h25.8s12,171.11,12,230.52S1731.85,497,1731.85,497s-11.15,10.22-34.43,5.19-27.23-16.52-27.23-16.52"/><path class="cls-6" d="M1704,304l-.39.19-.68.38c-1,.6-2,1.29-3,1.89-2.09,1.22-4.68,2.09-6.89.6a9.53,9.53,0,0,1-2.75-3.35,9,9,0,0,0-2.62-3.4,2.39,2.39,0,0,0-1.67-.49,2.63,2.63,0,0,0-1.59,1.23c-.25.36-.51.72-.75,1.1-.72,9.05-1.48,18.93-2.27,29.27,1.38.25,2.76.7,4.09.91a4.63,4.63,0,0,0,3.82-.86c1.26-1,2.13-2.45,3.38-3.5a6,6,0,0,1,4.7-1.59c1.81.3,2.78,1.89,3.23,3.53.55,2,1,4,1.41,6,.27,1.17.55,2.35.81,3.52.42-.85.85-1.7,1.28-2.53.77-1.48,1.56-3,2.41-4.39a3.48,3.48,0,0,1,3.08-2.07,3.62,3.62,0,0,1,2.8,2,32,32,0,0,1,2.28-5.28c.55-1,1.22-2.14,2.43-2.42a3.17,3.17,0,0,1,3.12,1.5c1.65,2.09,3.17,4.32,4.62,6.56.46.72.92,1.45,1.36,2.18-.24-10.28-.43-19.95-.54-28.61l-.09,0a8.18,8.18,0,0,1-3.89-2.48,5.11,5.11,0,0,0-.75-.72,2.82,2.82,0,0,0-.38-.21l-.23-.07-.14,0h0a.4.4,0,0,1-.34-.12h0l-.07.14-.29.08-.23.09-.29.14c-.2.11-.39.23-.58.36a10.8,10.8,0,0,0-1.12.86c-1.65,1.37-3.51,3.14-5.84,2.74-1.43-.25-2.35-1.35-3.28-2.35a4.1,4.1,0,0,0-1.38-1.1l-.25-.08a2,2,0,0,0-.33-.08v0h0a.38.38,0,0,0-.19-.06h-.55l-.39.08c-.23.06-.46.14-.68.22l-.07,0h0l-.15.07"/><path class="cls-6" d="M1719.73,242.89a5.57,5.57,0,0,0-4-.37,10.53,10.53,0,0,0-2.59,1.68c-1.76,1.41-3.65,3-6.06,2.51a8.63,8.63,0,0,1-3.17-1.7c-.8-.56-1.68-1.19-2.63-.72-1.11.55-1.83,1.9-2.55,2.84a20.92,20.92,0,0,1-2.91,3.32,8.09,8.09,0,0,1-7.13,2.11,7.54,7.54,0,0,1-.92-.29c-.36,5.57-.77,11-1.24,16.06-.17,1.89-.36,3.93-.55,6.12a8.47,8.47,0,0,1,4.08-1.85,6.63,6.63,0,0,1,6.38,2.72l2.67-3.41c.87-1.11,1.77-2.6,3.28-2.88a2,2,0,0,1,2.06.89,5.81,5.81,0,0,1,.51,2.33l.93,7.23L1712,269a1,1,0,0,1,1.57-.2,11.65,11.65,0,0,1,2.29,4.18,58.53,58.53,0,0,1,8.06-9.9.91.91,0,0,1,1-.21c-.18-5.75-.41-11.85-.67-18.21l-.1,0c-1.53-.52-3-1.19-4.49-1.77Z"/><path class="cls-6" d="M1721.19,367.63c-1.53-.85-2.59-2.27-3.84-3.45a4.89,4.89,0,0,0-1.65-1.12,2.1,2.1,0,0,0-1.74.21c-1.27.76-2,2.32-3.1,3.36a6.21,6.21,0,0,1-5.12,1.72c-3.91-.43-6.37-3.43-8.39-6.52-2.41,2.23-5.14,4.41-8.5,4.74a7.54,7.54,0,0,1-7-3.22,8.22,8.22,0,0,1-.88-3.65,8.9,8.9,0,0,0-.27-1.57,1.56,1.56,0,0,0-.24-.57v0l-.07-.06c.06,0,0,0,0,0s-.11,0,0,0h0l-.1,0s0,0,0,0,0,0-.12,0a1.5,1.5,0,0,0-.55.51l-.16.23c-.78,10.49-1.57,21.1-2.32,31.5a6.21,6.21,0,0,1,4.36,1.48,15.52,15.52,0,0,1,3.18,4.49,11.65,11.65,0,0,0,2.77,3.66l4.09-3.22c.8-.63,1.59-1.31,2.43-1.89a3.06,3.06,0,0,1,2.5-.62c1.71.46,2.32,2.49,3,3.9l1.83,4a23,23,0,0,1,4.58-4.86,1,1,0,0,1,1.67.44,30.15,30.15,0,0,1,1.67,6.28c.42-1.65.87-3.3,1.35-4.93.53-1.79,1-3.62,1.7-5.36.6-1.53,1.62-3,3.41-3.07s3.26,1.19,4.43,2.35,2.52,2.6,3.7,4a74.06,74.06,0,0,1,4.51,5.93c-.39-11.13-.76-22.53-1.1-33.76a9.13,9.13,0,0,1-5.92-.86"/><path class="cls-6" d="M1709.8,209.84a5.12,5.12,0,0,1,3.22.44c2.26,1,4,2.92,5.81,4.56q2.14,2,4.31,3.94c-.54-11.09-1.15-22.56-1.78-34a6.42,6.42,0,0,0-1.55-.34c-2.53-.18-4.39,1.82-6.14,3.34s-4.24,3.28-6.83,2.65a4.77,4.77,0,0,1-3.43-3.22c-1.92,1.23-3.17,3.48-4.42,5.31a11.4,11.4,0,0,1-6.23,5,5.77,5.77,0,0,1-3,0c-.11,7.37-.28,14.71-.5,21.92a5.58,5.58,0,0,1,.82.11c2.27.46,3.46,2.33,4.76,4.06a8.63,8.63,0,0,0,.84,1,3.48,3.48,0,0,0,.37.32,2.26,2.26,0,0,0,.26.16l.06,0,.06,0a1.8,1.8,0,0,0,.22.06h.33l.24-.07a2.51,2.51,0,0,0,1-1c.78-1.16,1.5-2.34,2.35-3.45a36.81,36.81,0,0,1,2.89-3.34,1,1,0,0,1,1.56.19l.54.88c.2-.76.39-1.52.59-2.28a24,24,0,0,1,1.23-4.19,3.7,3.7,0,0,1,2.47-2.11Z"/><path class="cls-6" d="M1721.57,461.24a13,13,0,0,0,2.1,3.31,9.17,9.17,0,0,0,3.11,2,18.6,18.6,0,0,0,3.87,1c-.38-9.56-.83-21-1.29-33.42l-2.66-1.2c-1.11-.51-2.21-1.11-3.37-1.52a1.3,1.3,0,0,0-1.21,0,3.68,3.68,0,0,0-.8.95,19.6,19.6,0,0,1-2,2.44,8.58,8.58,0,0,1-5.39,2.87,6.16,6.16,0,0,1-4.44-1.73,19.44,19.44,0,0,1-2.79-3.4c-.4-.56-.77-1.08-1.15-1.54-.23-.28-.47-.55-.73-.81l-.32-.31-.27-.22a5.52,5.52,0,0,0-.77-.48l0,0-.23-.08-.36-.1-.16,0h-.25a2.57,2.57,0,0,0-.48,0,3.77,3.77,0,0,0-1.18.37c-1.76.89-3.13,2.42-5.13,2.83a4.7,4.7,0,0,1-2.75-.18,3.6,3.6,0,0,1-1.91-2.2,2,2,0,0,0-.55-1,1.44,1.44,0,0,0-.67-.27,3.42,3.42,0,0,0-1.83.37c-1.62.83-2.32,2.58-3.2,4.09-1,1.75-2.65,3.8-4.91,3.7s-3-2.12-3.34-3.95c-.17-1.1-.26-2.22-.46-3.32a33.5,33.5,0,0,0-.85-3.56c-.18-.61-.37-1.24-.59-1.85-.78,10.91-1.5,21-2.12,29.68l1.13-1.2c.77-.8,1.57-1.58,2.38-2.34a5.76,5.76,0,0,1,2.71-1.68c2-.38,3.61.91,4.74,2.41a37.85,37.85,0,0,1,2.91,5.35,59.32,59.32,0,0,0,3.43,5.67,57.83,57.83,0,0,0,7.62,9c.82-2,1.67-4,2.57-6q1.45-3.21,3.06-6.34c.79-1.56,1.85-4.53,4.06-4.33,1.1.1,1.69,1,2.12,1.9.52,1.13,1,2.26,1.57,3.38l2.63,5.67a8.64,8.64,0,0,0,3.63-5.94,1,1,0,0,1,1.26-1c1.6.23,2.61,1.61,3.32,2.93"/><path class="cls-6" d="M1715.21,435.44a11.07,11.07,0,0,0,4.35-3.94,4.41,4.41,0,0,1,2.38-2.08c1.24-.3,2.42.34,3.51.84l3.83,1.74c-.32-8.31-.63-17.05-.94-26a91.56,91.56,0,0,0-5.76-7.93c-1.13-1.33-2.31-2.63-3.54-3.87a11.72,11.72,0,0,0-1.82-1.63,2.46,2.46,0,0,0-1.75-.56c-1.29.26-1.65,2.35-2,3.36q-.85,2.65-1.61,5.34-1.55,5.46-2.67,11c-.22,1.09-2.09.85-2-.27A28.93,28.93,0,0,0,1706,399a21.86,21.86,0,0,0-4.12,5,1,1,0,0,1-1.72,0q-1.15-2.49-2.3-5c-.36-.78-.71-1.56-1.08-2.33-.17-.36-.43-1-.83-1.16s-1.21.46-1.58.76l-2,1.56-4.29,3.38a1,1,0,0,1-1.21.15,11.86,11.86,0,0,1-4-4.73,13.28,13.28,0,0,0-3-4.16,6.31,6.31,0,0,0-.9-.55,4.65,4.65,0,0,0-1.38-.32,4.41,4.41,0,0,0-.73,0c-.72,9.91-1.43,19.59-2.09,28.74a5.33,5.33,0,0,1,1.12,1.77,29.63,29.63,0,0,1,1.19,3.39,33.59,33.59,0,0,1,.83,3.57c.19,1.08.27,2.2.45,3.27a4,4,0,0,0,.73,2,1,1,0,0,0,.81.36,2.27,2.27,0,0,0,1.29-.52c1.52-1.17,2.18-3.17,3.22-4.71a6.3,6.3,0,0,1,4.47-2.91,3.82,3.82,0,0,1,2.34.43,4.33,4.33,0,0,1,1.67,2.4,1.44,1.44,0,0,0,1.45.89,4.22,4.22,0,0,0,2.2-.61c1.8-1.06,3.31-2.62,5.52-2.72a5.37,5.37,0,0,1,3.8,1.53,19.73,19.73,0,0,1,2.71,3.33c.43.61.8,1.12,1.25,1.65.23.28.47.54.72.79l.35.32.25.22a4.16,4.16,0,0,0,1.71.82,4,4,0,0,0,2.32-.25"/><path class="cls-6" d="M1700.2,80.67a6.91,6.91,0,0,0-1.31-1.49A10.62,10.62,0,0,0,1691,77a16.1,16.1,0,0,0-2.57.46c.18,5.4.38,12,.57,19.4l.28.34a3.41,3.41,0,0,0,1.73,1.21,4.81,4.81,0,0,0,2.2,0,11.74,11.74,0,0,0,4.76-2.56,17.41,17.41,0,0,1,5.08-3.08,11.35,11.35,0,0,1,4.7-.44,39,39,0,0,1,8.14,2.11c-.29-4.31-.55-8.31-.79-11.92a12.32,12.32,0,0,1-1.29-.8,16.62,16.62,0,0,0-4.24-2.45,4.25,4.25,0,0,0-2.09-.24,3.68,3.68,0,0,0-1.71,1c-1,.94-2.21,2.3-3.76,2.12a2.14,2.14,0,0,1-1.11-.43,4.07,4.07,0,0,1-.67-1"/><path class="cls-6" d="M1703.66,164.86a2.19,2.19,0,0,0-2.24.51c-.74.77-1.08,1.84-1.84,2.6a3.26,3.26,0,0,1-3.1,1c-1.18-.34-1.46-1.42-2.12-2.29-1-1.3-2.91-1.53-4.41-1.16,0,9.84,0,19.87-.19,29.86a3.65,3.65,0,0,0,2.85,0,8.24,8.24,0,0,0,3.16-2,21.67,21.67,0,0,0,2.39-3.22c1.56-2.32,3.29-4.64,6-5.55a1,1,0,0,1,1.23,1.23,1.86,1.86,0,0,0,.92,2.19,3.14,3.14,0,0,0,3,.22c2.23-.81,3.81-2.89,5.69-4.25a8,8,0,0,1,3.29-1.5,7,7,0,0,1,2.91.15c-.25-4.5-.51-9-.76-13.47-.92-1.45-1.79-3-2.84-4.36a3.16,3.16,0,0,0-3.33-1.34c-3,.72-4.12,4-5,6.67a1,1,0,0,1-1.92,0c-.64-2-1.43-4.69-3.77-5.31Z"/><path class="cls-6" d="M1695.44,75.4a10.4,10.4,0,0,1,6.75,4.84s.14,0,0,0c.16,0,0,0,.11,0l.16,0a3.63,3.63,0,0,0,.73-.48c.66-.56,1.25-1.19,2-1.71,3-2.2,6.73,0,9.27,1.84l.47.33c-.8-12-1.31-19.14-1.31-19.14h-25.8s.23,5.34.54,14.48a15.35,15.35,0,0,1,7.1-.1"/><path class="cls-6" d="M1716.26,276.21a1,1,0,0,1-1.86-.5,9.42,9.42,0,0,0-1.42-4.37L1706.09,283a1,1,0,0,1-1.12.46,1.06,1.06,0,0,1-.74-1c-.24-1.92-.48-3.83-.73-5.75l-.36-2.83c-.11-.87-.17-1.78-.35-2.64,0-.15-.14-.29,0-.28-.22,0-.52.26-.66.39a15.3,15.3,0,0,0-1.73,2.11l-3.57,4.56a1,1,0,0,1-1.66-.45,3.52,3.52,0,0,0-2.31-2.71c-2.7-1.1-5.33.55-7.14,2.55-.53,6.19-1.12,13.36-1.75,21.25a3,3,0,0,1,.47-.32,4.11,4.11,0,0,1,4.64.54,11.64,11.64,0,0,1,2.93,3.78,6.44,6.44,0,0,0,2.59,3,2.61,2.61,0,0,0,1.32.23,2.08,2.08,0,0,0,.65-.09,6.65,6.65,0,0,0,.76-.23,5.91,5.91,0,0,0,.67-.3c.26-.12.5-.26.75-.4.51-.29,1-.61,1.5-.93,1.91-1.22,4.07-2.73,6.46-2.26a6.24,6.24,0,0,1,3.26,2.27,4.44,4.44,0,0,0,1.4,1.19c.12,0,.24.07.36.11l.1,0h.47l.07,0a6.31,6.31,0,0,0,2.36-1.3,32.67,32.67,0,0,1,2.69-2.13,4.6,4.6,0,0,1,2.9-.89,3.62,3.62,0,0,1,1.84.7c.65.49,1.12,1.13,1.71,1.67a5.39,5.39,0,0,0,1.81,1.07c-.05-4.66-.08-9-.08-13,0-6.62-.15-14.65-.41-23.66-.29-.73-.57-1.45-.85-2.17a56.14,56.14,0,0,0-8,10.61"/><path class="cls-6" d="M1703,94.87a24.93,24.93,0,0,0-4.91,3.32,10.86,10.86,0,0,1-4.94,2.21,6.11,6.11,0,0,1-4.11-.75c.13,4.88.25,10.1.36,15.6a1.84,1.84,0,0,0,.46.53,1.71,1.71,0,0,0,1.73-.09c1.74-.83,2.66-2.66,4.14-3.83a4.85,4.85,0,0,1,2.72-1.13,3.49,3.49,0,0,1,1,.1,2.52,2.52,0,0,1,.79.54l.21.17a7.45,7.45,0,0,1,3.18-3.86,3.45,3.45,0,0,1,2.69-.22,5.28,5.28,0,0,1,2.43,2.2,36.44,36.44,0,0,0,3.78,4.8,16.19,16.19,0,0,0,4.89,3.64c-.49-7.75-1-15-1.38-21.55-2.83-.92-5.7-2.07-8.66-2.29a9.17,9.17,0,0,0-4.34.61Z"/><path class="cls-6" d="M1700,336l-.78-3.38a18.77,18.77,0,0,0-.74-2.86,2,2,0,0,0-1.27-1.3,2.77,2.77,0,0,0-1.72.19,10,10,0,0,0-3.41,3,8,8,0,0,1-3.94,2.69,10.14,10.14,0,0,1-4.64-.32c-.73-.18-1.47-.4-2.22-.55-.55,7.21-1.11,14.62-1.66,22.11a2.37,2.37,0,0,1,1.22,0c1.21.29,1.73,1.58,1.93,2.69.12.63.18,1.28.24,1.92a6.37,6.37,0,0,0,.26,1.59c.72,2.15,3.56,3.13,5.69,2.86,3.15-.4,5.72-2.91,7.93-5a1,1,0,0,1,1.57.21,18.76,18.76,0,0,0,4.18,5.23,6,6,0,0,0,5.43,1.14c1.5-.52,2.36-2.06,3.34-3.2a4.78,4.78,0,0,1,4.42-1.92c1.62.28,2.84,1.56,3.93,2.69a8.06,8.06,0,0,0,4,2.76,9.31,9.31,0,0,0,3.33,0c-.28-9.33-.53-18.51-.75-27.31a103.52,103.52,0,0,0-7.12-10.94c-.33-.44-1.11-1.81-1.81-1.38a2.78,2.78,0,0,0-.72.94c-.3.52-.57,1.05-.84,1.59a30,30,0,0,0-2.37,6.85,1,1,0,0,1-1.09.71,1,1,0,0,1-.87-1,5.7,5.7,0,0,0-1.31-3.05,1.26,1.26,0,0,0-.46-.35l-.19-.06c-.11,0-.13,0,0,0h-.16l-.2.06a1.42,1.42,0,0,0-.26.17,2.84,2.84,0,0,0-.56.73,93,93,0,0,0-5,9.56,1,1,0,0,1-1.82-.24L1700,336"/><path class="cls-6" d="M1729.94,469.53a14.37,14.37,0,0,1-7.64-3.46,13.21,13.21,0,0,1-2.3-3.46,5.7,5.7,0,0,0-1.28-1.85,10.65,10.65,0,0,1-5.29,6.82,1,1,0,0,1-1.36-.36l-3.15-6.77c-.46-1-.94-2-1.4-3a2.92,2.92,0,0,0-.55-1c-.13-.11-.16-.08-.33,0a5.63,5.63,0,0,0-1.33,2.05c-.5,1-1,1.92-1.46,2.89q-2.82,5.69-5.17,11.58a1,1,0,0,1-1.67.44,60.61,60.61,0,0,1-9.38-11,59.35,59.35,0,0,1-3.25-5.48,30,30,0,0,0-2.69-4.95,4.44,4.44,0,0,0-1.62-1.38,1.91,1.91,0,0,0-2,.36,23.75,23.75,0,0,0-2.31,2.18c-.75.74-1.48,1.51-2.19,2.29-.48.53-.94,1.06-1.41,1.6-1.23,17.35-2,28.46-2,28.46s4,11.49,27.24,16.52,34.43-5.19,34.43-5.19-.46-10.58-1.12-27.18l-.79-.13"/><path class="cls-6" d="M1717.63,216.45l-2.86-2.62a10.59,10.59,0,0,0-2.41-1.67,3,3,0,0,0-2.28-.33c-.84.34-1.12,1.28-1.33,2.08-.67,2.42-1.27,4.87-1.91,7.3a1,1,0,0,1-1.82.24l-1.08-1.77a34.57,34.57,0,0,0-2.24,2.73c-.46.64-.9,1.29-1.31,2a11.22,11.22,0,0,1-1.2,1.69,3.27,3.27,0,0,1-3,1.07,4.21,4.21,0,0,1-2.22-1.46c-1.19-1.33-2.08-3.47-3.89-4.06a4.49,4.49,0,0,0-.87-.18c-.32,9.9-.74,19.54-1.3,28.68a4,4,0,0,0,1.92.63,5.62,5.62,0,0,0,3.11-.66,11.27,11.27,0,0,0,3.07-2.69c.93-1.09,1.71-2.3,2.62-3.4a4.38,4.38,0,0,1,3.58-1.84,6.89,6.89,0,0,1,3.31,1.58,4.18,4.18,0,0,0,2.82,1.07l.29-.06.32-.1a3.47,3.47,0,0,0,.54-.24,10.92,10.92,0,0,0,1.35-.9c.89-.67,1.76-1.45,2.71-2.06a6.6,6.6,0,0,1,3.61-1.17,12.94,12.94,0,0,1,4.81,1.4c.76.32,1.52.62,2.3.9-.28-6.75-.6-13.76-1-20.95l-5.65-5.16Z"/><path class="cls-6" d="M1716.5,119.9c-3.62-1.61-6.4-4.83-8.65-8a12,12,0,0,0-1.68-2.25,1.64,1.64,0,0,0-.86-.4,1.33,1.33,0,0,0-.77.16c-1.42.74-2.25,2.54-2.71,4a1,1,0,0,1-1.67.44l-1.42-1.13a2.68,2.68,0,0,0-1.94.81,21.45,21.45,0,0,0-1.94,2.1,6.12,6.12,0,0,1-4.5,2.32,3.51,3.51,0,0,1-.91-.19c.11,5.87.21,12,.29,18.41a1,1,0,0,1,.67.67,6.45,6.45,0,0,0,5.57,4.75,5.84,5.84,0,0,0,3.16-.44,12.69,12.69,0,0,0,3.2-2.6A11.09,11.09,0,0,1,1706,136a9.8,9.8,0,0,1,5.45,0l7.17,1.34c-.35-5.85-.71-11.52-1-17-.34-.12-.69-.24-1-.39Z"/><path class="cls-6" d="M1715.82,138.76c-2-.38-4.07-.84-6.12-1.13a5.55,5.55,0,0,0-4.47,1c-1.19.91-2.15,2.1-3.31,3.05a8,8,0,0,1-3.84,1.86,8.54,8.54,0,0,1-4.16-.4,9,9,0,0,1-4.13-3c.08,7.55.14,15.37.15,23.33a6.26,6.26,0,0,1,5.84,1.78,17.31,17.31,0,0,1,.93,1.47.54.54,0,0,0,.69.29c1-.27,1.44-1.52,2-2.3a4.22,4.22,0,0,1,2.77-1.92,5.16,5.16,0,0,1,3.45.7,7.18,7.18,0,0,1,2.78,3.42A12.21,12.21,0,0,1,1710,164a6.8,6.8,0,0,1,4.3-2.53,5,5,0,0,1,4.61,1.83,20.79,20.79,0,0,1,1.29,1.75c-.51-8.79-1-17.44-1.54-25.77l-2.88-.53Z"/><path class="cls-3" d="M1827.86,140.66a128.74,128.74,0,0,0-122.74-98.22l-39.89,5.36c-27.17,22.07-36,59.11-43.15,93.38a18,18,0,0,1,6-7.9,177.06,177.06,0,0,0-2,69.55,156.8,156.8,0,0,1,14.84-21.89l2.49,4.31a231.11,231.11,0,0,0,34.09-57.84,161.08,161.08,0,0,0,1.85,80.21A62.62,62.62,0,0,1,1690,188.46a141,141,0,0,0,9.12,59.28,244.2,244.2,0,0,0,15-60.14q3,9.69,6,19.37a191.75,191.75,0,0,0,4.7-77.79,290.41,290.41,0,0,0,38.79,54.23,107.69,107.69,0,0,0,4-26.27,130.83,130.83,0,0,0,17.13,43.1,79,79,0,0,0,1.27-64.71,98.56,98.56,0,0,1,15.36,15.87,43.53,43.53,0,0,0-3.87-18.59,42.36,42.36,0,0,0,30.3,7.85"/><path class="cls-4" d="M1630.62,32a123,123,0,0,0-56.39,79.7l7.59-4.68c-.08,2.56-.17,5.12-.25,7.68a94.56,94.56,0,0,0,25.73-24.15q-1.2,10.9-2.38,21.8a328.11,328.11,0,0,1,47.72-50.9c-21,27.72-37.41,61.31-34.24,95.91a253.9,253.9,0,0,1,24.94-20q.3,3.94.61,7.91a131,131,0,0,0,24.14-51.37l2.84,22.94a231.93,231.93,0,0,0,34.25-49.09C1699,101.09,1693,136,1702.34,168.6l6-10.3a26.76,26.76,0,0,0,2.73,18.92c5.88-17.61,11.79-35.34,14.37-53.72s1.66-37.66-5.73-54.69q23.84,31.38,45.91,64a24.37,24.37,0,0,1,5.66-11.55q3.27,7.41,6.53,14.83a9.67,9.67,0,0,1,9.09,4.86c1.27-28.53-13.79-57.22-38-72.38a82.4,82.4,0,0,1,55.84,33.22l-1-7A90.6,90.6,0,0,1,1824.64,118a137.16,137.16,0,0,0,7.07-27.1A73.21,73.21,0,0,0,1855.48,121c1-14.36-4.74-28.6-13.4-40.09s-20.14-20.54-32-28.71c-17.59-12.12-36.51-22.68-57-28.62-22.58-6.55-40.94-2.65-63.42-1.17a70.09,70.09,0,0,1-13.37-.79c-5.17-.63-10.34-1.27-15.71-.56A78.85,78.85,0,0,0,1630.62,32"/><path class="cls-7" d="M1626.63,11.66c-11.13,2.28-23.28,5.45-29.47,15l14.72-1.75-6.44,7.84,23.06-6.4-7.87,8.83A180.35,180.35,0,0,1,1699.3,27c-12.57,4.77-26.07,6.79-38.59,11.7a89.43,89.43,0,0,0-45.22,39.75l11.72-7.3a81.38,81.38,0,0,0-12.71,31,408.31,408.31,0,0,0,41.09-28.53q-2,6.7-4.1,13.41,27.62-24.34,52.73-51.34a185.21,185.21,0,0,0-12.54,72.32l8-8.57a191.27,191.27,0,0,0,9.06,44.36,98.91,98.91,0,0,0,14.1-45.27,15.67,15.67,0,0,0,5.86,5.28,107.74,107.74,0,0,0-3.35-58.29c3.82,1.69,6.8,4.81,9.66,7.85l37.54,39.78q1.61-6.14,3.22-12.26,2.75,6.13,5.48,12.27l4.91-6.26,24.9,29c6.23-11.27,4.24-25.76-2.32-36.84s-17.07-19.27-28-26.11a199.58,199.58,0,0,0-50.46-22.59A140.07,140.07,0,0,1,1827,50.28l-8.6-12.06a101.67,101.67,0,0,0,29,21.73c-2.24-11.07-11.54-19.26-21-25.39A141.16,141.16,0,0,0,1719,16.33c-4.53,1.07-10.21,4.05-14.91,3.37-5.1-.74-26.51-18.47-77.47-8"/><path class="cls-3" d="M1013.65,146.14c-2.34-18.53-2-37.64,3.5-55.49l11.38,13.71c.41-6-4.81-11-5.5-17-.55-4.69,1.77-9.2,4.14-13.28a213.86,213.86,0,0,1,17-25l9.6,11.11a54,54,0,0,0-3-15.67C1072.3,22.78,1101.69,11.1,1130.16,0c-6.82,13-2.94,29.39-8.58,43a33.22,33.22,0,0,0-13.65-2,16.44,16.44,0,0,0,12.82,6.54l-20.28,28a6.55,6.55,0,0,1-7.72,3.36l-21.28-2.15a58.64,58.64,0,0,0,25.74,5.82q-3.76,5.75-7.52,11.48a9.37,9.37,0,0,1-2.14,2.54c-1.48,1.08-3.45,1.17-5.28,1.23l-22.55.68a82.19,82.19,0,0,0,16,4.08l-18,4.64a37,37,0,0,0,18.85,4.28c-2.82,21.58-13,41.42-19.21,62.29a247.67,247.67,0,0,0-7.24,34.86c-.69,4.85.41,21.4-6.19,21.61-5.42.17-11.42-11.1-13.25-15-4.49-9.53-6.49-20.73-9.14-30.88a304.3,304.3,0,0,1-7.84-38.24Z"/><path class="cls-4" d="M1022.73,168.42c-5.4-25.51-7.31-52.1-17.72-76-13.26-30.47-39.27-54.1-52-84.77,1.32,10.16-2.28,20.21-5.14,30s-5,20.69-.85,30.07a36.44,36.44,0,0,0,27.62-5.31,40.91,40.91,0,0,1-26.86,12.49,356.13,356.13,0,0,1,22.63,42.58l14.29-5a38.43,38.43,0,0,1-10.82,9.78l12,20.83a3.36,3.36,0,0,0,1.66,1.72,3.32,3.32,0,0,0,2.35-.47l7.83-3.71c-.57,2.6-3.3,4-5.24,5.85s-2.87,5.64-.44,6.76l16.09-10.69a31.5,31.5,0,0,1-12.41,17.58c-1.78,1.22-3.83,2.43-4.52,4.47s.19,4.24,1.08,6.19c9.57,21,22.49,40.19,36.23,58.62,3.13,4.2,10.94,19.39,13,7.88,1.67-9.37-5.2-21.14-8-29.83a391.71,391.71,0,0,1-10.69-39.07Z"/><path class="cls-4" d="M1046.62,148a23.77,23.77,0,0,0,7.65,12.74c-3.38-4.69-2.83-11.34-.18-16.47s7.08-9.1,11.4-12.93c12.86-11.41,26-23,41.71-30l5.56,14.1c-2.1-7.81-1.27-19-1.27-19s26.76-6,34.84-6.46a475.54,475.54,0,0,1,59.69.51l-19.57,32L1167,114.73c2,4.84,11.51,7.54,13.48,12.37-13.73,12.35-35.57,26.18-59,6.67a37.78,37.78,0,0,0,15.49,14.76,72.66,72.66,0,0,0-39.47,25,69.06,69.06,0,0,0-20.09-6.91l13.32,11.06c-5.2-4.32-41.14,90.38-44.15,96.11-9.79-9.19-8.46-58.47-8.37-71.35a187.2,187.2,0,0,1,8.44-54.44"/><path class="cls-7" d="M1028.1,216A223.71,223.71,0,0,0,1007.79,187c-28.54-33.95-70.65-55-114.36-62.58-11.92-2.06-24.43-3.34-34.68-9.77a116,116,0,0,1,32,46.74,77.08,77.08,0,0,0,21.33-17.5,59.71,59.71,0,0,1-13.27,19.3c3.1,9.81,11.67,16.88,20.59,22s18.64,9,26.7,15.39a2.92,2.92,0,0,0,1.72.84,2.84,2.84,0,0,0,2-1.3A172.88,172.88,0,0,0,972.14,166a119.52,119.52,0,0,1-17,38.38c10.68-1.25,18.9,8.53,27.61,14.82,2,1.43,4.23,2.75,6.67,2.74s5-1.88,5-4.33c1.64,3-1.54,6.76-.31,9.91.65,1.68,2.38,2.66,4,3.35,6.64,2.8,14,3.19,20.92,5.38,11.83,3.78,20.34,12.66,25.68,23.59-.44-15.55-8.83-30.78-16.63-43.8"/><path class="cls-7" d="M1045.66,261.86c3.82-23.56,8.41-48.71,25-65.86,6.09-6.29,13.51-11.14,21.23-15.26,38.08-20.31,84.35-23.08,125.77-11,23,6.73,45.3,18.26,61,36.43,9.71,11.23,16.88,24.91,28.75,33.83-6.06-3-13.2-2.74-20.23-2.51-8.61.26-17.06.54-23.16-5a7.71,7.71,0,0,1-2.76-4.68,10.83,10.83,0,0,1,.74-4.33,80.67,80.67,0,0,0,3.47-24.64,236.59,236.59,0,0,0-13.06,31c-3.18-4-9-4-14.12-4.31a55.55,55.55,0,0,1-23.52-7.09,7.94,7.94,0,0,1-2.73-2.17c-1-1.46-1-3.38-1.06-5.17a179.43,179.43,0,0,0-2.66-29.89q-.18,18.54-.37,37.07l-35.24-1.09-.42-15a29.77,29.77,0,0,0-2,14.37l-5.41,1.24a59.14,59.14,0,0,0-13.43-36.93,138,138,0,0,1,9.18,39.59,85.08,85.08,0,0,0-14.87.25c-8.14.63-16.21,1.24-23.55-2-10.23-4.48-16.07-15.11-21.18-25a73,73,0,0,0,8,21.17c-5.76,4.15-13,3.29-20.39,2.42-6.64-.78-13.34-1.55-19,1.34-6.93,3.51-10.27,11.4-12.8,18.74a331.15,331.15,0,0,0-10.29,36.43l-1.44-3.44.55-8.5"/><path class="cls-6" d="M1063.37,222.73a131.34,131.34,0,0,0-12.1,27.06,128.07,128.07,0,0,0-5.69,37l14.51,1.06a136,136,0,0,0,.34-14.85c-.26-17-.66-35.23,2.94-50.27Z"/><path class="cls-11" d="M1034.17,238.59A145.34,145.34,0,0,1,1059,313.16l-17.24,2.64a159.17,159.17,0,0,1-1.25-17.64c-.64-20.28-1.21-42-6.35-59.57Z"/><path class="cls-10" d="M1068.66,262.68a110.3,110.3,0,0,0-17,25.65,95.93,95.93,0,0,0-8.78,36.33l19.25,2.74a101.09,101.09,0,0,0,.94-14.8c.21-17,.29-35.31,5.56-49.92Z"/><path class="cls-6" d="M1033.78,276.42a146.19,146.19,0,0,1,17,30.39,144.3,144.3,0,0,1,10,43.13l-17.59,3.37a155.37,155.37,0,0,1-1.65-17.59c-1.08-20.24-2.11-42-7.74-59.3Z"/><path class="cls-11" d="M1067.64,297.31c-6.24,8-12.22,16.82-16.66,27.71a89.51,89.51,0,0,0-6.63,37.28l21.62.25a91,91,0,0,0-.22-14.85c-1.24-17-2.72-35.17,1.89-50.39Z"/><path class="cls-10" d="M1034.29,316.57c7.83,10,15.3,20.94,20.68,34.25s6.54,19.77,5.19,35.44c0,0-20.61-3.44-19.94-9.29,2.3-20.14-.52-41.92-5.93-60.4Z"/><path class="cls-6" d="M1072,321.69a119.72,119.72,0,0,0-15.64,27.05,101.69,101.69,0,0,0-7.35,37l18.75,1.06a104.87,104.87,0,0,0,.44-14.84c-.34-17-.85-35.24,3.8-50.27Z"/><path class="cls-11" d="M1034.29,337.54c7.42,8.8,14.7,18.62,20.63,31.06a121,121,0,0,1,11.48,43.51l-22.29,2.64c-1.08-5.77-3.35-20.16-3.59-26.06-.84-20.26.41-33.59-6.23-51.15Z"/><path class="cls-10" d="M1078.87,361.63c-8,7.23-15.74,15.32-21.94,25.65a78.76,78.76,0,0,0-11.34,36.33l24.87,2.75a78,78,0,0,0,1.22-14.81c.27-17,.37-35.31,7.19-49.92Z"/><path class="cls-6" d="M1033.78,375.38c7.85,8.55,15.55,18.14,22,30.38a118.38,118.38,0,0,1,12.91,43.13l-22.75,3.37a121.74,121.74,0,0,1-2.12-17.59c-1.4-20.24-2.73-42-10-59.29Z"/><path class="cls-11" d="M1077.55,396.14c-8.06,8-15.79,16.81-21.54,27.7s-9.38,24.09-8.56,37.28l27.94.25a69,69,0,0,0-.29-14.85c-1.59-17-3.51-35.17,2.45-50.38Z"/><path class="cls-10" d="M1039.66,425.36c10.13,10,19.79,20.94,26.74,34.25s11,29.24,9.27,44.91l-36.59-1.29c-.52-5.89.29-11.83,1.15-17.68,3-20.14,6.43-41.71-.57-60.19Z"/><path class="cls-6" d="M1082.23,438.61c-10.56,8-20.69,16.81-28.21,27.7s-12.29,24.09-11.22,37.28l36.61.26c.77-4.91.22-9.92-.38-14.86-2.09-17-4.6-35.16,3.2-50.38Z"/></g><g class="cls-2"><path class="cls-3" d="M719,292.21a13.29,13.29,0,0,1,3.73-6.54q7.83,22.69,14.63,45.71l11.76-32.82,4.55,8.47-2-41L765,281a406.85,406.85,0,0,0-16.81-51.79,51.38,51.38,0,0,1,14.5,11.9q-6-26.26-11.93-52.53c-2.15-9.46-4.53-19.38-11.06-26.55-17.09-18.76-48.6-5.72-50.11,18.9-.58,9.4,3.25,19.23,3.58,28.75a146.68,146.68,0,0,0,7,40.15A244.1,244.1,0,0,0,719,292.21Z"/><path class="cls-4" d="M788.85,117.06c18.32,5,35.37,15.27,47.48,29.9,19.79,23.9,24.73,56.51,27.27,87.44,1.79,21.78,2.77,43.76-.05,65.43l-11.08-23.5-3,19.49q-9.37-24.3-19.47-48.32l-11.16,19.2A47.85,47.85,0,0,0,816.39,253l-12.14,17.17a427.54,427.54,0,0,0-9-54.64L782.54,227a30.81,30.81,0,0,0-6.84-11.6l-8.91,10.94c1-1.29-29.1-26.37-31.85-28.74-11-9.44-21.85-19.27-30.32-31.1-6.33-8.85-14.83-21.91-8-32.7s23.68-15.58,35.19-18c18.75-3.91,38.58-3.89,57.09,1.22"/><path class="cls-4" d="M588.85,218.13c-.29-28.34,9-58.15,30.82-76.24,19.78-16.4,47.1-21,72.72-19.11,8.09.61,17,2.28,21.93,8.73,3.26,4.26,4.13,9.85,4.55,15.21A125.23,125.23,0,0,1,717,180.3c-2.57,13.29-7.27,26.06-12,38.76l-13.41,36.37A200.44,200.44,0,0,0,666,236.62a77.2,77.2,0,0,0-2.25,17.26,29.42,29.42,0,0,0-9.15-7.4,414.21,414.21,0,0,1-3.79,50.74,108.32,108.32,0,0,0-25.89-18.89l-2,24.35c-2.1-4.32-7.43-16.9-9.54-21.21,1.56,1.55-2.56,30.38-4.15,35.2-6.3-6.81-10.93-21.46-12.3-31.32-3.09-22.24-7.83-44.56-8.06-67.22"/><path class="cls-5" d="M664.19,513.63s-5-106.66,1.81-167.3c13.82-123.7,49.15-204.44,49.15-204.44h20.18s-37,156.43-36.63,208.58c.67,95,27.38,163.16,27.38,163.16h-61.9"/><path class="cls-6" d="M691,385a17.15,17.15,0,0,0-6.25-1.28,38.25,38.25,0,0,0-6.42.2,31.14,31.14,0,0,0-11.73,3.77,26,26,0,0,0-3.44,2.34c-.33,9.48-.52,19.19-.61,28.79q3.42-2.69,6.86-5.35a39.91,39.91,0,0,1,9.9-6.18,20.35,20.35,0,0,1,12-.57,46,46,0,0,1,11.38,4.53q-.9-7.37-1.63-15.12-2.19-3.12-4.56-6.09c-1.57-2-3.16-4-5.49-5"/><path class="cls-6" d="M690.11,305.44c-1.8-.69-3.31-.2-4.94.68A170.06,170.06,0,0,0,670,315.38q-.48,3.31-1,6.68a16.82,16.82,0,0,1,5.26-2.15,13.83,13.83,0,0,1,11.11,2.49,35,35,0,0,1,7.73,8.47c2,2.81,3.94,5.65,5.89,8.49.51-7.92,1.51-17.16,2.86-27.23-2.29-1.52-4.64-2.95-7.06-4.27a40.92,40.92,0,0,0-4.76-2.42"/><path class="cls-6" d="M671.23,354.61c5.91-4,13.18-9.07,20.71-6.9a18.54,18.54,0,0,1,5.2,2.66c.53.36,1.05.73,1.57,1.1,0-.27,0-.53,0-.8,0-2.15,0-4.48.14-7-2.78-4-5.52-8.09-8.37-12.06a28.13,28.13,0,0,0-7.08-7.43,11.17,11.17,0,0,0-9.94-1.29,15.85,15.85,0,0,0-4.86,2.74q-1.4,10.21-2.59,20.87c-.44,4-.83,8.12-1.18,12.43l6.41-4.35"/><path class="cls-6" d="M694.83,384.32a32.08,32.08,0,0,1,4.59,5.21c.38.49.75,1,1.13,1.49q-.57-6.75-1-13.76l-.4-.2L687,370.77l-6.17-3.17a24.59,24.59,0,0,0-5.45-2.29c-3.61-.87-7.13.74-9.69,3.25a17.93,17.93,0,0,0-1.63,1.86c-.32,5.27-.58,10.69-.79,16.21A34.65,34.65,0,0,1,682.35,381c4.35,0,9,.47,12.48,3.33"/><path class="cls-6" d="M722.08,201.68c1.1-5.21,2.18-10.23,3.21-15a38,38,0,0,0-6.17-3.36,15.77,15.77,0,0,0-8.13-1.51c-4.67.58-8.72,3.55-12.32,6.5-.61,2-1.23,4-1.86,6.06a79.23,79.23,0,0,1,10,.73c5.55.77,11.18,2.75,15.28,6.57Z"/><path class="cls-6" d="M685.58,439.07c-2.55-.74-5.09-1.53-7.61-2.35a51.26,51.26,0,0,0-7.19-2,12.83,12.83,0,0,0-8.34,1.08c0,11.27.15,22.11.34,31.93l6.77-3.38,13.24-6.62a130.15,130.15,0,0,1,12.68-6c3.78-1.41,8-2.05,11.89-.51a13.45,13.45,0,0,1,1.86.93c-.49-2.45-1-5-1.46-7.54-2.27-.51-4.54-1-6.81-1.56-5.16-1.21-10.29-2.52-15.37-4"/><path class="cls-6" d="M689.93,350c-3.31-.52-6.68.65-9.59,2.12a87.78,87.78,0,0,0-9.51,6l-6.27,4.25q-.15,1.9-.27,3.84l.68-.59a12.81,12.81,0,0,1,11.42-2.78,31.46,31.46,0,0,1,6,2.6l6.4,3.29,10.62,5.47c-.33-6.33-.56-12.81-.65-19.42-1.3-.95-2.61-1.89-4-2.76a12.63,12.63,0,0,0-4.85-2"/><path class="cls-6" d="M707.27,209.25a45.59,45.59,0,0,1,5.92-1.85,6.85,6.85,0,0,1,5.45,1.31c.58.4,1.14.84,1.69,1.3.36-1.76.73-3.49,1.09-5.21a18.85,18.85,0,0,0-5.33-4.13c-5.5-2.93-11.87-3.35-18-3.55L696,197q-2.49,8.37-5.08,17.87,5.28-1.91,10.58-3.72l5.75-1.94Z"/><path class="cls-6" d="M716.1,210.27c-1.58-.8-3.3,0-4.86.47q-10.62,3.49-21.15,7.29-.95,3.54-1.89,7.21a20,20,0,0,1,9,3.63,65.34,65.34,0,0,1,9.6,8.84q3.36,3.54,6.53,7.24c2.1-10.91,4.28-21.69,6.4-31.94a15.25,15.25,0,0,0-3.6-2.74Z"/><path class="cls-6" d="M671,432.12a48.58,48.58,0,0,1,7.66,2q4,1.29,8,2.46c6.8,1.95,13.68,3.61,20.58,5.16-1.53-8.48-3-17.59-4.2-27.24-1-.59-2-1.15-3.07-1.68A39.14,39.14,0,0,0,689.23,409a17,17,0,0,0-10.59,1.42,53,53,0,0,0-9.09,6.23l-7.08,5.52c0,3.59,0,7.17,0,10.7a16.6,16.6,0,0,1,8.59-.77"/><path class="cls-6" d="M710.76,156.7a38,38,0,0,1,8.45-2.48,47.85,47.85,0,0,1,8.53-.81,30.27,30.27,0,0,1,4.83.4c1.73-7.54,2.76-11.92,2.76-11.92H715.15s-2.39,5.45-6.15,15.67c.57-.31,1.16-.6,1.76-.86"/><path class="cls-6" d="M701.27,484.05q8.9,3.22,17.46,7.23c-2.66-9.21-5.73-21-8.65-34.94a9.54,9.54,0,0,0-5.56-3.17c-3.78-.76-7.75.75-11.13,2.32-4.13,1.92-8.17,4.05-12.24,6.08l-18.31,9.16c.09,4.34.18,8.46.29,12.32a26.78,26.78,0,0,1,4.37-2.46c11-4.82,23.22-.37,33.77,3.46"/><path class="cls-6" d="M714.87,492.63c-5.18-2.34-10.47-4.46-15.83-6.35a86.11,86.11,0,0,0-16.44-4.59c-5.27-.77-10.68-.33-15.43,2.22a30.56,30.56,0,0,0-4,2.58c.47,16.72,1,27.56,1,27.56h61.9s-2.67-6.83-6.35-19.15q-2.41-1.17-4.86-2.27"/><path class="cls-6" d="M718.69,157.22a27.26,27.26,0,0,0-11.19,4.66c-.61,1.68-1.24,3.45-1.89,5.33a43.66,43.66,0,0,1,8-.31,21.93,21.93,0,0,1,7.68,1.61,14.34,14.34,0,0,1,5.43,4.56c.4.49.8,1,1.22,1.52,1.54-6.93,2.91-13,4-18a36.91,36.91,0,0,0-13.29.63Z"/><path class="cls-6" d="M724.84,175a12.49,12.49,0,0,0-5-4.17,21.19,21.19,0,0,0-7.37-1.26,40.65,40.65,0,0,0-7.87.54c-1.43,4.18-3,8.8-4.57,13.85a35.15,35.15,0,0,1,3.43-2.21,19.39,19.39,0,0,1,8.25-2.61,19.67,19.67,0,0,1,9.14,2.12,38.49,38.49,0,0,1,5,2.7c.46-2.14.92-4.21,1.36-6.23a22.58,22.58,0,0,1-2.42-2.73Z"/><path class="cls-6" d="M688.7,253a67.94,67.94,0,0,1,12.57-3.56,15.55,15.55,0,0,1,6.62,0,13.5,13.5,0,0,1,4.16,1.93l.6-3.14c-2.72-3.23-5.53-6.39-8.46-9.43a54.52,54.52,0,0,0-9-8.15,17.13,17.13,0,0,0-7.63-2.88c-2.28,9-4.57,18.6-6.78,28.78a74.63,74.63,0,0,1,8-3.59Z"/><path class="cls-6" d="M685,265.07a19.87,19.87,0,0,1,5.39,2.2c1.83.91,3.66,1.84,5.47,2.78q5.89,3.07,11.67,6.35c1.26-7.27,2.61-14.67,4-22.06a12.81,12.81,0,0,0-2.18-1.43c-3.43-1.79-7.11-1-10.7-.16A71.5,71.5,0,0,0,680,260.07q-.66,3.09-1.31,6.24a9.47,9.47,0,0,1,6.28-1.24Z"/><path class="cls-6" d="M696.73,284.86a22.58,22.58,0,0,1,7.93,8.69q1.13-7.05,2.37-14.35c-.8-.46-1.6-.93-2.41-1.38-3.42-1.91-6.87-3.78-10.35-5.58q-2.61-1.37-5.24-2.67a15.59,15.59,0,0,0-4.82-1.94c-2.36-.29-4.56.93-6.29,2.53q-1.6,7.93-3.12,16.27c7-3.07,14.88-5.75,21.93-1.57Z"/><path class="cls-6" d="M675.62,308.62q2.57-1.59,5.18-3.1a31.71,31.71,0,0,1,5.24-2.71,7.52,7.52,0,0,1,5.75.47c1.8.81,3.54,1.77,5.26,2.74s3.55,2.07,5.28,3.19q.76-5.46,1.64-11.18a39.75,39.75,0,0,0-3-5.4,17.26,17.26,0,0,0-6.68-6.07c-3.47-1.66-7.43-1.4-11-.43a56.61,56.61,0,0,0-9,3.46q-1.92,10.8-3.67,22.26,2.5-1.65,5-3.23Z"/><path class="cls-7" d="M601.87,180.36c-14.89,17.92-25,39.47-31.65,61.8s-10.05,45.5-12.61,68.66L582,264.1a110,110,0,0,0-3.6,36.92c3.93-5.91,5.88-12.88,8-19.66a361.26,361.26,0,0,1,34.17-77.17c-2.76,22.41-5.53,45-3.32,67.51L623.76,241q1.22,6.74,2.44,13.49A275.38,275.38,0,0,1,646.48,195a68.46,68.46,0,0,0,7.08,31.33l8.74-25.83q.23,10.47.44,20.93a302.06,302.06,0,0,1,18.86-52.69,142.1,142.1,0,0,0,14.9,43.52c-1-1.76,10.11-19.28,11.38-22q5.22-11.23,9.47-22.89c3.73-10.19,9.32-24.4-1.46-32.45-9.64-7.19-26.48-2.86-37.15-.56a141.16,141.16,0,0,0-39.66,15.08,134,134,0,0,0-37.21,30.89"/><path class="cls-7" d="M850.84,165.9c33.66,28.44,54.39,70.79,59.53,114.55q-11.08-25.26-22.16-50.53A280.18,280.18,0,0,1,884,281.47q-8.52-28.82-14.16-58.38L867.32,251A301.33,301.33,0,0,0,849.2,191l-2.67,56.82q-5-17.61-11.07-34.89.81,12.72,1.63,25.44c-6.61-23.86-13.47-48.24-27.69-68.5a115,115,0,0,1,3.87,34.35,264.94,264.94,0,0,1-15.2-22.37,82,82,0,0,1,4.18,26.73l-32.44-57.47q3.29,14.15,6.58,28.29-11.85-12.74-24.58-24.63,4.16,11.37,8.32,22.76c-2.36-5.17-12.32-11-16.64-14.91-5.83-5.22-12.22-10.17-17.64-15.8-11.94-12.42,2.86-14.13,13.69-15.43,25.39-3,51.43,1.44,74.76,11.72a150.89,150.89,0,0,1,36.54,22.76Z"/><path class="cls-7" d="M670.93,124.3c-1.16-1.2-2.34-2.7-2.09-4.35a5.56,5.56,0,0,1,2-3c19.47-18.23,50.71-22.48,74.34-10.1,3.55,1.86,7,4.12,9.39,7.34s3.55,7.56,2.2,11.33-4.68,6.19-8.06,8.13c-23.52,13.57-58.6,10.57-77.78-9.34"/></g><g class="cls-2"><path class="cls-3" d="M145.62,77.68A162.56,162.56,0,0,0,84.46,45.83c2.91,4.2,7.38,7,11.72,9.71l-18.13-1a70.14,70.14,0,0,1,15,9.3,102.07,102.07,0,0,0-30.22-.63,45.79,45.79,0,0,1,8.35,6.18A18.43,18.43,0,0,0,59,72.62a10.6,10.6,0,0,1,4.13,4.49l-3.38.68C64,86.47,73.59,90.83,82.29,95a271.25,271.25,0,0,1,36,20.74,178.57,178.57,0,0,0-46.53,17.45,36.94,36.94,0,0,0,9.9.62,38,38,0,0,0-7.91,5.5l7.36,1.3-4.81,3.7c8.43-.25,16.51,3,24.57,5.47,21.84,6.69,44.93,7.9,67.74,9.06a15.25,15.25,0,0,0,5.76-.44c3-1,5.13-3.87,6.11-6.9,2.28-7.1-.75-14.72-3.89-21.48a453.21,453.21,0,0,0-24.1-45l-6.86-7.32Z"/><path class="cls-3" d="M220.39,107.51a64.9,64.9,0,0,0-10.48,17.92c11.21-13.42,22.63-27,37.21-36.7a127.27,127.27,0,0,0-15.63,21.63,128.87,128.87,0,0,1,43.1-30.54,113.58,113.58,0,0,0-13.07,14.73q10.78-6.1,21.6-12.12c6.32-3.51,12.93-7.09,20.15-7.52L284.05,93.48c16.31-7.06,33.5-14.27,51.2-12.6q-11.65,6.54-22.74,14a199.65,199.65,0,0,1,48.87-3,231.56,231.56,0,0,0-35.1,11.5,231,231,0,0,1,48.1,1.7l-31.54,9,44.34,3.69c-16.06,3.29-30.49,12.44-46.61,15.44-18.86,3.5-38.12-1.69-57.29-2.48A125.5,125.5,0,0,0,224.33,143c-5.13,2.46-18.23,14-23.59,12.4-6.27-1.84-5.08-13.17-3.3-17.5,4.61-11.24,15.1-21.38,22.95-30.41Z"/><path class="cls-3" d="M170,38.5a22.4,22.4,0,0,0-2.05,8.39A44.07,44.07,0,0,1,193.18,36a34.93,34.93,0,0,0-7,13.25A27,27,0,0,1,195,44.45a37.16,37.16,0,0,0-4.36,11.61,49,49,0,0,0,10.48-6.2,70.87,70.87,0,0,0-9.08,25.76c5.53-7.26,12.37-15.21,21.5-15.29-6.93,10.26-14.05,21-15.65,33.29a68.09,68.09,0,0,1,14.84-14.9,73.22,73.22,0,0,0-10.84,22.66q6-6.07,12-12.16A133.34,133.34,0,0,0,201.92,112a37.92,37.92,0,0,0,9.47-10.9,147.28,147.28,0,0,0-15.57,48.67c-.83,6.11-1.32,12.45-4.17,17.92a3.07,3.07,0,0,1-1.77,1.78c-1.61.4-2.71-1.58-3.15-3.18-1.89-6.73-3.34-13.58-5.52-20.22-2.75-8.35-6.62-16.28-10.48-24.17-8.32-17-17.4-33.91-25-51.27-3.46-7.85.86-12.49,6.32-18.44,2-2.13,17.91-12.52,18-13.69Z"/><path class="cls-4" d="M144.25,134l15.13,13.56a259.56,259.56,0,0,0-47.22-15.47q13,7.41,25.42,15.83a295.67,295.67,0,0,0-52.27-9.72l31.39,14.38a173.47,173.47,0,0,0-61.6.47c1.5,2.55,4.68,3.48,7.55,4.19l30.71,7.57A268.69,268.69,0,0,0,28.69,178.9q18.73,1.71,37.54,2.32A173.17,173.17,0,0,0,6.77,206.45q19.29-3.36,38.7-5.87A141.36,141.36,0,0,0,0,230.43q20.92-10.16,41.49-21A82.77,82.77,0,0,0,9.16,240.66l47.76-37.25a79.92,79.92,0,0,0-15.5,26.08L75.68,190,56.06,225.26l36.1-43.85q-9.82,17.16-19.63,34.32C79.46,210.24,84.75,203,90,195.84Q98.62,183.9,107.29,172l-18,35.6a305.17,305.17,0,0,1,35.62-44.51l-22.55,37.78c10.37-13.54,20.84-27.19,33.72-38.37a135,135,0,0,1-16,25.76c12-6.5,19-20.35,31.44-26a67.9,67.9,0,0,0-14.43,16,153.76,153.76,0,0,1,30.75-16.69,108.56,108.56,0,0,0-20.69,16q13.49-6.69,27.51-12.17A31.06,31.06,0,0,0,162.73,176c2.16-3.36,17.18-6,21.11-7-1.47,1.35-3.08,2.55-4.54,3.89,15.69-2.55,6.56-13.1-1.59-19.12A190.1,190.1,0,0,0,144.25,134Z"/><path class="cls-6" d="M241.66,502.88c-1.38-2.05-30.27-24.69-48-70.81-15.56-40.49-18.32-92.15-20.23-144.69C171.4,232,184,165.83,184,165.83l13.78,4.28S187,218.88,192,280c3.92,48.6,13.94,106.24,34.05,135.31,15.4,22.26,57.33,45.42,57.33,45.42s-1.26,17.89-15,24.84l-26.71,17.35"/><path class="cls-4" d="M209.64,128.91a59.19,59.19,0,0,0-4.58,18.27,110,110,0,0,1,32.17-32.29l-12.09,20.93c13.48-11.88,27.81-24.21,45.4-27.87a101.51,101.51,0,0,0-16.39,17.14,115.39,115.39,0,0,1,48.42-12,88.06,88.06,0,0,0-20.93,9.33c18.51-2.23,37.64-4.43,55.54.82a36.87,36.87,0,0,0-17.86.75,142.88,142.88,0,0,1,44.16,8.32l-28-.1c18.86,6,38.26,12.37,53.3,25.26a145.57,145.57,0,0,1-37.14-12.22A53.45,53.45,0,0,1,364.7,164a169.61,169.61,0,0,0-31.39-19.22A101,101,0,0,1,349.26,169q-23.13-16.09-47.67-30a110.09,110.09,0,0,1,21.27,23.2,361.27,361.27,0,0,0-44.74-26,134.51,134.51,0,0,1,27.22,27,298.79,298.79,0,0,0-57.13-21.84,154.79,154.79,0,0,1,35.53,21.42q-23.52-8.35-47.43-15.52c10.29,4.77,20.63,9.57,30,16a454.68,454.68,0,0,0-44.19-11.56,222.35,222.35,0,0,1,28.69,15.82A235.05,235.05,0,0,0,204,155.64a145.34,145.34,0,0,1,28,12.46,276.92,276.92,0,0,0-35.75-.24l16.46,3.33c-9,1.39-29.65,9.22-26.45-8,1.18-6.28,6.26-12.61,9.84-17.74s11.21-11,13.61-16.58"/><path class="cls-4" d="M175.84,152a264.49,264.49,0,0,0-53.58-55.49c.78,2.4,1.57,4.8,2.34,7.21q-12.78-8.41-26.34-15.6L104.18,95A163.57,163.57,0,0,0,69.65,79.56l13.72,8.76a274.55,274.55,0,0,0-44-2.93L51.26,92a95.42,95.42,0,0,0-24.93,6.8,122.64,122.64,0,0,1,28.35,5.38A68,68,0,0,0,36.45,116.6q17.61.16,35.21-.83l-14,9.39c18.59,0,36.73-11,54.91-7.09a85.42,85.42,0,0,0-20.72,12.41,136.08,136.08,0,0,1,40.23-7.68,52,52,0,0,0-21.39,12.41A114.75,114.75,0,0,1,143,129.42a97.06,97.06,0,0,0-26.5,17.13c10.5-3.44,21.22-6.93,32.28-6.92a52.7,52.7,0,0,1,35.41,13.91c.54.49,1.1,1.25.72,1.87s-1.48-.54-.76-.61l-8.3-2.77Z"/><path class="cls-7" d="M187.77,166.33a165.9,165.9,0,0,1-27.14-26.62l22,13c-18.23-10.72-31.31-28.18-43.8-45.25q15.72,14.13,32.67,26.79a274.48,274.48,0,0,1-37.2-45l26.52,22.73q-16.89-17.81-32.15-37a275.66,275.66,0,0,1,22.27,16.81A447.42,447.42,0,0,1,120.1,55.42,165.11,165.11,0,0,0,138,68.79l-19.64-23.4q12,7.2,23.23,15.44a284.3,284.3,0,0,0-20.49-26.65,150,150,0,0,1,25.21,29.34A83.21,83.21,0,0,1,142.21,40l11.43,35.42a67.68,67.68,0,0,1,2.94-22.45q2.7,19.49,5.38,39c.54-9.8,2-21.22,10.47-26.19a132.58,132.58,0,0,0-7.29,37.81A98.24,98.24,0,0,1,179,80.36a281.13,281.13,0,0,0-10.27,36.43A57.36,57.36,0,0,1,182,98.52a95.2,95.2,0,0,0-7.38,28.73,51.81,51.81,0,0,1,11.36-14,204.17,204.17,0,0,0-8.35,24.57L189.78,123q-3.19,12.41-6.4,24.82c4.2-6,8.61-12.26,15-16-3,6.36-6,12.78-7.5,19.66s-1.23,14.36,2.07,20.57l-5.14-5.74Z"/><path class="cls-7" d="M204.42,166.72a186.5,186.5,0,0,1,43-.52c26,2.69,51.66,11.07,72.69,26.54s37.06,38.34,41.82,64q-8.42-15.11-18.17-29.42a179.55,179.55,0,0,1,6.72,31.35,445.33,445.33,0,0,0-17.33-45.36,193,193,0,0,0,9.26,47.4c-5.9-6.59-8.87-15.23-11.62-23.63q-5.24-16-10.12-32a173,173,0,0,0,4.34,50.3c-3.8-5.5-4.79-12.39-5.87-19a354.37,354.37,0,0,0-8.39-38c-3.75,18.39-1.83,37.4.11,56.07-10.38-19.8-12.62-42.83-12.66-65.18a225.1,225.1,0,0,0-4.31,61.6c-8.56-21.39-5.67-46.3-15.59-67.1q2,25.07,1.58,50.23c-4.76-10.34-5.88-21.92-8.45-33a126.73,126.73,0,0,0-7-21.38,229.81,229.81,0,0,0,6.62,31.9c-10.71-10.45-14.18-26.85-25.39-36.78a121.26,121.26,0,0,1,14.32,38.87Q248.16,192.19,234.43,172a107.85,107.85,0,0,1,11.92,32.54A289.59,289.59,0,0,0,217.23,172l14.3,18.93C223,183.78,214,176.38,203,174.62a49.3,49.3,0,0,0-5.76.12c-5.65.27-13.16.54-13.1-1.65.11-4,17.26-6,20.28-6.37"/><path class="cls-8" d="M200.32,178.18,193,173.39a20.46,20.46,0,0,0-20.77,5.24,22.73,22.73,0,0,0-5.38,21A25.67,25.67,0,0,0,181,216.26a3.26,3.26,0,0,0,2.46.36,4.69,4.69,0,0,0,1.51-1.34c2.55-2.72,6.78-2.75,10.27-4.06,6-2.25,9.81-8.58,10.32-14.95s-1.83-12.68-5.23-18.09"/><path class="cls-8" d="M212.32,170.47l-7.06,5.19a20.43,20.43,0,0,0-2.36,21.28,22.73,22.73,0,0,0,17.75,12.39,25.63,25.63,0,0,0,20.56-7.41,3.25,3.25,0,0,0,1.2-2.18,4.48,4.48,0,0,0-.72-1.88c-1.65-3.35-.2-7.32-.21-11.05,0-6.39-4.59-12.19-10.38-14.9s-12.52-2.73-18.78-1.44"/><path class="cls-9" d="M184.76,185.86c-1.15,4.76-1.07,10.41,2.45,13.81,2.36,2.29,5.75,3.07,9,3.76L212,206.81a3.57,3.57,0,0,0,1.34.11,3.37,3.37,0,0,0,1.78-1.21,32.77,32.77,0,0,0,8.38-18.13,19.55,19.55,0,0,0-1.09-10.12,16.69,16.69,0,0,0-9.69-8.69c-13.29-4.88-24.83,4.18-27.94,17.09"/><path class="cls-7" d="M119.37,182l32.89,1.7c-22.08,6.22-42.09,15.91-58.51,28.33q21.45-7.86,44.17-13.83-25.47,9.14-49.44,20.22l35.19-11.75q-25.23,12.54-48.9,26.67,17.57-8.78,36.46-16a423,423,0,0,0-62.77,36.81c14.08-7.83,28.25-15.71,44.17-21.42Q61.49,253.27,32.7,275.78l38.79-24.71c-19.37,14.28-38.94,28.74-52.82,46.41,15-12.34,30.26-24.8,48.88-34.05-11,9.51-22,19.13-29.6,30.48a209.64,209.64,0,0,1,30.17-25.46c-1.66,11-13.25,20-12.49,31.22l24.93-35.74a93.89,93.89,0,0,0-10.78,28.18,273.52,273.52,0,0,1,28.43-43.44q-2.4,11.19-4.78,22.39c-.47,2.22-.85,4.75,1.07,6.64q8.27-21,16.54-42a69.14,69.14,0,0,0-5.1,32.77q7-21.47,14-42.94a235.11,235.11,0,0,0-7.17,35.35c8.36-13.61,13.79-28.28,19.18-42.89a147.17,147.17,0,0,0-5.37,30.64q10-22,20-44-2.94,15.28-5.87,30.58a210,210,0,0,0,21.07-46.71c-1,10.16-4.07,20-7.17,29.77a81.1,81.1,0,0,0,16.41-31.83,127.59,127.59,0,0,1-5.35,20.78,249.69,249.69,0,0,0,17.14-28.38q-3.75,9-7.52,18.1,7.5-11.19,15-22.37c5.64-8.42,1.48-9.7-9.84-7.54A620.29,620.29,0,0,0,119.37,182Z"/><path class="cls-10" d="M226,415.27c-20.11-29.07-30.13-86.71-34-135.31a426.33,426.33,0,0,1,.39-70.95,4.15,4.15,0,0,0-1.85.3c-.21.1-6.95,14.41-7,14.32a16,16,0,0,1,2.53,14.6c-1.36,4.06-4.23,8.93-1.3,12.05a21.9,21.9,0,0,1,1.91,1.81,6.4,6.4,0,0,1,.85,3.7c.29,7.84,1.81,15.66,1.28,23.49s-3.58,16.06-10.22,20.24l10.11-1.47a6.93,6.93,0,0,1-4.21,6.73,6.06,6.06,0,0,1,5.7,2.69c1.47,2.11,1.86,4.76,2.21,7.31.75,5.38,1.5,10.86.67,16.23s-3.5,10.72-8.16,13.51c3.1,2.23,8.31-3.51,10.69-.53,1.31,1.63-.12,4-1.5,5.55l4.35.81a92.73,92.73,0,0,1-10.51,14.39c1.62,1.16,3.87.45,5.68-.38s3.89-1.74,5.69-.9,1.7,4.34-.28,4.21c4,1.29,4.93,6.78,3.76,10.87s-3.63,7.9-3.6,12.15l6.76-.7a49.42,49.42,0,0,1-3.8,15.07c1.43.49,3-.18,4.39-.72s3.16-.91,4.35,0,.47,3.5-1,3.08l9.69,9.19a10.62,10.62,0,0,1,2.93,3.78c2.49,6.77-9.37,12.87-6.6,19.53l13.52-9.69q.22,3.94.47,7.89c1.58-2.15,5.69-1.2,6.15,1.43l4-.46-9.54,19.38q6.72-5,13.71-9.63a72.44,72.44,0,0,1-7.23,19.6c8-.73,12.55-12.34,20.56-11.42a9.68,9.68,0,0,1-1.8,6.91l4.47-3.34a3.78,3.78,0,0,0,6,1.12c.13,1.95.28,3.91.42,5.87a1.91,1.91,0,0,0,.53,1.45A1.94,1.94,0,0,0,269,469c4.77-2,9.65-4,13.47-7.46.28-.25.56-.52.83-.79v0S241.38,437.53,226,415.27Z"/></g><g class="cls-2"><path class="cls-9" d="M455.78,485.62s11.62-166.17,16.3-217.17C479,193,473.4,61,473.4,61h25.8s11.95,171.11,11.95,230.52S517.45,497,517.45,497,506.3,507.17,483,502.14s-27.23-16.52-27.23-16.52"/><path class="cls-6" d="M489.62,304l-.39.19-.69.38c-1,.6-2,1.29-3,1.89-2.09,1.22-4.68,2.09-6.89.6a9.43,9.43,0,0,1-2.75-3.35,9.13,9.13,0,0,0-2.62-3.4,2.41,2.41,0,0,0-1.67-.49,2.61,2.61,0,0,0-1.59,1.23c-.26.36-.51.72-.75,1.1-.72,9.05-1.48,18.93-2.28,29.27,1.38.25,2.77.7,4.09.91a4.61,4.61,0,0,0,3.82-.86c1.27-1,2.13-2.45,3.39-3.5a6,6,0,0,1,4.7-1.59c1.8.3,2.78,1.89,3.23,3.53.54,2,.94,4,1.41,6l.81,3.52c.42-.85.84-1.7,1.28-2.53.77-1.48,1.56-3,2.41-4.39a3.45,3.45,0,0,1,3.08-2.07,3.6,3.6,0,0,1,2.79,2,32.86,32.86,0,0,1,2.28-5.28c.55-1,1.23-2.14,2.44-2.42a3.18,3.18,0,0,1,3.12,1.5c1.65,2.09,3.16,4.32,4.62,6.56.46.72.91,1.45,1.36,2.18-.25-10.28-.43-19.95-.54-28.61l-.09,0a8.21,8.21,0,0,1-3.9-2.48,4.66,4.66,0,0,0-.75-.72,2.22,2.22,0,0,0-.37-.21l-.24-.07-.13,0h0a.39.39,0,0,1-.34-.12h-.05l-.07.14-.3.08-.22.09-.29.14c-.2.11-.39.23-.58.36a12.07,12.07,0,0,0-1.13.86c-1.65,1.37-3.5,3.14-5.83,2.74-1.43-.25-2.35-1.35-3.28-2.35a4.31,4.31,0,0,0-1.38-1.1l-.26-.08a1.59,1.59,0,0,0-.33-.08v0h0a.33.33,0,0,0-.19-.06h-.55l-.39.08c-.22.06-.45.14-.67.22l-.07,0h0l-.15.07"/><path class="cls-6" d="M505.32,242.89a5.54,5.54,0,0,0-4-.37,10.59,10.59,0,0,0-2.6,1.68c-1.75,1.41-3.65,3-6.06,2.51a8.67,8.67,0,0,1-3.16-1.7c-.8-.56-1.69-1.19-2.64-.72s-1.82,1.9-2.54,2.84a21,21,0,0,1-2.92,3.32,8.08,8.08,0,0,1-7.12,2.11,8.29,8.29,0,0,1-.93-.29c-.35,5.57-.77,11-1.24,16.06q-.25,2.84-.54,6.12a8.43,8.43,0,0,1,4.07-1.85,6.63,6.63,0,0,1,6.39,2.72l2.67-3.41c.86-1.11,1.77-2.6,3.27-2.88a2,2,0,0,1,2.06.89,5.82,5.82,0,0,1,.52,2.33c.31,2.41.61,4.82.92,7.23L497.63,269a1,1,0,0,1,1.56-.2,11.68,11.68,0,0,1,2.3,4.18,58.05,58.05,0,0,1,8.06-9.9.91.91,0,0,1,1-.21c-.18-5.75-.42-11.85-.68-18.21l-.09,0c-1.53-.52-3-1.19-4.5-1.77Z"/><path class="cls-6" d="M506.78,367.63a20.56,20.56,0,0,1-3.83-3.45,4.92,4.92,0,0,0-1.66-1.12,2.08,2.08,0,0,0-1.73.21c-1.28.76-2,2.32-3.11,3.36a6.18,6.18,0,0,1-5.11,1.72c-3.92-.43-6.38-3.43-8.39-6.52-2.42,2.23-5.14,4.41-8.51,4.74a7.54,7.54,0,0,1-7-3.22,8.35,8.35,0,0,1-.88-3.65,8,8,0,0,0-.26-1.57,1.75,1.75,0,0,0-.24-.57l0,0-.06-.06c.05,0,0,0,0,0s-.12,0,0,0h0l-.1,0s0,0,0,0,0,0-.12,0a1.58,1.58,0,0,0-.55.51l-.16.23c-.78,10.49-1.56,21.1-2.32,31.5a6.24,6.24,0,0,1,4.37,1.48,15.52,15.52,0,0,1,3.18,4.49,11.63,11.63,0,0,0,2.76,3.66l4.09-3.22c.81-.63,1.6-1.31,2.43-1.89a3.06,3.06,0,0,1,2.5-.62c1.72.46,2.33,2.49,3,3.9s1.23,2.65,1.84,4a22.72,22.72,0,0,1,4.58-4.86,1,1,0,0,1,1.67.44,29.52,29.52,0,0,1,1.66,6.28c.43-1.65.87-3.3,1.36-4.93.52-1.79,1-3.62,1.7-5.36.59-1.53,1.62-3,3.41-3.07s3.26,1.19,4.43,2.35,2.51,2.6,3.69,4a71.77,71.77,0,0,1,4.51,5.93c-.38-11.13-.75-22.53-1.09-33.76a9.17,9.17,0,0,1-5.93-.86"/><path class="cls-6" d="M495.4,209.84a5.12,5.12,0,0,1,3.22.44c2.26,1,4,2.92,5.8,4.56l4.32,3.94c-.55-11.09-1.15-22.56-1.79-34a6.32,6.32,0,0,0-1.55-.34c-2.52-.18-4.38,1.82-6.13,3.34s-4.25,3.28-6.83,2.65A4.77,4.77,0,0,1,489,187.2c-1.93,1.23-3.17,3.48-4.42,5.31a11.39,11.39,0,0,1-6.24,5,5.73,5.73,0,0,1-3,0c-.12,7.37-.28,14.71-.5,21.92a5.63,5.63,0,0,1,.81.11c2.28.46,3.47,2.33,4.77,4.06a7.73,7.73,0,0,0,.84,1,3.48,3.48,0,0,0,.37.32,2.26,2.26,0,0,0,.26.16l.06,0,.06,0,.21.06h.34l.24-.07a2.55,2.55,0,0,0,1-1c.78-1.16,1.5-2.34,2.36-3.45a36.81,36.81,0,0,1,2.89-3.34,1,1,0,0,1,1.56.19l.53.88.6-2.28a24,24,0,0,1,1.22-4.19,3.74,3.74,0,0,1,2.48-2.11Z"/><path class="cls-6" d="M507.16,461.24a13.31,13.31,0,0,0,2.11,3.31,9.07,9.07,0,0,0,3.11,2,18.6,18.6,0,0,0,3.87,1c-.39-9.56-.83-21-1.3-33.42L512.3,433c-1.11-.51-2.22-1.11-3.37-1.52a1.29,1.29,0,0,0-1.21,0,3.49,3.49,0,0,0-.8.95,19.6,19.6,0,0,1-2,2.44,8.58,8.58,0,0,1-5.39,2.87,6.13,6.13,0,0,1-4.44-1.73,19,19,0,0,1-2.79-3.4c-.4-.56-.78-1.08-1.16-1.54a9.07,9.07,0,0,0-.72-.81l-.32-.31-.27-.22a5.09,5.09,0,0,0-.78-.48l0,0-.23-.08-.37-.1-.15,0H488a2.57,2.57,0,0,0-.48,0,3.77,3.77,0,0,0-1.18.37c-1.77.89-3.13,2.42-5.13,2.83a4.69,4.69,0,0,1-2.75-.18,3.57,3.57,0,0,1-1.91-2.2,2.11,2.11,0,0,0-.56-1,1.4,1.4,0,0,0-.66-.27,3.42,3.42,0,0,0-1.83.37c-1.63.83-2.32,2.58-3.21,4.09-1,1.75-2.64,3.8-4.91,3.7-2.11-.1-3-2.12-3.33-3.95-.18-1.1-.26-2.22-.47-3.32a33.45,33.45,0,0,0-.84-3.56c-.18-.61-.38-1.24-.59-1.85-.79,10.91-1.51,21-2.12,29.68l1.12-1.2c.78-.8,1.57-1.58,2.39-2.34a5.71,5.71,0,0,1,2.71-1.68c2-.38,3.6.91,4.74,2.41a36.81,36.81,0,0,1,2.9,5.35,59.41,59.41,0,0,0,3.44,5.67,57.29,57.29,0,0,0,7.62,9c.81-2,1.67-4,2.57-6q1.46-3.21,3.05-6.34c.8-1.56,1.85-4.53,4.07-4.33,1.1.1,1.68,1,2.11,1.9.53,1.13,1.05,2.26,1.58,3.38l2.62,5.67a8.66,8.66,0,0,0,3.64-5.94,1,1,0,0,1,1.26-1c1.6.23,2.6,1.61,3.31,2.93"/><path class="cls-6" d="M500.81,435.44a11,11,0,0,0,4.34-3.94,4.43,4.43,0,0,1,2.39-2.08c1.24-.3,2.41.34,3.5.84l3.83,1.74c-.31-8.31-.63-17.05-.94-26a87.52,87.52,0,0,0-5.76-7.93c-1.13-1.33-2.31-2.63-3.54-3.87a11.65,11.65,0,0,0-1.81-1.63,2.47,2.47,0,0,0-1.75-.56c-1.3.26-1.66,2.35-2,3.36-.58,1.77-1.11,3.55-1.62,5.34q-1.53,5.46-2.66,11c-.22,1.09-2.1.85-2-.27A28.93,28.93,0,0,0,491.62,399a21.6,21.6,0,0,0-4.12,5,1,1,0,0,1-1.72,0q-1.15-2.49-2.3-5c-.36-.78-.71-1.56-1.08-2.33-.18-.36-.44-1-.83-1.16s-1.21.46-1.58.76l-2,1.56-4.3,3.38a1,1,0,0,1-1.2.15,11.71,11.71,0,0,1-4-4.73,13.28,13.28,0,0,0-3-4.16,5.92,5.92,0,0,0-.91-.55,4.57,4.57,0,0,0-1.38-.32,4.34,4.34,0,0,0-.72,0c-.73,9.91-1.43,19.59-2.09,28.74a5.33,5.33,0,0,1,1.12,1.77,31.62,31.62,0,0,1,1.18,3.39,31.31,31.31,0,0,1,.83,3.57c.19,1.08.27,2.2.45,3.27a4.12,4.12,0,0,0,.73,2,1,1,0,0,0,.82.36,2.24,2.24,0,0,0,1.28-.52c1.53-1.17,2.18-3.17,3.22-4.71a6.32,6.32,0,0,1,4.47-2.91,3.8,3.8,0,0,1,2.34.43,4.3,4.3,0,0,1,1.68,2.4,1.43,1.43,0,0,0,1.44.89,4.17,4.17,0,0,0,2.2-.61c1.81-1.06,3.31-2.62,5.53-2.72a5.37,5.37,0,0,1,3.8,1.53,20.17,20.17,0,0,1,2.7,3.33c.44.61.81,1.12,1.25,1.65.23.28.48.54.73.79l.35.32.25.22a4.1,4.1,0,0,0,1.71.82,4,4,0,0,0,2.32-.25"/><path class="cls-6" d="M485.8,80.67a6.91,6.91,0,0,0-1.31-1.49A10.62,10.62,0,0,0,476.57,77a15.91,15.91,0,0,0-2.57.46c.18,5.4.38,12,.57,19.4l.27.34a3.4,3.4,0,0,0,1.74,1.21,4.81,4.81,0,0,0,2.2,0,11.7,11.7,0,0,0,4.75-2.56,17.59,17.59,0,0,1,5.09-3.08,11.32,11.32,0,0,1,4.7-.44,38.9,38.9,0,0,1,8.13,2.11c-.28-4.31-.54-8.31-.78-11.92a11.36,11.36,0,0,1-1.29-.8,16.79,16.79,0,0,0-4.24-2.45A4.29,4.29,0,0,0,493,79a3.65,3.65,0,0,0-1.7,1c-1,.94-2.21,2.3-3.76,2.12a2.18,2.18,0,0,1-1.12-.43,4,4,0,0,1-.66-1"/><path class="cls-6" d="M489.25,164.86a2.18,2.18,0,0,0-2.23.51c-.74.77-1.08,1.84-1.84,2.6a3.27,3.27,0,0,1-3.1,1c-1.19-.34-1.46-1.42-2.12-2.29-1-1.3-2.91-1.53-4.42-1.16,0,9.84,0,19.87-.18,29.86a3.65,3.65,0,0,0,2.85,0,8.21,8.21,0,0,0,3.15-2,20.35,20.35,0,0,0,2.39-3.22c1.56-2.32,3.29-4.64,6.06-5.55a1,1,0,0,1,1.22,1.23,1.87,1.87,0,0,0,.92,2.19,3.16,3.16,0,0,0,3,.22c2.23-.81,3.81-2.89,5.69-4.25a8,8,0,0,1,3.29-1.5,7,7,0,0,1,2.91.15c-.25-4.5-.51-9-.77-13.47-.92-1.45-1.78-3-2.83-4.36a3.17,3.17,0,0,0-3.33-1.34c-3.06.72-4.12,4-5,6.67a1,1,0,0,1-1.93,0c-.63-2-1.42-4.69-3.77-5.31Z"/><path class="cls-6" d="M481,75.4a10.42,10.42,0,0,1,6.75,4.84s.14,0,0,0c.16,0,0,0,.11,0l.16,0a3.63,3.63,0,0,0,.73-.48c.66-.56,1.25-1.19,1.95-1.71,3-2.2,6.72,0,9.26,1.84l.47.33c-.8-12-1.3-19.14-1.3-19.14H473.4s.23,5.34.53,14.48a15.39,15.39,0,0,1,7.11-.1"/><path class="cls-6" d="M501.86,276.21a1,1,0,0,1-1.86-.5,9.53,9.53,0,0,0-1.42-4.37L491.69,283a1,1,0,0,1-1.12.46,1,1,0,0,1-.74-1c-.24-1.92-.49-3.83-.73-5.75-.12-.94-.25-1.89-.36-2.83s-.17-1.78-.35-2.64c0-.15-.15-.29,0-.28-.22,0-.52.26-.67.39a14.54,14.54,0,0,0-1.72,2.11L482.39,278a1,1,0,0,1-1.66-.45,3.54,3.54,0,0,0-2.31-2.71c-2.7-1.1-5.33.55-7.14,2.55-.53,6.19-1.12,13.36-1.75,21.25a3.46,3.46,0,0,1,.46-.32,4.13,4.13,0,0,1,4.65.54,11.48,11.48,0,0,1,2.92,3.78,6.46,6.46,0,0,0,2.6,3,2.55,2.55,0,0,0,1.31.23,2.15,2.15,0,0,0,.66-.09,7.32,7.32,0,0,0,.76-.23c.2-.08.39-.16.67-.3s.5-.26.75-.4c.51-.29,1-.61,1.5-.93,1.9-1.22,4.07-2.73,6.46-2.26a6.28,6.28,0,0,1,3.26,2.27,4.34,4.34,0,0,0,1.4,1.19,3.07,3.07,0,0,0,.36.11l.1,0h.46l.08,0a6.2,6.2,0,0,0,2.35-1.3c.89-.72,1.74-1.5,2.7-2.13a4.58,4.58,0,0,1,2.9-.89,3.58,3.58,0,0,1,1.83.7c.65.49,1.13,1.13,1.72,1.67a5.34,5.34,0,0,0,1.8,1.07c-.05-4.66-.08-9-.08-13,0-6.62-.14-14.65-.41-23.66-.28-.73-.57-1.45-.85-2.17a56.08,56.08,0,0,0-8,10.61"/><path class="cls-6" d="M488.59,94.87a24.86,24.86,0,0,0-4.9,3.32,10.86,10.86,0,0,1-4.94,2.21,6.09,6.09,0,0,1-4.11-.75c.12,4.88.24,10.1.35,15.6a2,2,0,0,0,.47.53,1.71,1.71,0,0,0,1.73-.09c1.74-.83,2.66-2.66,4.14-3.83a4.79,4.79,0,0,1,2.71-1.13,3.41,3.41,0,0,1,1,.1,2.69,2.69,0,0,1,.8.54l.2.17a7.49,7.49,0,0,1,3.18-3.86,3.46,3.46,0,0,1,2.69-.22,5.19,5.19,0,0,1,2.43,2.2,36.52,36.52,0,0,0,3.79,4.8A16.07,16.07,0,0,0,503,118.1c-.49-7.75-1-15-1.39-21.55-2.83-.92-5.7-2.07-8.66-2.29a9.2,9.2,0,0,0-4.34.61Z"/><path class="cls-6" d="M485.55,336l-.78-3.38a18.77,18.77,0,0,0-.74-2.86,2.05,2.05,0,0,0-1.27-1.3,2.77,2.77,0,0,0-1.72.19c-1.46.59-2.4,1.88-3.42,3a7.89,7.89,0,0,1-3.93,2.69,10.14,10.14,0,0,1-4.64-.32c-.73-.18-1.47-.4-2.22-.55-.55,7.21-1.11,14.62-1.67,22.11a2.38,2.38,0,0,1,1.22,0c1.22.29,1.73,1.58,1.94,2.69.12.63.18,1.28.24,1.92a6.37,6.37,0,0,0,.26,1.59c.72,2.15,3.56,3.13,5.68,2.86,3.16-.4,5.72-2.91,7.94-5a1,1,0,0,1,1.57.21,18.59,18.59,0,0,0,4.18,5.23,6,6,0,0,0,5.42,1.14c1.51-.52,2.36-2.06,3.35-3.2a4.77,4.77,0,0,1,4.41-1.92c1.62.28,2.85,1.56,3.93,2.69a8.13,8.13,0,0,0,4,2.76,9.31,9.31,0,0,0,3.33,0c-.28-9.33-.54-18.51-.75-27.31a103.6,103.6,0,0,0-7.13-10.94c-.32-.44-1.11-1.81-1.8-1.38a2.55,2.55,0,0,0-.72.94q-.45.78-.84,1.59a30,30,0,0,0-2.37,6.85A1,1,0,0,1,498,337a1,1,0,0,1-.87-1,5.71,5.71,0,0,0-1.32-3.05,1.18,1.18,0,0,0-.46-.35l-.18-.06q-.18,0,0,0h-.16l-.2.06a1.88,1.88,0,0,0-.27.17,3.08,3.08,0,0,0-.56.73A94.9,94.9,0,0,0,489,343a1,1,0,0,1-1.83-.24c-.52-2.28-1.05-4.57-1.58-6.84"/><path class="cls-6" d="M515.54,469.53a14.33,14.33,0,0,1-7.64-3.46,13,13,0,0,1-2.3-3.46,5.7,5.7,0,0,0-1.28-1.85,10.68,10.68,0,0,1-5.29,6.82,1,1,0,0,1-1.36-.36l-3.15-6.77-1.41-3a2.9,2.9,0,0,0-.54-1c-.14-.11-.17-.08-.33,0a5.51,5.51,0,0,0-1.33,2.05c-.5,1-1,1.92-1.47,2.89q-2.82,5.69-5.16,11.58a1,1,0,0,1-1.67.44,60.66,60.66,0,0,1-9.39-11A61.58,61.58,0,0,1,470,457a31.55,31.55,0,0,0-2.69-4.95,4.52,4.52,0,0,0-1.62-1.38,1.91,1.91,0,0,0-2,.36,21.66,21.66,0,0,0-2.31,2.18c-.75.74-1.48,1.51-2.2,2.29-.47.53-.94,1.06-1.4,1.6-1.23,17.35-2,28.46-2,28.46S459.73,497,483,502s34.44-5.19,34.44-5.19-.46-10.58-1.12-27.18l-.79-.13"/><path class="cls-6" d="M503.23,216.45l-2.86-2.62a10.59,10.59,0,0,0-2.41-1.67,3,3,0,0,0-2.28-.33c-.84.34-1.12,1.28-1.34,2.08-.66,2.42-1.27,4.87-1.9,7.3a1,1,0,0,1-1.83.24l-1.07-1.77a30.64,30.64,0,0,0-2.24,2.73q-.69,1-1.32,2a10.5,10.5,0,0,1-1.19,1.69,3.3,3.3,0,0,1-3.05,1.07,4.24,4.24,0,0,1-2.22-1.46c-1.18-1.33-2.07-3.47-3.89-4.06a4.25,4.25,0,0,0-.86-.18c-.32,9.9-.74,19.54-1.31,28.68a4,4,0,0,0,1.92.63,5.59,5.59,0,0,0,3.11-.66,11.32,11.32,0,0,0,3.08-2.69c.93-1.09,1.71-2.3,2.62-3.4a4.35,4.35,0,0,1,3.57-1.84,6.93,6.93,0,0,1,3.32,1.58,4.14,4.14,0,0,0,2.82,1.07l.29-.06.32-.1a3,3,0,0,0,.53-.24,11,11,0,0,0,1.36-.9c.89-.67,1.76-1.45,2.71-2.06a6.57,6.57,0,0,1,3.6-1.17,13,13,0,0,1,4.82,1.4c.75.32,1.52.62,2.3.9-.29-6.75-.61-13.76-1-20.95l-5.64-5.16Z"/><path class="cls-6" d="M502.09,119.9c-3.61-1.61-6.39-4.83-8.64-8a12,12,0,0,0-1.69-2.25,1.58,1.58,0,0,0-.85-.4,1.31,1.31,0,0,0-.77.16c-1.42.74-2.26,2.54-2.72,4a1,1,0,0,1-1.67.44l-1.41-1.13a2.67,2.67,0,0,0-1.94.81,21.55,21.55,0,0,0-1.95,2.1A6.08,6.08,0,0,1,476,118a3.5,3.5,0,0,1-.92-.19c.11,5.87.21,12,.3,18.41a1,1,0,0,1,.66.67,6.45,6.45,0,0,0,5.58,4.75,5.8,5.8,0,0,0,3.15-.44,12.56,12.56,0,0,0,3.21-2.6,11.09,11.09,0,0,1,3.61-2.62,9.8,9.8,0,0,1,5.45,0l7.17,1.34c-.36-5.85-.71-11.52-1.05-17-.35-.12-.69-.24-1-.39Z"/><path class="cls-6" d="M501.42,138.76c-2-.38-4.08-.84-6.13-1.13a5.53,5.53,0,0,0-4.46,1c-1.2.91-2.16,2.1-3.31,3.05a8,8,0,0,1-3.85,1.86,8.5,8.5,0,0,1-4.15-.4,9.09,9.09,0,0,1-4.14-3c.09,7.55.14,15.37.16,23.33a6.24,6.24,0,0,1,5.83,1.78,15.22,15.22,0,0,1,.94,1.47.53.53,0,0,0,.68.29c1-.27,1.45-1.52,2-2.3a4.19,4.19,0,0,1,2.77-1.92,5.13,5.13,0,0,1,3.44.7A7.2,7.2,0,0,1,494,167a12.21,12.21,0,0,1,1.66-2.94,6.8,6.8,0,0,1,4.3-2.53,5,5,0,0,1,4.61,1.83,18.7,18.7,0,0,1,1.28,1.75c-.5-8.79-1-17.44-1.53-25.77l-2.88-.53Z"/><path class="cls-3" d="M613.46,140.66A128.77,128.77,0,0,0,490.71,42.44L450.83,47.8c-27.18,22.07-36,59.11-43.15,93.38a17.89,17.89,0,0,1,6-7.9,177.06,177.06,0,0,0-2,69.55,157.74,157.74,0,0,1,14.85-21.89l2.49,4.31a230.78,230.78,0,0,0,34.08-57.84,161.08,161.08,0,0,0,1.86,80.21,62.81,62.81,0,0,1,10.65-19.16,141,141,0,0,0,9.13,59.28,244.2,244.2,0,0,0,15-60.14l6,19.37a191.58,191.58,0,0,0,4.71-77.79,290.82,290.82,0,0,0,38.78,54.23,107.71,107.71,0,0,0,4-26.27,130.61,130.61,0,0,0,17.13,43.1,79,79,0,0,0,1.26-64.71A98.14,98.14,0,0,1,587,151.4a43.37,43.37,0,0,0-3.86-18.59,42.35,42.35,0,0,0,30.3,7.85"/><path class="cls-4" d="M416.21,32a123,123,0,0,0-56.38,79.7l7.58-4.68q-.12,3.84-.25,7.68a94.27,94.27,0,0,0,25.73-24.15l-2.37,21.8a327.64,327.64,0,0,1,47.72-50.9c-20.95,27.72-37.42,61.31-34.24,95.91a253.78,253.78,0,0,1,24.93-20q.31,3.94.61,7.91a130.91,130.91,0,0,0,24.15-51.37l2.84,22.94a231.93,231.93,0,0,0,34.25-49.09c-6.14,33.41-12.23,68.27-2.85,100.92l6-10.3a26.82,26.82,0,0,0,2.74,18.92c5.88-17.61,11.78-35.34,14.37-53.72s1.66-37.66-5.73-54.69q23.84,31.38,45.91,64a24.28,24.28,0,0,1,5.66-11.55q3.26,7.41,6.53,14.83a9.64,9.64,0,0,1,9.08,4.86c1.27-28.53-13.78-57.22-38-72.38a82.45,82.45,0,0,1,55.84,33.22q-.52-3.5-1.06-7A90.41,90.41,0,0,1,610.23,118a137.19,137.19,0,0,0,7.08-27.1A73.19,73.19,0,0,0,641.07,121c1-14.36-4.73-28.6-13.39-40.09s-20.15-20.54-32-28.71c-17.6-12.12-36.52-22.68-57-28.62C516.06,17,497.7,20.9,475.23,22.38a70.2,70.2,0,0,1-13.38-.79c-5.16-.63-10.33-1.27-15.7-.56A78.9,78.9,0,0,0,416.21,32"/><path class="cls-7" d="M412.23,11.66c-11.13,2.28-23.29,5.45-29.47,15l14.72-1.75L391,32.73l23-6.4q-3.93,4.43-7.87,8.83A180.41,180.41,0,0,1,484.9,27c-12.58,4.77-26.07,6.79-38.59,11.7a89.39,89.39,0,0,0-45.22,39.75q5.85-3.66,11.72-7.3a81.06,81.06,0,0,0-12.71,31,410.6,410.6,0,0,0,41.09-28.53q-2.06,6.7-4.1,13.41,27.6-24.34,52.72-51.34a185.21,185.21,0,0,0-12.54,72.32q4-4.29,8-8.57a191.8,191.8,0,0,0,9.07,44.36,99,99,0,0,0,14.1-45.27,15.71,15.71,0,0,0,5.85,5.28A107.64,107.64,0,0,0,511,45.56c3.83,1.69,6.8,4.81,9.67,7.85l37.54,39.78q1.61-6.14,3.22-12.26,2.73,6.13,5.48,12.27,2.45-3.14,4.91-6.26,12.45,14.49,24.89,29c6.24-11.27,4.25-25.76-2.32-36.84s-17.07-19.27-28-26.11A199.74,199.74,0,0,0,515.92,30.4a140.08,140.08,0,0,1,96.72,19.88L604,38.22a101.85,101.85,0,0,0,29,21.73c-2.25-11.07-11.55-19.26-21-25.39a141.16,141.16,0,0,0-107.4-18.23c-4.53,1.07-10.21,4.05-14.91,3.37-5.1-.74-26.51-18.47-77.47-8"/></g></g></g></g></svg>