<svg xmlns="http://www.w3.org/2000/svg" viewBox="0 0 380.65 68.02"><defs><style>.cls-1{fill:#009440;}</style></defs><g id="Capa_2" data-name="Capa 2"><g id="Capa_1-2" data-name="Capa 1"><polygon class="cls-1" points="221.06 0 234.26 0 222.17 9.97 212.96 9.97 221.06 0"/><path class="cls-1" d="M12.08,45.32A22.81,22.81,0,0,1,7,42.71,19.07,19.07,0,0,1,2.15,38,12,12,0,0,1,0,30.71,15.35,15.35,0,0,1,4.69,19.44,15.41,15.41,0,0,1,16,14.75a15.37,15.37,0,0,1,11.27,4.69A15.35,15.35,0,0,1,32,30.71H21.32A5.36,5.36,0,0,0,16,25.39a5.33,5.33,0,0,0-5.32,5.32A4.8,4.8,0,0,0,13,35a14.79,14.79,0,0,0,3.49,1.8c.37.14,1.39.44,3.06.93a22,22,0,0,1,5.25,2.41,18.5,18.5,0,0,1,5,4.55A11.62,11.62,0,0,1,32,52a15.41,15.41,0,0,1-4.69,11.3A15.37,15.37,0,0,1,16,68,15.41,15.41,0,0,1,4.69,63.33,15.41,15.41,0,0,1,0,52H10.68A5.31,5.31,0,0,0,16,57.35,5.34,5.34,0,0,0,21.32,52q0-3.37-2.7-4.37L15,46.31Z"/><path class="cls-1" d="M79,14.75v32A21.36,21.36,0,0,1,57.64,68,21.32,21.32,0,0,1,36.32,46.71v-32H47v32a10.61,10.61,0,0,0,18.14,7.51,10.21,10.21,0,0,0,3.14-7.51v-32Z"/><path class="cls-1" d="M96,45.32a23,23,0,0,1-5.09-2.61A19.24,19.24,0,0,1,86.09,38a12,12,0,0,1-2.15-7.29,15.36,15.36,0,0,1,4.7-11.27,15.92,15.92,0,0,1,22.57,0,15.35,15.35,0,0,1,4.69,11.27H105.26A5.32,5.32,0,0,0,96.17,27a5.14,5.14,0,0,0-1.55,3.75A4.79,4.79,0,0,0,96.92,35a14.77,14.77,0,0,0,3.48,1.8c.38.14,1.4.44,3.06.93a21.81,21.81,0,0,1,5.25,2.41,18.5,18.5,0,0,1,5,4.55A11.56,11.56,0,0,1,115.9,52a16,16,0,0,1-27.26,11.3A15.41,15.41,0,0,1,83.94,52H94.62a5.31,5.31,0,0,0,9.07,3.76A5.07,5.07,0,0,0,105.26,52q0-3.37-2.69-4.37l-3.65-1.35Z"/><path class="cls-1" d="M157.23,16.84a27.76,27.76,0,0,1,8.51,5.7l-7.53,7.54a15.57,15.57,0,0,0-11.31-4.69,15.31,15.31,0,0,0-11.28,4.71,15.44,15.44,0,0,0-4.68,11.28,16,16,0,0,0,27.27,11.27l7.53,7.54a27.49,27.49,0,0,1-8.51,5.73,26.54,26.54,0,0,1-29.15-5.71,25.68,25.68,0,0,1-7.82-18.83,25.67,25.67,0,0,1,7.82-18.8,26.55,26.55,0,0,1,29.15-5.74Z"/><path class="cls-1" d="M169.54,52V14.75h18.64a18,18,0,0,1,13.19,5.48,18,18,0,0,1,5.48,13.16,18,18,0,0,1-3.39,10.69,18.36,18.36,0,0,1-8.64,6.72l12,17.22h-13l-13.62-19.5V68H169.54Zm18.64-10.65a8,8,0,0,0,8-8,7.74,7.74,0,0,0-2.35-5.64,7.65,7.65,0,0,0-5.65-2.36h-8v16Z"/><path class="cls-1" d="M211.71,14.75h10.67V68H211.71Z"/><path class="cls-1" d="M262.13,39a18.52,18.52,0,0,1-2.3,23.55A18,18,0,0,1,246.64,68H228V14.75h13.32a12.81,12.81,0,0,1,9.4,3.91,12.83,12.83,0,0,1,3.92,9.4,13.33,13.33,0,0,1-.66,4.17A18.93,18.93,0,0,1,262.13,39Zm-20.81-8.29A2.35,2.35,0,0,0,244,28.06a2.36,2.36,0,0,0-2.68-2.67h-2.64v5.32Zm0,10.67h-2.64v16h8A7.74,7.74,0,0,0,252.29,55a8,8,0,0,0-5.65-13.64Z"/><path class="cls-1" d="M301.3,14.75V25.39H280V36.06h16V46.71H280V57.35H301.3V68h-32V14.75Z"/><path class="cls-1" d="M330.09,14.75h13.32V25.39H330.09V68H319.41V25.39H306.09V14.75h24Z"/><path class="cls-1" d="M380.65,14.75V25.39H359.37V36.06h16V46.71h-16V57.35h21.28V68h-32V14.75Z"/></g></g></svg>