<svg xmlns="http://www.w3.org/2000/svg" viewBox="0 0 586.18 138.49"><defs><style>.cls-1{fill:#fff;}</style></defs><g id="Capa_2" data-name="Capa 2"><g id="Capa_1-2" data-name="Capa 1"><path class="cls-1" d="M76.08,31.6A57.15,57.15,0,0,1,93.6,43.5L78.09,59.24a31.78,31.78,0,0,0-23.26-9.8A31.3,31.3,0,0,0,31.6,59.28,32.5,32.5,0,0,0,22,82.85a32.37,32.37,0,0,0,9.63,23.58,31.41,31.41,0,0,0,23.23,9.76A31.3,31.3,0,0,0,73.94,110,33.57,33.57,0,0,0,85.85,94h-31V71.74h53.74a55,55,0,0,1,1.08,11.11,53.9,53.9,0,0,1-16.12,39.31q-16.11,16.34-38.7,16.33T16.09,122.16A54,54,0,0,1,0,82.85,54,54,0,0,1,16.09,43.57Q32.17,27.22,54.83,27.21A52,52,0,0,1,76.08,31.6Z"/><path class="cls-1" d="M145,122.61l-7.07,15.88h-23.4l46.94-106.1,2.31-5.18,2.38,5.25,47,106H189.66l-7-16-.34-.75h-37Zm27.42-23-8.57-19.47-8.64,19.47Z"/><path class="cls-1" d="M239.46,27.21v89h43.8v22.3H217.48V27.21Z"/><path class="cls-1" d="M358.91,27.21V49.44H315.1v22.3H348V94H315.1v22.22h43.81v22.3H293.13V27.21Z"/><path class="cls-1" d="M368.78,105.08V27.21h38.36a36.73,36.73,0,0,1,27.14,11.46,37.75,37.75,0,0,1,11.29,27.48,39,39,0,0,1-24.76,36.38l24.76,36h-26.8l-28-40.73v40.73h-22Zm38.36-22.23A15.72,15.72,0,0,0,418.77,78a16.79,16.79,0,0,0,0-23.57,15.68,15.68,0,0,0-11.63-4.94H390.75V82.85Z"/><path class="cls-1" d="M455.58,27.21h22V138.49h-22Z"/><path class="cls-1" d="M518,122.61,511,138.49h-23.4l46.94-106.1,2.31-5.18,2.38,5.25,47,106H562.72l-7-16-.34-.75h-37Zm27.41-23-8.57-19.47-8.64,19.47Z"/><polygon class="cls-1" points="473.68 0 500.08 0 475.89 19.94 457.46 19.94 473.68 0"/></g></g></svg>