<svg xmlns="http://www.w3.org/2000/svg" viewBox="0 0 1121.57 152.64"><defs><style>.cls-1{fill:#fff;}</style></defs><g id="Capa_2" data-name="Capa 2"><g id="Capa_1-2" data-name="Capa 1"><path class="cls-1" d="M80.11,41.73A60.31,60.31,0,0,1,98.56,54.09L82.23,70.42a33.72,33.72,0,0,0-24.5-10.17,33.23,33.23,0,0,0-24.46,10.2A33.49,33.49,0,0,0,23.13,94.91a33.31,33.31,0,0,0,10.14,24.46,33.33,33.33,0,0,0,24.46,10.14A33.29,33.29,0,0,0,77.86,123a34.77,34.77,0,0,0,12.53-16.58H57.73V83.38h56.58a55.52,55.52,0,0,1,1.15,11.53,55.55,55.55,0,0,1-17,40.8q-17,16.93-40.75,16.93a55.6,55.6,0,0,1-40.79-16.93A55.63,55.63,0,0,1,0,94.91Q0,71.14,16.94,54.16a55.52,55.52,0,0,1,40.79-17A55.66,55.66,0,0,1,80.11,41.73Z"/><path class="cls-1" d="M152.63,136.17l-7.45,16.47H120.54L170,42.56l2.43-5.37,2.51,5.44,49.49,110H199.69l-7.38-16.54-.35-.79H153Zm28.87-23.92-9-20.2-9.09,20.2Z"/><path class="cls-1" d="M255.16,103.44a49.89,49.89,0,0,1-11-5.66,41.66,41.66,0,0,1-10.49-10.21Q229,81.24,229,71.78a33.3,33.3,0,0,1,10.17-24.42,34.5,34.5,0,0,1,48.92,0,33.3,33.3,0,0,1,10.17,24.42H275.18a11.53,11.53,0,0,0-23.06,0,10.41,10.41,0,0,0,5,9.35,32.42,32.42,0,0,0,7.55,3.9c.82.29,3,1,6.63,2a48,48,0,0,1,11.39,5.22,40.22,40.22,0,0,1,10.78,9.85q4.8,6.19,4.8,15.87A34.63,34.63,0,0,1,229,118h23.13a11.53,11.53,0,0,0,23.06,0q0-7.31-5.83-9.46c-3.9-1.43-6.53-2.41-7.92-2.93Z"/><path class="cls-1" d="M359.7,37.19h28.87V60.25H359.7v92.39H336.57V60.25H307.7V37.19h52Z"/><path class="cls-1" d="M400,118V37.19h40.39A39,39,0,0,1,469,49.08a38.84,38.84,0,0,1,11.89,28.5,38.91,38.91,0,0,1-7.34,23.17,40,40,0,0,1-18.73,14.58l26.07,37.31H452.67l-29.51-42.25v42.25H400Zm40.39-23.07a17.36,17.36,0,0,0,17.34-17.33,17.43,17.43,0,0,0-17.34-17.33H423.16V94.91Z"/><path class="cls-1" d="M589.9,54.16q17,17,17,40.75a55.55,55.55,0,0,1-17,40.8q-17,16.93-40.75,16.93a55.6,55.6,0,0,1-40.79-16.93,55.63,55.63,0,0,1-16.94-40.8q0-23.77,16.94-40.75a55.52,55.52,0,0,1,40.79-17Q572.92,37.19,589.9,54.16ZM524.69,70.45a33.49,33.49,0,0,0-10.14,24.46,34.64,34.64,0,1,0,59.06-24.46,34.43,34.43,0,0,0-48.92,0Z"/><path class="cls-1" d="M682.87,100.29V37.19H706V152.64L636.75,89.47v63.17H613.61V37.19Z"/><path class="cls-1" d="M817.1,54.16q17,17,17,40.75a55.54,55.54,0,0,1-17,40.8q-17,16.93-40.76,16.93a55.62,55.62,0,0,1-40.79-16.93,55.63,55.63,0,0,1-16.94-40.8q0-23.77,16.94-40.75a55.54,55.54,0,0,1,40.79-17Q800.13,37.19,817.1,54.16ZM751.88,70.45a33.52,33.52,0,0,0-10.13,24.46,34.63,34.63,0,0,0,69.26,0,34.84,34.84,0,0,0-34.67-34.66A33.23,33.23,0,0,0,751.88,70.45Z"/><path class="cls-1" d="M897.1,112.25l56.3-75.06V152.64H930.27V106.45L897.1,150.78l-33.16-44.33v46.19H840.81V37.19Z"/><polygon class="cls-1" points="1021.55 0 996.88 22.55 983.2 22.55 1001.12 0 1021.55 0"/><rect class="cls-1" x="974.93" y="37.19" width="27.44" height="115.46"/><path class="cls-1" d="M1049.81,136.17l-7.45,16.47h-24.64l49.42-110.08,2.43-5.37,2.51,5.44,49.49,110h-24.71l-7.37-16.54-.36-.79h-39Zm28.86-23.92-9-20.2-9.1,20.2Z"/></g></g></svg>