<svg xmlns="http://www.w3.org/2000/svg" viewBox="0 0 594.16 105.72"><defs><style>.cls-1{fill:#fff;}</style></defs><g id="Capa_2" data-name="Capa 2"><g id="Capa_1-2" data-name="Capa 1"><path class="cls-1" d="M21.18,0V42.3H52.86V0H74V105.72H52.86V63.42H21.18v42.3H0V0Z"/><path class="cls-1" d="M83.69,0h21.18V105.72H83.69Z"/><path class="cls-1" d="M140,60.66a45.12,45.12,0,0,1-10.1-5.18,37.88,37.88,0,0,1-9.61-9.34Q116,40.34,116,31.68a30.51,30.51,0,0,1,9.31-22.37,31.59,31.59,0,0,1,44.79,0,30.51,30.51,0,0,1,9.31,22.37H158.33a10.56,10.56,0,0,0-21.12,0,9.51,9.51,0,0,0,4.56,8.55,29.21,29.21,0,0,0,6.92,3.58q1.11.39,6.06,1.84a43.56,43.56,0,0,1,10.43,4.78,36.84,36.84,0,0,1,9.87,9q4.39,5.67,4.39,14.53a30.58,30.58,0,0,1-9.31,22.43,31.59,31.59,0,0,1-44.79,0A30.58,30.58,0,0,1,116,74h21.18a10.56,10.56,0,0,0,21.12,0q0-6.69-5.35-8.66c-3.56-1.31-6-2.21-7.24-2.69C145.08,62.41,143.17,61.76,140,60.66Z"/><path class="cls-1" d="M235.72,0h26.43V21.12H235.72v84.6H214.54V21.12H188.11V0h47.61Z"/><path class="cls-1" d="M362.83,15.54a50.91,50.91,0,0,1,15.54,37.32,50.86,50.86,0,0,1-15.54,37.35,52.69,52.69,0,0,1-74.67,0,50.91,50.91,0,0,1-15.51-37.35,51,51,0,0,1,15.51-37.32,52.62,52.62,0,0,1,74.67,0ZM303.11,30.46a30.69,30.69,0,0,0-9.28,22.4,30.56,30.56,0,0,0,9.28,22.4,31.67,31.67,0,0,0,44.8,0,30.43,30.43,0,0,0,9.34-22.4,30.56,30.56,0,0,0-9.34-22.4,31.53,31.53,0,0,0-44.8,0Z"/><path class="cls-1" d="M384.55,74V0h37A35.68,35.68,0,0,1,447.7,10.89,35.59,35.59,0,0,1,458.59,37a35.6,35.6,0,0,1-6.72,21.21,36.61,36.61,0,0,1-17.15,13.35l23.87,34.17H432.75L405.73,67v38.69H384.55Zm37-21.12a15.28,15.28,0,0,0,11.22-4.66A15.29,15.29,0,0,0,437.41,37a15.32,15.32,0,0,0-4.66-11.18,15.23,15.23,0,0,0-11.22-4.69h-15.8V52.86Z"/><path class="cls-1" d="M468.24,0h21.18V105.72H468.24Z"/><path class="cls-1" d="M528.44,90.63l-6.82,15.09H499.06L544.32,4.92,546.55,0l2.29,5,45.32,100.74H571.53l-6.75-15.15-.33-.72H528.77Zm26.43-21.9-8.26-18.49-8.33,18.49Z"/></g></g></svg>