<svg xmlns="http://www.w3.org/2000/svg" viewBox="0 0 521.77 660.6"><defs><style>.cls-1{fill:#cecece;}.cls-2{fill:#adadad;}.cls-3{fill:#ac585f;}.cls-4{fill:#ededed;}.cls-5{fill:#bcab8c;}.cls-6{fill:#e6debb;}.cls-7{fill:#b78b34;}.cls-8{fill:#19212b;}.cls-9{fill:#75541a;}.cls-10{fill:#fff;}.cls-11{fill:#201b18;}.cls-12{fill:#686a77;}.cls-13{fill:#685310;}.cls-14{fill:#442606;}.cls-15{fill:none;stroke:#19212b;stroke-miterlimit:10;stroke-width:0.17px;}</style></defs><g id="Capa_2" data-name="Capa 2"><g id="Capa_1-2" data-name="Capa 1"><rect class="cls-1" x="140.1" y="274.35" width="236.48" height="84.05"/><path class="cls-1" d="M373.47,269c0,1.78,0,3.55-.07,5.32H140.1s-.66.47-.66-5.32c0-89.14,52.39-161.42,117-161.42S373.47,179.89,373.47,269Z"/><path class="cls-2" d="M139.44,269c0-89.14,52.94-161.42,118.24-161.42l0,3S180.42,121,162,191.27c0,0-12.68,38-13.83,80.68L139.44,269"/><rect class="cls-2" x="228.78" y="103.63" width="58.46" height="9.3"/><polygon class="cls-1" points="271.96 12.62 259.34 12.62 259.34 0 256.68 0 256.68 12.62 244.06 12.62 244.06 15.28 256.68 15.28 256.68 38.53 259.34 38.53 259.34 15.28 271.96 15.28 271.96 12.62"/><path class="cls-1" d="M258,38.53h0a19.26,19.26,0,0,1,19.26,19.26v45.84a0,0,0,0,1,0,0H238.75a0,0,0,0,1,0,0V57.79A19.26,19.26,0,0,1,258,38.53Z"/><path class="cls-2" d="M260.19,38.56v4.61S270,44.9,270,59.88V103.1h7.3V55.24a16.72,16.72,0,0,0-16.72-16.71"/><path class="cls-3" d="M257.64,73.71h0A2.31,2.31,0,0,1,259.94,76v24.2a0,0,0,0,1,0,0h-4.61a0,0,0,0,1,0,0V76A2.31,2.31,0,0,1,257.64,73.71Z"/><path class="cls-3" d="M265.71,73.71h0A2.31,2.31,0,0,1,268,76v24.2a0,0,0,0,1,0,0H263.4a0,0,0,0,1,0,0V76A2.31,2.31,0,0,1,265.71,73.71Z"/><path class="cls-3" d="M273.77,73.71h0A2.31,2.31,0,0,1,276.08,76v24.2a0,0,0,0,1,0,0h-4.61a0,0,0,0,1,0,0V76a2.31,2.31,0,0,1,2.31-2.31Z"/><path class="cls-3" d="M249.57,73.71h0A2.31,2.31,0,0,1,251.88,76v24.2a0,0,0,0,1,0,0h-4.61a0,0,0,0,1,0,0V76A2.31,2.31,0,0,1,249.57,73.71Z"/><path class="cls-3" d="M242.66,73.71h0A2.31,2.31,0,0,1,245,76v24.2a0,0,0,0,1,0,0h-4.61a0,0,0,0,1,0,0V76A2.31,2.31,0,0,1,242.66,73.71Z"/><rect class="cls-2" x="238.75" y="66.43" width="38.53" height="3.4"/><rect class="cls-2" x="138.35" y="267.92" width="243.19" height="6.92" rx="0.64"/><path class="cls-2" d="M258.79,110.6s39.35,30,41.57,157.32h10.46s-.08-127.75-46.22-158.1Z"/><path class="cls-2" d="M254.35,110.6s-39.36,30-41.58,157.32H202.32s.07-127.75,46.22-158.1Z"/><path class="cls-2" d="M375.3,268.8c0-89.15-52.94-161.42-118.24-161.42l0,3s77.22,10.38,95.66,80.68c0,0,12.68,38,13.83,80.68l8.71-2.92"/><rect class="cls-4" x="319.88" y="291.54" width="16.14" height="66.85"/><rect class="cls-4" x="170.05" y="291.54" width="16.14" height="66.85"/><rect class="cls-4" x="289.91" y="291.54" width="18.44" height="66.85"/><rect class="cls-4" x="258.79" y="291.54" width="18.44" height="66.85"/><rect class="cls-4" x="225.37" y="291.54" width="18.44" height="66.85"/><rect class="cls-4" x="195.4" y="291.54" width="18.44" height="66.85"/><rect class="cls-4" x="347.54" y="291.54" width="12.68" height="66.85"/><rect class="cls-4" x="151.6" y="291.54" width="12.68" height="66.85"/><rect class="cls-4" x="368.28" y="291.54" width="8.07" height="66.85"/><rect class="cls-4" x="140.08" y="291.54" width="8.07" height="66.85"/><path class="cls-5" d="M203.21,300.77H206a3.2,3.2,0,0,1,3.2,3.2v49.77a2.35,2.35,0,0,1-2.35,2.35h-4.52a2.35,2.35,0,0,1-2.35-2.35V304A3.2,3.2,0,0,1,203.21,300.77Z"/><path class="cls-5" d="M178.43,301.34h2.82a3.2,3.2,0,0,1,3.2,3.2v49.77a2.35,2.35,0,0,1-2.35,2.35h-4.52a2.35,2.35,0,0,1-2.35-2.35V304.54a3.2,3.2,0,0,1,3.2-3.2Z"/><path class="cls-5" d="M156.53,301.34h2.82a3.2,3.2,0,0,1,3.2,3.2v49.77a2.35,2.35,0,0,1-2.35,2.35h-4.52a2.35,2.35,0,0,1-2.35-2.35V304.54a3.2,3.2,0,0,1,3.2-3.2Z"/><path class="cls-5" d="M233.75,301.34h2.82a3.2,3.2,0,0,1,3.2,3.2v49.77a2.35,2.35,0,0,1-2.35,2.35H232.9a2.35,2.35,0,0,1-2.35-2.35V304.54A3.2,3.2,0,0,1,233.75,301.34Z"/><path class="cls-5" d="M266,301.34h2.82a3.2,3.2,0,0,1,3.2,3.2v49.77a2.35,2.35,0,0,1-2.35,2.35h-4.52a2.35,2.35,0,0,1-2.35-2.35V304.54a3.2,3.2,0,0,1,3.2-3.2Z"/><path class="cls-5" d="M297.14,301.34H300a3.2,3.2,0,0,1,3.2,3.2v49.77a2.35,2.35,0,0,1-2.35,2.35h-4.52a2.35,2.35,0,0,1-2.35-2.35V304.54a3.2,3.2,0,0,1,3.2-3.2Z"/><path class="cls-5" d="M327.11,301.34h2.82a3.2,3.2,0,0,1,3.2,3.2v49.77a2.35,2.35,0,0,1-2.35,2.35h-4.52a2.35,2.35,0,0,1-2.35-2.35V304.54a3.2,3.2,0,0,1,3.2-3.2Z"/><path class="cls-5" d="M352.47,301.34h2.82a3.2,3.2,0,0,1,3.2,3.2v49.77a2.35,2.35,0,0,1-2.35,2.35h-4.52a2.35,2.35,0,0,1-2.35-2.35V304.54a3.2,3.2,0,0,1,3.2-3.2Z"/><path class="cls-5" d="M143.54,301.34h0a2.88,2.88,0,0,1,2.88,2.88v50.09a2.35,2.35,0,0,1-2.35,2.35H143a2.35,2.35,0,0,1-2.35-2.35V304.22a2.88,2.88,0,0,1,2.88-2.88Z"/><path class="cls-5" d="M372.89,301.34h0a2.88,2.88,0,0,1,2.88,2.88v50.09a2.35,2.35,0,0,1-2.35,2.35h-1.06a2.35,2.35,0,0,1-2.35-2.35V304.22A2.88,2.88,0,0,1,372.89,301.34Z"/><path class="cls-6" d="M139.5,361.27v.58c0,4.14,53.15,7.49,118.71,7.49s118.72-3.35,118.72-7.49V350.2c-8,3.65-57.59,6.46-117.59,6.46-65.57,0-116.91-3.79-118.71-7.49l-.55-.78Z"/><rect class="cls-4" x="1.5" y="348.68" width="518.77" height="309"/><rect class="cls-7" x="372.86" y="197.02" width="124.73" height="151.66"/><rect class="cls-4" x="378.53" y="205.14" width="113.39" height="137.88"/><rect class="cls-7" x="24.18" y="197.02" width="124.73" height="151.66"/><rect class="cls-4" x="29.85" y="205.14" width="113.39" height="137.88"/><path class="cls-8" d="M435.94,214h0a11.34,11.34,0,0,1,11.34,11.34v25.51a0,0,0,0,1,0,0H424.6a0,0,0,0,1,0,0V225.37A11.34,11.34,0,0,1,435.94,214Z"/><circle class="cls-9" cx="435.94" cy="274.98" r="15.59"/><path class="cls-8" d="M86.9,253.72h0A15.24,15.24,0,0,1,102.14,269v45.71a0,0,0,0,1,0,0H71.66a0,0,0,0,1,0,0V269A15.24,15.24,0,0,1,86.9,253.72Z"/><circle class="cls-9" cx="86.9" cy="237.21" r="13.97"/><path class="cls-7" d="M263,506h0a53.86,53.86,0,0,1,53.86,53.86V655a1.29,1.29,0,0,1-1.29,1.29H210.44a1.29,1.29,0,0,1-1.29-1.29v-95.1A53.86,53.86,0,0,1,263,506Z"/><path class="cls-10" d="M263,520.19h0A43.94,43.94,0,0,1,307,564.13v92.13a0,0,0,0,1,0,0H219.07a0,0,0,0,1,0,0V564.13A43.94,43.94,0,0,1,263,520.19Z"/><path class="cls-11" d="M263,528.7h0A38.27,38.27,0,0,1,301.28,567v89.3a0,0,0,0,1,0,0H224.74a0,0,0,0,1,0,0V567A38.27,38.27,0,0,1,263,528.7Z"/><path class="cls-7" d="M271.52,482.36V470.58h-17v11.78a82.21,82.21,0,0,0-73.71,81.77V584h10.13s-5.87-92.13,73.5-92.13c0,0,68-5.67,69.45,92.13h11.34V564.13A82.21,82.21,0,0,0,271.52,482.36Z"/><rect class="cls-1" x="130.49" y="348.68" width="25.51" height="289.15"/><path class="cls-7" d="M143.24,504.6h0a7.09,7.09,0,0,1,7.09,7.09V637.84a0,0,0,0,1,0,0H136.15a0,0,0,0,1,0,0V511.69a7.09,7.09,0,0,1,7.09-7.09Z"/><path class="cls-7" d="M143.24,360h0a7.09,7.09,0,0,1,7.09,7.09v83.63a0,0,0,0,1,0,0H136.15a0,0,0,0,1,0,0V367.11A7.09,7.09,0,0,1,143.24,360Z"/><rect class="cls-4" x="8.59" y="467.75" width="25.51" height="170.09"/><path class="cls-7" d="M21.34,504.6h0a7.09,7.09,0,0,1,7.09,7.09V637.84a0,0,0,0,1,0,0H14.26a0,0,0,0,1,0,0V511.69A7.09,7.09,0,0,1,21.34,504.6Z"/><rect class="cls-1" x="366.48" y="348.68" width="25.51" height="289.15"/><path class="cls-7" d="M378.53,360h0a7.09,7.09,0,0,1,7.09,7.09v83.63a0,0,0,0,1,0,0H371.45a0,0,0,0,1,0,0V367.11A7.09,7.09,0,0,1,378.53,360Z"/><path class="cls-7" d="M379.24,503.18h0a7.09,7.09,0,0,1,7.09,7.09V636.42a0,0,0,0,1,0,0H372.15a0,0,0,0,1,0,0V510.27a7.09,7.09,0,0,1,7.09-7.09Z"/><path class="cls-8" d="M53.86,564.13h8.68A8.42,8.42,0,0,1,71,572.55v48.28a0,0,0,0,1,0,0H45.44a0,0,0,0,1,0,0V572.55A8.42,8.42,0,0,1,53.86,564.13Z"/><path class="cls-8" d="M99.21,564.13h8.68a8.42,8.42,0,0,1,8.42,8.42v48.28a0,0,0,0,1,0,0H90.8a0,0,0,0,1,0,0V572.55A8.42,8.42,0,0,1,99.21,564.13Z"/><path class="cls-8" d="M446.57,391.38h0a12.76,12.76,0,0,1,12.76,12.76v43.94a0,0,0,0,1,0,0H433.81a0,0,0,0,1,0,0V404.14A12.76,12.76,0,0,1,446.57,391.38Z"/><rect class="cls-12" x="433.81" y="578.3" width="28.35" height="42.52"/><rect class="cls-12" x="433.81" y="561.3" width="28.35" height="11.34"/><rect class="cls-13" x="1.5" y="452.15" width="518.77" height="17.01"/><polygon class="cls-14" points="110.64 391.92 88.32 391.92 88.32 377.03 84.06 377.03 84.06 391.92 61.74 391.92 61.74 396.17 84.06 396.17 84.06 432.31 88.32 432.31 88.32 396.17 110.64 396.17 110.64 391.92"/><path class="cls-1" d="M290.65,391.21h0a7.09,7.09,0,0,1,7.09,7.09V447.9a0,0,0,0,1,0,0H283.57a0,0,0,0,1,0,0V398.29A7.09,7.09,0,0,1,290.65,391.21Z"/><path class="cls-8" d="M319,391.21h0a7.09,7.09,0,0,1,7.09,7.09V447.9a0,0,0,0,1,0,0H311.91a0,0,0,0,1,0,0V398.29A7.09,7.09,0,0,1,319,391.21Z"/><path class="cls-1" d="M347.35,391.21h0a7.09,7.09,0,0,1,7.09,7.09V447.9a0,0,0,0,1,0,0H340.26a0,0,0,0,1,0,0V398.29A7.09,7.09,0,0,1,347.35,391.21Z"/><path class="cls-1" d="M262.3,391.21h0a7.09,7.09,0,0,1,7.09,7.09V447.9a0,0,0,0,1,0,0H255.22a0,0,0,0,1,0,0V398.29A7.09,7.09,0,0,1,262.3,391.21Z"/><path class="cls-1" d="M234,391.21h0a7.09,7.09,0,0,1,7.09,7.09V447.9a0,0,0,0,1,0,0H226.87a0,0,0,0,1,0,0V398.29A7.09,7.09,0,0,1,234,391.21Z"/><path class="cls-1" d="M180.09,391.21h0a7.09,7.09,0,0,1,7.09,7.09V447.9a0,0,0,0,1,0,0H173a0,0,0,0,1,0,0V398.29A7.09,7.09,0,0,1,180.09,391.21Z"/><path class="cls-8" d="M208.44,391.21h0a7.09,7.09,0,0,1,7.09,7.09V447.9a0,0,0,0,1,0,0H201.36a0,0,0,0,1,0,0V398.29A7.09,7.09,0,0,1,208.44,391.21Z"/><rect class="cls-7" x="0.08" y="345.85" width="521.61" height="11.34" rx="3.32"/><rect class="cls-1" x="0.08" y="637.84" width="201.27" height="22.68"/><rect class="cls-15" x="0.08" y="637.84" width="201.27" height="22.68"/><line class="cls-15" x1="0.08" y1="641.62" x2="201.36" y2="641.62"/><line class="cls-15" x1="0.08" y1="645.4" x2="201.36" y2="645.4"/><line class="cls-15" x1="0.08" y1="649.18" x2="201.36" y2="649.18"/><line class="cls-15" x1="0.08" y1="652.96" x2="201.36" y2="652.96"/><line class="cls-15" x1="0.08" y1="656.73" x2="201.36" y2="656.73"/><line class="cls-15" x1="167.81" y1="660.51" x2="167.81" y2="637.84"/><line class="cls-15" x1="134.26" y1="660.51" x2="134.26" y2="637.84"/><line class="cls-15" x1="100.72" y1="660.51" x2="100.72" y2="637.84"/><line class="cls-15" x1="67.17" y1="660.51" x2="67.17" y2="637.84"/><line class="cls-15" x1="33.63" y1="660.51" x2="33.63" y2="637.84"/><rect class="cls-1" x="320.42" y="637.84" width="201.27" height="22.68"/><rect class="cls-15" x="320.42" y="637.84" width="201.27" height="22.68"/><line class="cls-15" x1="320.42" y1="641.62" x2="521.69" y2="641.62"/><line class="cls-15" x1="320.42" y1="645.4" x2="521.69" y2="645.4"/><line class="cls-15" x1="320.42" y1="649.18" x2="521.69" y2="649.18"/><line class="cls-15" x1="320.42" y1="652.96" x2="521.69" y2="652.96"/><line class="cls-15" x1="320.42" y1="656.73" x2="521.69" y2="656.73"/><line class="cls-15" x1="488.15" y1="660.51" x2="488.15" y2="637.84"/><line class="cls-15" x1="454.6" y1="660.51" x2="454.6" y2="637.84"/><line class="cls-15" x1="421.05" y1="660.51" x2="421.05" y2="637.84"/><line class="cls-15" x1="387.51" y1="660.51" x2="387.51" y2="637.84"/><line class="cls-15" x1="353.96" y1="660.51" x2="353.96" y2="637.84"/><path class="cls-1" d="M372.56,198.44h125.3a.67.67,0,0,0,.58-1l-50.66-88a3.32,3.32,0,0,0-2.88-1.67H422.71a3.32,3.32,0,0,0-2.92,1.74l-47.81,88A.66.66,0,0,0,372.56,198.44Z"/><path class="cls-7" d="M380.91,172.92h17.92a.66.66,0,0,0,.63-.89l-8-21.35a.66.66,0,0,0-.62-.43h-1.92a.67.67,0,0,0-.62.43l-8,21.35A.65.65,0,0,0,380.91,172.92Z"/><path class="cls-7" d="M468.79,172.92h17.92a.66.66,0,0,0,.63-.89l-8-21.35a.66.66,0,0,0-.62-.43h-1.92a.67.67,0,0,0-.62.43l-8,21.35A.65.65,0,0,0,468.79,172.92Z"/><path class="cls-12" d="M431.46,76.54h4.69a3.32,3.32,0,0,1,3.32,3.32v27.86a0,0,0,0,1,0,0H428.14a0,0,0,0,1,0,0V79.86A3.32,3.32,0,0,1,431.46,76.54Z"/><path class="cls-1" d="M23.7,198.44H149a.67.67,0,0,0,.58-1l-50.66-88A3.32,3.32,0,0,0,96,107.72H73.85a3.32,3.32,0,0,0-2.92,1.74l-47.81,88A.66.66,0,0,0,23.7,198.44Z"/><path class="cls-7" d="M32.05,172.92H50a.65.65,0,0,0,.62-.89l-8-21.35a.67.67,0,0,0-.62-.43H40.05a.66.66,0,0,0-.62.43l-8,21.35A.66.66,0,0,0,32.05,172.92Z"/><path class="cls-7" d="M119.93,172.92h17.92a.65.65,0,0,0,.62-.89l-8-21.35a.67.67,0,0,0-.63-.43h-1.91a.66.66,0,0,0-.62.43l-8,21.35A.66.66,0,0,0,119.93,172.92Z"/><path class="cls-12" d="M82.6,76.54H87.3a3.32,3.32,0,0,1,3.32,3.32v27.86a0,0,0,0,1,0,0H79.28a0,0,0,0,1,0,0V79.86A3.32,3.32,0,0,1,82.6,76.54Z"/></g></g></svg>