<svg xmlns="http://www.w3.org/2000/svg" viewBox="0 0 44.58 44.57"><defs><style>.cls-1{fill:#fff;}</style></defs><g id="Capa_2" data-name="Capa 2"><g id="Capa_1-2" data-name="Capa 1"><path class="cls-1" d="M22.3,10.86A11.43,11.43,0,1,0,33.72,22.29,11.41,11.41,0,0,0,22.3,10.86Zm0,18.85a7.43,7.43,0,1,1,7.42-7.42,7.44,7.44,0,0,1-7.42,7.42ZM36.86,10.39a2.67,2.67,0,1,1-2.67-2.66A2.67,2.67,0,0,1,36.86,10.39Zm7.56,2.71c-.17-3.57-1-6.74-3.6-9.34S35.06.34,31.48.16,16.78,0,13.1.16s-6.73,1-9.34,3.59S.34,9.52.16,13.09,0,27.8.16,31.47s1,6.74,3.6,9.34,5.77,3.42,9.34,3.6,14.71.21,18.38,0,6.74-1,9.34-3.6,3.42-5.76,3.6-9.34.21-14.69,0-18.37ZM39.67,35.42a7.55,7.55,0,0,1-4.24,4.24c-2.93,1.16-9.89.9-13.13.9s-10.22.25-13.14-.9a7.55,7.55,0,0,1-4.24-4.24C3.76,32.49,4,25.53,4,22.29s-.26-10.22.89-13.14A7.55,7.55,0,0,1,9.16,4.91C12.09,3.75,19.05,4,22.3,4s10.21-.26,13.13.89a7.55,7.55,0,0,1,4.24,4.24c1.16,2.93.9,9.89.9,13.14S40.83,32.5,39.67,35.42Z"/></g></g></svg>