<svg xmlns="http://www.w3.org/2000/svg" viewBox="0 0 1352.55 364.49"><defs><style>.cls-1{fill:#fff;fill-rule:evenodd;}.cls-2{font-size:52.51px;}.cls-2,.cls-5{fill:#fefefe;font-family:Arial-BoldMT, Arial;font-weight:700;}.cls-3{fill:#1a4089;}.cls-4{fill:#009440;}.cls-5{font-size:108.62px;}</style></defs><g id="Capa_2" data-name="Capa 2"><g id="Capa_2-2" data-name="Capa 2"><path class="cls-1" d="M.65,132.66c1.8-7.9,6-15.21,14.67-18.4,0,0,22-9.24,33.52,9.6,4.3,7,8,22.57,10.56,30.5,5.18,15.9,13.41,39.48,23.3,61.9,6.21,14.07,16.38,36.21,27.21,47.62,8,8.42,20,15.87,32.47,5.19,11.32-9.68,19.06-30.6,23.45-44,2.25-6.87,4.86-15.43,7.84-26.1,7.43-26.64,13.25-51.78,18.14-79,3.82-21.19,9.27-47.33,11.68-69.87,1-9.26.45-21.86,3.12-30.41a29.62,29.62,0,0,1,8.22-13.38C226.94-4.49,246-.61,255.55,11.68c4.56,5.88,7.63,14.68,6.6,27.83,0,0,.78,53-31.14,175.2,0,0-17,65.94-52.5,97.72-33.83,30.32-71,23.67-101.09-6.83-5.55-5.62-11.06-11.77-16.16-18-19.87-24.06-28.87-44.2-40.57-72.92q-1.36-3.33-2.7-6.64c-8-19.78-11.56-29.53-15.75-50.58C.43,148.4-.83,139.18.65,132.66"/><path class="cls-1" d="M341.43,231s14.78-.69,16.17-15.47a17.09,17.09,0,0,0,.16-5.76c-1-7.9-8.52-15-16-16.85-10.56-2.68-21.79,4.86-28.46,13.84-19,25.53,13.58,24.49,28.16,24.24M319.87,138.3s11.36-3.16,26.67.58c17.39,4.24,39.89,17.36,56.7,54,0,0,28.75,45.42,1.73,75.89,0,0-6.33,12.08-56.35,9.2,0,0-15.52-1.72-13.8,8.05s19,7.47,19,7.47,46-5.74,47.72,28.18c0,0,1.28,12.3-11.21,21-21.6,15-50.87,6.35-72.45-3.65-23.86-11.06-51.68-32.12-65.26-72,0,0-20.12-60.37,17.83-102.35,0,0,4.62-6,16.47-13.07a128.29,128.29,0,0,1,20.9-9.93l7.39-2.32,5-1.21"/><path class="cls-1" d="M435.29,249.53l-1.09,77.33s-2.46,35,25.95,37.43c0,0,25.42,5.19,26.23-37.7V254.45S485.29,240,494,247.89l48.64,61.21,4.52,5c9.34,10.34,18.58,24.26,35.09,19.78a20.54,20.54,0,0,0,7.66-4s14.21-10.11,13.39-36.61l-5.74-85.79s1-58.94,33.63-96c9.62-10.93,20.94-14.82,28.33-23.44A30.7,30.7,0,0,0,667,71.22c1.3-12.08-3.24-26.1-15.2-31-6-2.43-14.49-2.91-25.61,3.64C618.61,48.33,599.07,65.55,593,72c-14.42,15.43-34.37,44.38-42.24,91.55-2.1,12.6-1.5,27.12-3.68,38.23-1,5-2.94,10-6.79,12.07,0,0-4.26,3.09-11.33-5.41-6-7.21-13-20.47-18.83-29.11-6.16-9.1-18.21-30-25-37.41a30.06,30.06,0,0,0-5.83-5c-11.75-7.61-29.28-5.94-36.94,6.85-3.75,6.27-6.63,16.15-6.63,31.7l-.7,60.64Z"/><path class="cls-1" d="M127.24,170.42c13.89,0,25.16,14.37,25.16,32.1s-11.27,32.09-25.16,32.09-25.17-14.37-25.17-32.09,11.27-32.1,25.17-32.1"/><text class="cls-2" transform="translate(626.47 315.27)">E</text><text class="cls-2" transform="translate(659.43 315.27)">L</text><text class="cls-2" transform="translate(690.55 315.27)"> </text><text class="cls-2" transform="translate(703.08 315.27)">C</text><text class="cls-2" transform="translate(738.94 315.27)">O</text><text class="cls-2" transform="translate(777.73 315.27)">R</text><text class="cls-2" transform="translate(813.58 315.27)">A</text><text class="cls-2" transform="translate(849.44 315.27)">Z</text><text class="cls-2" transform="translate(879.46 315.27)">Ó</text><text class="cls-2" transform="translate(918.24 315.27)">N </text><text class="cls-2" transform="translate(968.68 315.27)">D</text><text class="cls-2" transform="translate(1004.54 315.27)">E </text><text class="cls-2" transform="translate(1052.09 315.27)">M</text><text class="cls-2" transform="translate(1093.77 315.27)">A</text><text class="cls-2" transform="translate(1129.63 315.27)">R</text><text class="cls-2" transform="translate(1165.49 315.27)">G</text><text class="cls-2" transform="translate(1204.27 315.27)">A</text><text class="cls-2" transform="translate(1240.13 315.27)">R</text><text class="cls-2" transform="translate(1275.98 315.27)">I</text><text class="cls-2" transform="translate(1288.5 315.27)">T</text><text class="cls-2" transform="translate(1314.63 315.27)">A</text><polygon class="cls-3" points="811.35 227.76 811.35 141.61 799.31 141.61 753.06 204.76 706.81 141.61 694.78 141.61 694.78 248.41 723.65 248.41 723.65 207.45 752.87 248.41 753.32 248.41 755.52 245.33 758.53 241.1 782.47 207.45 782.47 248.41 783 248.41 789.74 248.41 811.33 248.41 811.35 227.76"/><path class="cls-4" d="M1124.91,125.34c-2.81,13.79-12,17.28-19.06,17.28a18.61,18.61,0,0,1-7.08-1.34c-4.45-1.81-7.3-4.93-10.32-6.32a6.88,6.88,0,0,0-3-.72c-3.72,0-5.42,3.61-6.46,8l-12.73-3.86c2.74-13.48,11.62-17.28,19.06-17.28a18.62,18.62,0,0,1,8.59,2,34.16,34.16,0,0,1,4.83,3c2.45,1.74,4.55,3.26,7,3.26,3.59,0,5.35-3.54,6.46-8Z"/><path class="cls-4" d="M976.53,212.19c12-5.16,21.12-17.19,21.12-31.59,0-20.57-18.61-37.32-44.68-37.54h-.52l-46.71-.37V249.47h32.92V208.4l26.73,41.07h37.44Zm-24.76-18.34-13.26-.07V170.64h13.26c6.81,0,13.17,4.44,13.17,11.6S958.66,193.92,951.77,193.85Z"/><rect class="cls-4" x="1003.71" y="142.77" width="31.51" height="106.77"/><path class="cls-4" d="M1149.24,181.64h0V143.26h-30.71v56.17l-54.62-52.9-3.37-3.27h-12V250h31.66V202.36L1129.3,250h19.94V225.35h0Z"/><path class="cls-4" d="M1162.17,192.05c0-30.5,24.2-53.63,55.77-53.63s55.77,23.13,55.77,53.63c0,30.25-24.19,53.25-55.83,53.25s-55.71-23-55.71-53.25m84.26-.19c0-15.69-12.35-27.79-28.49-27.79s-28.49,12.1-28.49,27.79,12.36,27.67,28.49,27.67S1246.43,207.49,1246.43,191.86Z"/><path class="cls-3" d="M874.25,236.64h-38.8l-5.28,12.12H800l48.27-105.18h13.08L909.7,248.76H879.47Zm-8.76-20.17-10.64-24.62-10.7,24.62Z"/><text class="cls-5" transform="translate(621.39 247.94)">a</text></g></g></svg>