<?xml version="1.0" encoding="utf-8"?>
<!-- Generator: Adobe Illustrator 25.3.0, SVG Export Plug-In . SVG Version: 6.00 Build 0)  -->
<svg version="1.1" id="Capa_1" xmlns="http://www.w3.org/2000/svg" xmlns:xlink="http://www.w3.org/1999/xlink" x="0px" y="0px"
	 viewBox="0 0 1352.6 364.5" style="enable-background:new 0 0 1352.6 364.5;" xml:space="preserve">
<style type="text/css">
	.st0{fill-rule:evenodd;clip-rule:evenodd;fill:#FFFFFF;}
	.st1{enable-background:new    ;}
	.st2{fill:#FEFEFE;}
	.st3{fill:#FFFFFF;}
	.st4{fill-rule:evenodd;clip-rule:evenodd;fill:#FEFEFE;}
</style>
<g id="Capa_2_1_">
	<g id="Capa_2-2">
		<path class="st0" d="M0.6,132.7c1.8-7.9,6-15.2,14.7-18.4c0,0,22-9.2,33.5,9.6c4.3,7,8,22.6,10.6,30.5
			c5.2,15.9,13.4,39.5,23.3,61.9c6.2,14.1,16.4,36.2,27.2,47.6c8,8.4,20,15.9,32.5,5.2c11.3-9.7,19.1-30.6,23.4-44
			c2.2-6.9,4.9-15.4,7.8-26.1c7.4-26.6,13.2-51.8,18.1-79c3.8-21.2,9.3-47.3,11.7-69.9c1-9.3,0.4-21.9,3.1-30.4
			c1.5-5.1,4.3-9.7,8.2-13.4c12.1-10.8,31.2-6.9,40.7,5.4c4.6,5.9,7.6,14.7,6.6,27.8c0,0,0.8,53-31.1,175.2c0,0-17,65.9-52.5,97.7
			c-33.8,30.3-71,23.7-101.1-6.8c-5.6-5.6-11.1-11.8-16.2-18c-19.9-24.1-28.9-44.2-40.6-72.9c-0.9-2.2-1.8-4.4-2.7-6.6
			c-8-19.8-11.6-29.5-15.8-50.6C0.4,148.4-0.8,139.2,0.6,132.7"/>
		<path class="st0" d="M341.4,231c0,0,14.8-0.7,16.2-15.5c0.4-1.9,0.4-3.8,0.2-5.8c-1-7.9-8.5-15-16-16.9
			c-10.6-2.7-21.8,4.9-28.5,13.8C294.3,232.3,326.9,231.2,341.4,231 M319.9,138.3c0,0,11.4-3.2,26.7,0.6c17.4,4.2,39.9,17.4,56.7,54
			c0,0,28.8,45.4,1.7,75.9c0,0-6.3,12.1-56.4,9.2c0,0-15.5-1.7-13.8,8s19,7.5,19,7.5s46-5.7,47.7,28.2c0,0,1.3,12.3-11.2,21
			c-21.6,15-50.9,6.4-72.4-3.6c-23.9-11.1-51.7-32.1-65.3-72c0,0-20.1-60.4,17.8-102.4c0,0,4.6-6,16.5-13.1
			c6.7-3.9,13.6-7.3,20.9-9.9l7.4-2.3l5-1.2"/>
		<path class="st0" d="M435.3,249.5l-1.1,77.3c0,0-2.5,35,26,37.4c0,0,25.4,5.2,26.2-37.7v-72.1c0,0-1.1-14.4,7.6-6.6l48.6,61.2
			l4.5,5c9.3,10.3,18.6,24.3,35.1,19.8c2.8-0.8,5.4-2.1,7.7-4c0,0,14.2-10.1,13.4-36.6l-5.7-85.8c0,0,1-58.9,33.6-96
			c9.6-10.9,20.9-14.8,28.3-23.4c4.2-4.7,6.8-10.6,7.5-16.8c1.3-12.1-3.2-26.1-15.2-31c-6-2.4-14.5-2.9-25.6,3.6
			c-7.6,4.5-27.1,21.7-33.2,28.1c-14.4,15.4-34.4,44.4-42.2,91.6c-2.1,12.6-1.5,27.1-3.7,38.2c-1,5-2.9,10-6.8,12.1
			c0,0-4.3,3.1-11.3-5.4c-6-7.2-13-20.5-18.8-29.1c-6.2-9.1-18.2-30-25-37.4c-1.7-1.9-3.7-3.6-5.8-5c-11.8-7.6-29.3-5.9-36.9,6.9
			c-3.8,6.3-6.6,16.1-6.6,31.7l-0.7,60.6L435.3,249.5z"/>
		<g class="st1">
			<path class="st2" d="M630.3,315.3v-37.6h27.9v6.4h-20.3v8.3h18.9v6.3h-18.9v10.2h21v6.3H630.3z"/>
		</g>
		<g class="st1">
			<path class="st2" d="M663.5,315.3V278h7.6v30.9h18.9v6.3H663.5z"/>
		</g>
		<g class="st1">
			<path class="st2" d="M731,301.5l7.4,2.3c-1.1,4.1-3,7.1-5.6,9.1s-6,3-10,3c-5,0-9.1-1.7-12.3-5.1c-3.2-3.4-4.8-8.1-4.8-14
				c0-6.3,1.6-11.1,4.8-14.6c3.2-3.5,7.5-5.2,12.7-5.2c4.6,0,8.3,1.4,11.2,4.1c1.7,1.6,3,3.9,3.8,6.9l-7.5,1.8
				c-0.4-1.9-1.4-3.5-2.8-4.6s-3.1-1.7-5.1-1.7c-2.8,0-5,1-6.8,3c-1.7,2-2.6,5.2-2.6,9.7c0,4.8,0.9,8.1,2.6,10.2c1.7,2,3.9,3,6.7,3
				c2,0,3.8-0.6,5.2-1.9C729.3,306.2,730.3,304.2,731,301.5z"/>
		</g>
		<g class="st1">
			<path class="st2" d="M741.2,296.7c0-3.8,0.6-7,1.7-9.6c0.9-1.9,2-3.6,3.5-5.2c1.5-1.5,3.1-2.6,4.9-3.4c2.3-1,5-1.5,8.1-1.5
				c5.5,0,10,1.7,13.3,5.2c3.3,3.4,5,8.2,5,14.3c0,6.1-1.6,10.8-4.9,14.2c-3.3,3.4-7.7,5.1-13.2,5.1c-5.6,0-10-1.7-13.3-5.1
				C742.9,307.4,741.2,302.7,741.2,296.7z M749,296.5c0,4.3,1,7.5,2.9,9.7c2,2.2,4.5,3.3,7.5,3.3s5.5-1.1,7.4-3.3
				c1.9-2.2,2.9-5.4,2.9-9.8c0-4.3-0.9-7.5-2.8-9.6s-4.4-3.2-7.5-3.2s-5.6,1.1-7.6,3.2C750,288.9,749,292.1,749,296.5z"/>
		</g>
		<g class="st1">
			<path class="st2" d="M781.6,315.3v-37.6h16c4,0,6.9,0.3,8.8,1c1.8,0.7,3.3,1.9,4.4,3.6s1.6,3.7,1.6,5.9c0,2.8-0.8,5.1-2.5,7
				c-1.7,1.8-4.1,3-7.4,3.5c1.6,1,3,2,4.1,3.2c1.1,1.1,2.5,3.2,4.3,6.1l4.6,7.3h-9.1l-5.5-8.2c-1.9-2.9-3.3-4.8-4-5.5
				s-1.5-1.3-2.3-1.6c-0.8-0.3-2.1-0.4-3.8-0.4h-1.5v15.7H781.6z M789.2,293.6h5.6c3.6,0,5.9-0.2,6.8-0.5c0.9-0.3,1.6-0.8,2.1-1.6
				s0.8-1.7,0.8-2.8c0-1.3-0.3-2.3-1-3.1c-0.7-0.8-1.6-1.3-2.9-1.5c-0.6-0.1-2.5-0.1-5.5-0.1h-5.9V293.6z"/>
		</g>
		<g class="st1">
			<path class="st2" d="M851.3,315.3H843l-3.3-8.5h-15l-3.1,8.5h-8.1l14.6-37.6h8L851.3,315.3z M837.3,300.4l-5.2-13.9l-5.1,13.9
				H837.3z"/>
		</g>
		<g class="st1">
			<path class="st2" d="M850,315.3v-6.8l19.7-24.4h-17.5v-6.4h27.5v5.9l-20.6,25.4h21.4v6.3H850z"/>
		</g>
		<g class="st1">
			<path class="st2" d="M881.7,296.7c0-3.8,0.6-7,1.7-9.6c0.9-1.9,2-3.6,3.5-5.2c1.5-1.5,3.1-2.6,4.9-3.4c2.3-1,5-1.5,8.1-1.5
				c5.5,0,10,1.7,13.3,5.2c3.3,3.4,5,8.2,5,14.3c0,6.1-1.7,10.8-4.9,14.2c-3.3,3.4-7.7,5.1-13.2,5.1c-5.6,0-10-1.7-13.3-5.1
				C883.4,307.4,881.7,302.7,881.7,296.7z M889.6,296.5c0,4.3,1,7.5,2.9,9.7s4.5,3.3,7.5,3.3c3,0,5.5-1.1,7.4-3.3
				c1.9-2.2,2.9-5.4,2.9-9.8c0-4.3-0.9-7.5-2.8-9.6s-4.4-3.2-7.5-3.2c-3.1,0-5.7,1.1-7.6,3.2C890.5,288.9,889.6,292.1,889.6,296.5z
				 M895.3,275.5l3.5-7.7h8.1l-7.1,7.7H895.3z"/>
		</g>
		<g class="st1">
			<path class="st2" d="M922.1,315.3v-37.6h7.4l15.4,25.1v-25.1h7.1v37.6h-7.6l-15.2-24.5v24.5H922.1z"/>
		</g>
		<g class="st1">
			<path class="st2" d="M972.5,277.7h13.9c3.1,0,5.5,0.2,7.2,0.7c2.2,0.7,4.1,1.8,5.7,3.5c1.6,1.7,2.8,3.7,3.6,6.1
				c0.8,2.4,1.2,5.4,1.2,8.9c0,3.1-0.4,5.8-1.2,8c-0.9,2.7-2.3,4.9-4,6.6c-1.3,1.3-3.1,2.3-5.3,3c-1.7,0.5-3.9,0.8-6.7,0.8h-14.3
				V277.7z M980.1,284v24.9h5.7c2.1,0,3.6-0.1,4.6-0.4c1.2-0.3,2.3-0.8,3.1-1.6c0.8-0.7,1.5-1.9,2-3.6s0.8-4,0.8-6.9
				c0-2.9-0.3-5.1-0.8-6.7s-1.2-2.8-2.2-3.6c-0.9-0.9-2.1-1.5-3.5-1.8c-1.1-0.2-3.1-0.4-6.2-0.4H980.1z"/>
		</g>
		<g class="st1">
			<path class="st2" d="M1008.4,315.3v-37.6h27.9v6.4h-20.3v8.3h18.9v6.3h-18.9v10.2h21v6.3H1008.4z"/>
		</g>
		<g class="st1">
			<path class="st2" d="M1055.8,315.3v-37.6h11.4l6.8,25.6l6.7-25.6h11.4v37.6h-7.1v-29.6l-7.5,29.6h-7.3l-7.4-29.6v29.6H1055.8z"/>
		</g>
		<g class="st1">
			<path class="st2" d="M1131.5,315.3h-8.3l-3.3-8.5h-15l-3.1,8.5h-8.1l14.6-37.6h8L1131.5,315.3z M1117.5,300.4l-5.2-13.9
				l-5.1,13.9H1117.5z"/>
		</g>
		<g class="st1">
			<path class="st2" d="M1133.5,315.3v-37.6h16c4,0,6.9,0.3,8.8,1c1.8,0.7,3.3,1.9,4.4,3.6s1.6,3.7,1.6,5.9c0,2.8-0.8,5.1-2.5,7
				c-1.7,1.8-4.1,3-7.4,3.5c1.6,1,3,2,4.1,3.2c1.1,1.1,2.5,3.2,4.3,6.1l4.6,7.3h-9.1l-5.5-8.2c-1.9-2.9-3.3-4.8-4-5.5
				s-1.5-1.3-2.3-1.6s-2.1-0.4-3.8-0.4h-1.5v15.7H1133.5z M1141.1,293.6h5.6c3.6,0,5.9-0.2,6.8-0.5c0.9-0.3,1.6-0.8,2.1-1.6
				s0.8-1.7,0.8-2.8c0-1.3-0.3-2.3-1-3.1c-0.7-0.8-1.6-1.3-2.9-1.5c-0.6-0.1-2.5-0.1-5.5-0.1h-5.9V293.6z"/>
		</g>
		<g class="st1">
			<path class="st2" d="M1186.8,301.5v-6.3h16.4v15c-1.6,1.5-3.9,2.9-6.9,4.1c-3,1.2-6.1,1.8-9.2,1.8c-3.9,0-7.4-0.8-10.3-2.5
				s-5.1-4-6.6-7.1c-1.5-3.1-2.2-6.4-2.2-10c0-3.9,0.8-7.4,2.5-10.4c1.6-3,4-5.4,7.2-7c2.4-1.2,5.4-1.9,9-1.9c4.7,0,8.3,1,10.9,2.9
				s4.3,4.7,5.1,8.1l-7.5,1.4c-0.5-1.8-1.5-3.3-3-4.4c-1.5-1.1-3.3-1.6-5.5-1.6c-3.3,0-6,1.1-7.9,3.2c-2,2.1-2.9,5.2-2.9,9.4
				c0,4.5,1,7.8,3,10c2,2.2,4.6,3.3,7.8,3.3c1.6,0,3.2-0.3,4.8-0.9s3-1.4,4.1-2.3v-4.8H1186.8z"/>
		</g>
		<g class="st1">
			<path class="st2" d="M1242,315.3h-8.3l-3.3-8.5h-15l-3.1,8.5h-8.1l14.6-37.6h8L1242,315.3z M1228,300.4l-5.2-13.9l-5.1,13.9H1228
				z"/>
		</g>
		<g class="st1">
			<path class="st2" d="M1244,315.3v-37.6h16c4,0,6.9,0.3,8.8,1c1.8,0.7,3.3,1.9,4.4,3.6s1.6,3.7,1.6,5.9c0,2.8-0.8,5.1-2.5,7
				c-1.7,1.8-4.1,3-7.4,3.5c1.6,1,3,2,4.1,3.2c1.1,1.1,2.5,3.2,4.3,6.1l4.6,7.3h-9.1l-5.5-8.2c-1.9-2.9-3.3-4.8-4-5.5
				s-1.5-1.3-2.3-1.6s-2.1-0.4-3.8-0.4h-1.5v15.7H1244z M1251.6,293.6h5.6c3.6,0,5.9-0.2,6.8-0.5c0.9-0.3,1.6-0.8,2.1-1.6
				s0.8-1.7,0.8-2.8c0-1.3-0.3-2.3-1-3.1c-0.7-0.8-1.6-1.3-2.9-1.5c-0.6-0.1-2.5-0.1-5.5-0.1h-5.9V293.6z"/>
		</g>
		<g class="st1">
			<path class="st2" d="M1279.6,315.3v-37.6h7.6v37.6H1279.6z"/>
		</g>
		<g class="st1">
			<path class="st2" d="M1300.8,315.3V284h-11.2v-6.4h29.9v6.4h-11.1v31.2H1300.8z"/>
		</g>
		<g class="st1">
			<path class="st2" d="M1352.3,315.3h-8.3l-3.3-8.5h-15l-3.1,8.5h-8.1l14.6-37.6h8L1352.3,315.3z M1338.4,300.4l-5.2-13.9
				l-5.1,13.9H1338.4z"/>
		</g>
		<polygon class="st3" points="811.3,227.8 811.3,141.6 799.3,141.6 753.1,204.8 706.8,141.6 694.8,141.6 694.8,248.4 723.7,248.4 
			723.7,207.4 752.9,248.4 753.3,248.4 755.5,245.3 758.5,241.1 782.5,207.4 782.5,248.4 783,248.4 789.7,248.4 811.3,248.4 		"/>
		<path class="st3" d="M1124.9,125.3c-2.8,13.8-12,17.3-19.1,17.3c-2.4,0-4.8-0.4-7.1-1.3c-4.4-1.8-7.3-4.9-10.3-6.3
			c-0.9-0.5-2-0.7-3-0.7c-3.7,0-5.4,3.6-6.5,8l-12.7-3.9c2.7-13.5,11.6-17.3,19.1-17.3c3,0,5.9,0.7,8.6,2c1.7,0.9,3.3,1.9,4.8,3
			c2.4,1.7,4.6,3.3,7,3.3c3.6,0,5.3-3.5,6.5-8L1124.9,125.3z"/>
		<path class="st3" d="M976.5,212.2c12-5.2,21.1-17.2,21.1-31.6c0-20.6-18.6-37.3-44.7-37.5h-0.5l-46.7-0.4v106.8h32.9v-41.1
			l26.7,41.1h37.4L976.5,212.2z M951.8,193.8l-13.3-0.1v-23.1h13.3c6.8,0,13.2,4.4,13.2,11.6S958.7,193.9,951.8,193.8z"/>
		<rect x="1003.7" y="142.8" class="st3" width="31.5" height="106.8"/>
		<path class="st3" d="M1149.2,181.6L1149.2,181.6v-38.4h-30.7v56.2l-54.6-52.9l-3.4-3.3h-12V250h31.7v-47.6l49.1,47.6h19.9v-24.6
			l0,0V181.6z"/>
		<path class="st3" d="M1162.2,192c0-30.5,24.2-53.6,55.8-53.6s55.8,23.1,55.8,53.6c0,30.2-24.2,53.2-55.8,53.2
			S1162.2,222.3,1162.2,192 M1246.4,191.9c0-15.7-12.3-27.8-28.5-27.8s-28.5,12.1-28.5,27.8s12.4,27.7,28.5,27.7
			S1246.4,207.5,1246.4,191.9L1246.4,191.9z"/>
		<path class="st3" d="M874.2,236.6h-38.8l-5.3,12.1H800l48.3-105.2h13.1l48.3,105.2h-30.2L874.2,236.6z M865.5,216.5l-10.6-24.6
			l-10.7,24.6H865.5z"/>
		<g class="st1">
			<path class="st2" d="M640.3,208.8l-13.5-2.4c1.5-5.4,4.1-9.5,7.8-12.1c3.7-2.6,9.2-3.9,16.5-3.9c6.6,0,11.6,0.8,14.9,2.4
				c3.3,1.6,5.5,3.6,6.9,6c1.3,2.4,2,6.9,2,13.3l-0.2,17.4c0,5,0.2,8.6,0.7,11c0.5,2.4,1.4,4.9,2.7,7.6h-14.7
				c-0.4-1-0.9-2.5-1.4-4.4c-0.2-0.9-0.4-1.5-0.5-1.8c-2.5,2.5-5.3,4.3-8.2,5.6c-2.9,1.2-6,1.9-9.3,1.9c-5.8,0-10.4-1.6-13.7-4.7
				c-3.3-3.1-5-7.1-5-11.9c0-3.2,0.8-6,2.3-8.5c1.5-2.5,3.7-4.4,6.4-5.7c2.7-1.3,6.7-2.5,11.9-3.5c7-1.3,11.8-2.5,14.5-3.7v-1.5
				c0-2.9-0.7-4.9-2.1-6.1c-1.4-1.2-4.1-1.8-8-1.8c-2.7,0-4.7,0.5-6.2,1.6C642.4,204.4,641.2,206.2,640.3,208.8z M660.3,220.9
				c-1.9,0.6-4.9,1.4-9.1,2.3c-4.1,0.9-6.8,1.8-8.1,2.6c-1.9,1.4-2.9,3.1-2.9,5.3c0,2.1,0.8,3.9,2.3,5.4c1.6,1.5,3.5,2.3,5.9,2.3
				c2.7,0,5.3-0.9,7.7-2.7c1.8-1.3,3-3,3.6-4.9c0.4-1.3,0.6-3.7,0.6-7.3V220.9z"/>
		</g>
	</g>
</g>
<path class="st4" d="M131.2,149.6c14.1,0,25.6,14.6,25.6,32.6c0,18-11.5,32.6-25.6,32.6c-14.1,0-25.6-14.6-25.6-32.6
	C105.6,164.2,117,149.6,131.2,149.6"/>
</svg>
