<svg xmlns="http://www.w3.org/2000/svg" viewBox="0 0 696.11 266.25"><defs><style>.cls-1{fill:#c13a4b;}.cls-2{fill:#fff;}.cls-3{fill:#1a4089;}.cls-4{fill:#009440;}</style></defs><g id="Capa_2" data-name="Capa 2"><g id="Capa_1-2" data-name="Capa 1"><path class="cls-1" d="M97.19,202a26.71,26.71,0,0,0-50.72-6.34,26.7,26.7,0,0,0-46.13,22,26.19,26.19,0,0,0,5.18,11.92h0c.34.44.69.86,1.05,1.27A115.09,115.09,0,0,0,16.28,241a120.87,120.87,0,0,0,41.95,25.21,101.75,101.75,0,0,0,30.66-34.41A96.45,96.45,0,0,0,96,215h0A26.2,26.2,0,0,0,97.19,202Z"/><path class="cls-2" d="M242.09,189.45V256H224.57V229.88l-17.76,25h-.12l-17.8-25V256H171.37V189.45h7l28.32,38.79,28.32-38.79Z"/><path class="cls-2" d="M290.92,248.34H266.29L262.93,256H243.78l30.65-66.79h8.31L313.43,256H294.24Zm-5.56-12.81-6.75-15.64-6.8,15.64Z"/><path class="cls-2" d="M350.06,256l-17.63-28.65V256H314.91l-.08-66h25c14.25,0,24.44,9.62,24.44,21.45a19.88,19.88,0,0,1-11.42,18L370.57,256Zm-17.72-37,7.17,0c3.72,0,7.12-2.58,7.12-6.63s-3.44-6.63-7.12-6.63h-7.17Z"/><path class="cls-2" d="M437.65,224.56c0,20.05-15.14,33-33.88,33C382.82,257.58,367,242,367,223.13s15.88-34.66,36.34-34.66c8.39.12,18.09,3.68,23.53,8.71l-9.7,13.3a21.14,21.14,0,0,0-13.83-5.64,18.53,18.53,0,0,0-18.46,18.25c0,9.25,7.41,18.25,19.6,18.25,8,0,13.67-3.85,13.92-10.15h-15.1V218.14h33.84A43.3,43.3,0,0,1,437.65,224.56Z"/><path class="cls-2" d="M479.84,248.34H455.2L451.85,256H432.7l30.65-66.79h8.31L502.35,256h-19.2Zm-5.57-12.81-6.75-15.64-6.79,15.64Z"/><path class="cls-2" d="M540.12,256l-17.64-28.65V256H505l-.08-66h25c14.24,0,24.43,9.62,24.43,21.45a19.87,19.87,0,0,1-11.41,18L560.63,256ZM522.4,219l7.16,0c3.73,0,7.13-2.58,7.13-6.63s-3.44-6.63-7.13-6.63H522.4Z"/><path class="cls-2" d="M563.47,190.06H581v66H563.47Z"/><path class="cls-2" d="M633.74,206.43h-15.8V256H600.39v-49.6H584.55V190.06h49.19Z"/><path class="cls-2" d="M673.53,248.34H648.9L645.54,256H626.39L657,189.24h8.31L696,256H676.85ZM668,235.53l-6.76-15.64-6.79,15.64Z"/><path class="cls-2" d="M133.81,175.21s-.15.58-.29,1c-14.79,40.2-12,77.47-10.39,80.35.72,2.29-5.6,3.87-6.9-.58-3.15-13.35-2.67-14.44-1.52-27.07-4.31,18-6.61,28-11.2,28.43-7,.72-9.19-6.46-9.91-11.78-1.72-15.36,5.6-28.43,21.11-28.43,1.72-15.94,3.73-31.59,8.76-42.21C124.33,173.2,127.49,170.9,133.81,175.21Zm-33.17,67.06c-.15,4.31-.15,11.63,4,3.88,4-7.32,5-15.51,7.32-21.68-8.33,4-15.51,16.51-12.63,26.13C99.06,245.72,99.49,242.13,100.64,242.27Z"/><path class="cls-2" d="M140.13,256.06c-13.93-1.87-11.06-22.69-7-31.31,3.3-7.18,9.19-10.05,15.8-8.47,10.91,4.17-3.31,21.68-8.91,23,0,2.72.29,6.75,1.44,8.9,2.87,5.6,14.64-5.31,22.26-16.23,5.6-5.74,2.58,2,.86,4.6C160.09,244.57,150.32,257.21,140.13,256.06Zm.43-20.82c2.58-3.45,10.05-11.78,8.18-15.51-.57-1.15-1.87-1.3-3.16.28C141.56,225.47,140.7,228.63,140.56,235.24Z"/><path class="cls-3" d="M213,35H191.83l-48.7,105.75V35H128.36L71.59,112.51,14.81,35H.05v131.1H35.49V115.81l35.86,50.28h.55l2.7-3.79,3.69-5.18,29.4-41.31v50.28h63.23l0-.06,6.08-13.9h50.81l5.27,12.17.77,1.79L260,166l.14-28.53ZM188.42,125.8l14-32.14,13.92,32.14Z"/><path class="cls-4" d="M529.44,5.15C526,22.08,514.7,26.36,506.05,26.36a22.88,22.88,0,0,1-8.69-1.65c-5.46-2.21-9-6.05-12.66-7.76a8.53,8.53,0,0,0-3.66-.88c-4.56,0-6.64,4.43-7.93,9.89l-15.62-4.75C460.85,4.67,471.75,0,480.89,0a22.93,22.93,0,0,1,10.54,2.48,42.18,42.18,0,0,1,5.93,3.72c3,2.14,5.59,4,8.6,4,4.41,0,6.57-4.35,7.94-9.82Z"/><path class="cls-4" d="M346.84,120.37c14.68-6.33,25.93-21.1,25.93-38.78,0-25.24-22.84-45.8-54.85-46.07h-.64l-57.34-.45V166.12h40.42v-50.4l32.81,50.4h46Zm-30.4-22.51-16.27-.09V69.36h16.27c8.37,0,16.18,5.46,16.18,14.25S324.9,98,316.44,97.86Z"/><rect class="cls-4" x="381.82" y="35.06" width="38.68" height="131.06"/><path class="cls-4" d="M559.32,82.17V35.06h-37.7v69l-67-64.93-4.14-4H435.65V166h38.87V107.61L534.84,166h24.47V82.17Z"/><path class="cls-4" d="M559.19,100.68c0-37.45,29.7-65.84,68.46-65.84s68.46,28.39,68.46,65.84c0,37.13-29.7,65.36-68.54,65.36S559.19,137.81,559.19,100.68Zm103.43-.24c0-19.26-15.17-34.11-35-34.11s-35,14.85-35,34.11,15.17,34,35,34S662.62,119.63,662.62,100.44Z"/></g></g></svg>