<svg xmlns="http://www.w3.org/2000/svg" viewBox="0 0 119.09 119.09"><defs><style>.cls-1{fill:#009440;}.cls-1,.cls-2{fill-rule:evenodd;}.cls-2,.cls-3,.cls-4,.cls-5{fill:#fefefe;}.cls-3{font-size:6.92px;}.cls-3,.cls-5{font-family:Arial-BoldMT, Arial;font-weight:700;}.cls-5{font-size:14.31px;}</style></defs><g id="Capa_2" data-name="Capa 2"><g id="Capa_1-2" data-name="Capa 1"><path class="cls-1" d="M14.28,0h90.53a14.32,14.32,0,0,1,14.28,14.28v90.53a14.33,14.33,0,0,1-14.28,14.28H14.28A14.33,14.33,0,0,1,0,104.81V14.28A14.32,14.32,0,0,1,14.28,0"/><path class="cls-2" d="M16.77,36.47a3.09,3.09,0,0,1,1.93-2.42s2.89-1.22,4.42,1.26a24.45,24.45,0,0,1,1.39,4c.68,2.1,1.77,5.2,3.07,8.16.82,1.85,2.16,4.77,3.59,6.27,1,1.11,2.63,2.09,4.27.69s2.52-4,3.09-5.8c.3-.91.64-2,1-3.44,1-3.51,1.74-6.82,2.39-10.41.5-2.79,1.22-6.23,1.54-9.21a23.57,23.57,0,0,1,.41-4A3.92,3.92,0,0,1,45,19.82a3.77,3.77,0,0,1,5.37.71,5.14,5.14,0,0,1,.87,3.67s.1,7-4.11,23.08c0,0-2.24,8.69-6.91,12.88-4.46,4-9.36,3.12-13.33-.9-.73-.74-1.45-1.55-2.13-2.36a32.94,32.94,0,0,1-5.34-9.61l-.36-.88A31,31,0,0,1,17,39.75a8.66,8.66,0,0,1-.21-3.28"/><path class="cls-2" d="M61.67,49.43a2.26,2.26,0,0,0,2.14-2,2.6,2.6,0,0,0,0-.76,2.93,2.93,0,0,0-2.11-2.22c-1.4-.36-2.88.64-3.76,1.82-2.5,3.36,1.79,3.23,3.71,3.19M58.83,37.21a7.69,7.69,0,0,1,3.52.08c2.29.56,5.26,2.29,7.47,7.12,0,0,3.79,6,.23,10,0,0-.84,1.59-7.43,1.22,0,0-2-.23-1.82,1.06s2.51,1,2.51,1,6.06-.76,6.28,3.71a3.19,3.19,0,0,1-1.47,2.77c-2.85,2-6.71.84-9.55-.48A15.86,15.86,0,0,1,50,54.19s-2.65-8,2.35-13.49A8.18,8.18,0,0,1,54.49,39a16.21,16.21,0,0,1,2.75-1.31l1-.31.66-.16"/><path class="cls-2" d="M74,51.87,73.9,62.06s-.32,4.61,3.42,4.94c0,0,3.35.68,3.46-5V52.52s-.15-1.91,1-.86l6.4,8.06.6.66c1.23,1.37,2.45,3.2,4.62,2.61a2.67,2.67,0,0,0,1-.53s1.88-1.33,1.77-4.83l-.76-11.3s.13-7.77,4.43-12.65c1.27-1.44,2.76-1.95,3.74-3.09a4.1,4.1,0,0,0,1-2.22,3.84,3.84,0,0,0-2-4.08,3.69,3.69,0,0,0-3.37.48,33.49,33.49,0,0,0-4.37,3.71,22.86,22.86,0,0,0-5.57,12.07c-.27,1.65-.19,3.57-.48,5a2.22,2.22,0,0,1-.9,1.59s-.56.41-1.49-.71c-.79-1-1.71-2.7-2.48-3.84s-2.4-3.95-3.3-4.93a4.11,4.11,0,0,0-.76-.65,3.5,3.5,0,0,0-4.87.9,8.06,8.06,0,0,0-.88,4.18l-.09,8Z"/><path class="cls-2" d="M33.45,41.45c1.83,0,3.31,1.89,3.31,4.23s-1.48,4.23-3.31,4.23-3.32-1.9-3.32-4.23,1.49-4.23,3.32-4.23"/><text class="cls-3" transform="translate(11.46 93.78)">E</text><text class="cls-3" transform="translate(15.81 93.78)">L</text><text class="cls-3" transform="translate(19.91 93.78)"> </text><text class="cls-3" transform="translate(21.56 93.78)">C</text><text class="cls-3" transform="translate(26.28 93.78)">O</text><text class="cls-3" transform="translate(31.39 93.78)">R</text><text class="cls-3" transform="translate(36.12 93.78)">A</text><text class="cls-3" transform="translate(40.85 93.78)">Z</text><text class="cls-3" transform="translate(44.8 93.78)">Ó</text><text class="cls-3" transform="translate(49.91 93.78)">N </text><text class="cls-3" transform="translate(56.56 93.78)">D</text><text class="cls-3" transform="translate(61.28 93.78)">E </text><text class="cls-3" transform="translate(67.55 93.78)">M</text><text class="cls-3" transform="translate(73.04 93.78)">A</text><text class="cls-3" transform="translate(77.77 93.78)">R</text><text class="cls-3" transform="translate(82.49 93.78)">G</text><text class="cls-3" transform="translate(87.6 93.78)">A</text><text class="cls-3" transform="translate(92.33 93.78)">R</text><text class="cls-3" transform="translate(97.05 93.78)">I</text><text class="cls-3" transform="translate(98.71 93.78)">T</text><text class="cls-3" transform="translate(102.15 93.78)">A</text><polygon class="cls-4" points="41.34 82.25 41.34 70.89 39.75 70.89 33.66 79.22 27.56 70.89 25.98 70.89 25.98 84.97 29.78 84.97 29.78 79.57 33.63 84.97 33.69 84.97 33.98 84.56 34.38 84 37.53 79.57 37.53 84.97 37.6 84.97 38.49 84.97 41.33 84.97 41.34 82.25"/><path class="cls-4" d="M82.66,68.75A2.5,2.5,0,0,1,80.14,71a2.37,2.37,0,0,1-.93-.18c-.58-.24-1-.65-1.36-.83a.87.87,0,0,0-.39-.1c-.49,0-.71.48-.85,1.06l-1.68-.51a2.49,2.49,0,0,1,2.51-2.27,2.56,2.56,0,0,1,1.14.26,5.27,5.27,0,0,1,.63.4,1.68,1.68,0,0,0,.93.43c.47,0,.7-.46.85-1.05Z"/><path class="cls-4" d="M63.1,80.19A4.56,4.56,0,0,0,65.89,76c0-2.71-2.46-4.92-5.89-4.94h-.07l-6.16,0V85.11h4.34V79.69l3.53,5.42h4.93Zm-3.26-2.41H58.09v-3h1.75a1.54,1.54,0,1,1,0,3.06Z"/><rect class="cls-4" x="66.69" y="71.05" width="4.15" height="14.07"/><polygon class="cls-4" points="85.86 76.17 85.86 76.17 85.86 71.11 81.82 71.11 81.82 78.51 74.62 71.54 74.17 71.11 72.59 71.11 72.59 85.17 76.76 85.17 76.76 78.9 83.24 85.17 85.86 85.17 85.86 81.93 85.86 81.93 85.86 76.17"/><path class="cls-4" d="M87.57,77.54a7.36,7.36,0,1,1,7.34,7,7.08,7.08,0,0,1-7.34-7m11.1,0a3.76,3.76,0,1,0-3.75,3.64A3.65,3.65,0,0,0,98.67,77.52Z"/><path class="cls-4" d="M49.63,83.42H44.51L43.82,85h-4L46.2,71.15h1.73L54.3,85h-4Zm-1.16-2.66-1.4-3.25-1.41,3.25Z"/><text class="cls-5" transform="translate(16.3 84.91)">a</text></g></g></svg>