<svg xmlns="http://www.w3.org/2000/svg" viewBox="0 0 419.29 339.15"><defs><style>.cls-1{fill:#fff;}.cls-1,.cls-2{fill-rule:evenodd;}.cls-2,.cls-3,.cls-4,.cls-5{fill:#fefefe;}.cls-3{font-size:30.32px;}.cls-3,.cls-5{font-family:Arial-BoldMT, Arial;font-weight:700;}.cls-5{font-size:62.73px;}</style></defs><g id="Capa_2" data-name="Capa 2"><g id="Capa_2-2" data-name="Capa 2"><path class="cls-1" d="M23.25,76.61c1-4.56,3.44-8.78,8.47-10.63,0,0,12.68-5.33,19.35,5.54,2.49,4,4.61,13,6.1,17.62,3,9.18,7.75,22.8,13.46,35.74,3.59,8.13,9.46,20.91,15.71,27.5,4.62,4.87,11.55,9.17,18.76,3,6.53-5.59,11-17.67,13.53-25.41,1.3-4,2.81-8.91,4.53-15.07,4.3-15.39,7.65-29.9,10.48-45.6C135.84,57.06,139,42,140.39,29c.57-5.35.25-12.62,1.8-17.56a17.06,17.06,0,0,1,4.74-7.73c7-6.25,18-4,23.51,3.08,2.64,3.4,4.41,8.48,3.82,16.08,0,0,.45,30.57-18,101.17,0,0-9.84,38.08-30.31,56.43-19.54,17.51-41,13.67-58.38-3.94-3.2-3.25-6.39-6.8-9.33-10.37C46.77,152.22,41.58,140.59,34.82,124l-1.56-3.84c-4.62-11.42-6.67-17-9.09-29.2-1.05-5.27-1.77-10.59-.92-14.35"/><path class="cls-1" d="M220,133.42s8.53-.41,9.34-8.94a10.07,10.07,0,0,0,.09-3.33c-.6-4.55-4.92-8.63-9.25-9.73-6.11-1.54-12.59,2.81-16.44,8-10.95,14.75,7.84,14.15,16.26,14M207.59,79.86a33.26,33.26,0,0,1,15.4.34c10,2.45,23,10,32.75,31.2,0,0,16.6,26.24,1,43.83,0,0-3.65,7-32.54,5.31,0,0-9-1-8,4.65s11,4.32,11,4.32,26.56-3.32,27.56,16.27c0,0,.74,7.1-6.47,12.12-12.48,8.68-29.38,3.67-41.84-2.11-13.78-6.38-29.84-18.55-37.68-41.55,0,0-11.62-34.87,10.29-59.1,0,0,2.67-3.46,9.51-7.56a74.52,74.52,0,0,1,12.07-5.73l4.27-1.34,2.9-.7"/><path class="cls-1" d="M274.24,144.1l-.63,44.65s-1.42,20.2,15,21.62c0,0,14.68,3,15.15-21.77V146.94s-.63-8.36,4.42-3.79l28.08,35.35,2.61,2.89c5.39,6,10.73,14,20.27,11.42a11.89,11.89,0,0,0,4.42-2.32s8.2-5.84,7.73-21.14L368,119.8s.58-34,19.42-55.43c5.55-6.31,12.09-8.56,16.36-13.53A17.75,17.75,0,0,0,408,41.13c.76-7-1.87-15.07-8.78-17.89-3.44-1.41-8.36-1.68-14.78,2.1-4.37,2.57-15.66,12.51-19.15,16.25C357,50.5,345.48,67.22,340.94,94.46c-1.22,7.27-.87,15.66-2.13,22.07-.57,2.91-1.7,5.78-3.92,7,0,0-2.46,1.79-6.54-3.12-3.46-4.16-7.5-11.82-10.88-16.81C313.92,98.32,307,86.24,303,82a17.53,17.53,0,0,0-3.37-2.87c-6.79-4.39-16.91-3.43-21.33,4-2.17,3.62-3.83,9.32-3.83,18.31l-.41,35Z"/><path class="cls-2" d="M96.35,98.42c8,0,14.53,8.29,14.53,18.53s-6.51,18.53-14.53,18.53S81.82,127.18,81.82,117s6.5-18.53,14.53-18.53"/><text class="cls-3" transform="translate(0 327.74)">E</text><text class="cls-3" transform="translate(19.03 327.74)">L</text><text class="cls-3" transform="translate(37 327.74)"> </text><text class="cls-3" transform="translate(44.24 327.74)">C</text><text class="cls-3" transform="translate(64.95 327.74)">O</text><text class="cls-3" transform="translate(87.35 327.74)">R</text><text class="cls-3" transform="translate(108.05 327.74)">A</text><text class="cls-3" transform="translate(128.76 327.74)">Z</text><text class="cls-3" transform="translate(146.1 327.74)">Ó</text><text class="cls-3" transform="translate(168.49 327.74)">N </text><text class="cls-3" transform="translate(197.62 327.74)">D</text><text class="cls-3" transform="translate(218.32 327.74)">E </text><text class="cls-3" transform="translate(245.79 327.74)">M</text><text class="cls-3" transform="translate(269.85 327.74)">A</text><text class="cls-3" transform="translate(290.56 327.74)">R</text><text class="cls-3" transform="translate(311.27 327.74)">G</text><text class="cls-3" transform="translate(333.66 327.74)">A</text><text class="cls-3" transform="translate(354.37 327.74)">R</text><text class="cls-3" transform="translate(375.08 327.74)">I</text><text class="cls-3" transform="translate(382.31 327.74)">T</text><text class="cls-3" transform="translate(397.39 327.74)">A</text><polygon class="cls-4" points="130.91 277.2 130.91 227.45 123.96 227.45 97.25 263.92 70.54 227.45 63.6 227.45 63.6 289.13 80.27 289.13 80.27 265.48 97.14 289.13 97.4 289.13 98.67 287.35 100.41 284.91 114.24 265.48 114.24 289.13 114.54 289.13 118.43 289.13 130.9 289.13 130.91 277.2"/><path class="cls-4" d="M312,218.06c-1.62,8-6.93,10-11,10a10.8,10.8,0,0,1-4.09-.78c-2.57-1-4.22-2.85-6-3.65a4,4,0,0,0-1.72-.42c-2.14,0-3.12,2.09-3.73,4.66l-7.35-2.24c1.58-7.78,6.71-10,11-10a10.84,10.84,0,0,1,5,1.16,19.93,19.93,0,0,1,2.79,1.75c1.41,1,2.63,1.89,4.05,1.89,2.07,0,3.09-2.05,3.73-4.62Z"/><path class="cls-4" d="M226.3,268.21A20.08,20.08,0,0,0,238.5,250c0-11.88-10.75-21.55-25.81-21.68h-.3l-27-.21v61.66h19V266l15.44,23.72h21.62ZM212,257.62l-7.66,0V244.21H212c3.93,0,7.61,2.57,7.61,6.71S216,257.66,212,257.62Z"/><rect class="cls-4" x="242" y="228.12" width="18.2" height="61.66"/><polygon class="cls-4" points="326.04 250.57 326.03 250.58 326.03 228.41 308.3 228.41 308.3 260.84 276.76 230.29 274.81 228.41 267.86 228.41 267.86 290.02 286.14 290.02 286.14 262.53 314.52 290.02 326.03 290.02 326.03 275.81 326.04 275.82 326.04 250.57"/><path class="cls-4" d="M333.5,256.58c0-17.62,14-31,32.21-31s32.21,13.35,32.21,31-14,30.75-32.25,30.75-32.17-13.28-32.17-30.75m48.66-.11c0-9.06-7.13-16.05-16.45-16.05s-16.45,7-16.45,16.05,7.13,16,16.45,16S382.16,265.5,382.16,256.47Z"/><path class="cls-4" d="M167.24,282.33H144.83l-3.05,7H124.36l27.88-60.74h7.55l27.92,60.74H170.25Zm-5.07-11.65L156,256.46l-6.17,14.22Z"/><text class="cls-5" transform="translate(21.22 288.85)">a</text></g></g></svg>