<svg xmlns="http://www.w3.org/2000/svg" viewBox="0 0 1327.76 66.9"><defs><style>.cls-1{fill:#009440;}</style></defs><g id="Capa_2" data-name="Capa 2"><g id="Capa_1-2" data-name="Capa 1"><path class="cls-1" d="M32.14,43.5,64.29,0V66.9H51.08V40.13L32.14,65.83,13.21,40.13V66.9H0V0Z"/><path class="cls-1" d="M123.06,0V40.13a25.94,25.94,0,0,1-7.75,18.93,26.07,26.07,0,0,1-37.27,0,26,26,0,0,1-7.73-18.93V0H83.52V40.13a13,13,0,0,0,3.86,9.45,13,13,0,0,0,18.59,0,13,13,0,0,0,3.88-9.45V0Z"/><path class="cls-1" d="M175,2.64a34.44,34.44,0,0,1,10.53,7.15l-9.33,9.47a19.08,19.08,0,0,0-14-5.9,18.84,18.84,0,0,0-14,5.92,19.53,19.53,0,0,0-5.78,14.17,19.46,19.46,0,0,0,5.78,14.18,19.55,19.55,0,0,0,27.95,0l9.33,9.46A34.23,34.23,0,0,1,175,64.27a32.49,32.49,0,0,1-36.07-7.18,32.46,32.46,0,0,1-9.67-23.64,32.46,32.46,0,0,1,9.67-23.61A32.41,32.41,0,0,1,175,2.64Z"/><path class="cls-1" d="M203.44,0V26.77h19.75V0H236.4V66.9H223.19V40.13H203.44V66.9H190.23V0Z"/><path class="cls-1" d="M298.65,9.84a32.44,32.44,0,0,1,9.69,23.61,32.44,32.44,0,0,1-9.69,23.64,32.53,32.53,0,0,1-46.56,0,32.46,32.46,0,0,1-9.67-23.64,32.46,32.46,0,0,1,9.67-23.61,32.46,32.46,0,0,1,46.56,0Zm-37.23,9.44a19.54,19.54,0,0,0-5.79,14.17,19.47,19.47,0,0,0,5.79,14.18,19.55,19.55,0,0,0,27.93,0,19.41,19.41,0,0,0,5.82-14.18,19.49,19.49,0,0,0-5.82-14.17,19.43,19.43,0,0,0-27.93,0Z"/><path class="cls-1" d="M327.14,38.39a27.84,27.84,0,0,1-6.29-3.28,23.62,23.62,0,0,1-6-5.91,15.15,15.15,0,0,1-2.66-9.15A19.46,19.46,0,0,1,318,5.89a19.5,19.5,0,0,1,27.93,0,19.42,19.42,0,0,1,5.81,14.16H338.57a6.44,6.44,0,0,0-1.94-4.71,6.45,6.45,0,0,0-9.3,0,6.5,6.5,0,0,0-1.92,4.71,6,6,0,0,0,2.84,5.41,17.86,17.86,0,0,0,4.31,2.26q.7.26,3.78,1.17a27.21,27.21,0,0,1,6.51,3,23.2,23.2,0,0,1,6.15,5.7,14.73,14.73,0,0,1,2.74,9.2A19.46,19.46,0,0,1,345.93,61,19.5,19.5,0,0,1,318,61a19.49,19.49,0,0,1-5.8-14.19h13.21a6.5,6.5,0,0,0,1.92,4.73,6.52,6.52,0,0,0,9.3,0,6.44,6.44,0,0,0,1.94-4.73c0-2.83-1.11-4.65-3.33-5.48l-4.52-1.7Z"/><path class="cls-1" d="M390.81,0V53.5h26.33V66.9H377.6V0Z"/><path class="cls-1" d="M475.83,0V40.13a25.94,25.94,0,0,1-7.75,18.93,26.07,26.07,0,0,1-37.27,0,26,26,0,0,1-7.73-18.93V0h13.21V40.13a13,13,0,0,0,3.86,9.45,13,13,0,0,0,18.59,0,13,13,0,0,0,3.88-9.45V0Z"/><path class="cls-1" d="M527.76,2.64a34.44,34.44,0,0,1,10.53,7.15L529,19.26a19.08,19.08,0,0,0-14-5.9,18.86,18.86,0,0,0-14,5.92,19.57,19.57,0,0,0-5.78,14.17A19.5,19.5,0,0,0,501,47.63a19.5,19.5,0,0,0,25.46,2.11,20.07,20.07,0,0,0,7.15-9.61H515V26.77h32.3a32.55,32.55,0,0,1,.66,6.68,32.44,32.44,0,0,1-9.69,23.64,32.53,32.53,0,0,1-46.56,0A32.46,32.46,0,0,1,482,33.45a32.46,32.46,0,0,1,9.67-23.61,32.41,32.41,0,0,1,36.07-7.2Z"/><path class="cls-1" d="M569.17,57.36l-4.25,9.54H550.85L579.07,3.11,580.46,0l1.43,3.15L610.15,66.9H596l-4.21-9.58-.21-.46H569.38ZM585.65,43.5,580.5,31.79,575.31,43.5Z"/><path class="cls-1" d="M612.78,46.82V0h23.06a22.12,22.12,0,0,1,16.32,6.89A22.72,22.72,0,0,1,659,23.41a22.78,22.78,0,0,1-4.19,13.42,22.85,22.85,0,0,1-10.7,8.45L659,66.9H642.83L626,42.42V66.9H612.78Zm23.06-13.37a9.45,9.45,0,0,0,7-2.94,9.76,9.76,0,0,0,2.91-7.1,9.77,9.77,0,0,0-2.91-7.08,9.41,9.41,0,0,0-7-3H626V33.45Z"/><path class="cls-1" d="M704.51,0V13.36H678.18V26.77h19.75V40.13H678.18V53.5h26.33V66.9H665V0Z"/><path class="cls-1" d="M725.4,38.39a27.68,27.68,0,0,1-6.3-3.28,23.78,23.78,0,0,1-6-5.91,15.15,15.15,0,0,1-2.66-9.15,19.42,19.42,0,0,1,5.81-14.16,19.5,19.5,0,0,1,27.93,0A19.46,19.46,0,0,1,750,20.05H736.83a6.45,6.45,0,0,0-2-4.71,6.45,6.45,0,0,0-9.3,0,6.5,6.5,0,0,0-1.92,4.71,6,6,0,0,0,2.84,5.41,17.86,17.86,0,0,0,4.31,2.26c.47.17,1.73.56,3.79,1.17a27.15,27.15,0,0,1,6.5,3,22.9,22.9,0,0,1,6.15,5.7,14.73,14.73,0,0,1,2.74,9.2A19.49,19.49,0,0,1,744.19,61a19.5,19.5,0,0,1-27.93,0,19.46,19.46,0,0,1-5.81-14.19h13.21a6.5,6.5,0,0,0,1.92,4.73,6.52,6.52,0,0,0,9.3,0,6.45,6.45,0,0,0,2-4.73c0-2.83-1.12-4.65-3.34-5.48L729,39.64Z"/><path class="cls-1" d="M775.85,46.82V0h23.06a22.1,22.1,0,0,1,16.32,6.89A22.68,22.68,0,0,1,822,23.41,22.66,22.66,0,0,1,815.23,40a22.12,22.12,0,0,1-16.32,6.87h-9.85V66.9H775.85Zm23.06-13.37a9.49,9.49,0,0,0,7-2.94,9.79,9.79,0,0,0,2.9-7.1,9.8,9.8,0,0,0-2.9-7.08,9.44,9.44,0,0,0-7-3h-9.85V33.45Z"/><path class="cls-1" d="M844.4,57.36l-4.26,9.54H826.08L854.29,3.11,855.68,0l1.43,3.15L885.37,66.9H871.26l-4.21-9.58-.2-.46H844.6ZM860.88,43.5l-5.16-11.71L850.53,43.5Z"/><path class="cls-1" d="M888,46.82V0h23.06a22.1,22.1,0,0,1,16.32,6.89,22.68,22.68,0,0,1,6.79,16.52A22.78,22.78,0,0,1,930,36.83a22.85,22.85,0,0,1-10.7,8.45L934.17,66.9H918.06L901.21,42.42V66.9H888Zm23.06-13.37a9.49,9.49,0,0,0,7-2.94,9.79,9.79,0,0,0,2.9-7.1,9.8,9.8,0,0,0-2.9-7.08,9.44,9.44,0,0,0-7-3h-9.85V33.45Z"/><path class="cls-1" d="M957.57,57.36l-4.25,9.54H939.25L967.47,3.11,968.86,0l1.43,3.15L998.54,66.9h-14.1l-4.22-9.58-.2-.46H957.77ZM974.05,43.5,968.9,31.79,963.7,43.5Z"/><path class="cls-1" d="M1050.29,66.9l-1.39-3.15L1020.68,0h14l15.62,35.24L1065.87,0H1080Z"/><path class="cls-1" d="M1082.61,0h13.21V66.9h-13.21Z"/><path class="cls-1" d="M1117.72,38.39a27.68,27.68,0,0,1-6.3-3.28,23.78,23.78,0,0,1-6-5.91,15.22,15.22,0,0,1-2.66-9.15,19.46,19.46,0,0,1,5.81-14.16,19.5,19.5,0,0,1,27.93,0,19.46,19.46,0,0,1,5.8,14.16h-13.16a6.45,6.45,0,0,0-2-4.71,6.45,6.45,0,0,0-9.3,0,6.5,6.5,0,0,0-1.92,4.71,6,6,0,0,0,2.84,5.41,17.88,17.88,0,0,0,4.32,2.26q.69.26,3.78,1.17a27.15,27.15,0,0,1,6.5,3,22.9,22.9,0,0,1,6.15,5.7,14.73,14.73,0,0,1,2.74,9.2,19.49,19.49,0,0,1-5.8,14.19,19.5,19.5,0,0,1-27.93,0,19.5,19.5,0,0,1-5.81-14.19H1116a6.5,6.5,0,0,0,1.92,4.73,6.52,6.52,0,0,0,9.3,0,6.45,6.45,0,0,0,2-4.73c0-2.83-1.11-4.65-3.34-5.48l-4.52-1.7Z"/><path class="cls-1" d="M1147.72,0h13.21V66.9h-13.21Z"/><path class="cls-1" d="M1197.57,0h16.48V13.36h-16.48V66.9h-13.2V13.36h-16.49V0h29.69Z"/><path class="cls-1" d="M1238,57.36l-4.26,9.54h-14.06l28.21-63.79L1249.27,0l1.43,3.15L1279,66.9h-14.11l-4.21-9.58-.2-.46h-22.25Zm16.47-13.86-5.15-11.71-5.19,11.71Z"/><path class="cls-1" d="M1281.59,46.82V0h23.06A22.12,22.12,0,0,1,1321,6.89a22.68,22.68,0,0,1,6.79,16.52,22.78,22.78,0,0,1-4.19,13.42,22.85,22.85,0,0,1-10.7,8.45l14.89,21.62h-16.11L1294.8,42.42V66.9h-13.21Zm23.06-13.37a9.49,9.49,0,0,0,7-2.94,9.79,9.79,0,0,0,2.9-7.1,9.8,9.8,0,0,0-2.9-7.08,9.44,9.44,0,0,0-7-3h-9.85V33.45Z"/></g></g></svg>