<svg xmlns="http://www.w3.org/2000/svg" viewBox="0 0 400.54 111.28"><defs><style>.cls-1{fill:#fff;}</style></defs><g id="Capa_2" data-name="Capa 2"><g id="Capa_1-2" data-name="Capa 1"><path class="cls-1" d="M53.47,72.34,106.93,0V111.28H85V66.75L53.47,109.48,22,66.75v44.53H0V0Z"/><path class="cls-1" d="M145.85,95.4l-7.08,15.88h-23.4L162.31,5.18,164.62,0,167,5.25l47,106H190.54l-7-16-.34-.76h-37Zm27.41-23.06-8.57-19.46-8.64,19.46Z"/><path class="cls-1" d="M218.37,77.87V0h38.36a36.72,36.72,0,0,1,27.14,11.46,37.76,37.76,0,0,1,11.3,27.47,37.7,37.7,0,0,1-11.3,27.51,36.76,36.76,0,0,1-27.14,11.43H240.34v33.41h-22Zm38.36-22.23a15.76,15.76,0,0,0,11.63-4.9,16.21,16.21,0,0,0,4.83-11.81,16.25,16.25,0,0,0-4.83-11.77,15.67,15.67,0,0,0-11.63-4.93H240.34V55.64Z"/><path class="cls-1" d="M332.38,95.4l-7.08,15.88H301.9L348.84,5.18,351.15,0l2.38,5.25,47,106H377.07l-7-16-.34-.76h-37Zm27.41-23.06-8.57-19.46-8.64,19.46Z"/></g></g></svg>