<svg xmlns="http://www.w3.org/2000/svg" viewBox="0 0 907.22 973.28"><defs><style>.cls-1{fill:#ffbc0d;}</style></defs><g id="Capa_2" data-name="Capa 2"><g id="Capa_1-2" data-name="Capa 1"><path id="path6273" class="cls-1" d="M120.4,653.25c1,.09,1.82,2.09,2.79,7.6-2.08,11.81-3.45,23.81-11.18,34.66l-.47,29.91c-2.45,3.52-5.57,6.82-3.27,15.2-3.7,4.23-10.37,5.12-8.84,14.72l7.91-1-7.91,21.84C96,791.66,95,802.84,111.06,784.3l.46,40.36-3.26,7.6-1.85-18L105,801.39l-10.7-2.85-.46-6.17-6.51-4.27-5.58-10.45,11.63-7.12c1.93-4.78,14.34-13.4,1.4-12.82l-7-5.22c7-3.93.59-10.19-7.91-17.1-.39-5,3.4-6.68,8.37-7.12,9.54,8.52,16,5.36,17.69-15.19.44-14.14-7.9-16-18.15-15.2L87.34,687,84.55,676c.89-12.29,15.86-15.77,7.91-5.22,9.27,19.79,10,3.25,14,.47L115.26,658c1.62-.31,3.51-4.91,5.12-4.75ZM687.53,0,465.91,5.26c-72.06,85.49-181.51,48-86.1,198.62l-59.26,38.55-128-57.83L0,330.54,22.52,591.22,27.32,602c.74.37,2.31,4.3,7,13.77,5.39,10.93,7.57-9.41,15.82-15.67s25.42,17.82,7,18c-8.23.11-3.26,8.55-3.26,8.55A87.53,87.53,0,0,1,65.91,652.3c4,14.67-7,3.32-7,3.32l-8.39-22.31s0,12.53-5.58,2.37c-3.56-6.55-12.92-11.47-21.47-14.34l12.76,151,8.24,2.41c3.89,2.64,1.32,5.44-.46,8.08l-8.38.47c-1.64,2.13-2.78,4,1.39,6.17h7c1,2.51,3.22,5.09-1.39,7.6l-4.78,2L39.22,812l3.87-5.35c15.25-.91,18.77-6.49,20.48-12.35,4.18-.72,9.89-2.12,13-2.37s3.65.74-2.79,4.75c-6.59,5.85-2.79,9.9,3.25,13.77,4.18,2.47,8.35,4.37,13.5,1.89,10-2.7,12.92,2.56,12.09,11.87l3.73,17.57c-6.85.19-14.06,1.44-20.48-1-7.6,6.84-11.13,2.22-15.82,1-.56-13.72-1.39-26.81-19.08-19L40.36,832.1,48.4,963l1.2,10.27s5.41-.66,13.49-9.5a30.78,30.78,0,0,1,19.08-9.49l17.22-3.8s3.19.68,5.58-7.6,19.54-28,19.54-28,19.57-27.51,5.58-43.69-1.15-42.37-3.73-53.65S124,708.8,124,708.8s7.05-29.94,12.57-32.76,2.33-26.12,2.33-26.12l4.66-44.63S152,543.48,161.74,535s7.45-47,7.45-47l16.75-27.07,21.87-11.87,10.7,9,7.91.48,4.18-1.9-6.51-2.37-7.45-4.75-.92-4.75s3.6-9.36,9.3-5.22,7.91.47,7.91.47l3.73-15.67,14-18.52,30.24-19.47s15.27-11.72,31.63-6.64S376.24,384,376.24,384L413,342.71l14.42-8.55,18.61-1.9s12-10,18.6-7.59,20.94,4.27,20.94,4.27l2.79,3.32L479.53,346s-.28,16.81,7.45,6.65,21.87-35.13,21.87-35.13l6.51-13.77,7.45,3.32s4.87-.82,7.45-7.6,19.08-5.22,19.08-5.22l4.66,2.85s3.83.49,4.19-7.6S564.7,281,564.7,281l15.36-11.39,14.42-1.9,17.69-12.35,18.6-2.37,11.64,7.6,26.53,19.94,23.26-1.42,31.18.94s13.68-17.69,5.58-30.86-13.5-17.57-13.5-17.57-.15-7.21,10.69-16.62,14-10.44,14-10.44,8.57-5.24,9.3,12.82S755,275.29,755,275.29l13,48.9s1.82,8-1.86,7.6-21.47-15.63-27-21.84-6.11-12.28-3.72-14.72-9.44-6.32-12.57-1.42-14,1.42-14,1.42-19-11-16.76-12.35c-1.82-.63-15.35,0-15.35,0s6.38,8.5,3.25,12.82-9.83,3.64-6.52,6.65,12.18,4.69,3.73,8.07-14.43,7.7-6.52,8.08,30.18-2,32.57,12.34,5.58,28.49,5.58,28.49,20.18,27.82,43.75,7.12,18.6,4.28,18.6,4.28,7.18,29.1,8.85,4.27,2.33-28,2.33-28,1.6-5.5-4.66-23.75S768.47,272,768.47,272l-9.3-57.45-2.79-87.84,2.79-11.4L758.25,102l5.58-8.08V86.31L768,80.13l5.12,17.57s2.45,18.46,5.58,1.9S780.11,82,780.11,82s-4.93-7.41-12.1-8.54,4.65-16.15,4.65-16.15l18.14-18s8.43-4.7-3.72-9-18.93-6.76-22.81,1.9-5.12,10.92-5.12,10.92-15.49-1.87-11.63-9,11.63-9.5,11.63-9.5,3.51-2.29,0-3.8-13-1.9-13-1.9L737.74,16l-3.37-3.62ZM907.07,195.52c-15.23,4.12-23.11,12.73-23.73,26.59C899,221.54,908.55,214.86,907.07,195.52Z"/></g></g></svg>