<svg xmlns="http://www.w3.org/2000/svg" viewBox="0 0 329.35 126.12"><defs><style>.cls-1{fill:#f9b800;}.cls-2{fill:#1a4089;}.cls-3{fill:#009440;}.cls-4{fill:#ffca00;}.cls-5{fill:#c13a4b;}</style></defs><g id="Capa_2" data-name="Capa 2"><g id="Capa_1-2" data-name="Capa 1"><rect class="cls-1" x="192.55" y="16.59" width="136.8" height="62.01"/><path class="cls-2" d="M192.79,78.59H123.2v-62h69.59Z"/><rect class="cls-1" x="0.03" y="16.56" width="123.03" height="62.03"/><path class="cls-2" d="M100.76,16.56h-10l-23,50v-50h-7L33.87,53.23,7,16.56H0v62H16.79V54.79l17,23.79H34l1.28-1.8,1.75-2.45L51,54.79V78.58H80.87v0L83.76,72h24l2.49,5.76.37.85,12.33,0,.07-13.5Zm-11.61,43,6.63-15.21,6.59,15.21Z"/><path class="cls-3" d="M250.49,2.43c-1.63,8-7,10-11.07,10a10.67,10.67,0,0,1-4.11-.78c-2.58-1-4.24-2.86-6-3.67a4,4,0,0,0-1.73-.42c-2.16,0-3.15,2.1-3.75,4.68L216.45,10C218,2.21,223.19,0,227.52,0a10.8,10.8,0,0,1,5,1.17,21.87,21.87,0,0,1,2.81,1.76c1.42,1,2.64,1.9,4.07,1.9,2.08,0,3.11-2.06,3.75-4.64Z"/><path class="cls-3" d="M164.1,57A20.2,20.2,0,0,0,176.37,38.6c0-11.94-10.81-21.67-26-21.8h-.31L123,16.59v62h19.12V54.74l15.52,23.85h21.74ZM149.72,46.3l-7.7,0V32.82h7.7c3.95,0,7.65,2.58,7.65,6.74S153.72,46.34,149.72,46.3Z"/><rect class="cls-3" x="180.65" y="16.59" width="18.3" height="62.01"/><polygon class="cls-3" points="264.62 38.88 264.62 38.88 264.62 16.59 246.78 16.59 246.78 49.21 215.06 18.49 213.1 16.59 206.11 16.59 206.11 78.56 224.5 78.56 224.5 50.91 253.04 78.56 264.62 78.56 264.62 64.26 264.62 64.27 264.62 38.88"/><path class="cls-3" d="M264.56,47.63c0-17.71,14.05-31.15,32.39-31.15s32.39,13.44,32.39,31.15-14.06,30.93-32.43,30.93S264.56,65.2,264.56,47.63Zm48.93-.11c0-9.11-7.17-16.14-16.54-16.14s-16.54,7-16.54,16.14S287.58,63.59,297,63.59,313.49,56.6,313.49,47.52Z"/><rect class="cls-4" y="78.56" width="329.3" height="47.56"/><path class="cls-5" d="M46,94.63a12.63,12.63,0,0,0-24-3A12.63,12.63,0,0,0,.16,102a12.35,12.35,0,0,0,2.45,5.64h0l.5.6a54.89,54.89,0,0,0,4.59,4.82A57.21,57.21,0,0,0,27.55,125a48.17,48.17,0,0,0,14.5-16.27,46.13,46.13,0,0,0,3.38-8h0A12.45,12.45,0,0,0,46,94.63Z"/><path class="cls-2" d="M114.53,88.69v31.5h-8.29V107.82l-8.4,11.84h-.06l-8.42-11.84v12.37H81.08V88.69h3.33L97.8,107l13.4-18.35Z"/><path class="cls-2" d="M137.64,116.55H126l-1.59,3.64h-9.06l14.5-31.6h3.93l14.53,31.6H139.2ZM135,110.49l-3.19-7.4-3.21,7.4Z"/><path class="cls-2" d="M165.62,120.19l-8.35-13.56v13.56H149L149,89H160.8c6.73,0,11.55,4.55,11.55,10.14a9.4,9.4,0,0,1-5.4,8.54l8.37,12.53Zm-8.39-17.5h3.39a3.14,3.14,0,1,0,0-6.27h-3.39Z"/><path class="cls-2" d="M207.05,105.3c0,9.49-7.16,15.62-16,15.62-9.91,0-17.4-7.39-17.4-16.3s7.51-16.4,17.19-16.4a18.13,18.13,0,0,1,11.13,4.13l-4.59,6.29A10,10,0,0,0,190.81,96a8.76,8.76,0,0,0-8.73,8.63c0,4.38,3.5,8.64,9.27,8.64,3.78,0,6.47-1.82,6.59-4.8h-7.15v-6.18h16A20,20,0,0,1,207.05,105.3Z"/><path class="cls-2" d="M227,116.55H215.36l-1.59,3.64h-9.06l14.5-31.6h3.93l14.52,31.6h-9.08Zm-2.63-6.06-3.19-7.4-3.22,7.4Z"/><path class="cls-2" d="M255.53,120.19l-8.34-13.56v13.56H238.9l0-31.21h11.85c6.74,0,11.56,4.55,11.56,10.14a9.4,9.4,0,0,1-5.4,8.54l8.36,12.53Zm-8.38-17.5h3.39a3.14,3.14,0,1,0,0-6.27h-3.39Z"/><path class="cls-2" d="M266.58,89h8.28v31.21h-8.28Z"/><path class="cls-2" d="M299.82,96.72h-7.47v23.47H284V96.72h-7.49V89h23.27Z"/><path class="cls-2" d="M318.65,116.55H307l-1.58,3.64h-9.06l14.5-31.6h3.93l14.52,31.6h-9.08ZM316,110.49l-3.2-7.4-3.21,7.4Z"/><path class="cls-2" d="M63.3,82s-.06.27-.13.48c-7,19-5.67,36.65-4.92,38,.34,1.09-2.65,1.84-3.26-.27-1.49-6.32-1.26-6.83-.72-12.81-2,8.49-3.13,13.25-5.3,13.45-3.33.34-4.35-3.06-4.69-5.57-.81-7.27,2.65-13.45,10-13.45.81-7.54,1.77-15,4.14-20C58.82,81,60.32,79.91,63.3,82ZM47.61,113.68c-.07,2-.07,5.5,1.9,1.83,1.91-3.46,2.38-7.33,3.47-10.26-3.94,1.91-7.34,7.82-6,12.37C46.86,115.31,47.07,113.61,47.61,113.68Z"/><path class="cls-2" d="M66.29,120.2c-6.59-.88-5.23-10.73-3.33-14.81,1.57-3.4,4.35-4.76,7.48-4,5.16,2-1.56,10.26-4.21,10.87a10.44,10.44,0,0,0,.68,4.21c1.35,2.65,6.92-2.51,10.53-7.67,2.64-2.72,1.22.95.4,2.17C75.74,114.77,71.12,120.74,66.29,120.2Zm.21-9.85c1.22-1.63,4.75-5.57,3.87-7.34-.27-.54-.88-.61-1.49.14A10.34,10.34,0,0,0,66.5,110.35Z"/></g></g></svg>