<svg xmlns="http://www.w3.org/2000/svg" viewBox="0 0 406.06 514.24"><defs><style>.cls-1{fill:#fff;}.cls-2{fill:#ffcd00;}.cls-3{fill:none;}</style></defs><g id="Capa_2" data-name="Capa 2"><g id="Capa_1-2" data-name="Capa 1"><path class="cls-1" d="M212.81,380.08,230.65,406c.09-2,.19-3.16.19-4.37,0-20,.13-40,0-59.94,0-3.17.83-4.44,4.15-4.23,4.34.28,8.7.2,13,.15,2.1,0,2.91.73,2.91,2.88q-.14,32.43-.13,64.87c0,1.92-.62,2.75-2.63,2.74-12.46-.06-24.92,0-37.37-.16a5.2,5.2,0,0,1-3.5-2.23c-5.11-7.75-10-15.61-15-23.43-.49-.76-1.05-1.49-2.2-3.1,0,8.07,0,15.16,0,22.26,0,7.69.59,6.52-6.59,6.56-10.1.06-20.21-.11-30.31.07-3.15.06-5.25-.72-6-3.9-.9-3.66-3.08-4.87-6.89-4.64a171,171,0,0,1-18,0c-2.89-.13-4.47.86-5.1,3.5-1,4-3.35,5.11-7.43,5-10.56-.33-21.15-.22-31.72-.11-3.06,0-4.06-1-4-4.07.22-7.25.07-14.5.07-22.89L54.89,406.79C48.48,398.12,42.47,390,35.83,381v26.38c-6.4,0-12.45.09-18.49-.14-.59,0-1.55-2.06-1.56-3.17-.12-9.76-.07-19.51,0-29.27,0-11.16,0-22.33.17-33.49,0-1.61.92-4.53,1.57-4.57,2.7-.19,5.79-1.52,8.08,1.55,7.56,10.19,15.24,20.29,22.88,30.42,2,2.7,4.1,5.37,6.51,8.52,3.85-5,7.44-9.59,11-14.23Q75.07,351,84.17,338.83c1.53-2,6.87-3.4,8.84-2,.79.57,1.11,2.2,1.11,3.35,0,11,0,22.09-.06,33.14,0,10.21,0,20.41.72,30.92.61-1.14,1.27-2.26,1.83-3.43,9.72-20.34,19.56-40.63,29-61.08,1.88-4.07,4.85-3,7.82-3.34s4.06,1.23,5.17,3.6q14.94,31.89,30.09,63.7a2.73,2.73,0,0,0,1.41,1.42V401.5c0-20,.09-40-.07-59.94,0-3.48,1.11-4.41,4.4-4.29,9.38.34,18.83-.14,28.16.76,9.52.92,17.2,5.6,20.85,15.05,3.56,9.22.53,18.82-7.46,24.67C215.09,378.44,214.15,379.11,212.81,380.08Zm-22.7-12c3.25,0,6,.2,8.61-.05a6.6,6.6,0,0,0,6.06-5.91c.26-3.07-1.81-6.32-4.9-6.86a38.91,38.91,0,0,0-8.08-.22,2.41,2.41,0,0,0-1.62,1.71C190,360.41,190.11,364,190.11,368.12Zm-65,17.18h13.55c-2.24-5.09-4.26-9.7-6.61-15Z"/><path class="cls-2" d="M200.81,475.57q0,11,0,22.09c0,4.35.1,8.7-.11,13,0,.94-1.19,2.6-1.86,2.62-7.5.18-15,.11-23,.11v-6l0-80.72c0-4.83,0-4.85,4.92-4.85,10.22,0,20.44,0,30.66.08,9.55.08,18.34,2.5,25.69,8.92,14.14,12.34,12.79,33.37-2.8,43.8-1.06.71-2.16,1.38-3.74,2.38l24.29,35.14.88-.3c0-4.29,0-8.58,0-12.87,0-24.2.16-48.41.07-72.61,0-3.55,1-4.58,4.53-4.45,12.2.44,24.48-.14,36.61.95,15.14,1.37,28.05,7.61,36,21.43,11.21,19.38,6.2,46.84-10.76,59.28-9.77,7.17-21,9.79-32.84,9.95-19.85.27-39.71,0-59.57.09a5.47,5.47,0,0,1-5.33-3c-6.67-10.78-13.56-21.42-20.38-32.1-.68-1.06-1.42-2.09-2.13-3.13Zm79.58-7.77h-.06c0,6.57,0,13.14,0,19.71,0,1.89.29,3.38,2.6,3.15,5.12-.5,10.41-.41,15.3-1.75,15.83-4.37,20.93-25.39,9.14-36.88-7-6.81-15.84-7.54-24.89-7.17-.73,0-1.95,1.86-2,2.87C280.3,454.42,280.39,461.11,280.39,467.8Zm-72.51-5.65c1.52,0,3.05.08,4.56,0,4.37-.27,8.12-3.39,8.8-7.25.82-4.66-.89-8.64-5.53-10-3.81-1.13-8-.77-12.08-1.13-2.23-.2-2.84,1-2.81,2.93.06,2.81,0,5.62,0,8.42C200.86,463.55,200,461.93,207.88,462.15Z"/><path class="cls-2" d="M131.71,477.57c0,4,0,7.38,0,10.76,0,2.38,1.71,2.11,3.21,2.11,9.75,0,19.51.14,29.26,0,3.17-.06,4.38.81,4.24,4.12-.23,5.16-.13,10.34,0,15.5.06,2.35-.6,3.42-3.15,3.4q-27.48-.25-55-.28c-3,0-3.49-1.19-3.48-3.78q.18-36.83.18-73.67v-7.17l-.93-.13c-3.49,7.23-7,14.45-10.47,21.71Q81.38,480,67.17,509.88c-.76,1.58-2,3.89-3.25,4.1a37.17,37.17,0,0,1-9.76-.19c-.64-.07-1.24-1.6-1.68-2.54Q32.1,467.95,11.76,424.6c-.39-.83-.63-1.72-1.06-2.91,1.15-.14,2-.34,2.89-.35,6.93,0,13.87.11,20.79,0,2.41-.05,3.62.9,4.52,3q9,20.68,18,41.32c.69,1.56,1.5,3.07,2.61,5.35,2.79-6.15,5.25-11.55,7.67-17,4.39-9.86,8.79-19.71,13.09-29.61a4.28,4.28,0,0,1,4.5-3q40.18.27,80.36.35c2.53,0,3.64.93,3.57,3.52-.14,5.16-.23,10.33-.17,15.49,0,2.77-1.17,3.65-3.83,3.63-9.52-.1-19,0-28.55,0h-4.43c0,3.76,0,7.11,0,10.47,0,2.53,1.8,2.35,3.44,2.36,7.4,0,14.81.2,22.2,0,3.51-.1,4.84.91,4.57,4.54a103.51,103.51,0,0,0,0,12.33c.13,2.74-.74,3.7-3.56,3.63-7.4-.18-14.81-.06-22.21-.06Z"/><path class="cls-2" d="M344.54,467.81c0-14,.07-28-.06-42,0-3,.95-3.78,3.85-3.75q26.81.33,53.59.3c2.95,0,4.27.69,4.13,3.92-.24,5-.18,10.11,0,15.15.09,2.83-1,3.65-3.72,3.6-9.64-.2-19.28-.13-28.91-.35-3.18-.07-4.27.92-4.21,4.23.16,8.84,0,8.84,8.72,8.84,6.11,0,12.22.11,18.33,0,2.46,0,3.35.87,3.28,3.28-.12,4.47-.14,8.94,0,13.4.08,2.68-1.06,3.43-3.57,3.4-7.64-.11-15.28.06-22.92-.1-2.87-.06-3.89.78-3.83,3.79.17,9.58.06,9.58,9.55,9.58,7.88,0,15.76.14,23.63,0,2.86-.06,3.64,1,3.56,3.66-.16,5.29-.14,10.58,0,15.87.07,2.49-.91,3.29-3.29,3.27q-27.69-.14-55.36-.12c-2.8,0-2.93-1.59-2.92-3.65q0-21.15,0-42.31Z"/><path class="cls-1" d="M360.52,410.36c-16.84-.16-31.72-9.33-37.29-23.19-7.52-18.73.44-38.7,18.81-47.17,18.81-8.68,42.23-2.82,52.51,13.14,14.57,22.6,1.36,51.59-25.67,56.25C366.12,409.86,363.31,410,360.52,410.36Zm.09-56c-11.36,0-20,8.06-20,18.69s8.42,18.49,19.72,18.58,19.94-7.8,20-18.26C380.44,362.7,371.81,354.38,360.61,354.36Z"/><path class="cls-1" d="M298.79,370.84V337.77c6.39,0,12.12,0,17.85,0,2.26,0,2.35,1.47,2.35,3.08q0,7.57-.05,15.16l-.18,48.64v3.86c-4,.86-6.95.46-9.91-2.43-10.07-9.86-20.45-19.39-30.73-29.05-.58-.55-1.24-1-2.35-1.92-.1,1.56-.23,2.65-.24,3.74,0,8.58-.15,17.16,0,25.73,0,2.76-.84,3.73-3.64,3.59-4.45-.23-8.93-.15-13.39-.07-2,0-3-.45-3-2.72.09-21.86.07-43.71.18-65.57,0-.95.94-2.73,1.37-2.7,2.23.11,5,0,6.55,1.24,5.67,4.74,10.92,10,16.31,15.05q8.48,8,16.94,15.94C297.22,369.7,297.69,370,298.79,370.84Z"/><path class="cls-1" d="M281.94,316.56c2,.95,5.31,2.31,8.4,4.06,4.19,2.38,4.89,2.27,7.58-1.73.49-.73,1.78-1,2.74-1.31.26-.1.66.18,1,.27,6.64,1.8,7.29,4,2.85,9.45-3.83,4.74-11.06,5.92-17,2.72-1.23-.66-2.36-1.53-3.54-2.29-3.69-2.37-5.15-2.12-7.16,1.85-1,2-2.21,1.59-3.74,1.2-7-1.75-7.6-3.81-2.95-9.48C272.77,318,276.35,316.94,281.94,316.56Z"/><line class="cls-3" x1="138.91" y1="156.61" x2="252.72" y2="142.27"/><path class="cls-3" d="M234.84,90.1a62.83,62.83,0,0,0,33.9-11.77c11.18-7.89,19.93-17.86,24.23-31.14,1.68-5.2,1-5.92-4.45-6-12.31-.15-23.33,4-33.39,10.67C243.61,59.54,234.69,69.53,230,82.76,227.74,89.07,228.68,90.12,234.84,90.1Z"/><path class="cls-3" d="M193.43,90.92c-16.18-4.28-42,15.77-40.83,30.17C168,124.52,192.15,107.53,193.43,90.92Z"/><path class="cls-3" d="M206.42,31.75C194.94,19.12,180.9,11.09,163.73,9.59c-10.14-.89-11.13.67-6.76,10,9.33,20,25,32.4,46.41,37.59,5.11,1.24,10.35,2.15,16.15.26-.26-1.57-.4-3-.74-4.3C216.69,44.87,212.08,38,206.42,31.75Z"/><path class="cls-3" d="M217,146.83l-16.24,2.06c4.87-.6,9.74-1.19,14.61-1.73A8.36,8.36,0,0,0,217,146.83Z"/><path class="cls-3" d="M155.47,150.35a9.6,9.6,0,0,0,1.44-.1q5.84-.81,11.68-1.57Z"/><path class="cls-3" d="M112.35,70.18c-2.55-.52-5.25-.33-8.63-.51.49,2.28.64,3.55,1,4.74,4.58,14,21.17,26.29,35.85,26.71,5.24.15,5.85-.44,3.83-5.26C138.42,81.54,127.4,73.24,112.35,70.18Z"/><path class="cls-3" d="M308.64,276.34c-6.8-.39-13.6-.72-20.4-1-1.08-.05-2.17.1-3.38.16,3.78,11.34,17.24,19.07,28.93,17,14.6-2.62,24.43-14.14,24-28.13s-10.72-25.17-25-26.85c-11-1.29-24,5.7-26.31,14.47,7.88.5,15.69,1,23.5,1.49,7.23.43,11.9,5.43,11.48,12.38C321.06,272.45,315.79,276.75,308.64,276.34Z"/><path class="cls-3" d="M311.13,221.78c-22.05-.81-39,16.47-41,28.88,5.9,1.57,6.43,1.31,9.35-3.38a43.82,43.82,0,0,1,4.76-6.53c10.35-11.28,27.72-14.61,41-8,14.64,7.32,22.82,22.83,19.85,38.5a35.52,35.52,0,0,1-32.32,29.11c-14.44,1.26-29.27-7.46-35.18-21.44-2.1-5-3.1-5.42-8.87-3.95,1.4,14.13,17.87,33.75,42.18,33.2a43.22,43.22,0,0,0,.28-86.41Z"/><path class="cls-3" d="M316.27,141.29c-1.69-3.21-5-2.7-7.88-2.38-7.34.82-14.67,1.85-22,2.77q-25.84,3.25-51.69,6.49-19.56,2.46-39.12,4.89-19,2.37-38.06,4.78c-12.91,1.66-25.82,3.39-38.73,5.07-8,1-16,2-24.74,3.14,1,1.67,1.62,2.67,2.27,3.62,14.47,21.1,29,42.13,43.37,63.33,3,4.49,6.2,7.75,12.11,6.9,1.58-.22,3.26.29,4.9.38,28.26,1.53,56.52,2.95,84.76,4.69,3.54.22,5.33-1,7.16-3.58,8.12-11.36,16.35-22.63,24.54-33.94l41.31-57C316.48,147.64,318,144.63,316.27,141.29Z"/><path class="cls-3" d="M311.86,257.11c-.71-.56-2-.42-3.08-.47-14.42-.77-28.85-1.43-43.27-2.29-20.16-1.21-40.31-2.65-60.47-3.81s-40.35-2.1-60.52-3.11a7.93,7.93,0,0,1-6.75-3.69c-5.67-8.49-11.52-16.86-17.31-25.26q-19.68-28.54-39.39-57.08c-7.45-10.79-17.87-15.85-30.81-14.67s-26.1,3.09-39.1,5c-1.31.19-3.13,2.25-3.3,3.62-.29,2.21,1.55,3.61,3.9,3.47,2.93-.17,5.84-.56,8.75-.92,10.37-1.26,20.73-2.55,28.57-3.52,13.44-.41,20.2,3.09,26.56,12.35q14,20.33,27.93,40.63c10.06,14.6,20.06,29.23,30.28,43.72,1.12,1.6,3.4,3.23,5.24,3.35,32.23,2,64.47,3.85,96.71,5.72l70.34,4.11c1.76.1,3.71.52,5.23-.08a5.51,5.51,0,0,0,3.1-3.51C314.62,259.58,313,258,311.86,257.11Z"/><path class="cls-3" d="M145.9,270.29c.94,13.46,1.67,26.93,2.68,40.38a90.78,90.78,0,0,0,2.13,14.52c.8,3.27,3.56,4,6.35,2.06a20.6,20.6,0,0,0,4.82-4.54c8.19-11,16.25-22.11,24.34-33.19,4.47-6.14,8.89-12.3,14-19.38-17.92-.94-34.78-1.81-51.64-2.72C146.4,267.3,145.74,268.09,145.9,270.29Z"/><path class="cls-1" d="M223.6,146l-2.35.3C222.05,146.21,222.83,146.11,223.6,146Z"/><path class="cls-1" d="M223.6,146c1.81-.27,3.59-.62,5.48-1V98.89c4.32,0,8.36.49,12.24-.08,23.08-3.38,40.86-15.28,53.74-34.51,4.67-7,8-14.65,8.23-23.29.13-4.66-.86-6.63-5.17-7.5-4.78-1-9.81-1.87-14.6-1.41-20.95,2-37.75,12-51.11,28-.95,1.14-1.88,2.28-3.3,4-.09-1.68-.22-2.57-.18-3.44a35.31,35.31,0,0,0-3.79-17.39C215,22.45,198.52,9,176.47,2.4c-8.4-2.5-17.05-3.45-25.71-.87-4.57,1.36-6.06,3.19-5.61,8a38,38,0,0,0,2,10.32C157.32,45.41,176.43,60.6,203,66.62c5.17,1.17,10.66.93,16.35,1.36,0,1.07.15,2.33.15,3.59-.09,23.74-.25,47.48-.19,71.22,0,2-.42,3.06-1.47,3.68,1.19,0,2.33-.07,3.44-.18ZM230,82.76c4.7-13.23,13.62-23.22,25.14-30.89,10.06-6.7,21.08-10.82,33.39-10.67,5.48.07,6.13.79,4.45,6-4.3,13.28-13.05,23.25-24.23,31.14a62.83,62.83,0,0,1-33.9,11.77C228.68,90.12,227.74,89.07,230,82.76ZM203.38,57.21C182,52,166.3,39.63,157,19.62c-4.37-9.36-3.38-10.92,6.76-10,17.17,1.5,31.21,9.53,42.69,22.16,5.66,6.22,10.27,13.12,12.37,21.42.34,1.34.48,2.73.74,4.3C213.73,59.36,208.49,58.45,203.38,57.21Z"/><path class="cls-2" d="M315.74,209.63c-22.52-2.15-43.67,11.06-52.31,32.69-1.72,4.3-2.87,4.75-7.73,2.94a15,15,0,0,1,1-1.81q26.24-36.22,52.48-72.44c4.61-6.37,9.35-12.67,13.53-19.31,2.9-4.6,3.37-9.78.22-14.69a13.22,13.22,0,0,0-13.31-6.25c-20.41,2.4-40.77,5.16-61.15,7.76-6.11.78-12.23,1.51-18.47,2.27v-.23c-1.89.39-3.68.75-5.48,1l68.78-8.74-68.78,8.74c-.78.12-1.56.22-2.35.3l-4.22.53a8.06,8.06,0,0,1-1.63.33q-7.31.82-14.6,1.73l-33.12,4.21q-5.85.76-11.68,1.57a9.6,9.6,0,0,1-1.44.1h0a4,4,0,0,1-1.1-.17,84.11,84.11,0,0,1-9.2.85,2.88,2.88,0,0,1-1.22.6c-17.09,2.36-34.2,4.56-51.31,6.85-2.39.32-4.13,0-5.71-2.2C78,143.87,65.8,137.88,50.56,138.93c-9.47.65-18.89,2.08-28.32,3.24-4.77.59-9.63.94-14.26,2.12C2,145.79-1,151.77.32,157.85a11.45,11.45,0,0,0,12.55,8.92c11.65-1.44,23.3-2.87,34.93-4.46,9-1.23,16.41.81,21.58,9,4.14,6.55,8.76,12.78,13.16,19.16q22.8,33,45.59,66.1c2,2.83,4.36,4.91,7.86,5.41a2.94,2.94,0,0,1,2.93,3.18q.93,15.48,2.11,30.94c.58,7.84.84,15.74,2,23.5,1.85,12,12.3,15.84,21.49,8a43.77,43.77,0,0,0,6.81-7.57q18.33-25,36.39-50.19c1.91-2.66,3.88-3.6,7-3.29,4.78.46,9.61.55,14.42.82,9.38.54,18.76,1.11,28.14,1.64,2.15.12,3.63.63,4.19,3.22,4.52,20.61,22.94,37.35,44.94,39.06,29.61,2.29,54.51-19.75,55.34-49.27A51.18,51.18,0,0,0,315.74,209.63ZM118.79,162.91c12.91-1.68,25.82-3.41,38.73-5.07q19-2.43,38.06-4.78,19.56-2.44,39.12-4.89,25.85-3.22,51.69-6.49c7.33-.92,14.66-2,22-2.77,2.88-.32,6.19-.83,7.88,2.38s.21,6.35-1.8,9.13l-41.31,57C265,218.76,256.74,230,248.62,241.39c-1.83,2.56-3.62,3.8-7.16,3.58-28.24-1.74-56.5-3.16-84.76-4.69-1.64-.09-3.32-.6-4.9-.38-5.91.85-9.07-2.41-12.11-6.9-14.33-21.2-28.9-42.23-43.37-63.33-.65-.95-1.23-1.95-2.27-3.62C102.8,164.94,110.8,163.94,118.79,162.91ZM187.12,285.1C179,296.19,171,307.28,162.79,318.3a20.86,20.86,0,0,1-4.83,4.54c-2.78,1.92-5.55,1.21-6.34-2.07a89.55,89.55,0,0,1-2.13-14.51c-1-13.46-1.74-26.93-2.69-40.39-.15-2.19.5-3,2.69-2.87,16.85.92,33.71,1.79,51.64,2.73C196,272.8,191.59,279,187.12,285.1Zm48.68-25c-32.24-1.87-64.48-3.67-96.71-5.72-1.84-.12-4.12-1.75-5.24-3.35-10.22-14.49-20.22-29.12-30.28-43.72Q89.59,187,75.64,166.7c-6.36-9.26-13.12-12.76-26.56-12.35-7.84,1-18.2,2.26-28.57,3.52-2.91.36-5.82.75-8.75.92-2.35.14-4.19-1.26-3.9-3.47.17-1.37,2-3.43,3.3-3.62,13-1.88,26-3.77,39.1-5s23.36,3.88,30.81,14.67q19.73,28.51,39.39,57.08c5.79,8.4,11.64,16.77,17.31,25.26a7.93,7.93,0,0,0,6.75,3.69c20.17,1,40.35,2,60.52,3.11s40.31,2.6,60.47,3.81c14.42.86,28.85,1.52,43.27,2.29,1.05.05,2.37-.09,3.08.47,1.15.92,2.76,2.47,2.61,3.53a5.51,5.51,0,0,1-3.1,3.51c-1.52.6-3.47.18-5.23.08ZM310.89,249c-7.81-.46-15.62-1-23.5-1.49,2.33-8.76,15.36-15.76,26.31-14.47,14.28,1.68,24.56,12.73,25,26.85s-9.4,25.51-24,28.13c-11.69,2.1-25.15-5.62-28.92-17a33.23,33.23,0,0,1,3.37-.16c6.81.31,13.61.63,20.41,1,7.15.41,12.41-3.88,12.81-10.53C322.78,254.44,318.11,249.43,310.89,249Zm43.18,12.76a43,43,0,0,1-42.32,42c-24.3.55-40.77-19.08-42.17-33.21,5.76-1.46,6.77-1,8.87,4,5.9,14,20.74,22.7,35.18,21.43A35.51,35.51,0,0,0,346,266.86c3-15.67-5.21-31.19-19.85-38.5-13.27-6.63-30.65-3.3-41,8a44.34,44.34,0,0,0-4.76,6.53c-2.92,4.69-3.45,4.95-9.35,3.39,2-12.42,19-29.7,41-28.88A43.06,43.06,0,0,1,354.07,261.76Z"/><path class="cls-1" d="M152.78,146.6c.26-4.69.09-9.4.1-14.1v-9c15,.51,26.94-5.06,36.84-15.18,5.59-5.71,9.91-12.25,11.15-20.39.79-5.23-.31-6.94-5.52-7.71a33.7,33.7,0,0,0-9.08-.22c-12.33,1.56-22.26,7.67-30.46,16.82l-2.06,2.31c-1.12-4.08-1.67-8.12-3.29-11.66C143.69,72.66,132,63.66,116.35,59.94c-4.21-1-8.85-.57-13.26-.3-3.52.22-5.3,2.7-4.59,6.15.78,3.76,1.55,7.7,3.31,11,6.18,11.72,15.66,19.92,28.34,23.91,5.06,1.6,10.47,2.12,16.26,3.23,0,15,0,30.26-.1,45.53a2.61,2.61,0,0,1-1.14,1.54,84.11,84.11,0,0,0,9.2-.85C153.19,149.8,152.66,148.74,152.78,146.6Zm41.55-60.1c-1.27,16.62-25.46,33.6-40.83,30.17C152.34,102.27,178.16,82.23,194.33,86.5ZM141.51,96.71c-14.67-.42-31.27-12.77-35.85-26.72-.39-1.19-.55-2.46-1-4.73,3.39.17,6.08,0,8.63.5,15.05,3.07,26.08,11.36,32.09,25.69C147.37,96.27,146.76,96.86,141.51,96.71Z"/></g></g></svg>