<svg xmlns="http://www.w3.org/2000/svg" viewBox="0 0 458.79 78.71"><defs><style>.cls-1{fill:#ffb901;}</style></defs><g id="Capa_2" data-name="Capa 2"><g id="Capa_1-2" data-name="Capa 1"><path class="cls-1" d="M47.22,43V0H63V78.71L15.77,35.64V78.71H0V0Z"/><path class="cls-1" d="M138.72,11.57a37.89,37.89,0,0,1,11.57,27.79,37.83,37.83,0,0,1-11.57,27.8,39.22,39.22,0,0,1-55.59,0,37.89,37.89,0,0,1-11.55-27.8A37.94,37.94,0,0,1,83.13,11.57a39.17,39.17,0,0,1,55.59,0ZM94.26,22.68a22.86,22.86,0,0,0-6.91,16.68A22.74,22.74,0,0,0,94.26,56a23.57,23.57,0,0,0,33.35,0,22.64,22.64,0,0,0,7-16.67,22.75,22.75,0,0,0-7-16.68,23.46,23.46,0,0,0-33.35,0Z"/><path class="cls-1" d="M190.33,0H210V15.72H190.33v63H174.56v-63H154.88V0h35.45Z"/><path class="cls-1" d="M217.82,0h15.77V78.71H217.82Z"/><path class="cls-1" d="M296.51,3.1a41.22,41.22,0,0,1,12.57,8.42L298,22.66a23,23,0,0,0-16.7-6.94,22.62,22.62,0,0,0-16.67,7,22.82,22.82,0,0,0-6.91,16.68A22.7,22.7,0,0,0,264.58,56,23.57,23.57,0,0,0,298,56l11.13,11.13a40.65,40.65,0,0,1-12.57,8.47,39.21,39.21,0,0,1-43.07-8.45,37.89,37.89,0,0,1-11.55-27.8,37.94,37.94,0,0,1,11.55-27.79A39.18,39.18,0,0,1,296.51,3.1Z"/><path class="cls-1" d="M314.7,0h15.77V78.71H314.7Z"/><path class="cls-1" d="M359.52,67.48l-5.08,11.23H337.65l33.69-75L373,0l1.71,3.71,33.74,75H391.6l-5-11.28-.24-.54H359.77ZM379.2,51.17,373.05,37.4l-6.2,13.77Z"/><path class="cls-1" d="M429.42,45.17a33.85,33.85,0,0,1-7.52-3.86,28.34,28.34,0,0,1-7.15-7,17.67,17.67,0,0,1-3.18-10.77,22.71,22.71,0,0,1,6.94-16.65,23.53,23.53,0,0,1,33.35,0,22.74,22.74,0,0,1,6.93,16.65H443.07a7.87,7.87,0,0,0-15.73,0,7.1,7.1,0,0,0,3.4,6.38,22.3,22.3,0,0,0,5.15,2.66c.55.19,2.06.65,4.52,1.36a32.85,32.85,0,0,1,7.76,3.57,27.42,27.42,0,0,1,7.35,6.71,17.16,17.16,0,0,1,3.27,10.82,23.61,23.61,0,0,1-47.22,0h15.77a7.87,7.87,0,0,0,15.73,0q0-5-4-6.45c-2.66-1-4.45-1.64-5.4-2Z"/></g></g></svg>