<?xml version="1.0" encoding="utf-8"?>
<!-- Generator: Adobe Illustrator 25.3.0, SVG Export Plug-In . SVG Version: 6.00 Build 0)  -->
<svg version="1.1" id="Capa_1" xmlns="http://www.w3.org/2000/svg" xmlns:xlink="http://www.w3.org/1999/xlink" x="0px" y="0px"
	 viewBox="0 0 1919.5 371.4" style="enable-background:new 0 0 1919.5 371.4;" xml:space="preserve">
<style type="text/css">
	.st0{fill:#00A4CF;}
</style>
<path class="st0" d="M1919.5,236.6l0-235.9c-7.2-0.4-14.5-0.1-21.6,0.7c-31.8,3-59.9,27.9-91.8,30.1c-23.6,1.6-45.6-11.3-68-20.6
	c-13.3-9.5-31.6-12.2-45.1-8.6c-3.5,0.9-6.9,2.1-10.3,3.4l-0.2,0.1c-25.2,9.6-48.8,27.3-75.2,26c-32.9-1.6-61.3-32.7-94.2-31.1
	c-28.2,1.4-52.2,26.7-80.3,29.9c-39.1,4.4-75-34.6-113.9-28.9c-25,3.7-46.2,25.4-71.3,28.4c-36.6,4.4-69.8-31.8-106.5-29.1
	c-28.3,2.1-52.5,27.1-80.7,29.8c-38.5,3.7-73.4-34.5-111.8-29.9c-28.7,3.5-52.7,30.4-81.5,32c-36,2-67.5-36.3-103.5-32.6
	c-24.5,2.5-44.9,24.1-69.1,29.2c-42.5,8.8-83.2-34.8-125.8-26.9c-23.7,4.5-44,24.5-67.8,27.5C464,34.7,430.6-2,393.6,0.9
	c-29.5,2.3-54.6,29.7-84.2,30.9C276.5,33,247.9,1.9,215.1,1.4c-32-0.5-59.9,27.9-91.8,30.1c-26.6,1.8-51.2-14.8-76.6-24
	C30.5,1.6,15.9-1.2,0,0.7v235.9h-24.5v151.1h1992.9V236.6H1919.5z"/>
</svg>
