<svg xmlns="http://www.w3.org/2000/svg" viewBox="0 0 2233.99 907.08"><defs><style>.cls-1{isolation:isolate;}.cls-2{mix-blend-mode:overlay;}.cls-3{fill:#566e3e;}.cls-4{fill:#668944;}.cls-5{fill:#63442b;}.cls-6{fill:#95693f;}.cls-7{fill:#93ad3f;}.cls-8{fill:#4f3522;}.cls-9{fill:#755032;}.cls-10{fill:#7f5737;}.cls-11{fill:#66442d;}</style></defs><g class="cls-1"><g id="Capa_2" data-name="Capa 2"><g id="Capa_1-2" data-name="Capa 1"><g class="cls-2"><path class="cls-3" d="M1896.32,515.62a23.45,23.45,0,0,1,6.58-11.53q13.8,40,25.81,80.66l20.76-57.92q4,7.47,8,15-1.74-36.21-3.49-72.41l23.46,26.39a717.76,717.76,0,0,0-29.66-91.38,90.75,90.75,0,0,1,25.59,21q-10.53-46.33-21.05-92.68c-3.79-16.7-8-34.2-19.52-46.86-30.16-33.09-85.77-10.09-88.43,33.35-1,16.59,5.75,33.94,6.32,50.74a258.39,258.39,0,0,0,12.43,70.84c8.36,26,20,50.91,33.17,74.85Z"/><path class="cls-4" d="M2019.56,206.56c32.32,8.91,62.4,26.95,83.78,52.77,34.93,42.17,43.63,99.72,48.12,154.28,3.16,38.43,4.88,77.22-.08,115.46l-19.56-41.46q-2.62,17.2-5.24,34.39-16.54-42.88-34.35-85.27-9.86,16.93-19.69,33.88a85.25,85.25,0,0,0-4.38-24.21l-21.43,30.3a752.21,752.21,0,0,0-15.92-96.42l-22.39,20.29a54.16,54.16,0,0,0-12.06-20.46l-15.74,19.3c1.86-2.27-51.34-46.54-56.19-50.71-19.38-16.66-38.56-34-53.51-54.89-11.16-15.61-26.16-38.65-14.2-57.69s41.79-27.49,62.1-31.72c33.08-6.89,68.07-6.86,100.74,2.16"/><path class="cls-4" d="M1666.64,384.91c-.51-50,15.89-102.62,54.39-134.54,34.91-28.93,83.11-37.1,128.32-33.71,14.28,1.07,30,4,38.69,15.39,5.75,7.53,7.29,17.4,8,26.84a221,221,0,0,1-3.34,59.26c-4.54,23.45-12.83,46-21.09,68.39q-11.84,32.1-23.66,64.19a356,356,0,0,0-45.16-33.2,136,136,0,0,0-4,30.46,51.93,51.93,0,0,0-16.15-13.05,732.48,732.48,0,0,1-6.69,89.52,191,191,0,0,0-45.69-33.32q-1.8,21.48-3.59,43c-3.71-7.62-13.12-29.82-16.83-37.43,2.74,2.74-4.53,53.61-7.33,62.12-11.11-12-19.28-37.87-21.7-55.26-5.46-39.25-13.82-78.65-14.23-118.62"/><path class="cls-5" d="M1799.58,906.33s-8.75-188.19,3.2-295.21c24.39-218.28,86.72-360.75,86.72-360.75h35.62s-65.29,276-64.64,368c1.19,167.7,48.32,287.91,48.32,287.91H1799.57"/><path class="cls-6" d="M1846.81,679.35a30,30,0,0,0-11-2.26,66.89,66.89,0,0,0-11.32.35,54.82,54.82,0,0,0-20.7,6.65,45.75,45.75,0,0,0-6.07,4.14c-.58,16.73-.92,33.85-1.08,50.79l12.11-9.44c5.44-4.24,11-8.39,17.47-10.91,6.79-2.63,14.13-2.6,21.16-1a81,81,0,0,1,20.07,8q-1.59-13-2.88-26.68-3.85-5.49-8-10.75c-2.77-3.46-5.58-7-9.69-8.88"/><path class="cls-6" d="M1845.32,539c-3.17-1.22-5.83-.36-8.72,1.19a304.28,304.28,0,0,0-26.69,16.33q-.86,5.87-1.69,11.8a29.41,29.41,0,0,1,9.27-3.8,24.47,24.47,0,0,1,19.62,4.4c5.51,4,9.73,9.42,13.63,14.94,3.51,5,7,10,10.4,15,.9-14,2.66-30.27,5-48q-6.07-4-12.46-7.54a69.81,69.81,0,0,0-8.41-4.26"/><path class="cls-6" d="M1812,625.74c10.42-7.06,23.26-16,36.55-12.18a32.38,32.38,0,0,1,9.17,4.7c.93.63,1.85,1.29,2.77,1.94,0-.47,0-.94,0-1.41,0-3.8.06-7.91.25-12.3-4.91-7.1-9.74-14.27-14.78-21.28-3.49-4.87-7.41-9.81-12.48-13.11a19.7,19.7,0,0,0-17.55-2.28,28.26,28.26,0,0,0-8.58,4.83q-2.44,18-4.56,36.83c-.78,7-1.47,14.32-2.08,21.93l11.31-7.67"/><path class="cls-6" d="M1853.65,678.17c3.15,2.58,5.62,6,8.1,9.18.68.87,1.33,1.75,2,2.63q-1-11.91-1.73-24.28l-.69-.35-21.55-11.09-10.89-5.6a43.91,43.91,0,0,0-9.62-4c-6.36-1.53-12.57,1.32-17.09,5.74a30.83,30.83,0,0,0-2.88,3.29c-.56,9.29-1,18.86-1.39,28.59,9.82-6.66,21.85-9.85,33.72-9.94,7.69-.06,15.89.82,22,5.88"/><path class="cls-6" d="M1901.73,355.89c2-9.2,3.85-18.06,5.67-26.45a66.4,66.4,0,0,0-10.89-5.94c-4.56-1.93-9.35-3.29-14.34-2.66-8.24,1-15.39,6.26-21.74,11.46q-1.62,5.2-3.28,10.7a140,140,0,0,1,17.62,1.28c9.8,1.37,19.72,4.86,27,11.61Z"/><path class="cls-6" d="M1837.32,774.77q-6.75-1.95-13.42-4.15a91.36,91.36,0,0,0-12.68-3.44c-5.08-.86-10.39-.49-14.73,1.91,0,19.9.28,39,.61,56.35l11.94-6,23.36-11.68c7.36-3.68,14.66-7.8,22.38-10.66,6.67-2.48,14.2-3.62,21-.89a22,22,0,0,1,3.3,1.64c-.87-4.34-1.73-8.77-2.58-13.32q-6-1.34-12-2.74c-9.09-2.14-18.15-4.45-27.13-7.05"/><path class="cls-6" d="M1845,617.58c-5.83-.92-11.79,1.15-16.92,3.74-5.91,3-11.31,6.87-16.77,10.57l-11.08,7.5q-.24,3.36-.47,6.77c.39-.35.79-.69,1.21-1,5.75-4.61,12.87-6.87,20.14-4.92a54.7,54.7,0,0,1,10.57,4.59l11.3,5.81,18.74,9.65q-.88-16.75-1.16-34.27c-2.29-1.68-4.6-3.34-7-4.86a22.24,22.24,0,0,0-8.57-3.56"/><path class="cls-6" d="M1875.61,369.24c3.41-1.14,6.9-2.61,10.43-3.27a12.16,12.16,0,0,1,9.63,2.31c1,.72,2,1.49,3,2.29q1-4.63,1.92-9.18a33,33,0,0,0-9.4-7.29c-9.7-5.17-21-5.92-31.73-6.26-1.22,0-2.46-.11-3.69-.14q-4.39,14.76-9,31.52,9.32-3.35,18.68-6.56c3.38-1.15,6.76-2.3,10.15-3.42Z"/><path class="cls-6" d="M1891.19,371c-2.8-1.41-5.83-.06-8.58.84q-18.75,6.14-37.32,12.85-1.66,6.24-3.34,12.72a35.34,35.34,0,0,1,15.83,6.4c6.3,4.41,11.67,10.07,17,15.61q5.93,6.24,11.51,12.77c3.72-19.25,7.55-38.27,11.3-56.36a27.42,27.42,0,0,0-6.35-4.83Z"/><path class="cls-6" d="M1811.63,762.51a84.42,84.42,0,0,1,13.52,3.58q7,2.28,14.08,4.33c12,3.46,24.14,6.39,36.32,9.12-2.7-15-5.23-31-7.41-48.07-1.78-1-3.58-2-5.42-3a69.12,69.12,0,0,0-18.94-6.76,30.1,30.1,0,0,0-18.69,2.5c-5.85,2.86-10.95,7-16,11L1796.55,745c0,6.34-.06,12.65-.06,18.89a29,29,0,0,1,15.14-1.37"/><path class="cls-6" d="M1881.76,276.52a66,66,0,0,1,14.91-4.38,83.49,83.49,0,0,1,15-1.44,54.54,54.54,0,0,1,8.53.71c3-13.3,4.87-21,4.87-21H1889.5s-4.2,9.62-10.85,27.66c1-.54,2-1,3.11-1.51"/><path class="cls-6" d="M1865,854.14q15.68,5.68,30.81,12.77c-4.69-16.25-10.11-37.06-15.27-61.67a16.9,16.9,0,0,0-9.81-5.59c-6.67-1.34-13.68,1.32-19.64,4.1-7.28,3.39-14.41,7.14-21.59,10.73l-32.32,16.16c.15,7.66.33,14.93.51,21.73a48.24,48.24,0,0,1,7.72-4.34c19.33-8.5,41-.65,59.59,6.11"/><path class="cls-6" d="M1889,869.28q-13.73-6.18-27.93-11.21c-9.44-3.34-19.07-6.65-29-8.09-9.3-1.35-18.85-.57-27.24,3.91a54,54,0,0,0-7,4.56c.83,29.51,1.72,48.63,1.72,48.63H1908.8s-4.72-12.05-11.21-33.8q-4.26-2.06-8.57-4"/><path class="cls-6" d="M1895.76,277.43c-7,1.45-14.06,3.87-19.76,8.22q-1.59,4.44-3.32,9.41a76.48,76.48,0,0,1,14.11-.55,38.8,38.8,0,0,1,13.55,2.83c4,1.76,6.91,4.68,9.59,8.05.69.87,1.4,1.8,2.16,2.68,2.7-12.23,5.12-23,7.12-31.76-7.72-1.28-15.88-.44-23.45,1.12Z"/><path class="cls-6" d="M1906.6,308.72c-2.46-3.1-5-5.84-8.75-7.36a37.4,37.4,0,0,0-13-2.23,72.59,72.59,0,0,0-13.9.95q-3.8,11.07-8.06,24.44a63,63,0,0,1,6.06-3.89A34.49,34.49,0,0,1,1883.5,316c5.64-.34,11,1.49,16.12,3.75a67.32,67.32,0,0,1,8.85,4.77q1.24-5.65,2.41-11a40.94,40.94,0,0,1-4.28-4.81Z"/><path class="cls-6" d="M1842.84,446.49a119.57,119.57,0,0,1,22.18-6.28,27.27,27.27,0,0,1,11.69.07,23.93,23.93,0,0,1,7.33,3.41c.36-1.85.71-3.69,1.06-5.54-4.79-5.71-9.77-11.28-14.94-16.65-4.93-5.13-9.94-10.46-15.93-14.38a30.14,30.14,0,0,0-13.45-5.08c-4,15.86-8.07,32.82-12,50.79a133.05,133.05,0,0,1,14-6.34Z"/><path class="cls-6" d="M1836.27,467.73c3.38.57,6.48,2.37,9.52,3.88q4.85,2.42,9.65,4.92,10.39,5.4,20.59,11.19c2.23-12.83,4.6-25.87,7-38.92a22.76,22.76,0,0,0-3.84-2.53c-6-3.14-12.56-1.78-18.88-.28a126.28,126.28,0,0,0-32.86,12.92q-1.17,5.46-2.32,11a16.74,16.74,0,0,1,11.09-2.2Z"/><path class="cls-6" d="M1857,502.66c6.12,3.62,10.51,9.18,14,15.33,1.3-8.28,2.7-16.75,4.17-25.32-1.42-.81-2.83-1.64-4.25-2.43q-9.06-5.07-18.27-9.86-4.61-2.38-9.25-4.7c-2.67-1.34-5.49-3.05-8.5-3.42-4.17-.52-8,1.63-11.1,4.45q-2.82,14-5.5,28.72c12.28-5.41,26.26-10.14,38.7-2.77Z"/><path class="cls-6" d="M1819.75,544.59q4.53-2.8,9.15-5.47c3-1.72,6-3.66,9.25-4.79,3.5-1.22,6.84-.66,10.14.83s6.25,3.13,9.28,4.83,6.27,3.66,9.32,5.63c.89-6.41,1.86-13,2.89-19.73a71.6,71.6,0,0,0-5.36-9.51,30.58,30.58,0,0,0-11.79-10.73c-6.12-2.92-13.11-2.47-19.5-.76a100.09,100.09,0,0,0-15.81,6.11q-3.4,19.08-6.48,39.28c3-1.94,5.91-3.84,8.91-5.69Z"/><path class="cls-7" d="M1689.61,318.26c-26.27,31.62-44.06,69.65-55.83,109.05s-17.74,80.28-22.26,121.15l43-82.44a194.27,194.27,0,0,0-6.35,65.15c6.93-10.43,10.38-22.73,14.08-34.7a637.83,637.83,0,0,1,60.29-136.15c-4.87,39.53-9.75,79.46-5.85,119.11q5.79-27.06,11.59-54.12,2.16,11.91,4.31,23.81a487.39,487.39,0,0,1,35.78-105,121.22,121.22,0,0,0,12.49,55.29q7.73-22.79,15.43-45.57l.78,36.92a533.66,533.66,0,0,1,33.27-93,251,251,0,0,0,26.3,76.81c-1.67-3.11,17.84-34,20.07-38.83q9.21-19.83,16.73-40.39c6.57-18,16.44-43-2.59-57.26-17-12.69-46.73-5-65.54-1a249.05,249.05,0,0,0-70,26.62,236.82,236.82,0,0,0-65.68,54.51"/><path class="cls-7" d="M2128.94,292.74c59.4,50.18,96,124.91,105,202.14q-19.54-44.6-39.1-89.17a495.21,495.21,0,0,1-7.49,91q-15-50.85-25-103-2.21,24.58-4.4,49.16a530.7,530.7,0,0,0-32-105.73q-2.36,50.13-4.7,100.27-8.79-31.1-19.54-61.57,1.44,22.44,2.89,44.88c-11.68-42.1-23.78-85.11-48.87-120.87a202.21,202.21,0,0,1,6.82,60.61,468.81,468.81,0,0,1-26.81-39.47,145.06,145.06,0,0,1,7.38,47.17L1986,266.71l11.61,49.91q-20.92-22.47-43.37-43.47,7.33,20.09,14.68,40.16c-4.17-9.12-21.74-19.48-29.37-26.31-10.28-9.21-21.56-17.94-31.12-27.88-21.07-21.9,5-24.93,24.15-27.22,44.8-5.37,90.75,2.53,131.93,20.68a266.6,266.6,0,0,1,64.47,40.16Z"/><path class="cls-7" d="M1811.48,219.33c-2-2.12-4.13-4.75-3.69-7.66.32-2.15,1.94-3.84,3.53-5.33,34.35-32.16,89.48-39.65,131.17-17.81,6.27,3.28,12.36,7.27,16.57,12.95s6.27,13.34,3.89,20c-2.31,6.48-8.25,10.92-14.21,14.36-41.52,23.93-103.42,18.64-137.26-16.5"/><path class="cls-3" d="M884.53,137.07A287,287,0,0,0,776.6,80.87c5.15,7.41,13,12.38,20.7,17.14l-32-1.84a123.77,123.77,0,0,1,26.41,16.41,180.24,180.24,0,0,0-53.33-1.11,81.73,81.73,0,0,1,14.74,10.89,32.51,32.51,0,0,0-21.46,5.79,18.68,18.68,0,0,1,7.3,7.92l-6,1.2c7.45,15.31,24.43,23,39.79,30.36a481.22,481.22,0,0,1,63.51,36.6A315.26,315.26,0,0,0,754.18,235a65.17,65.17,0,0,0,17.46,1.09,67.94,67.94,0,0,0-13.95,9.71l13,2.3c-2.82,2.18-5.66,4.35-8.49,6.53,14.88-.45,29.14,5.28,43.37,9.65,38.54,11.81,79.28,13.94,119.53,16,3.42.18,6.93.34,10.16-.76,5.33-1.81,9-6.84,10.78-12.19,4-12.53-1.32-26-6.87-37.91A796.43,796.43,0,0,0,896.63,150l-12.1-12.92Z"/><path class="cls-3" d="M1016.47,189.71A114.41,114.41,0,0,0,998,221.33c19.78-23.69,39.93-47.72,65.65-64.76a225.47,225.47,0,0,0-27.58,38.16,227.43,227.43,0,0,1,76.06-53.87,200.19,200.19,0,0,0-23.06,26q19-10.76,38.11-21.37c11.16-6.21,22.81-12.52,35.55-13.27L1128.8,165c28.79-12.45,59.12-25.17,90.35-22.23q-20.57,11.52-40.13,24.69a351.57,351.57,0,0,1,86.23-5.32,410.64,410.64,0,0,0-61.93,20.3,408.39,408.39,0,0,1,84.88,3l-55.65,16,78.23,6.5c-28.34,5.82-53.81,22-82.25,27.25-33.27,6.19-67.27-3-101.09-4.37a221.36,221.36,0,0,0-104,21.66c-9.06,4.33-32.17,24.64-41.63,21.87-11.07-3.24-9-23.23-5.83-30.88,8.14-19.83,26.64-37.72,40.5-53.66Z"/><path class="cls-3" d="M927.53,67.94a39.56,39.56,0,0,0-3.62,14.8,77.66,77.66,0,0,1,44.54-19.22,61.49,61.49,0,0,0-12.36,23.37,47.59,47.59,0,0,1,15.64-8.45A66,66,0,0,0,964,98.92,86,86,0,0,0,982.54,88a125,125,0,0,0-16,45.46c9.77-12.81,21.84-26.84,38-27-12.23,18.1-24.79,37.08-27.61,58.74A120,120,0,0,1,1003,138.9a129.45,129.45,0,0,0-19.12,40l21.24-21.46a236.44,236.44,0,0,0-21.26,40.19,66.84,66.84,0,0,0,16.72-19.23,259.54,259.54,0,0,0-27.47,85.88c-1.47,10.78-2.34,22-7.37,31.62-.7,1.35-1.64,2.79-3.11,3.15-2.85.71-4.79-2.79-5.58-5.62-3.33-11.87-5.89-24-9.73-35.68C942.48,243,935.66,229,928.85,215.1c-14.7-30.07-30.71-59.84-44.22-90.46-6.1-13.85,1.53-22,11.16-32.55,3.46-3.76,31.59-22.09,31.74-24.15Z"/><path class="cls-4" d="M882.12,236.39l26.7,23.92A459.87,459.87,0,0,0,825.48,233q23,13.09,44.86,27.95a520,520,0,0,0-92.23-17.15l55.39,25.37a305.65,305.65,0,0,0-108.7.83c2.65,4.5,8.25,6.13,13.32,7.38l54.2,13.37a474.07,474.07,0,0,0-114.13,24.94q33.06,3,66.25,4.08A305.43,305.43,0,0,0,639.52,364.3q34-5.94,68.29-10.36a249.55,249.55,0,0,0-80.24,52.66q36.93-17.89,73.22-37.06a145.9,145.9,0,0,0-57,55.12L728,358.93a141.06,141.06,0,0,0-27.36,46l60.46-69.71q-17.29,31.13-34.62,62.24l63.71-77.37q-17.34,30.27-34.65,60.55c12.24-9.68,21.58-22.48,30.75-35.1q15.3-21.07,30.6-42.13Q801,334.85,785.05,366.26a537.62,537.62,0,0,1,62.87-78.54Q828,321,808.12,354.38c18.3-23.9,36.77-48,59.51-67.71a238.51,238.51,0,0,1-28.32,45.45c21.25-11.46,33.52-35.9,55.47-45.94a119.37,119.37,0,0,0-25.46,28.16,271.8,271.8,0,0,1,54.26-29.45,191.42,191.42,0,0,0-36.5,28.16q23.77-11.81,48.53-21.47a54.66,54.66,0,0,0-20.89,18.95c3.81-5.92,30.31-10.62,37.25-12.41-2.59,2.38-5.44,4.5-8,6.88,27.69-4.51,11.57-23.13-2.81-33.74a334.67,334.67,0,0,0-59-34.87Z"/><path class="cls-6" d="M1054,887.37c-2.44-3.62-53.41-43.56-84.7-124.94C941.84,691,937,599.82,933.59,507.11c-3.57-97.78,18.62-214.49,18.62-214.49l24.32,7.55S957.61,386.23,966.31,494c6.92,85.75,24.6,187.46,60.09,238.75,27.17,39.28,101.17,80.16,101.17,80.16s-2.23,31.56-26.43,43.83L1054,887.37"/><path class="cls-4" d="M997.49,227.47a104.85,104.85,0,0,0-8.07,32.24,194.48,194.48,0,0,1,56.76-57q-10.65,18.47-21.33,36.94c23.78-21,49.06-42.72,80.11-49.18A178.45,178.45,0,0,0,1076,220.73a203.58,203.58,0,0,1,85.44-21.09,156.23,156.23,0,0,0-36.94,16.47c32.67-4,66.42-7.82,98,1.44a65.29,65.29,0,0,0-31.51,1.33A251.93,251.93,0,0,1,1269,233.56l-49.46-.18c33.27,10.65,67.52,21.84,94,44.57A256.63,256.63,0,0,1,1248,256.4a94.16,94.16,0,0,1,23.1,33,299.25,299.25,0,0,0-55.39-33.92,177.88,177.88,0,0,1,28.14,42.75q-40.8-28.38-84.11-52.91a194.5,194.5,0,0,1,37.54,40.94,637,637,0,0,0-79-45.86,237.55,237.55,0,0,1,48,47.65,527.47,527.47,0,0,0-100.8-38.53,272.83,272.83,0,0,1,62.69,37.8q-41.49-14.74-83.7-27.39c18.16,8.42,36.41,16.89,52.89,28.24a800.45,800.45,0,0,0-78-20.41,394.25,394.25,0,0,1,50.62,27.92,414,414,0,0,0-82.63-21,256.29,256.29,0,0,1,49.37,22,489.94,489.94,0,0,0-63.08-.43l29,5.88c-15.83,2.44-52.31,16.27-46.67-14,2.07-11.09,11-22.26,17.36-31.32s19.79-19.4,24-29.25"/><path class="cls-4" d="M937.86,268.27a466.46,466.46,0,0,0-94.55-97.91q2.07,6.34,4.13,12.71Q824.88,168.22,801,155.55l10.45,12.14a289.5,289.5,0,0,0-60.94-27.31l24.21,15.47A482.54,482.54,0,0,0,697,150.68l21,11.73a168.24,168.24,0,0,0-44,12,215.21,215.21,0,0,1,50,9.49,120,120,0,0,0-32.16,21.84Q723,206,754,204.28l-24.65,16.57c32.8,0,64.81-19.35,96.89-12.5a151.06,151.06,0,0,0-36.57,21.89,240.58,240.58,0,0,1,71-13.55A91.71,91.71,0,0,0,823,238.58a202.47,202.47,0,0,1,56.94-10.2,171.09,171.09,0,0,0-46.77,30.23c18.54-6.09,37.45-12.24,57-12.22a93,93,0,0,1,62.5,24.53c.94.88,1.93,2.22,1.26,3.31s-2.61-1-1.33-1.08l-14.65-4.88Z"/><path class="cls-7" d="M958.9,293.5a293.11,293.11,0,0,1-47.89-47l38.81,22.88c-32.16-18.91-55.26-49.72-77.29-79.83q27.74,24.91,57.65,47.26a484.35,484.35,0,0,1-65.64-79.45l46.79,40.1q-29.79-31.41-56.73-65.38a484.3,484.3,0,0,1,39.3,29.67,788.13,788.13,0,0,1-54.41-64A292.44,292.44,0,0,0,871,121.39q-17.34-20.64-34.67-41.3,21.09,12.7,41,27.25a499.16,499.16,0,0,0-36.16-47,265,265,0,0,1,44.49,51.77,146.48,146.48,0,0,1-7.17-41.57q10.1,31.26,20.18,62.5a118.66,118.66,0,0,1,5.19-39.62l9.48,68.77c.95-17.3,3.54-37.44,18.48-46.2A234.31,234.31,0,0,0,919,182.67a173.38,173.38,0,0,1,24.4-40.87,494.56,494.56,0,0,0-18.14,64.29,101.33,101.33,0,0,1,23.43-32.24,167.53,167.53,0,0,0-13,50.69,91.67,91.67,0,0,1,20-24.67,360.28,360.28,0,0,0-14.74,43.35L962.46,217q-5.64,21.91-11.29,43.81c7.41-10.65,15.18-21.64,26.38-28.2-5.3,11.22-10.65,22.56-13.24,34.7s-2.16,25.33,3.66,36.3L958.9,293.5Z"/><path class="cls-7" d="M988.28,294.19a329.8,329.8,0,0,1,75.82-.92c45.8,4.75,91.16,19.54,128.26,46.83s65.4,67.66,73.8,112.94q-14.87-26.67-32.07-51.92A316.84,316.84,0,0,1,1246,456.45a786.49,786.49,0,0,0-30.58-80.05A340.84,340.84,0,0,0,1231.72,460c-10.42-11.63-15.65-26.87-20.51-41.7q-9.24-28.17-17.87-56.51a305.27,305.27,0,0,0,7.67,88.75c-6.7-9.7-8.46-21.86-10.36-33.49a621.57,621.57,0,0,0-14.81-67c-6.61,32.45-3.22,66,.19,98.94-18.31-34.93-22.26-75.57-22.33-115a396.33,396.33,0,0,0-7.6,108.7c-15.11-37.75-10-81.7-27.52-118.4q3.5,44.22,2.79,88.63c-8.4-18.25-10.37-38.68-14.91-58.24A223.68,223.68,0,0,0,1094.07,317a407.39,407.39,0,0,0,11.68,56.3c-18.9-18.44-25-47.38-44.79-64.91a213.9,213.9,0,0,1,25.26,68.59q-20.74-37.79-45-73.52a190.39,190.39,0,0,1,21,57.43,511.15,511.15,0,0,0-51.39-57.36l25.23,33.39c-15-12.57-31-25.63-50.35-28.74a83.2,83.2,0,0,0-10.15.22c-10,.47-23.23.94-23.13-2.92.2-7.06,30.47-10.56,35.79-11.24"/><path class="cls-8" d="M981.06,314.41,968.11,306c-12.58-4.28-27.4-.31-36.64,9.25s-12.72,24.1-9.49,37,12.87,23.87,25,29.4c1.36.63,2.93,1.19,4.34.64a8.19,8.19,0,0,0,2.67-2.36c4.5-4.8,12-4.86,18.13-7.17,10.55-4,17.3-15.13,18.2-26.37S987,324,981.06,314.41"/><path class="cls-8" d="M1002.22,300.81,989.77,310c-8.43,10.28-9.89,25.55-4.17,37.55s18.12,20.36,31.33,21.85,26.86-3.68,36.27-13.07c1.07-1.06,2.15-2.33,2.13-3.84a8.25,8.25,0,0,0-1.27-3.33c-2.93-5.9-.37-12.9-.37-19.49,0-11.27-8.11-21.51-18.32-26.29s-22.1-4.81-33.15-2.54"/><path class="cls-9" d="M953.6,328c-2,8.41-1.89,18.37,4.32,24.38,4.16,4,10.14,5.41,15.81,6.62l27.9,6a6.29,6.29,0,0,0,2.36.2,6,6,0,0,0,3.14-2.13,57.89,57.89,0,0,0,14.79-32c.73-6,.47-12.3-1.93-17.86-3.13-7.22-9.71-12.63-17.1-15.34-23.45-8.61-43.81,7.38-49.29,30.16"/><path class="cls-7" d="M838.21,321.06l58,3c-39,11-74.27,28.07-103.25,50q37.88-13.86,78-24.4Q826,365.78,783.7,385.32l62.1-20.72q-44.52,22.14-86.29,47.06,31-15.5,64.34-28.27a744.54,744.54,0,0,0-110.76,65c24.84-13.83,49.85-27.73,77.93-37.8q-55,36.36-105.75,76.08L753.72,443c-34.18,25.19-68.71,50.71-93.2,81.89,26.55-21.79,53.39-43.76,86.24-60.08-19.36,16.77-38.89,33.75-52.22,53.78a369.79,369.79,0,0,1,53.24-44.93c-2.93,19.47-23.39,35.24-22,55.08l44-63.06a165.58,165.58,0,0,0-19,49.74,483,483,0,0,1,50.17-76.66q-4.23,19.76-8.43,39.5c-.83,3.91-1.5,8.38,1.88,11.72l29.19-74a122.12,122.12,0,0,0-9,57.83q12.38-37.87,24.74-75.77a415.15,415.15,0,0,0-12.63,62.38c14.75-24,24.32-49.92,33.83-75.69A261,261,0,0,0,851,438.79l35.33-77.6-10.35,54a371.11,371.11,0,0,0,37.18-82.43c-1.7,17.93-7.19,35.27-12.66,52.53a143.27,143.27,0,0,0,29-56.16A225.56,225.56,0,0,1,920,365.76a439,439,0,0,0,30.25-50.08q-6.63,16-13.27,31.94,13.21-19.74,26.42-39.47c10-14.86,2.61-17.11-17.36-13.31a1095.36,1095.36,0,0,0-107.81,26.22Z"/><path class="cls-10" d="M1026.34,732.77c-35.49-51.29-53.17-153-60.09-238.75a752.44,752.44,0,0,1,.68-125.21,7.19,7.19,0,0,0-3.27.54c-.37.16-12.25,25.42-12.39,25.26a28.1,28.1,0,0,1,4.45,25.77c-2.39,7.17-7.45,15.75-2.28,21.27,1.06,1.13,2.46,1.93,3.38,3.18,1.34,1.83,1.41,4.26,1.49,6.53.51,13.84,3.19,27.63,2.26,41.45s-6.31,28.35-18.05,35.71l17.84-2.58a12.19,12.19,0,0,1-7.42,11.87c3.72-.7,7.82,1.53,10.06,4.74,2.59,3.73,3.28,8.4,3.91,12.9,1.32,9.5,2.64,19.16,1.17,28.64s-6.17,18.91-14.39,23.84c5.46,3.94,14.65-6.19,18.86-.93,2.3,2.88-.21,7-2.65,9.79l7.67,1.44A163.54,163.54,0,0,1,959,643.61c2.86,2,6.82.79,10-.66s6.88-3.08,10.06-1.6,3,7.67-.51,7.43c7.16,2.27,8.71,12,6.65,19.18s-6.42,13.95-6.36,21.45l11.93-1.25a87.1,87.1,0,0,1-6.71,26.6c2.53.86,5.25-.32,7.75-1.27s5.57-1.61,7.67,0,.83,6.19-1.74,5.44l17.11,16.22c2.05,1.95,4.17,4,5.15,6.66,4.4,11.95-16.52,22.71-11.64,34.47l23.86-17.11q.4,7,.83,13.93c2.79-3.8,10-2.12,10.85,2.52l7.12-.8-16.83,34.18q11.87-8.81,24.19-17a127.42,127.42,0,0,1-12.75,34.58c14.18-1.28,22.14-21.78,36.28-20.15a17.11,17.11,0,0,1-3.17,12.19l7.88-5.89c1.53,4.06,7.77,5.22,10.65,2q.38,5.18.74,10.37a3.42,3.42,0,0,0,.94,2.55c.92.69,2.23.29,3.29-.16,8.42-3.47,17-7,23.77-13.16.5-.45,1-.92,1.46-1.4v0s-74-40.88-101.17-80.16Z"/><path class="cls-9" d="M1431.84,856.91s20.5-293.21,28.76-383.22c12.21-133.1,2.32-366,2.32-366h45.53s21.09,301.94,21.09,406.78,11.11,362.45,11.11,362.45S1521,895,1479.89,886.07s-48.05-29.16-48.05-29.16"/><path class="cls-6" d="M1491.54,536.5l-.69.34c-.41.21-.81.43-1.21.66-1.81,1.06-3.53,2.28-5.34,3.34-3.69,2.16-8.25,3.69-12.15,1.06a16.81,16.81,0,0,1-4.86-5.91c-1.25-2.2-2.42-4.56-4.61-6a4.23,4.23,0,0,0-3-.88,4.69,4.69,0,0,0-2.8,2.17c-.45.63-.9,1.28-1.32,1.94-1.27,16-2.62,33.41-4,51.66,2.44.45,4.88,1.23,7.22,1.6a8.15,8.15,0,0,0,6.74-1.51c2.24-1.81,3.76-4.33,6-6.17s5.24-3.33,8.29-2.82,4.91,3.34,5.7,6.23c1,3.52,1.67,7.12,2.5,10.66q.7,3.11,1.43,6.21,1.1-2.25,2.25-4.47c1.36-2.61,2.76-5.2,4.26-7.74,1.15-2,2.93-3.85,5.43-3.66a6.39,6.39,0,0,1,4.93,3.57,57.24,57.24,0,0,1,4-9.31c1-1.79,2.16-3.78,4.3-4.28s4.19,1,5.51,2.65c2.91,3.7,5.58,7.62,8.14,11.58q1.23,1.91,2.41,3.84c-.43-18.13-.76-35.2-1-50.49l-.16,0a14.42,14.42,0,0,1-6.88-4.37,7.88,7.88,0,0,0-1.32-1.26,3.33,3.33,0,0,0-.66-.38l-.41-.12-.24,0H1520a.71.71,0,0,1-.6-.21h-.08l-.13.25c-.17.06-.35.09-.52.14l-.39.15-.51.25a11.87,11.87,0,0,0-1,.64,20.24,20.24,0,0,0-2,1.52c-2.91,2.42-6.18,5.54-10.3,4.83-2.51-.43-4.14-2.38-5.78-4.15a7.72,7.72,0,0,0-2.43-1.94l-.45-.15a4.16,4.16,0,0,0-.59-.13v.07h0a.6.6,0,0,0-.33-.1,5.81,5.81,0,0,0-.59,0l-.3,0-.08,0a5.47,5.47,0,0,0-.68.14,12,12,0,0,0-1.2.39l-.13.05,0,0c-.09,0-.17.09-.26.12"/><path class="cls-6" d="M1519.25,428.6c-2.31-.9-4.71-1.56-7.12-.65a18.69,18.69,0,0,0-4.57,3c-3.11,2.49-6.45,5.25-10.7,4.43-2.13-.4-3.86-1.79-5.58-3-1.41-1-3-2.1-4.66-1.27-1.95,1-3.22,3.34-4.49,5a36.72,36.72,0,0,1-5.14,5.86c-3.49,3.05-7.92,4.77-12.57,3.72a10.64,10.64,0,0,1-1.63-.52c-.63,9.84-1.36,19.33-2.19,28.36-.3,3.32-.62,6.93-1,10.79a14.88,14.88,0,0,1,7.2-3.27c4.15-.59,9,1.2,11.27,4.81l4.7-6c1.53-2,3.13-4.59,5.78-5.08a3.44,3.44,0,0,1,3.64,1.57,10.22,10.22,0,0,1,.91,4.1q.81,6.39,1.63,12.76,5.46-9.21,10.91-18.44a1.78,1.78,0,0,1,2.77-.36,20.76,20.76,0,0,1,4,7.39,102.45,102.45,0,0,1,14.22-17.48,1.63,1.63,0,0,1,1.84-.36c-.33-10.15-.74-20.92-1.2-32.14l-.17,0c-2.7-.91-5.28-2.09-7.93-3.12Z"/><path class="cls-6" d="M1521.83,648.71c-2.69-1.5-4.57-4-6.77-6.09a8.4,8.4,0,0,0-2.92-2,3.65,3.65,0,0,0-3.06.37c-2.25,1.33-3.6,4.08-5.48,5.92a11,11,0,0,1-9,3c-6.91-.77-11.25-6.06-14.81-11.52-4.26,3.94-9.07,7.8-15,8.37-4.65.44-9.91-1.58-12.42-5.67-1.21-2-1.32-4.2-1.55-6.45a15.29,15.29,0,0,0-.47-2.77,2.82,2.82,0,0,0-.42-1l0-.05-.12-.11c.1.06.07,0,0,0s-.2.06-.06,0h0l0,0-.17,0s0,0,0,0,0-.06-.21.06a2.73,2.73,0,0,0-1,.91,4.85,4.85,0,0,0-.28.4c-1.38,18.51-2.76,37.24-4.1,55.58a11,11,0,0,1,7.7,2.61c2.49,2.1,4,5.13,5.61,7.92,1.36,2.4,2.76,4.85,4.89,6.46l7.21-5.67c1.42-1.12,2.81-2.31,4.29-3.35a5.37,5.37,0,0,1,4.41-1.08c3,.81,4.1,4.38,5.26,6.88,1.07,2.34,2.16,4.68,3.23,7a41.16,41.16,0,0,1,8.09-8.58,1.8,1.8,0,0,1,2.95.78,52.93,52.93,0,0,1,2.93,11.08c.75-2.91,1.54-5.81,2.39-8.69.93-3.17,1.81-6.39,3-9.47,1-2.7,2.85-5.23,6-5.4s5.76,2.09,7.82,4.14q3.39,3.36,6.52,7a130,130,0,0,1,8,10.47c-.68-19.64-1.34-39.76-1.94-59.57a16.18,16.18,0,0,1-10.45-1.52"/><path class="cls-6" d="M1501.74,370.27a8.94,8.94,0,0,1,5.68.79c4,1.73,7.08,5.16,10.24,8l7.62,7c-1-19.58-2-39.82-3.15-60a10,10,0,0,0-2.74-.61c-4.45-.32-7.74,3.21-10.83,5.89-3.25,2.83-7.48,5.79-12,4.69a8.4,8.4,0,0,1-6-5.7c-3.4,2.18-5.6,6.15-7.81,9.38-2.72,4-6.21,7.48-11,8.77a10.19,10.19,0,0,1-5.34,0c-.2,13-.49,26-.88,38.68a10,10,0,0,1,1.44.19c4,.82,6.12,4.12,8.4,7.18a15.89,15.89,0,0,0,1.49,1.73,5.73,5.73,0,0,0,.65.57l.46.28.11.06.1,0a1.86,1.86,0,0,0,.39.1l.32,0h.17l.09,0a4.38,4.38,0,0,0,.43-.13,4.43,4.43,0,0,0,1.72-1.69c1.38-2.05,2.64-4.13,4.15-6.09a65.18,65.18,0,0,1,5.1-5.9,1.77,1.77,0,0,1,2.76.35l.94,1.55,1-4a43.53,43.53,0,0,1,2.16-7.39,6.63,6.63,0,0,1,4.37-3.73Z"/><path class="cls-6" d="M1522.5,813.89c1.11,2.07,2,4.16,3.71,5.84a16.19,16.19,0,0,0,5.49,3.5,34.48,34.48,0,0,0,6.83,1.84c-.68-16.88-1.46-37-2.29-59l-4.68-2.13c-2-.89-3.91-2-5.94-2.67a2.26,2.26,0,0,0-2.14,0,6.75,6.75,0,0,0-1.41,1.69,36.62,36.62,0,0,1-3.55,4.31c-2.56,2.6-5.77,4.81-9.51,5.05a10.84,10.84,0,0,1-7.84-3,35.1,35.1,0,0,1-4.92-6c-.71-1-1.37-1.92-2-2.73a17,17,0,0,0-1.27-1.41c-.19-.19-.37-.37-.57-.55s-.46-.38-.47-.4a9.14,9.14,0,0,0-1.37-.84l-.08,0-.41-.16-.64-.16-.28,0h0l-.43,0a6.14,6.14,0,0,0-.86,0,6.4,6.4,0,0,0-2.08.66c-3.11,1.56-5.52,4.27-9,5a8.27,8.27,0,0,1-4.85-.31,6.3,6.3,0,0,1-3.37-3.89,3.71,3.71,0,0,0-1-1.7,2.44,2.44,0,0,0-1.18-.47,5.85,5.85,0,0,0-3.22.65c-2.87,1.45-4.1,4.55-5.66,7.2-1.81,3.09-4.67,6.72-8.66,6.53-3.74-.17-5.38-3.73-5.89-7-.31-1.95-.46-3.91-.82-5.86a58.48,58.48,0,0,0-1.49-6.28c-.32-1.09-.66-2.19-1-3.27-1.39,19.25-2.66,37-3.75,52.38.66-.72,1.32-1.42,2-2.12q2.06-2.12,4.21-4.13a10.11,10.11,0,0,1,4.79-3c3.51-.68,6.35,1.61,8.36,4.24,2.17,2.86,3.46,6.29,5.13,9.45a104,104,0,0,0,6.06,10,102.59,102.59,0,0,0,13.44,15.84c1.44-3.54,2.94-7,4.53-10.52,1.71-3.77,3.52-7.51,5.39-11.19,1.41-2.76,3.27-8,7.18-7.63,1.94.17,3,1.72,3.73,3.35.93,2,1.85,4,2.78,6q2.31,5,4.64,10a15.24,15.24,0,0,0,6.41-10.48,1.8,1.8,0,0,1,2.22-1.7c2.82.39,4.6,2.83,5.85,5.16"/><path class="cls-6" d="M1511.29,768.36c3.18-1.32,5.7-4.21,7.66-7,1.11-1.54,2.24-3.21,4.21-3.67,2.19-.52,4.26.61,6.19,1.49l6.75,3.07c-.55-14.66-1.1-30.09-1.65-45.88a160,160,0,0,0-10.17-14q-3-3.52-6.25-6.82a20.33,20.33,0,0,0-3.2-2.88,4.24,4.24,0,0,0-3.09-1c-2.28.45-2.92,4.13-3.49,5.92q-1.51,4.68-2.85,9.42-2.72,9.63-4.7,19.45c-.39,1.93-3.7,1.49-3.46-.47a51.17,51.17,0,0,0-2.17-21.95,38.56,38.56,0,0,0-7.27,8.86,1.77,1.77,0,0,1-3,0l-4.06-8.8c-.63-1.37-1.25-2.75-1.9-4.11-.31-.64-.77-1.73-1.46-2-.94-.4-2.14.82-2.8,1.34l-3.51,2.76-7.57,6a1.8,1.8,0,0,1-2.13.27c-3.28-1.89-5.3-5.15-7.11-8.36-1.5-2.65-2.86-5.45-5.22-7.34a10.74,10.74,0,0,0-1.6-1,7.52,7.52,0,0,0-2.44-.56,7.79,7.79,0,0,0-1.28,0c-1.28,17.48-2.51,34.56-3.68,50.71a9.3,9.3,0,0,1,2,3.13,55,55,0,0,1,2.1,6,59.1,59.1,0,0,1,1.46,6.29c.33,1.92.47,3.88.79,5.77a7.19,7.19,0,0,0,1.29,3.52,1.78,1.78,0,0,0,1.44.63,4,4,0,0,0,2.27-.92c2.68-2.06,3.84-5.59,5.68-8.31a11.14,11.14,0,0,1,7.89-5.13,6.69,6.69,0,0,1,4.12.75c1.7,1,2.22,2.55,3,4.24a2.53,2.53,0,0,0,2.55,1.58,7.44,7.44,0,0,0,3.88-1.09c3.18-1.86,5.84-4.62,9.75-4.79a9.49,9.49,0,0,1,6.71,2.7,34.59,34.59,0,0,1,4.77,5.87c.77,1.09,1.42,2,2.2,2.92.41.48.84,1,1.29,1.39l.61.57.45.38a7.13,7.13,0,0,0,3,1.45,6.88,6.88,0,0,0,4.1-.45"/><path class="cls-6" d="M1484.8,142.34a12.57,12.57,0,0,0-2.31-2.63c-3.75-3.29-9.12-4.37-14-3.92a28.75,28.75,0,0,0-4.54.8c.31,9.54.66,21.11,1,34.24l.49.59a5.93,5.93,0,0,0,3.06,2.14,8.62,8.62,0,0,0,3.88.05c3.23-.66,5.84-2.56,8.4-4.53,2.79-2.16,5.58-4.32,9-5.44a20.21,20.21,0,0,1,8.29-.78c5,.51,9.64,2.19,14.35,3.73-.49-7.61-1-14.65-1.38-21a23.43,23.43,0,0,1-2.28-1.42c-2.35-1.64-4.71-3.42-7.47-4.32a7.35,7.35,0,0,0-3.71-.42,6.28,6.28,0,0,0-3,1.73c-1.83,1.65-3.91,4.06-6.64,3.74a3.88,3.88,0,0,1-2-.77,7.45,7.45,0,0,1-1.17-1.77"/><path class="cls-6" d="M1490.9,290.9a3.87,3.87,0,0,0-3.94.9c-1.31,1.36-1.91,3.26-3.25,4.6a5.84,5.84,0,0,1-5.48,1.8c-2.08-.6-2.57-2.51-3.73-4-1.74-2.31-5.14-2.7-7.79-2.05,0,17.36-.09,35.06-.34,52.69a6.4,6.4,0,0,0,5,.07,14.59,14.59,0,0,0,5.58-3.6,36.63,36.63,0,0,0,4.21-5.68c2.75-4.09,5.8-8.19,10.69-9.8A1.77,1.77,0,0,1,1494,328c-.56,1.51.23,2.92,1.62,3.87a5.53,5.53,0,0,0,5.28.39c3.94-1.44,6.73-5.1,10-7.5a14,14,0,0,1,5.81-2.64,12.21,12.21,0,0,1,5.14.26c-.45-7.95-.9-15.89-1.35-23.77-1.63-2.56-3.15-5.29-5-7.69a5.57,5.57,0,0,0-5.88-2.37c-5.39,1.27-7.27,7.11-8.76,11.77a1.77,1.77,0,0,1-3.39,0c-1.12-3.61-2.52-8.28-6.65-9.38Z"/><path class="cls-6" d="M1476.4,133.06c4.87,1.18,9.47,4.07,11.91,8.53.09,0,.25,0,.06,0,.27,0,0,0,.19,0l.28-.08a6.26,6.26,0,0,0,1.29-.86c1.16-1,2.21-2.1,3.44-3,5.26-3.88,11.86,0,16.35,3.24.27.2.54.39.83.58-1.41-21.07-2.3-33.77-2.3-33.77h-45.53s.4,9.43.94,25.56a26.84,26.84,0,0,1,12.54-.17"/><path class="cls-6" d="M1513.14,487.39a1.77,1.77,0,0,1-3.28-.88,17,17,0,0,0-2.51-7.72q-6.07,10.27-12.16,20.55a1.78,1.78,0,0,1-2,.81,1.86,1.86,0,0,1-1.3-1.7l-1.29-10.14c-.21-1.66-.43-3.33-.64-5s-.29-3.15-.61-4.67c0-.26-.25-.51-.07-.49-.39,0-.92.47-1.17.69a25.46,25.46,0,0,0-3.05,3.73l-6.29,8a1.77,1.77,0,0,1-2.94-.78,6.24,6.24,0,0,0-4.07-4.8c-4.77-1.93-9.41,1-12.6,4.51-.93,10.92-2,23.58-3.09,37.49a6.66,6.66,0,0,1,.82-.57c2.69-1.59,5.84-.83,8.2,1s3.74,4.17,5.16,6.67c1.12,2,2.39,4.31,4.58,5.28a4.5,4.5,0,0,0,2.32.41,3.8,3.8,0,0,0,1.15-.16,9.38,9.38,0,0,0,1.34-.41,9.79,9.79,0,0,0,1.18-.52c.45-.22.89-.46,1.33-.71.9-.51,1.77-1.07,2.64-1.63,3.37-2.16,7.19-4.82,11.41-4,2.44.48,4.15,2.23,5.75,4a7.79,7.79,0,0,0,2.47,2.1,5.8,5.8,0,0,0,.63.2l.19,0h.81l.14,0a11.07,11.07,0,0,0,4.15-2.3c1.57-1.26,3.06-2.64,4.75-3.75a8.16,8.16,0,0,1,5.12-1.58,6.34,6.34,0,0,1,3.24,1.25,40.15,40.15,0,0,1,3,3,9.8,9.8,0,0,0,3.18,1.88c-.09-8.22-.14-15.89-.14-22.88,0-11.7-.26-25.86-.72-41.77-.5-1.27-1-2.54-1.5-3.82a99,99,0,0,0-14.18,18.72"/><path class="cls-6" d="M1489.73,167.4c-3.23,1.35-5.87,3.81-8.66,5.86a19.24,19.24,0,0,1-8.71,3.9,10.77,10.77,0,0,1-7.25-1.32c.22,8.61.43,17.83.62,27.53a3.26,3.26,0,0,0,.83.93c.85.63,2.06.32,3-.15,3.07-1.47,4.69-4.7,7.31-6.76a8.34,8.34,0,0,1,4.78-2,5.72,5.72,0,0,1,1.7.17,4.6,4.6,0,0,1,1.4,1l.36.28c1.19-2.76,3-5.5,5.61-6.8a6,6,0,0,1,4.75-.38,9.17,9.17,0,0,1,4.29,3.88,62.58,62.58,0,0,0,6.68,8.46,28.41,28.41,0,0,0,8.63,6.42c-.87-13.66-1.69-26.45-2.45-38-5-1.62-10.06-3.66-15.28-4a16.27,16.27,0,0,0-7.66,1.07Z"/><path class="cls-6" d="M1484.36,592.8l-1.38-6a32.17,32.17,0,0,0-1.31-5,3.62,3.62,0,0,0-2.23-2.3,4.93,4.93,0,0,0-3,.35c-2.57,1-4.24,3.3-6,5.3s-4.1,4.09-6.94,4.74a17.77,17.77,0,0,1-8.19-.56c-1.29-.31-2.6-.7-3.92-1-1,12.71-2,25.79-2.93,39a4,4,0,0,1,2.15,0c2.15.51,3,2.78,3.41,4.73.22,1.12.32,2.27.43,3.39a11.71,11.71,0,0,0,.46,2.82c1.27,3.78,6.28,5.51,10,5,5.56-.7,10.1-5.12,14-8.8a1.79,1.79,0,0,1,2.77.35c2.07,3.32,4.21,6.83,7.38,9.23,2.66,2,6.31,3.15,9.57,2,2.65-.91,4.16-3.64,5.9-5.65,2-2.31,4.64-3.92,7.79-3.38,2.86.49,5,2.75,6.94,4.75,2.07,2.17,4,4.18,7.08,4.85a15.71,15.71,0,0,0,5.88,0c-.49-16.46-1-32.67-1.32-48.19a183.41,183.41,0,0,0-12.57-19.3c-.58-.78-2-3.19-3.19-2.44a4.5,4.5,0,0,0-1.27,1.66c-.53.91-1,1.85-1.48,2.8a53.29,53.29,0,0,0-4.19,12.09,1.74,1.74,0,0,1-1.93,1.26,1.78,1.78,0,0,1-1.52-1.73,10.08,10.08,0,0,0-2.33-5.39,2.15,2.15,0,0,0-.81-.62l-.32-.1c-.21,0-.23,0-.06,0h-.28l-.35.1a2.88,2.88,0,0,0-.47.31,5.47,5.47,0,0,0-1,1.29,162.84,162.84,0,0,0-8.72,16.86c-.64,1.39-2.9,1-3.22-.42q-1.4-6-2.8-12.08"/><path class="cls-6" d="M1537.27,828.52c-4.86-.87-9.86-2.57-13.47-6.11a22.66,22.66,0,0,1-4.06-6.09,10.12,10.12,0,0,0-2.26-3.28,18.8,18.8,0,0,1-9.33,12,1.76,1.76,0,0,1-2.4-.63q-2.79-6-5.56-12c-.83-1.78-1.66-3.57-2.48-5.35a5.36,5.36,0,0,0-1-1.81c-.23-.2-.29-.15-.58.07-1.14.82-1.72,2.42-2.35,3.62-.87,1.69-1.73,3.38-2.58,5.09q-5,10-9.11,20.44a1.79,1.79,0,0,1-2.95.78A106.92,106.92,0,0,1,1462.61,816a104.72,104.72,0,0,1-5.73-9.68c-1.52-2.91-2.68-6.13-4.74-8.72a8,8,0,0,0-2.86-2.45,3.41,3.41,0,0,0-3.48.64,41.1,41.1,0,0,0-4.08,3.84c-1.32,1.31-2.61,2.67-3.86,4-.85.93-1.67,1.87-2.48,2.83-2.18,30.61-3.55,50.2-3.55,50.2s7,20.28,48.06,29.16,60.76-9.16,60.76-9.16-.81-18.66-2-48c-.47-.08-.93-.14-1.4-.23"/><path class="cls-6" d="M1515.55,381.94c-1.67-1.53-3.35-3.08-5-4.61a18.72,18.72,0,0,0-4.25-3,5.29,5.29,0,0,0-4-.58c-1.49.6-2,2.26-2.36,3.66-1.18,4.29-2.25,8.6-3.37,12.89a1.78,1.78,0,0,1-3.22.42l-1.89-3.11a56.83,56.83,0,0,0-4,4.82c-.82,1.12-1.59,2.27-2.33,3.44a19.2,19.2,0,0,1-2.1,3,5.82,5.82,0,0,1-5.38,1.89,7.51,7.51,0,0,1-3.91-2.57c-2.09-2.35-3.67-6.13-6.87-7.17a7.91,7.91,0,0,0-1.52-.32c-.56,17.47-1.31,34.49-2.31,50.6a7.15,7.15,0,0,0,3.39,1.12,9.9,9.9,0,0,0,5.49-1.16,20,20,0,0,0,5.43-4.75c1.63-1.93,3-4.06,4.62-6s3.75-3.46,6.31-3.24c2.26.2,4,1.5,5.85,2.78,1.56,1.1,3.14,2.13,5,1.9,0,0,.44-.1.52-.12l.56-.17a5.83,5.83,0,0,0,.94-.43,19,19,0,0,0,2.39-1.58c1.57-1.19,3.11-2.56,4.79-3.65a11.55,11.55,0,0,1,6.36-2c3,0,5.77,1.32,8.49,2.47,1.33.56,2.68,1.09,4.06,1.57-.5-11.9-1.06-24.28-1.68-37l-10-9.11Z"/><path class="cls-6" d="M1513.55,211.57c-6.38-2.83-11.28-8.51-15.25-14.07a21.59,21.59,0,0,0-3-4,2.86,2.86,0,0,0-1.52-.7,2.19,2.19,0,0,0-1.35.28c-2.51,1.3-4,4.48-4.79,7.06a1.79,1.79,0,0,1-3,.77l-2.5-2a4.75,4.75,0,0,0-3.42,1.43,38.73,38.73,0,0,0-3.43,3.7c-1.92,2.17-4.9,4.26-7.93,4.09a5.91,5.91,0,0,1-1.62-.33c.2,10.35.37,21.22.52,32.48a1.76,1.76,0,0,1,1.18,1.19c1,4.56,5.22,7.77,9.83,8.39a10.2,10.2,0,0,0,5.57-.79c2.22-1.06,3.93-2.9,5.65-4.59a20,20,0,0,1,6.38-4.61c3.09-1.23,6.44-.67,9.61-.08q6.33,1.17,12.66,2.37c-.63-10.32-1.26-20.33-1.86-29.93-.61-.2-1.22-.43-1.81-.69Z"/><path class="cls-6" d="M1512.36,244.84c-3.59-.66-7.19-1.46-10.81-2a9.87,9.87,0,0,0-7.88,1.78c-2.11,1.61-3.8,3.7-5.84,5.38a13.94,13.94,0,0,1-6.78,3.28,15.21,15.21,0,0,1-7.33-.69,15.94,15.94,0,0,1-7.3-5.25c.15,13.33.25,27.12.28,41.16,3.64-.6,7.82.2,10.29,3.15a28.29,28.29,0,0,1,1.65,2.59,1,1,0,0,0,1.21.52c1.79-.49,2.55-2.69,3.51-4.06a7.42,7.42,0,0,1,4.88-3.4,9.08,9.08,0,0,1,6.08,1.24,12.66,12.66,0,0,1,4.91,6,21.16,21.16,0,0,1,2.94-5.19,11.94,11.94,0,0,1,7.58-4.47,8.79,8.79,0,0,1,8.13,3.23,35.18,35.18,0,0,1,2.28,3.09c-.9-15.52-1.82-30.77-2.72-45.47l-5.08-.95Z"/><path class="cls-3" d="M1710.07,248.2a227.22,227.22,0,0,0-216.6-173.31l-70.38,9.45c-47.95,39-63.48,104.32-76.13,164.78a31.7,31.7,0,0,1,10.58-13.94A312.48,312.48,0,0,0,1354,357.9a277.47,277.47,0,0,1,26.2-38.62l4.38,7.6a407.11,407.11,0,0,0,60.15-102.06A284.2,284.2,0,0,0,1448,366.36a110.64,110.64,0,0,1,18.8-33.81,248.91,248.91,0,0,0,16.1,104.61A431.18,431.18,0,0,0,1509.33,331L1520,365.22A338.08,338.08,0,0,0,1528.27,228a511.66,511.66,0,0,0,68.45,95.68,190.31,190.31,0,0,0,7.14-46.34,230.85,230.85,0,0,0,30.22,76.06,139.45,139.45,0,0,0,2.23-114.2,172.37,172.37,0,0,1,27.11,28,76.79,76.79,0,0,0-6.82-32.81,74.81,74.81,0,0,0,53.47,13.84"/><path class="cls-4" d="M1362,56.4c-50.65,30.45-87.65,82.74-99.5,140.63l13.39-8.25q-.21,6.78-.44,13.54a166.47,166.47,0,0,0,45.4-42.61q-2.1,19.24-4.19,38.48a579,579,0,0,1,84.2-89.83c-37,48.92-66,108.19-60.41,169.25a449,449,0,0,1,44-35.36q.54,7,1.07,14a231,231,0,0,0,42.61-90.64l5,40.48a409.65,409.65,0,0,0,60.44-86.62c-10.84,59-21.59,120.46-5,178.07q5.31-9.09,10.64-18.17a47.26,47.26,0,0,0,4.82,33.38c10.37-31.07,20.8-62.35,25.36-94.79s2.93-66.45-10.11-96.5q42,55.37,81,113a42.85,42.85,0,0,1,10-20.38l11.52,26.17a17,17,0,0,1,16,8.57c2.24-50.34-24.34-101-67-127.71a145.45,145.45,0,0,1,98.53,58.62c-.61-4.12-1.24-8.24-1.86-12.35a159.76,159.76,0,0,1,36.89,40.87,241.27,241.27,0,0,0,12.49-47.82,129,129,0,0,0,41.94,53.1c1.69-25.34-8.36-50.46-23.65-70.74s-35.54-36.25-56.46-50.66c-31-21.39-64.43-40-100.64-50.51-39.85-11.55-72.25-4.68-111.9-2-8,.53-15.8-.43-23.6-1.4-9.12-1.12-18.24-2.24-27.72-1-18.65,2.46-36.76,9.64-52.82,19.29"/><path class="cls-7" d="M1355,20.58c-19.65,4-41.1,9.62-52,26.43l26-3.09-11.36,13.83,40.68-11.29-13.89,15.59a318.06,318.06,0,0,1,138.84-14.38c-22.2,8.41-46,12-68.1,20.64a157.79,157.79,0,0,0-79.8,70.13L1356,125.57a143.31,143.31,0,0,0-22.42,54.75,720.85,720.85,0,0,0,72.5-50.35l-7.23,23.67q48.72-43,93-90.59a326.74,326.74,0,0,0-22.12,127.61l14.17-15.12a337.31,337.31,0,0,0,16,78.28,174.9,174.9,0,0,0,24.88-79.88,27.74,27.74,0,0,0,10.33,9.32,190.2,190.2,0,0,0-5.92-102.87c6.75,3,12,8.49,17.06,13.86l66.24,70.19q2.84-10.81,5.68-21.63l9.67,21.64,8.67-11,43.93,51.18c11-19.9,7.49-45.46-4.1-65s-30.12-34-49.38-46.06a352.58,352.58,0,0,0-89-39.87,247.19,247.19,0,0,1,170.67,35.08l-15.18-21.29a179.36,179.36,0,0,0,51.19,38.36c-4-19.54-20.37-34-37.12-44.8-36.62-23.62-79.75-36.66-123.22-38.42a246.77,246.77,0,0,0-66.3,6.25c-8,1.89-18,7.13-26.31,5.93-9-1.3-46.77-32.58-136.69-14.17"/><path class="cls-3" d="M273.33,257.87c-4.13-32.69-3.52-66.42,6.17-97.91q10,12.1,20.08,24.19c.73-10.59-8.48-19.45-9.71-30-1-8.28,3.12-16.23,7.32-23.44a374.67,374.67,0,0,1,30-44l16.95,19.58A95.73,95.73,0,0,0,339,78.62c37.83-38.43,89.69-59,139.94-78.62-12,23-5.2,51.86-15.14,75.81a58.54,58.54,0,0,0-24.1-3.52,29,29,0,0,0,22.64,11.55l-35.8,49.44c-1.46,2-3,4.13-5.26,5.22-2.55,1.25-5.54,1-8.36.71l-37.54-3.8a103.29,103.29,0,0,0,45.41,10.27L407.5,165.94a16.47,16.47,0,0,1-3.77,4.48c-2.62,1.9-6.08,2.07-9.32,2.17l-39.78,1.2A144.91,144.91,0,0,0,382.82,181L351,189.18a65.2,65.2,0,0,0,33.26,7.55c-5,38.09-23,73.08-33.89,109.92-6,20.11-9.79,40.77-12.78,61.51-1.23,8.55.72,37.77-10.93,38.13-9.57.3-20.15-19.58-23.38-26.45-7.93-16.81-11.46-36.57-16.13-54.49-5.8-22.23-10.94-44.67-13.83-67.48Z"/><path class="cls-4" d="M289.35,297.19c-9.52-45-12.91-91.94-31.27-134.14-23.4-53.77-69.29-95.46-91.84-149.59,2.32,17.92-4,35.66-9.08,53s-8.74,36.51-1.49,53.06a64.37,64.37,0,0,0,48.74-9.37,72.3,72.3,0,0,1-47.41,22,625.75,625.75,0,0,1,39.93,75.13l25.23-8.8a68,68,0,0,1-19.1,17.26l21.12,36.76c.72,1.25,1.56,2.59,2.93,3s2.84-.19,4.15-.81l13.82-6.56c-1,4.6-5.82,7.1-9.25,10.33s-5.07,10-.79,11.93l28.41-18.86a55.53,55.53,0,0,1-21.9,31c-3.14,2.16-6.75,4.29-8,7.9s.33,7.47,1.9,10.91c16.89,37,39.69,70.92,63.94,103.44,5.53,7.41,19.3,34.23,22.92,13.9,2.95-16.53-9.18-37.3-14.12-52.63a690.65,690.65,0,0,1-18.86-68.94Z"/><path class="cls-4" d="M331.51,261.18A41.77,41.77,0,0,0,345,283.65c-6-8.27-5-20-.32-29.06s12.49-16.05,20.12-22.81c22.68-20.14,45.85-40.59,73.59-52.87q4.91,12.45,9.82,24.89C444.51,190,446,170.32,446,170.32s47.22-10.62,61.48-11.39a839.43,839.43,0,0,1,105.33.89Q595.52,188,578.25,216.25L543.9,202.46c3.48,8.53,20.31,13.29,23.79,21.81-24.23,21.8-62.76,46.21-104.14,11.78a66.78,66.78,0,0,0,27.33,26.05,128.17,128.17,0,0,0-69.64,44.13A121.57,121.57,0,0,0,385.79,294l23.5,19.53c-9.18-7.63-72.59,159.48-77.91,169.58C314.1,466.93,316.45,380,316.61,357.24a330.08,330.08,0,0,1,14.9-96.06"/><path class="cls-7" d="M298.82,381.22c-10.74-17.91-22.39-35.34-35.83-51.32C212.62,270,138.31,232.82,61.19,219.47c-21-3.65-43.11-5.9-61.19-17.24A204.78,204.78,0,0,1,56.4,284.7,135.89,135.89,0,0,0,94,253.82a105.27,105.27,0,0,1-23.42,34.05c5.48,17.31,20.61,29.78,36.34,38.84s32.9,15.87,47.11,27.16a5.28,5.28,0,0,0,3,1.49c1.45,0,2.59-1.2,3.52-2.31a305.09,305.09,0,0,0,39.45-60.12,211.11,211.11,0,0,1-30,67.71c18.84-2.2,33.34,15.05,48.72,26.15,3.5,2.53,7.45,4.87,11.77,4.84s8.87-3.32,8.77-7.64c2.9,5.22-2.72,11.93-.55,17.48,1.15,3,4.2,4.7,7.12,5.92,11.74,4.94,24.81,5.62,36.93,9.5,20.87,6.67,35.89,22.32,45.31,41.62-.77-27.44-15.58-54.32-29.35-77.29"/><path class="cls-7" d="M329.8,462.08c6.76-41.59,14.86-86,44.17-116.22,10.75-11.1,23.85-19.66,37.47-26.93,67.19-35.84,148.83-40.73,221.93-19.38,40.68,11.88,79.93,32.22,107.64,64.29,17.13,19.82,29.79,44,50.73,59.69-10.69-5.21-23.29-4.83-35.69-4.43-15.19.47-30.1.95-40.87-8.86-2.42-2.21-4.52-5-4.88-8.27-.29-2.58.55-5.15,1.3-7.64a142,142,0,0,0,6.13-43.49,420.25,420.25,0,0,0-23,54.69c-5.61-7-16-7-24.91-7.6a98.06,98.06,0,0,1-41.51-12.51,13.8,13.8,0,0,1-4.81-3.83c-1.82-2.58-1.86-6-1.87-9.12a317.39,317.39,0,0,0-4.69-52.75q-.33,32.71-.65,65.42l-62.2-1.93q-.37-13.21-.74-26.42a52.37,52.37,0,0,0-3.52,25.34l-9.56,2.19a104.23,104.23,0,0,0-23.7-65.15A243,243,0,0,1,532.74,389c-8.62-.89-17.46-.22-26.25.45-14.36,1.1-28.59,2.19-41.55-3.49-18-7.9-28.36-26.66-37.37-44.17a129.07,129.07,0,0,0,14.13,37.35c-10.16,7.32-23,5.8-36,4.27-11.71-1.38-23.53-2.75-33.59,2.36C359.9,392,354,405.9,349.54,418.85a585,585,0,0,0-18.16,64.29l-2.55-6.07,1-15"/><path class="cls-6" d="M361.06,393a232.34,232.34,0,0,0-21.35,47.74,225.38,225.38,0,0,0-10,65.29l25.59,1.87a235.7,235.7,0,0,0,.6-26.2c-.46-30-1.15-62.17,5.19-88.7Z"/><path class="cls-11" d="M309.54,421c10.14,15.53,20.07,32.86,28.17,54.82a263.68,263.68,0,0,1,15.66,76.77L323,557.25c-1.48-10.19-1.87-20.74-2.2-31.13C319.61,490.35,318.61,452,309.54,421Z"/><path class="cls-10" d="M370.4,463.51c-10.89,12.75-21.49,27-29.95,45.26A169.35,169.35,0,0,0,325,572.88l34,4.85c1.39-8.53,1.55-17.39,1.66-26.13.37-30.05.51-62.3,9.82-88.09Z"/><path class="cls-6" d="M308.85,487.77c10.71,15.1,21.23,32,30,53.62a255.24,255.24,0,0,1,17.63,76.11l-31,5.94c-1.72-10.12-2.34-20.66-2.9-31-1.91-35.71-3.72-74-13.66-104.63Z"/><path class="cls-11" d="M368.59,524.63c-11,14.09-21.56,29.67-29.39,48.89S326.39,616,327.5,639.3l38.15.45c.81-8.66.24-17.5-.39-26.21-2.18-29.95-4.8-62,3.33-88.91Z"/><path class="cls-10" d="M309.74,558.61c13.83,17.61,27,36.95,36.49,60.44s11.56,34.89,9.16,62.54c0,0-36.36-6.08-35.18-16.4,4.05-35.54-.92-74-10.47-106.58Z"/><path class="cls-6" d="M376.35,567.64c-10.15,13.67-20,28.83-27.61,47.74a179.38,179.38,0,0,0-13,65.29l33.08,1.87c1.08-8.62,1-17.47.78-26.19-.6-30-1.49-62.18,6.72-88.71Z"/><path class="cls-11" d="M309.74,595.61c13.11,15.53,25.94,32.87,36.42,54.82s18.5,49,20.24,76.77l-39.33,4.66c-1.91-10.18-5.9-35.58-6.33-46-1.48-35.76.73-59.29-11-90.27Z"/><path class="cls-10" d="M388.41,638.12c-14.07,12.76-27.78,27-38.72,45.26s-19,40.82-20,64.11l43.89,4.85c1.8-8.53,2-17.39,2.15-26.13.48-30.05.66-62.3,12.69-88.09Z"/><path class="cls-6" d="M308.85,662.38c13.84,15.09,27.44,32,38.76,53.62s20.26,48.43,22.79,76.1l-40.14,5.95c-2.23-10.12-3-20.66-3.75-31-2.47-35.73-4.82-74-17.66-104.64Z"/><path class="cls-11" d="M386.08,699c-14.22,14.08-27.87,29.67-38,48.89S331.52,790.4,333,813.68l49.32.45c1-8.66.3-17.5-.52-26.21-2.81-29.95-6.19-62,4.32-88.91Z"/><path class="cls-10" d="M319.22,750.59c17.88,17.6,34.93,36.94,47.18,60.42s19.46,51.6,16.36,79.26L318.2,888c-.92-10.38.51-20.87,2-31.19,5.24-35.54,11.35-73.6-1-106.2Z"/><path class="cls-6" d="M394.34,774c-18.63,14.08-36.5,29.66-49.77,48.88s-21.7,42.51-19.81,65.78l64.6.46c1.37-8.66.4-17.51-.67-26.21-3.68-30-8.11-62.06,5.65-88.91Z"/></g></g></g></g></svg>