<svg xmlns="http://www.w3.org/2000/svg" viewBox="0 0 277.75 175.28"><defs><style>.cls-1{fill:#ccc5c0;}.cls-2{fill:#44403d;}.cls-3{fill:#ea7300;}.cls-4{fill:#efefef;}.cls-5{fill:#ddd;}.cls-6{fill:#e4dbd5;}.cls-7{fill:#fdce3d;}.cls-8{fill:#492812;}.cls-9{fill:#f9a026;}.cls-10{fill:#c9510b;}.cls-11{fill:#f37407;}</style></defs><g id="Capa_2" data-name="Capa 2"><g id="Capa_1-2" data-name="Capa 1"><path class="cls-1" d="M129.92,116.77s1.65-8.73-3-20.9-14.49-33.61-14.49-33.61-7.54-16.81-6.38-29.56,3.48-29.56,3.48-29.56S113.6-6.13,113,7.2s-.58,14.49-.58,14.49S117.66-6.13,121.13,2l-2.32,23.76s8.12-19.7,9.86-12.17l-2.9,16.81s7-18,9.85-11.59c0,0,1.16,3.48-4.63,16.23,0,0,9.27-12.18,12.17-9.86,0,0,3.47.58-5.22,12.17,0,0,10.43-6.95,12.17-5.21,0,0,1.74,1.74-5.21,8.11,0,0,9.85-4,11-2.32,0,0,2.9,2.32-7,7.54,0,0,10.44-2.32,11.59-.58,0,0,1.74,1.74-4,4.64,0,0,5.79-1.74,6.37-.58,0,0,1.74,1.16-4.63,4,0,0,9.85,0,11,1.74,0,0,1.16,1.16-2.9,2.32,0,0,6.38.58,7,2.32,0,0,1.15,1.74-2.32,2.9H175s-19.7,50.42-37.67,54.48Z"/><path class="cls-2" d="M175,62.26H171c3.47-1.16,2.32-2.9,2.32-2.9-.58-1.74-7-2.32-7-2.32,4.06-1.16,2.9-2.32,2.9-2.32-1.16-1.74-11-1.74-11-1.74,6.37-2.89,4.63-4,4.63-4-.58-1.16-6.37.58-6.37.58,5.79-2.9,4-4.64,4-4.64-1.15-1.74-11.59.58-11.59.58,9.86-5.22,7-7.54,7-7.54-1.16-1.73-11,2.32-11,2.32,6.95-6.37,5.21-8.11,5.21-8.11-1.74-1.74-12.17,5.21-12.17,5.21,8.69-11.59,5.22-12.17,5.22-12.17C140.26,22.84,131,35,131,35c5.79-12.75,4.63-16.23,4.63-16.23-2.9-6.38-9.85,11.59-9.85,11.59l2.9-16.81c-1.74-7.53-9.86,12.17-9.86,12.17L121.13,2c-3.47-8.11-8.69,19.71-8.69,19.71s0-1.16.58-14.49-3.48-4.06-3.48-4.06S107.22,20,106.06,32.7a55.87,55.87,0,0,0,.87,11.88,103.23,103.23,0,0,0,2.9,11c-1.16-11.09,1.55-15.45,4.06-17.39,13.38-10.32,53.85,23,60.27,28.4Z"/><path class="cls-3" d="M242.05,156.27l6.88.75s0-4.06,8.11-2.9,11,2.32,11,2.32,1.16,1.74-1.16,1.74c0,0,2.9,5.21,6.37,5.21h3.48s2.9,2.9-1.16,3.48-11.59.58-16.81-1.74-8.4-5.5-18.83-4.92Z"/><path class="cls-4" d="M136.07,115.43s-4.5.15-15.52,4.78a98.62,98.62,0,0,0-16.8,8.7s-4.64,3.48-7.54-.58,5.8-9.85,5.8-9.85c1.55-1.19,13.61-10.68,12.75-24.35a19.88,19.88,0,0,0-5.09-12.67c-6.37-6.76-15.62-6-16.94-5.87a19.79,19.79,0,0,0-8.84,2.53A20.68,20.68,0,0,0,74.77,89.5l6.37,34.19s-20.86,23.77,13.91,30.14c0,0,8.12,0,27.24,10.43s42.89,11,42.89,11,29.56.58,46.95-11a78.16,78.16,0,0,1,27.82-4s4.05-2.9,1.16-5.22l-20.87-8.11s28.4-4.64,22-7l-6.38-.58s9.27-2.9,3.48-3.48-5.22-.58-5.22-.58,11-3.47,3.48-3.47h-6.38s-13.33-2.9-19.12-7.54Z"/><path class="cls-5" d="M138.89,115.62s-3-2.07-18.63,4.88c0,0,16.23-5.21,11.59,3.48Z"/><path class="cls-6" d="M124.9,127.46S151,100.8,162.57,81.09s20.29-35.93,24.92-53.9c0,0,7-20.86,5.8-5.21,0,0-2.32,29.55-6.95,37.67l19.12-40s9.28-9.86,2.9,7-9.27,23.19-9.27,23.19l19.12-23.19s5.22,1.16-4.05,12.75-10.44,12.17-10.44,12.17L228.65,37s6.95-2.89,4,1.16S217.63,55,217.63,55s13.33-5.79,16.81-6.95,8.12-2.32,3.48,2.32L225.17,63.13l12.17-5.22s8.11-1.74,1.74,2.9-12.17,9.27-12.17,9.27S244,64,244.58,66.89s-23.76,18-23.76,18S242.27,80.8,244,80.8s2.9,1.74-2.31,4.64-9.28,4.64-9.28,4.64,15.65-2.32,7,1.74-18,7.53-18,7.53,19.71-1.74,15.65,1.74-11.59,6.37-11.59,6.37h4.63s6.38.58-1.73,5.22-12.76,7-12.76,7,9.86-1.74,6.38,0-11.59,7-11.59,7,7.53,1.74-4.64,4.64-15.07,4.05-15.07,4.05,4.06,1.74-5.21,2.9-51.59,12.75-69,4.64C116.5,142.82,109,140.5,124.9,127.46Z"/><path class="cls-5" d="M237.27,134.17a169.78,169.78,0,0,1-20.22,2c-10.21.39-13-3.66-20.86-4.63,0,0,10.47-9.71,16.83-6.59a30.24,30.24,0,0,0,8.11,3.91c4.33,1.23,10.12,3,10.12,3h7.12s3.57.06.84,1.47Z"/><path class="cls-2" d="M185.47,138.18c9.27-1.16,5.21-2.9,5.21-2.9s2.9-1.16,15.07-4.05,4.64-4.64,4.64-4.64,8.11-5.22,11.59-7-6.38,0-6.38,0,4.64-2.32,12.76-7,1.73-5.22,1.73-5.22h-4.63s7.53-2.89,11.59-6.37-15.65-1.74-15.65-1.74,9.27-3.48,18-7.53-7-1.74-7-1.74,4.06-1.74,9.28-4.64,4.05-4.64,2.31-4.64-23.18,4.06-23.18,4.06,24.34-15.07,23.76-18-17.67,3.19-17.67,3.19,5.79-4.64,12.17-9.27-1.74-2.9-1.74-2.9l-12.17,5.22,12.75-12.75c4.64-4.64,0-3.48-3.48-2.32S217.63,55,217.63,55,229.8,42.26,232.7,38.2s-4-1.16-4-1.16L203.72,51.53s1.16-.58,10.44-12.17,4.05-12.75,4.05-12.75L199.09,49.8s2.89-6.38,9.27-23.19-2.9-6.95-2.9-6.95l-19.12,40C191,51.53,193.29,22,193.29,22c1.16-15.65-5.8,5.21-5.8,5.21C182.86,43.42,181.7,44,173,62.55c2.55-.23,24.68-1.86,34.77,11.59,10.32,13.74,4.89,40.45-17.39,59.12A69.1,69.1,0,0,0,185.47,138.18Z"/><circle class="cls-5" cx="87.66" cy="93.41" r="8.26"/><circle class="cls-7" cx="86.5" cy="92.83" r="8.26"/><ellipse class="cls-8" cx="86.94" cy="93.26" rx="2.61" ry="4.06"/><path class="cls-5" d="M86.76,118.53s-11.68,14.56-10.25,25.65c0,0-3.4-4.81.18-13.37L82,121.66Z"/><path class="cls-9" d="M0,115s31.3-12.17,73.61-12.75c0,0-19.71-6.38-27.82-8.7s-28.4-8.11-44-9.85c0,0-.58-1.16,13.33-.58s63.75,5.22,63.75,5.22,7,2.32,2.9,9.85c0,0,13.33,4.64,11.59,10.43s-10.43,13.91-10.43,13.91-16.81,16.81-44,10.44a86.65,86.65,0,0,1-14-5.51c-6.3-3.15-9.72-5.84-17.9-9.56C4,116.57,1.6,115.6,0,115Z"/><path class="cls-10" d="M267.19,163.1a12.33,12.33,0,0,1-8.7-5.21h5.8a2.49,2.49,0,0,0-1.16,1.74C263,161,264.58,162.68,267.19,163.1Z"/><path class="cls-11" d="M73.61,102.25s-35.36,8.11-60.28,10.43H6.84s19.68-5.57,32.21-7.42S73.61,102.25,73.61,102.25Z"/><path class="cls-5" d="M240,139.71l2.21.2s3.59.46-1.48,2.41a19.68,19.68,0,0,1-3.41,1.05S241.4,140.37,240,139.71Z"/><path class="cls-5" d="M238.25,135.75s4.81.27,2.53,1.5a22.77,22.77,0,0,1-2.8,1.36S241.48,136.51,238.25,135.75Z"/></g></g></svg>