<svg xmlns="http://www.w3.org/2000/svg" viewBox="0 0 325.2 167.83"><defs><style>.cls-1{fill:#aeddf4;}.cls-2{fill:#96cde2;}.cls-3{fill:#ededed;}.cls-4{fill:#ddd;}.cls-5{fill:#fdce3d;}.cls-6{fill:#492812;}.cls-7{fill:#f9a026;}.cls-8{fill:#e4dbd5;}.cls-9{fill:#44403d;}.cls-10{fill:#f2f2f2;}.cls-11{fill:#f37407;}</style></defs><g id="Capa_2" data-name="Capa 2"><g id="Capa_1-2" data-name="Capa 1"><ellipse class="cls-1" cx="202.29" cy="147.66" rx="116.12" ry="20.17"/><ellipse class="cls-2" cx="202.5" cy="147.96" rx="96.77" ry="16.81"/><path class="cls-3" d="M104.44,62,96.23,18A26.65,26.65,0,0,1,108,3.38,25.31,25.31,0,0,1,119.36.12C121.05,0,133-1,141.16,7.67c5.84,6.21,6.38,13.69,6.55,16.32,1.11,17.59-14.42,29.8-16.42,31.33,0,0-39.62,39.62,16,38.53,0,0,72-17.46,135.32,5.46,0,0,33.83,15.27,39.29,9.82,0,0,1.09,3.27-8.73,6.55,0,0,8.73,0,12-3.28,0,0,0,6.55-13.09,9.82l9.82-2.18a65.6,65.6,0,0,1-25.1,17.46C280.46,144.05,263,155,225.89,155s-76.39,1.09-102.58-9.82c0,0-27.82-7.09-40.92-30S97.67,73.66,97.67,73.66s5.9-4.7,6.77-11.63"/><path class="cls-4" d="M296.83,137.5A65.6,65.6,0,0,0,321.93,120l-9.82,2.18c13.09-3.27,13.09-9.82,13.09-9.82-3.27,3.28-12,3.28-12,3.28,9.82-3.28,8.73-6.55,8.73-6.55-5.46,5.45-39.29-9.82-39.29-9.82-63.29-22.92-135.32-5.46-135.32-5.46,29.2-3.59,88-6,134.84,30.48A141,141,0,0,1,296.83,137.5Z"/><circle class="cls-4" cx="112.83" cy="23.05" r="10.63"/><circle class="cls-5" cx="111.34" cy="22.31" r="10.63"/><ellipse class="cls-6" cx="111.9" cy="22.87" rx="3.36" ry="5.22"/><path class="cls-7" d="M0,51.71c2.05.77,5.2,1.15,9,2.86,10.53,4.79,14.93,8.26,23,12.31A112.82,112.82,0,0,0,50,74c35.06,8.2,56.7-13.43,56.7-13.43s11.19-10.44,13.42-17.9-14.92-13.43-14.92-13.43c5.23-9.7-3.73-12.68-3.73-12.68S61.72,27,45.23,34Z"/><path class="cls-8" d="M237.35,110.76c13-3.69-3.27-3.27-3.27-3.27l8.73-1.09c10.91-2.18,0-4.37,0-4.37l18.55-2.18c20.73-4.36-1.09-6.55-1.09-6.55l13.09-1.09c16.37-3.27,7.64-6.54,7.64-6.54s-1.09,0,12-3.28S288.64,78,288.64,78s9.82-2.19,15.28-3.28,3.27-3.27,3.27-3.27l12-2.18C334.48,66,299.56,66,299.56,66s3.27,0,12-4.36-7.64-2.19-7.64-2.19c6.55-1.09,8.19-4.91,8.19-4.91s-44.75-3.27-91.67,0-79.12,48.57-79.12,48.57a38.54,38.54,0,0,0-5.5,7.37A7.5,7.5,0,0,0,140,121.26c12,4,29.73,2.6,29.73,2.6S221.52,115.28,237.35,110.76Z"/><path class="cls-9" d="M237.35,110.76c13-3.62-3.27-3.27-3.27-3.27l8.73-1.09c10.91-2.18,0-4.37,0-4.37l18.55-2.18c20.73-4.36-1.09-6.55-1.09-6.55l13.09-1.09c16.37-3.27,7.64-6.54,7.64-6.54s-1.09,0,12-3.28S288.64,78,288.64,78s9.82-2.19,15.28-3.28,3.27-3.27,3.27-3.27l12-2.18C334.48,66,299.56,66,299.56,66s3.27,0,12-4.36-7.64-2.19-7.64-2.19c6.55-1.09,8.19-4.91,8.19-4.91S291.19,53,263,53.11c0,0,35.5,17.28-60.53,57.65l-27.27,12.1S218.2,116.11,237.35,110.76Z"/><path class="cls-10" d="M99.39,72s-19,52.29,8,66.52c0,0-34.74-19.49-27.84-41.1C79.56,97.43,82.21,84.92,99.39,72Z"/><path class="cls-11" d="M101.45,16.26s-36.14,10.07-52,16L0,51.71l10.86,3.75S99,26.65,105.12,29.09C105.12,29.09,110.62,20.54,101.45,16.26Z"/></g></g></svg>