<svg xmlns="http://www.w3.org/2000/svg" viewBox="0 0 333.93 130.2"><defs><style>.cls-1{isolation:isolate;}.cls-2{mix-blend-mode:overlay;}.cls-3{fill:#555d60;}.cls-4{fill:#93b3c6;}.cls-5{fill:#7d97aa;}.cls-6{fill:#445e72;}.cls-7{fill:#969dac;}.cls-8{fill:#d69861;}.cls-9{fill:#1f2b33;}.cls-10{fill:#fff;}</style></defs><g class="cls-1"><g id="Capa_2" data-name="Capa 2"><g id="Capa_1-2" data-name="Capa 1"><g class="cls-2"><path class="cls-3" d="M144.86,0c-1.17,1.23-.66,3.39.62,4.49a8.49,8.49,0,0,0,4.73,1.59A56,56,0,0,0,166,5.58c-1.91,1-1.35,4.16.47,5.29s4.15.84,6.28.52,4.44-.61,6.27.51c-2.07.95-1.9,4.26-.17,5.75s4.23,1.58,6.5,1.43,4.66-.46,6.77.41c-1.75.9-1.87,3.56-.67,5.12s3.22,2.2,5.15,2.53a23,23,0,0,1,5.74,1.22c-1.37.79-1.24,3-.15,4.12a8,8,0,0,0,4.26,1.86l9.74,2.1c-1.43.62-1.42,2.83-.35,4s2.71,1.46,4.24,1.73l8.36,1.46c-1.65,1.71-.69,4.79,1.28,6.12s4.49,1.42,6.87,1.46l-.9,3.07,15.93,8.34c-4,1.4-8.44.94-12.68.47-7.38-.82-14.77-1.64-22.1-2.88-20.81-3.5-40.91-10.3-61.48-15a313,313,0,0,0-49.66-7.28c-3.33-.22-6.72-.4-9.86-1.55s-6-3.47-7-6.67.06-8.24,1.33-11.4c1.37-3.39,5.3-4.65,8.38-6.08A134.62,134.62,0,0,1,144.86,0"/><path class="cls-4" d="M140.09,2.67A81.69,81.69,0,0,0,126.46,9c-4.27,2.35-9,4.85-12.61,8.16a.17.17,0,0,0,.2.27c4.35-2.43,8.31-5.55,12.67-8S135.65,5,140.13,2.76c.05,0,0-.11,0-.09"/><path class="cls-4" d="M161.44,8.1a46.08,46.08,0,0,0-16.91,10.81c-.25.27.09.77.41.53,2.7-2,5.26-4.1,8-6s5.66-3.54,8.5-5.29a0,0,0,0,0,0-.09Z"/><path class="cls-4" d="M161,12.39a37.65,37.65,0,0,0-8.24,4.95c-.23.19.07.55.32.41,2.75-1.56,5.37-3.45,8-5.18.11-.07,0-.23-.11-.18Z"/><path class="cls-4" d="M174.6,13.65a51.12,51.12,0,0,0-14,10.89c-.25.28.14.69.42.42a100.25,100.25,0,0,1,13.73-11.1.12.12,0,0,0-.12-.21Z"/><path class="cls-4" d="M175.23,19.66a13.55,13.55,0,0,0-4.07,3.13c-.15.2.14.47.34.34a17.43,17.43,0,0,0,1.84-1.6c.66-.59,1.32-1.17,2-1.74.07-.06,0-.17-.1-.13Z"/><path class="cls-4" d="M182.82,22.6a58.52,58.52,0,0,0-7.94,6.27.15.15,0,0,0,.2.21c2.63-2.1,5.22-4.24,7.85-6.34.08-.06,0-.2-.11-.14Z"/><path class="cls-4" d="M198.94,29.12a21.28,21.28,0,0,0-11.18,6.71c-.22.23.07.68.36.47,3.57-2.57,6.59-5.58,10.89-6.93a.13.13,0,0,0-.07-.25Z"/><path class="cls-4" d="M207.43,36.58A15.05,15.05,0,0,0,200,40.64c-.2.21.06.58.31.41,1.19-.76,2.31-1.59,3.53-2.31s2.51-1.25,3.75-1.92c.13-.07,0-.26-.11-.24Z"/><path class="cls-4" d="M212.05,37.84a23.52,23.52,0,0,0-11.77,6.9c-.21.22.1.51.34.33a69,69,0,0,1,11.54-7c.15-.08,0-.3-.11-.27Z"/><path class="cls-4" d="M223.63,44.68a20,20,0,0,0-10,4.78.28.28,0,0,0,.33.43,45.3,45.3,0,0,1,9.69-5,.12.12,0,0,0-.06-.23Z"/><path class="cls-4" d="M224.15,48.53a9.46,9.46,0,0,0-4,1.88.33.33,0,0,0,.32.54,29.49,29.49,0,0,0,4-1.76c.38-.18.11-.76-.28-.66Z"/><path class="cls-3" d="M158,121.31c9.56,3.31,19.7,6.66,29.6,4.61-.8-1-.28-2.51.73-3.23a6.77,6.77,0,0,1,3.56-.9l9.16-.57c-1.21-1.9-.19-4.58,1.63-5.91s4.18-1.6,6.43-1.72,4.57-.13,6.63-1a2.42,2.42,0,0,1,.08-3.16,6.33,6.33,0,0,1,3-1.73,42.69,42.69,0,0,1,9.12-2c-.88-2,.48-4.43,2.41-5.49S234.49,99,236.69,99c-.86-2.73,1.36-5.66,4.05-6.62s5.67-.51,8.49,0a2.37,2.37,0,0,1,.9-2.7,6.5,6.5,0,0,1,2.86-1,79.36,79.36,0,0,1,8.43-1.12c-2.69-3-6.92-4-10.89-4.71-32.39-5.78-66.83-2-96.09,13-3.56,1.84-7.16,3.93-9.46,7.22-1.69,2.42-2.56,5.68-1.34,8.38,1.54,3.4,4.75,3.47,7.41,5.36,2.46,1.74,3.79,3.5,6.9,4.57Z"/><path class="cls-4" d="M180.89,124a30.72,30.72,0,0,1-11.9-6.64c-.14-.12-.34.07-.21.2a25.22,25.22,0,0,0,5.66,4.29c1.93,1.08,4.19,2.25,6.45,2.17v0Z"/><path class="cls-4" d="M182.05,120.86a22.21,22.21,0,0,1-6.41-4.26.11.11,0,1,0-.16.16,14.27,14.27,0,0,0,6.51,4.32c.14,0,.2-.17.06-.22Z"/><path class="cls-4" d="M188.13,120a26.19,26.19,0,0,1-7.58-4.69.16.16,0,0,0-.22.22,15.66,15.66,0,0,0,7.77,4.57.05.05,0,0,0,0-.1Z"/><path class="cls-4" d="M197.25,118.6a56.4,56.4,0,0,1-7.32-2.71,38.17,38.17,0,0,1-6.53-4.3c-.18-.14-.43.09-.26.26,3.58,3.64,8.93,6.55,14.1,6.87.07,0,.08-.1,0-.12Z"/><path class="cls-4" d="M198.62,114.08a30.3,30.3,0,0,1-4.22-2.85c-.15-.11-.31.12-.19.24a15.63,15.63,0,0,0,4.23,2.91c.2.09.37-.2.18-.3Z"/><path class="cls-4" d="M202.88,111.28a16.77,16.77,0,0,1-4.9-2.16c-.09-.05-.16.08-.08.14a12,12,0,0,0,4.95,2.13.06.06,0,0,0,0-.11Z"/><path class="cls-4" d="M212.13,111.46c-2.31-.66-4.43-2.27-6.47-3.5s-4.18-2.52-6.3-3.74c-.24-.14-.43.21-.21.36,2.22,1.53,4.5,2.92,6.83,4.28,2,1.12,3.85,2.37,6.11,2.73.08,0,.12-.11,0-.13Z"/><path class="cls-4" d="M213.59,105.8a27.55,27.55,0,0,1-6.22-4,.18.18,0,0,0-.26.25,13.33,13.33,0,0,0,6.42,3.9.08.08,0,0,0,.06-.14Z"/><path class="cls-4" d="M218.38,104.37a35.57,35.57,0,0,1-6.31-2.88.18.18,0,0,0-.18.31,22.93,22.93,0,0,0,6.38,3c.25.08.36-.32.11-.4Z"/><path class="cls-4" d="M223.87,103.89a58.06,58.06,0,0,1-7.62-5c-.17-.12-.35.14-.22.29a22.26,22.26,0,0,0,7.77,4.87c.09,0,.16-.12.07-.17Z"/><path class="cls-4" d="M225.52,100.18c-2.43-1.27-4.62-2.77-6.94-4.22-.29-.18-.55.22-.34.45a13.88,13.88,0,0,0,7.12,4.15c.22,0,.37-.27.16-.38Z"/><path class="cls-4" d="M228.89,98.17a17.87,17.87,0,0,1-5.57-3.81c-.1-.09-.25,0-.15.15a16.24,16.24,0,0,0,5.71,3.69v0Z"/><path class="cls-4" d="M233.74,97.6c-2.89-1.81-5.63-3.84-8.51-5.66-.19-.13-.43.17-.25.32a51.47,51.47,0,0,0,8.63,5.57.13.13,0,0,0,.13-.23Z"/><path class="cls-4" d="M235.17,93.72a31.7,31.7,0,0,1-5.41-5.51c-.17-.19-.42.06-.33.26,1.09,2.37,3.37,4.24,5.53,5.61.23.15.43-.21.21-.36Z"/><path class="cls-4" d="M237.05,91.76c-1.34-1.1-2.48-2.47-3.84-3.53-.16-.12-.45,0-.31.24a16.85,16.85,0,0,0,4,3.45c.1.07.22-.09.13-.16Z"/><path class="cls-4" d="M240.85,89.27c-.72-.57-1.43-1.16-2.17-1.69a16.22,16.22,0,0,0-2.53-1.7c-.32-.14-.67.23-.39.51A14,14,0,0,0,238,88c.84.56,1.72,1.07,2.59,1.58.18.1.39-.16.23-.29Z"/><path class="cls-4" d="M247.57,89.59a51.43,51.43,0,0,1-4.2-3.46c-1.11-1-2.15-2.19-3.34-3.11-.29-.21-.62.19-.47.46,1.63,2.87,5,5,7.84,6.4a.17.17,0,0,0,.17-.29Z"/><path class="cls-4" d="M250.18,86.6a12.34,12.34,0,0,1-2.36-1.1c-.7-.4-1.26-1-1.95-1.4a.38.38,0,0,0-.51.52c.95,1.47,3,2.22,4.68,2.48a.26.26,0,0,0,.14-.5Z"/><path class="cls-3" d="M267.77,61.63a85.68,85.68,0,0,1,50-20.51,49.52,49.52,0,0,1,14.38.88,2.2,2.2,0,0,1,1.67,1c.41.95-.6,1.89-1.52,2.35-2.54,1.25-5.43,1.62-8,2.83a24.19,24.19,0,0,0-6.71,5.31c-5.61,5.77-10.92,12.69-11.3,20.73-.33,7,3.3,13.82,8.27,18.83s11.21,8.55,17.36,12c-2,2.21-5.27,2.75-8.27,2.94-10.61.67-21.17-1.44-31.57-3.66-5.87-1.26-11.94-2.63-16.78-6.19-6-4.38-9.36-11.54-15.23-16-2.11-1.61-4.62-3-5.7-5.4-1.55-3.47,1.12-7.1,4-8.85,3.33-2,6.36-3.66,9.39-6.28Z"/><path class="cls-4" d="M324.36,43.13c-10.43,1.52-20.83,4.87-30.66,8.6a195.06,195.06,0,0,0-28.22,13.36.3.3,0,0,0,.31.51A195.16,195.16,0,0,1,294.5,52c9.79-3.69,19.79-6.17,29.88-8.8.05,0,0-.08,0-.07Z"/><path class="cls-4" d="M316.74,47.51A149.89,149.89,0,0,0,267,69c-.35.23,0,.79.33.57a181,181,0,0,1,23.6-12.79,206.28,206.28,0,0,1,25.9-9.16.08.08,0,0,0,0-.15Z"/><path class="cls-4" d="M306,57.89c-7.83.79-15.69,3.07-23.24,5.2s-15.38,4.4-22.57,7.72c-.19.08-.05.39.14.33,7.58-2.33,15-5.18,22.61-7.37S298.43,60.17,306,58c0,0,0-.1,0-.1Z"/><path class="cls-4" d="M299.25,64.85c-12.92,1.68-26.11,4.76-37.88,10.48a.19.19,0,0,0,.14.34c6.18-2.28,12.23-4.58,18.6-6.34A174.43,174.43,0,0,1,299.26,65c.08,0,.06-.14,0-.13Z"/><path class="cls-4" d="M295.23,72.31c-3.52-.22-7-.27-10.56-.37a95.21,95.21,0,0,0-10.55,0,.33.33,0,0,0,0,.65,90.56,90.56,0,0,0,10.55.1c3.52-.07,7-.1,10.56-.31.06,0,.06-.1,0-.11Z"/><path class="cls-4" d="M314.89,104.14c-9.75-1-19.77-2.39-28.73-6.58-8.21-3.84-15.27-9.42-22-15.39-.33-.29-.8.17-.48.48a80,80,0,0,0,22.71,15.86c9.15,4.08,18.69,4.86,28.53,5.66v0Z"/><path class="cls-4" d="M305.77,99.51c-7.39-1.57-14.51-4.76-21.26-8.1-6.1-3-11.9-6.74-16.25-12.08-.24-.29-.66.13-.42.43,4.4,5.34,10.26,9.06,16.43,12.07,6.82,3.34,14,6.43,21.49,7.73v0Z"/><path class="cls-4" d="M308.25,93.7a59.94,59.94,0,0,1-19.08-4.77,125.23,125.23,0,0,1-16-9.19c-.19-.12-.35.16-.18.29,9.84,7.35,22.58,14.58,35.28,13.8a.07.07,0,1,0,0-.13Z"/><path class="cls-4" d="M300.06,85.78a89.26,89.26,0,0,1-16.64-4.39c-5.63-2.13-10.65-5.17-16-7.9-.2-.1-.45.17-.25.33,4.47,3.59,10,6,15.39,8A75.28,75.28,0,0,0,300,86.14c.2,0,.25-.33.05-.36Z"/><path class="cls-4" d="M296.54,80a45.12,45.12,0,0,1-12.26-2.52c-3.82-1.32-7.36-3.3-11.16-4.62-.38-.14-.6.44-.27.64a55.88,55.88,0,0,0,11.52,4.94A30.54,30.54,0,0,0,296.54,80V80Z"/><path class="cls-5" d="M.1,83.73c-.34-1.82.41-3.66,1.21-5.34C13.77,52,39.37,33.93,66.46,23.12c30.82-12.29,66-16.44,97.23-5.36,18.36,6.5,34.52,17.85,51.37,27.63s35.35,18.23,54.83,18c1.57,0,3.3,0,4.52.94a5.79,5.79,0,0,1,1.6,2.75,25.54,25.54,0,0,1-1.14,18.78,6.51,6.51,0,0,1-2.27,2.94c-2.87,1.77-6.31-.78-9.27-2.38-5.64-3-12.62-2.54-18.63-.35S233.39,92,228,95.42a221.72,221.72,0,0,1-92.54,33.08c-28.79,3.52-58.79,1.36-85.38-10.24-13.16-5.74-25.33-13.71-38.87-18.5-2.71-1-5.58-1.86-7.58-3.92-2.65-2.75-2.1-6.08.15-8.7C2.2,86.42.47,85.69.1,83.73"/><path class="cls-6" d="M19.22,66.55c18.42-12.92,37.55-25.1,58.46-33.39s43.8-12.56,66-9.24c41.85,6.26,76.62,38.21,118.58,43.73,4.89.64,10,1,14.57,2.74A24.69,24.69,0,0,0,276,67a5.74,5.74,0,0,0-1.6-2.75c-1.22-1-3-1-4.52-.94-19.48.26-38-8.2-54.83-18s-33-21.13-51.37-27.63c-31.27-11.08-66.41-6.93-97.23,5.36C39.37,33.85,13.77,52,1.31,78.32.51,80-.24,81.83.1,83.66s2.1,2.69,3.68,3.41c-.15.17-.28.34-.41.51,5.32-.52,10.85-2.7,16.12-2.85A54.18,54.18,0,0,1,44.28,90a35,35,0,0,0-23.23-9h-.63c-2.17,0-4.48,0-6.13-1.36-2.07-1.73-2.12-5.06-.84-7.43s3.56-4,5.77-5.57"/><path class="cls-4" d="M272.43,88.93A6.58,6.58,0,0,0,274.7,86,25.49,25.49,0,0,0,277,77.68a14.49,14.49,0,0,1-10,3.7c-5.26,0-10.26-2.1-15.37-3.36a52.09,52.09,0,0,0-31.74,2.21c-5.27,2.12-10.17,5.09-15.47,7.13-8.21,3.16-17.15,4-25.5,6.76-14.34,4.79-26.27,15.1-40.45,20.33A62.1,62.1,0,0,1,92.41,113c-8.27-3.66-15.77-9.16-24.5-11.52-16-4.34-34.2,2.45-49.15-4.77-2.48-1.19-4.82-2.76-7.49-3.45s-5.89-.24-7.54,2a3.91,3.91,0,0,0-.4.68l.13.14c2,2.06,4.87,3,7.58,3.92,13.53,4.79,25.71,12.76,38.87,18.5,26.59,11.6,56.59,13.77,85.38,10.25a221.92,221.92,0,0,0,92.54-33.09c5.38-3.46,10.68-7.19,16.7-9.38s13-2.67,18.62.36c3,1.59,6.41,4.14,9.28,2.37Z"/><path class="cls-3" d="M116.36,105.46c11.64.09,22.89-3.83,33.87-7.71A9,9,0,0,0,147,90a19.63,19.63,0,0,0-7.89-3.76c-17.86-4.78-37.18.82-55.16-3.48-1.61-.39-3.3-.85-4.87-.34-7.7,2.49,9.78,14.6,12.35,16.1a50.7,50.7,0,0,0,25,7Z"/><path class="cls-3" d="M83,80.24a8.07,8.07,0,0,0-5.84.43,6,6,0,0,0-3.29,4.7c-.17,2.38,1.33,4.57,3.05,6.23a40.71,40.71,0,0,0,9,6c5.78,3.14,11.65,6.31,18.07,7.74a57.91,57.91,0,0,0,12,1.13,65.34,65.34,0,0,0,15.3-1.19,82.81,82.81,0,0,0,19-7.53c-3.53.24-9.22,2.27-12.66,3.1-5.08,1.24-23.51,3.38-27.46,2.84a50.05,50.05,0,0,1-20-7.43c-2.09-1.31-4.23-4.79-5.41-7a77.18,77.18,0,0,0,37.56,11.91c-11.9-2.6-26-5.88-35.15-14,8.56,2.59,19.1,3.47,27.86,1.67-8.81,1.17-13.77.67-23.34-3,3.52-.1,7.42-.37,10.92-.74a36.47,36.47,0,0,1-10.66-1c-3.26-.66-5.81-3-9-3.92Z"/><path class="cls-6" d="M1.93,86.75c1.83,1.4,4.42.9,6.69.49a101.66,101.66,0,0,1,11.17-1.19c2.31-.16,4.62-.31,6.93-.43a22.5,22.5,0,0,1,4.57.1c4.43.67,9,3.12,13.19,4.31a50.33,50.33,0,0,0-30.11-6.12c-3.85.46-7.7,1.38-11.54,1A4.6,4.6,0,0,1,1,84.34,1.89,1.89,0,0,1,0,82.8a5.33,5.33,0,0,0,1.93,4Z"/><path class="cls-7" d="M64.62,30.92c0-.29.06-.58.1-.86a1.74,1.74,0,0,1-.1.86"/><circle class="cls-6" cx="48.26" cy="55.37" r="9.51"/><circle class="cls-8" cx="48.26" cy="55.37" r="7.13"/><circle class="cls-9" cx="48.26" cy="55.37" r="5.09"/><path class="cls-10" d="M44.88,53.74a3.57,3.57,0,0,0-.3,3.47,1.9,1.9,0,0,0,.65.75A1.35,1.35,0,0,0,47,57.58c.63-.93-.08-2.37.61-3.25s1.92-.75,2.22-1.64c.42-1.28-1.18-1.48-2-1.22a5.82,5.82,0,0,0-3,2.27Z"/><path class="cls-6" d="M55.7,55.77S105.23,26,165.5,51c0,0,58.45,22.19,79.48,18.53a133.54,133.54,0,0,1-28.91.23A133.77,133.77,0,0,1,181,61.26,164.12,164.12,0,0,0,134,48.8c-34-3.75-63.18,5-78.3,10.63Z"/><path class="cls-6" d="M69.12,56.62s12.13,18.14-12.2,45.89C56.92,102.51,73.92,73.94,69.12,56.62Z"/><path class="cls-6" d="M62.82,64s7.4,6.31-6,29.34C56.8,93.36,63.91,77.73,62.82,64Z"/></g></g></g></g></svg>