<svg xmlns="http://www.w3.org/2000/svg" viewBox="0 0 428.62 482.91"><defs><style>.cls-1{fill:#d83a3a;}.cls-2{fill:#ededed;}.cls-3{fill:#f9f9f9;}.cls-4{fill:#e0aa32;}.cls-5{fill:#3d7051;}.cls-6{fill:#a53036;}.cls-7{fill:#fcb932;}.cls-8{fill:#26844c;}.cls-9{font-size:14.68px;font-family:AngryBirds-Regular, AngryBirds;}.cls-10{fill:#a3233b;}.cls-11,.cls-23{fill:none;stroke-miterlimit:10;}.cls-11{stroke:#3d3a4c;stroke-width:0.27px;}.cls-12{fill:#b78b6a;}.cls-13{fill:#8e6a47;}.cls-14{fill:#724935;}.cls-15{fill:#485b4c;}.cls-16{fill:#f86112;}.cls-17{fill:#2c4c31;}.cls-18{fill:#c69e39;}.cls-19{fill:#dd410c;}.cls-20{fill:#725033;}.cls-21{fill:#643d2f;}.cls-22{fill:#edc34c;}.cls-23{stroke:#c69e39;stroke-width:0.53px;}.cls-24{fill:#555d60;}.cls-25{fill:#93b3c6;}.cls-26{fill:#7d97aa;}.cls-27{fill:#445e72;}.cls-28{fill:#969dac;}.cls-29{fill:#d69861;}.cls-30{fill:#1f2b33;}.cls-31{fill:#fff;}</style></defs><g id="Capa_2" data-name="Capa 2"><g id="Capa_1-2" data-name="Capa 1"><path class="cls-1" d="M428.62,413.63s-187.46-57.05-240.43-79.46-165-73.36-165-73.36l-4.08-2v-6.12L8.88,244.51H.73L10.92,254.7v4.08S-3.34,277.12.73,328.05c0,0,2,24.45,10.19,28.53s46.86,38.71,46.86,38.71l161,24.45Z"/><path class="cls-2" d="M220.79,482.91S84.27,454.38,53.71,415.67s-42.79-59.09-42.79-59.09,108,57.05,209.87,57.05Z"/><rect class="cls-3" x="220.79" y="413.63" width="207.83" height="69.28"/><path class="cls-3" d="M19.07,264.89s-16.3,73.35,8.15,87.61S84.27,381,139.29,393.26s93.25,20.24,93.25,20.24H403.77L180,336.2S39.45,279.15,19.07,264.89Z"/><path class="cls-4" d="M220.79,428S98.53,411.59,33.33,377c0,0-9.42-4.59-13.88-7.39l-8.53-13s23.11,11.08,34,15.73,47.73,17.95,47.73,17.95,37.23,11.28,47,13.25,36.21,7.38,43.39,7.73,27.55,2.39,35.7,2.39h2Z"/><path class="cls-5" d="M52.1,413.63s109.6,55.89,168.69,57.49v11.79s-21.15-4.64-35-8.43-46.88-13-54.83-16.57-.3-.11-.3-.11-27.39-10.21-32.8-12.93-18.51-8.27-24.18-12.62c0,0-10.63-6.39-16.3-12.51Z"/><path class="cls-2" d="M45.76,346.39s166,69,193.86,64.26l-7.08,2.85-16.89-3.58-61.34-13.34-43.55-10.36s-29.94-8.53-45-14.94-30.28-14-30.28-14Z"/><path class="cls-2" d="M14.17,300s22.16,57.06,57.19,56.4l-36,.68-9.71-5.6s-9.31-5-11.16-25.43S14.17,300,14.17,300Z"/><polygon class="cls-6" points="27.22 338.24 163.74 336.2 194.3 354.54 45.56 356.58 27.22 338.24"/><path class="cls-6" d="M214.68,362.69S259.5,377,290.07,387.14L176,395.29S90.38,372.88,86.31,368.8Z"/><rect class="cls-7" x="220.88" y="413.5" width="207.71" height="14.69"/><rect class="cls-8" x="220.88" y="471.26" width="207.71" height="11.65"/><rect class="cls-6" x="277.62" y="413.5" width="101.83" height="19.76"/><text class="cls-9" transform="matrix(0.99, 0.15, -0.15, 0.99, 180.25, 444.56)">arsh</text><polygon class="cls-10" points="42.23 353.25 181.87 351.19 157.77 336.29 163.64 335.99 194.54 354.74 45.59 356.76 42.23 353.25"/><polygon class="cls-10" points="206.61 363.08 273.57 385.13 166.25 392.72 175.79 395.26 290.29 387.16 214.3 362.84 206.61 363.08"/><path class="cls-2" d="M311.63,381.67S285.54,413.08,220.79,411l11.75,2.49H403.77Z"/><path class="cls-11" d="M153.05,324.69c30.86,27.78,66.87,18.68,94.6,3.27a95.94,95.94,0,0,0,49-87.73,202.73,202.73,0,0,0-7-46.17c-13-47.49-38.8-72.47-27-105.1,1.19-3.32,10.57-28.29,28.53-31.54a25.82,25.82,0,0,1,13.51,1.51s25.52,7.5,28.53,76.57"/><path class="cls-12" d="M262.66,278.14a248.63,248.63,0,0,1-6,42.05,247.34,247.34,0,0,1-9,30l-23.36-3.63s17.36-50.43,8.35-74.45Z"/><path class="cls-13" d="M251.88,337.76s-13.78,10.1-21,9.78,16.78,2.68,16.78,2.68Z"/><path class="cls-13" d="M234.64,280.44s25.35,7.23,26.69,13l1.33-15.28h-28.4Z"/><path class="cls-13" d="M299.14,55.38c0,7.42-6.77,14-9.82,18s-8,.75-8,.75L292.88,53.9l6.26,1.48Z"/><path class="cls-13" d="M276.54,73.34c3.15-6.74,4.34-17.47,4.79-20.62s12.12-15.44,12-11.39-.43,12.57-.43,12.57l-8,13.84-8.38,5.6Z"/><path class="cls-13" d="M219.26,123.31c13.33,15.28,18.06,16.89,31.38,4.68s39-54,39-54-6.16-15.21-12-6c-6.16,9.7-34.63,36.64-39.81,30.95-10.09-11.07-21.13-34.74-34.53-25.54-24.42,16.78,15.93,50,15.93,50Z"/><path class="cls-14" d="M222.8,346.43c-3.15,6.52-6.74,17.31-3.37,18.66s10.34,3,13.72,2.51,5.39-4.08,11.23-1.83,7.65,4.94,20,4.94,18.67-2.7,19.12-5.62-2.93-10.57-11.25-11.24A74.77,74.77,0,0,1,255,349.8l-32.15-3.37Z"/><path class="cls-12" d="M211.61,278.14l-33,81.09h-24s30-75.08,27-81.09Z"/><path class="cls-13" d="M156.32,354.75s23.12,2.62,25.69-4l-3.44,8.44-23.16-1.8Z"/><path class="cls-14" d="M152.76,355.67c-2.58,5.83-5.27,13-.1,17.51s12.36,4.05,15.5,5.85,12.88,11.76,22.72,14.46c15.38,4.23,24.37-8.81,14.47-17.84-7.65-7-25.26-18.43-25.26-18.43l-27.33-1.55Z"/><path class="cls-13" d="M178.07,295.14s27.15-.5,22.83,9.27l9.74-24.23Z"/><path class="cls-15" d="M245.2,205.27c9.13,17.24,22.45,57.47,21.05,73.08-5.42,6.22-36.63,2.8-36.63-.21s.37-8.21.37-8.21c-7.05-12.21-18.24-38.8-18.24-38.8.7,7.9,4.85,39.19,4.85,48.52a117.23,117.23,0,0,1-14,7.5,118.59,118.59,0,0,1-30,9,76.5,76.5,0,0,1,2.59-12.37c.75-2.52.83-1.82.41-5.65-.7-6.46,2.46-21.7-3.31-35.51S154.32,212.41,157.82,188l77.57-21Z"/><path class="cls-16" d="M182.23,65.14c-26.67,6-38.79-.25-44.86,21.65s9.72,74.65,12.13,92.2c3.16,23.1,1.19,23.52,30.92,24.44,23.27.73,56.39-9.39,60-15.45s-13.38-55-13.38-73.23.39-33-8.09-41.41-36.75-8.2-36.75-8.2Z"/><path class="cls-12" d="M167.07,56.31c1.47,7-1.31,9.77-3.35,13.18,0,0,8.82,6.18,23.95,2.89,10.86-2.36,12.05-3.8,4-16.37s-24.64.3-24.64.3Z"/><path class="cls-13" d="M166.48,64.8s20,3.66,28.37-3.47c-.81-1.53-1.8-3.22-3.14-5.32-8-12.57-24.64.3-24.64.3a13.2,13.2,0,0,1-.59,8.45v0Z"/><path class="cls-17" d="M216.6,279.65s-4.15-40.62-4.85-48.52l-10-38.63s-2.16-9.07-2.16-1.44,2.54,84.37-3,99.1Z"/><path class="cls-18" d="M201.55,15.79a6.28,6.28,0,0,1-3.4,7.46c-5,2.46-9.12-9.74-9.12-9.74s9.84-1.71,12.52,2.28Z"/><path class="cls-12" d="M156.66,35.61c-.31-1.42-1.72-2.57-3.1-1.81a3.5,3.5,0,0,0-1.34,3.94c.36,1.42,1.2,2.69,1.58,4.1.46,1.71.26,3.62,1.23,5.13s3.95,1.93,4.53.23c2.31,5.13,5,10.66,10.42,13.08,2.81,1.25,6,1.5,9.16,1.72a42.72,42.72,0,0,0,10.54-.11c3.48-.61,5.06-1.25,7.07-4a21.5,21.5,0,0,0,4-12.64c-.38-7-1.62-10.82-2.35-20.78A15.47,15.47,0,0,0,194,15.09c-4.08-4.27-11.21-5.3-17.2-3.56s-10.95,5.79-14.87,10.35c-3.51,4.11-6.25,8.66-5.26,13.73Z"/><path class="cls-12" d="M276.53,83.39c-7.45-17.53-15.08-3.85-25.13,8.6a49.13,49.13,0,0,1-15.77,12c-4.86,2.37,5.92,6.56,8.77,11.16,6.43-4.67,11.69-8.25,14.76-9.56,12.14-5.18,21.92-11.45,17.37-22.18Z"/><path class="cls-17" d="M235.63,188.05s19.73,86.66,9,93.1c0,0,22.37,3.54,21.69-4.24s-.31-11.39-3.49-23.1-8-27.95-12.34-37.09l-4.59-10.08L240.19,186Z"/><path class="cls-19" d="M182.09,131.5l-38.45-26c11.8,20.8,26.81,83.85,25.84,97.49,3.08.18,6.65.31,10.94.44,23.27.73,56.39-9.39,60-15.45,2.61-4.35-5.41-30.83-10.15-52.15-3.22-4-5.47-6.74-5.47-6.74l-42.74,2.41Z"/><path class="cls-12" d="M289.51,65.23l-.1,0a6.18,6.18,0,0,1-4.05-7.76l4.12-13.17a6.19,6.19,0,0,1,7.76-4.06l.09,0A6.18,6.18,0,0,1,301.39,48l-4.13,13.18a6.18,6.18,0,0,1-7.75,4.06Z"/><path class="cls-20" d="M298.18,40.56a5.48,5.48,0,0,1,.92,4.92l-4.5,14.36a5.57,5.57,0,0,1-7,3.66l-1.29-.41L286.1,63A5.36,5.36,0,0,0,288.82,65l1.28.4a5.56,5.56,0,0,0,7-3.65l4.5-14.36a5.56,5.56,0,0,0-3.4-6.84Z"/><path class="cls-12" d="M253.65,92c2.67,1.47-6,3.9-1.73,9.55s7.29,2.19,4.73,5.46-59.11,48-75.07,47.82-20.12-16.94-27.78-27.38S134,101.49,135.52,87.84c.84-1.62,5.52-10.32,13-10.9,8.86-.68,15.71,10.39,18.72,15.27,2.4,3.87,2.84,5.88,5.31,11.76a175.24,175.24,0,0,0,11.71,23c4.13-3,9.57-7.17,16.93-10,6.54-2.57,18.43-7.8,25.41-9.92,4.35-1.32,12-6,18-9Z"/><path class="cls-12" d="M163.72,69.49S173,81.33,187.9,79.12s8.51-14.51,8.51-14.51l-32.69,4.88Z"/><path class="cls-21" d="M233.15,367.6c2.84-.41,4.75-3,8.78-2.46l-1-.09s-13.43-2.64-22.34-7c-.8,3.53-.82,6.42.82,7.07,3.37,1.35,10.34,3,13.72,2.51Z"/><path class="cls-21" d="M283.51,365.09a8.16,8.16,0,0,0-1-4.28c-5.59,7.19-33.49,5-40.12,4.38a10.81,10.81,0,0,1,2,.58c5.85,2.24,7.65,4.94,20,4.94s18.67-2.7,19.12-5.62Z"/><path class="cls-21" d="M156.67,35.7c2.54,6.4,1.9,15.9,4.63,21.23s15.37,11.66,24.1,12S201.71,54,200.75,45.28l-.66-6.57s.25,6.83-3.19,7.43-8.42-.53-15.48,4.36c-5.33,3.69-15.3.63-17.7-3.58S158,27.35,158,27.35l-1.34,8.35Z"/><path class="cls-12" d="M185.21,52.15c3.12-1.69,8.44-3.37,10.73-2.4s-1.78,10-5.93,10-13-3.1-4.8-7.57Z"/><path class="cls-21" d="M190.88,393.49c11.73,3.23,19.71-3.59,18.47-11-6.11,5.85-5.68,5.86-14.76,5.47s-15.31-9.64-27.75-12.95c-10.59-2.83-15.52-9.59-16.76-11.56-.74,3.63-.42,7.14,2.58,9.74,5.16,4.5,12.36,4.05,15.5,5.85s12.88,11.76,22.72,14.46Z"/><path class="cls-18" d="M161.3,28.85s-3.66,4.32-4.63,6.85c0,0-4.35-6-5.28-11.53s-1.33-8.11,5.38-16.46,19.79-8.46,23.4-7,11.76,8.87,11.76,8.87L161.3,28.85Z"/><path class="cls-22" d="M173.93,14.93c10.36-6,18-5.35,18-5.35,5.09,2.5,7.66,3.6,9.62,6.21A8,8,0,0,0,194,14h0c-4.08,1-6.67,3.88-10.14,6.21s-6.69,5.07-10.41,7c0,0-16.09,11.08-21.41,18.52,0,0-7.36-7.45,1.37-15.68S173.93,14.93,173.93,14.93Z"/><line class="cls-23" x1="153.59" y1="34.03" x2="154.13" y2="53.17"/><line class="cls-23" x1="157.85" y1="30.31" x2="157.85" y2="52.11"/><line class="cls-23" x1="163.7" y1="28.18" x2="166.35" y2="45.72"/><line class="cls-23" x1="166.35" y1="23.93" x2="172.2" y2="38.28"/><line class="cls-23" x1="151.2" y1="35.89" x2="144.82" y2="53.97"/><line class="cls-23" x1="152.26" y1="37.48" x2="149.61" y2="52.9"/><line class="cls-23" x1="152.26" y1="32.7" x2="145.35" y2="44.93"/><line class="cls-23" x1="155.45" y1="33.23" x2="155.45" y2="55.03"/><line class="cls-23" x1="158.64" y1="32.17" x2="163.43" y2="56.09"/><line class="cls-23" x1="161.3" y1="30.57" x2="164.49" y2="45.46"/><line class="cls-23" x1="164.49" y1="26.85" x2="167.68" y2="36.42"/><line class="cls-23" x1="165.02" y1="25.79" x2="168.75" y2="35.89"/><line class="cls-23" x1="167.68" y1="23.13" x2="174.06" y2="31.64"/><line class="cls-23" x1="170.34" y1="22.06" x2="175.13" y2="27.91"/><line class="cls-23" x1="172.47" y1="20.47" x2="178.32" y2="26.85"/><line class="cls-23" x1="191.61" y1="10.9" x2="200.65" y2="17.28"/><line class="cls-23" x1="193.2" y1="10.9" x2="207.03" y2="15.15"/><line class="cls-23" x1="195.86" y1="13.03" x2="207.56" y2="17.28"/><line class="cls-23" x1="191.08" y1="10.37" x2="204.37" y2="10.9"/><line class="cls-23" x1="190.55" y1="11.96" x2="201.18" y2="19.41"/><line class="cls-23" x1="187.89" y1="11.96" x2="202.24" y2="24.19"/><line class="cls-23" x1="186.29" y1="12.49" x2="193.74" y2="22.6"/><line class="cls-23" x1="183.63" y1="11.43" x2="190.55" y2="27.38"/><line class="cls-23" x1="182.04" y1="15.15" x2="186.29" y2="28.45"/><line class="cls-23" x1="178.85" y1="17.81" x2="183.63" y2="30.04"/><line class="cls-23" x1="177.79" y1="18.87" x2="182.04" y2="28.98"/><line class="cls-23" x1="180.44" y1="14.62" x2="186.29" y2="28.45"/><line class="cls-23" x1="175.13" y1="16.22" x2="181.51" y2="28.45"/><line class="cls-23" x1="173.53" y1="17.81" x2="180.44" y2="27.91"/><line class="cls-23" x1="170.34" y1="19.41" x2="177.25" y2="27.38"/><line class="cls-23" x1="167.68" y1="21.53" x2="174.06" y2="30.04"/><line class="cls-23" x1="166.62" y1="22.06" x2="173" y2="34.83"/><line class="cls-23" x1="160.77" y1="24.72" x2="163.96" y2="36.42"/><line class="cls-23" x1="159.18" y1="27.38" x2="161.3" y2="39.08"/><line class="cls-23" x1="155.45" y1="30.57" x2="157.58" y2="44.93"/><line class="cls-23" x1="153.86" y1="31.64" x2="150.67" y2="43.33"/><line class="cls-23" x1="156.52" y1="28.98" x2="161.3" y2="48.12"/><line class="cls-23" x1="157.58" y1="27.38" x2="167.68" y2="32.7"/><line class="cls-23" x1="162.37" y1="24.19" x2="174.06" y2="32.7"/><line class="cls-23" x1="166.09" y1="21.53" x2="179.91" y2="24.72"/><line class="cls-23" x1="170.87" y1="18.87" x2="168.22" y2="33.76"/><line class="cls-23" x1="166.09" y1="24.72" x2="174.06" y2="37.48"/><line class="cls-23" x1="173.53" y1="18.34" x2="184.17" y2="23.66"/><line class="cls-23" x1="178.32" y1="14.62" x2="188.42" y2="19.94"/><line class="cls-23" x1="182.57" y1="12.49" x2="181.51" y2="22.6"/><line class="cls-23" x1="177.79" y1="16.75" x2="185.23" y2="23.13"/><line class="cls-23" x1="185.23" y1="10.37" x2="207.56" y2="21"/><line class="cls-23" x1="188.42" y1="8.77" x2="199.58" y2="17.28"/><line class="cls-23" x1="183.1" y1="10.37" x2="188.95" y2="21.53"/><line class="cls-23" x1="179.38" y1="11.43" x2="190.01" y2="18.34"/><line class="cls-23" x1="177.79" y1="13.56" x2="185.76" y2="32.7"/><line class="cls-23" x1="173" y1="15.68" x2="171.94" y2="26.85"/><line class="cls-23" x1="170.34" y1="16.22" x2="169.28" y2="26.32"/><line class="cls-23" x1="175.13" y1="14.09" x2="184.7" y2="20.47"/><line class="cls-23" x1="173" y1="13.56" x2="180.98" y2="22.06"/><line class="cls-23" x1="170.87" y1="15.68" x2="178.32" y2="23.13"/><line class="cls-23" x1="166.62" y1="17.81" x2="177.25" y2="28.98"/><line class="cls-23" x1="168.22" y1="15.68" x2="174.06" y2="27.38"/><line class="cls-23" x1="176.72" y1="11.43" x2="189.48" y2="21.53"/><line class="cls-23" x1="182.57" y1="7.71" x2="191.61" y2="17.81"/><line class="cls-23" x1="187.89" y1="7.71" x2="200.65" y2="23.66"/><line class="cls-23" x1="159.18" y1="20.47" x2="170.34" y2="35.36"/><line class="cls-23" x1="161.83" y1="17.81" x2="170.87" y2="26.32"/><line class="cls-23" x1="159.71" y1="20.47" x2="176.19" y2="32.17"/><line class="cls-23" x1="167.15" y1="17.81" x2="168.75" y2="34.29"/><line class="cls-23" x1="162.9" y1="18.34" x2="174.06" y2="31.1"/><line class="cls-23" x1="163.43" y1="21.53" x2="168.75" y2="31.1"/><line class="cls-23" x1="158.11" y1="24.19" x2="158.64" y2="38.55"/><line class="cls-23" x1="160.24" y1="21" x2="160.77" y2="35.36"/><line class="cls-23" x1="152.8" y1="26.85" x2="162.37" y2="38.55"/><line class="cls-23" x1="155.45" y1="23.66" x2="147.48" y2="42.8"/><line class="cls-23" x1="153.33" y1="31.64" x2="141.1" y2="40.14"/><line class="cls-23" x1="155.45" y1="28.98" x2="141.1" y2="38.55"/><line class="cls-23" x1="151.73" y1="35.36" x2="141.1" y2="41.21"/><line class="cls-23" x1="152.8" y1="38.02" x2="152.8" y2="52.37"/><line class="cls-23" x1="150.67" y1="41.74" x2="149.07" y2="49.18"/><line class="cls-23" x1="154.92" y1="35.36" x2="144.82" y2="42.8"/><line class="cls-23" x1="183.63" y1="8.77" x2="200.65" y2="8.24"/><line class="cls-23" x1="188.42" y1="9.84" x2="201.18" y2="10.37"/><line class="cls-23" x1="187.36" y1="7.71" x2="194.8" y2="7.18"/><line class="cls-23" x1="154.39" y1="27.91" x2="146.42" y2="40.14"/><line class="cls-23" x1="153.33" y1="27.91" x2="146.95" y2="33.23"/><line class="cls-23" x1="153.86" y1="24.72" x2="146.42" y2="39.08"/><path class="cls-24" d="M363.27,178.6a1.07,1.07,0,0,0-1.48.25,2.76,2.76,0,0,0-.48,1.59,18.43,18.43,0,0,0,.32,5.24c-.35-.62-1.4-.41-1.75.21a3,3,0,0,0-.11,2.09,3.13,3.13,0,0,1-.11,2.1c-.34-.68-1.44-.59-1.91,0a2.93,2.93,0,0,0-.41,2.18,5,5,0,0,1-.07,2.25,1.17,1.17,0,0,0-1.71-.17,2.66,2.66,0,0,0-.79,1.74,7.83,7.83,0,0,1-.35,1.92.92.92,0,0,0-1.37,0,2.59,2.59,0,0,0-.57,1.44c-.21,1.08-.41,2.17-.61,3.25-.22-.46-.95-.44-1.32-.07A2.52,2.52,0,0,0,350,204c-.13.93-.26,1.86-.4,2.79a1.42,1.42,0,0,0-2,.49,4.09,4.09,0,0,0-.42,2.3l-1-.27-2.61,5.38a9.61,9.61,0,0,1-.29-4.21c.2-2.46.4-4.93.74-7.38.95-6.95,3-13.71,4.37-20.6A102.71,102.71,0,0,0,350.28,166a11.7,11.7,0,0,1,.42-3.29,3.65,3.65,0,0,1,2.15-2.39,6.62,6.62,0,0,1,3.8.32c1.14.42,1.6,1.72,2.11,2.73a44.39,44.39,0,0,1,3.52,9.6,42.18,42.18,0,0,1,1,5.68"/><path class="cls-25" d="M362.34,177a27.82,27.82,0,0,0-2.23-4.47,21.68,21.68,0,0,0-2.85-4.11c0-.05-.11,0-.08.07.85,1.42,1.93,2.7,2.78,4.13s1.56,2.92,2.35,4.39c0,0,0,0,0,0"/><path class="cls-25" d="M360.75,184.2a15.31,15.31,0,0,0-3.77-5.52c-.09-.08-.25,0-.17.14.68.88,1.42,1.71,2.06,2.61s1.24,1.85,1.85,2.78c0,0,0,0,0,0Z"/><path class="cls-25" d="M359.32,184.1a12.72,12.72,0,0,0-1.73-2.69c-.07-.07-.19,0-.14.11.55.9,1.21,1.76,1.81,2.62,0,0,.07,0,.06,0Z"/><path class="cls-25" d="M359,188.63a16.85,16.85,0,0,0-3.76-4.56.1.1,0,0,0-.13.15,33.17,33.17,0,0,1,3.83,4.45s.09,0,.06,0Z"/><path class="cls-25" d="M357,188.9a4.47,4.47,0,0,0-1.08-1.32c-.07-.05-.15,0-.11.11a6.31,6.31,0,0,0,.55.6c.2.21.41.42.6.64,0,0,.06,0,0,0Z"/><path class="cls-25" d="M356.14,191.45a19.76,19.76,0,0,0-2.17-2.58s-.1,0-.06.07c.72.86,1.46,1.7,2.18,2.55a0,0,0,0,0,.05,0Z"/><path class="cls-25" d="M354.14,196.88a7.16,7.16,0,0,0-2.35-3.65c-.08-.07-.22,0-.15.12a13.11,13.11,0,0,1,2.41,3.55,0,0,0,0,0,.09,0Z"/><path class="cls-25" d="M351.74,199.78a5.05,5.05,0,0,0-1.43-2.45c-.07-.07-.19,0-.13.11.26.39.55.75.8,1.15s.45.82.68,1.22a0,0,0,0,0,.08,0Z"/><path class="cls-25" d="M351.37,201.33a7.88,7.88,0,0,0-2.42-3.85c-.07-.07-.17,0-.1.12a23.66,23.66,0,0,1,2.43,3.76,0,0,0,0,0,.09,0Z"/><path class="cls-25" d="M349.21,205.25a6.69,6.69,0,0,0-1.69-3.27.09.09,0,0,0-.14.12,14.86,14.86,0,0,1,1.75,3.17,0,0,0,0,0,.08,0Z"/><path class="cls-25" d="M347.94,205.46a3.24,3.24,0,0,0-.67-1.32.11.11,0,0,0-.18.11,9.27,9.27,0,0,0,.63,1.31c.06.12.25,0,.22-.1Z"/><path class="cls-24" d="M323.06,184.18c-1,3.21-2,6.61-1.23,9.89a.78.78,0,0,1,1.08.21,2.24,2.24,0,0,1,.33,1.17c.1,1,.19,2,.29,3a1.55,1.55,0,0,1,2,.48,4,4,0,0,1,.64,2.13,6.25,6.25,0,0,0,.4,2.19.82.82,0,0,1,1.06,0,2.08,2.08,0,0,1,.6,1,13.58,13.58,0,0,1,.77,3,1.56,1.56,0,0,1,1.86.74,4.53,4.53,0,0,1,.44,2.13,1.92,1.92,0,0,1,2.24,1.28,5.6,5.6,0,0,1,.1,2.82.8.8,0,0,1,.91.27,2.26,2.26,0,0,1,.37.94,24.38,24.38,0,0,1,.46,2.8,6.18,6.18,0,0,0,1.46-3.67c1.59-10.83,0-22.25-5.3-31.83a8.33,8.33,0,0,0-2.5-3.07,2.92,2.92,0,0,0-2.8-.36c-1.11.54-1.11,1.61-1.71,2.52a8.39,8.39,0,0,0-1.45,2.34Z"/><path class="cls-25" d="M322.41,191.83a10.13,10.13,0,0,1,2.09-4c0-.05,0-.11-.07-.07a8.39,8.39,0,0,0-1.37,1.92,4.37,4.37,0,0,0-.66,2.17Z"/><path class="cls-25" d="M323.46,192.19a7.36,7.36,0,0,1,1.35-2.18s0-.08-.06,0a4.81,4.81,0,0,0-1.37,2.21c0,.05.06.06.08,0Z"/><path class="cls-25" d="M323.81,194.2a8.57,8.57,0,0,1,1.48-2.57.05.05,0,0,0-.08-.07,5.26,5.26,0,0,0-1.44,2.63,0,0,0,0,0,0,0Z"/><path class="cls-25" d="M324.36,197.22a17.79,17.79,0,0,1,.83-2.46,13,13,0,0,1,1.36-2.22.06.06,0,1,0-.09-.08,7.66,7.66,0,0,0-2.14,4.76s0,0,0,0Z"/><path class="cls-25" d="M325.87,197.63a10.17,10.17,0,0,1,.91-1.43s0-.1-.08-.06a5,5,0,0,0-.92,1.43c0,.07.06.12.09.06Z"/><path class="cls-25" d="M326.85,199a5.67,5.67,0,0,1,.67-1.65s0-.06,0,0a4.18,4.18,0,0,0-.66,1.67,0,0,0,0,0,0,0Z"/><path class="cls-25" d="M326.88,202.09a9.7,9.7,0,0,1,1.1-2.18c.4-.71.8-1.42,1.18-2.13,0-.08-.07-.14-.12-.07-.48.75-.93,1.53-1.35,2.32a6,6,0,0,0-.85,2.05s0,0,0,0Z"/><path class="cls-25" d="M328.78,202.53a9.1,9.1,0,0,1,1.27-2.12.06.06,0,0,0-.08-.08,4.43,4.43,0,0,0-1.24,2.18s0,0,0,0Z"/><path class="cls-25" d="M329.31,204.1a11.6,11.6,0,0,1,.89-2.12.06.06,0,0,0-.11-.06,7.59,7.59,0,0,0-.92,2.15.07.07,0,0,0,.14,0Z"/><path class="cls-25" d="M329.52,205.92a20,20,0,0,1,1.58-2.58c0-.06-.05-.12-.1-.07a7.57,7.57,0,0,0-1.54,2.63,0,0,0,0,0,.06,0Z"/><path class="cls-25" d="M330.77,206.44c.4-.82.88-1.57,1.33-2.35.06-.1-.07-.18-.15-.12a4.69,4.69,0,0,0-1.31,2.42c0,.07.1.12.13.05Z"/><path class="cls-25" d="M331.47,207.54a6.21,6.21,0,0,1,1.21-1.9,0,0,0,1,0-.05,0,5.38,5.38,0,0,0-1.17,1.93Z"/><path class="cls-25" d="M331.71,209.14c.57-1,1.22-1.91,1.8-2.88,0-.07-.06-.15-.11-.08a16.07,16.07,0,0,0-1.76,2.92,0,0,0,1,0,.07,0Z"/><path class="cls-25" d="M333,209.58a11.2,11.2,0,0,1,1.78-1.86c.06-.05,0-.13-.08-.1a4.8,4.8,0,0,0-1.82,1.89.07.07,0,0,0,.12.07Z"/><path class="cls-25" d="M333.69,210.19c.35-.46.79-.85,1.13-1.32,0-.05,0-.15-.08-.1a5.52,5.52,0,0,0-1.11,1.38s0,.07.06,0Z"/><path class="cls-25" d="M334.55,211.42a7.77,7.77,0,0,0,.54-.74,4.51,4.51,0,0,0,.54-.85.11.11,0,0,0-.17-.13,4.89,4.89,0,0,0-.51.77c-.17.29-.33.59-.49.88,0,.06.05.13.09.07Z"/><path class="cls-25" d="M334.52,213.66c.34-.49.71-1,1.1-1.43s.71-.74,1-1.14c.07-.1-.07-.21-.16-.15a6.07,6.07,0,0,0-2,2.67c0,.07.05.11.1,0Z"/><path class="cls-25" d="M335.54,214.5a4,4,0,0,1,.34-.8c.12-.23.32-.42.44-.66s-.07-.24-.17-.16a2.31,2.31,0,0,0-.78,1.58.09.09,0,0,0,.17,0Z"/><path class="cls-24" d="M344,220.1a28.45,28.45,0,0,1,7.32,16.42,16.43,16.43,0,0,1-.14,4.8c-.05.22-.12.47-.33.56s-.64-.18-.8-.48c-.44-.83-.59-1.79-1-2.63a8.11,8.11,0,0,0-1.83-2.18c-2-1.81-4.33-3.5-7-3.55A8.64,8.64,0,0,0,334,236a25.61,25.61,0,0,0-3.82,5.9,4,4,0,0,1-1.06-2.72,39,39,0,0,1,.9-10.54,14.28,14.28,0,0,1,1.89-5.64c1.39-2,3.74-3.23,5.17-5.23a5.48,5.48,0,0,1,1.74-1.95c1.14-.55,2.37.3,3,1.24A20.8,20.8,0,0,0,344,220.1Z"/><path class="cls-25" d="M350.74,238.73a49.23,49.23,0,0,0-3.17-10.11,65,65,0,0,0-4.73-9.25c-.06-.11-.23,0-.16.11a65.14,65.14,0,0,1,4.81,9.41,97.71,97.71,0,0,1,3.23,9.85s0,0,0,0Z"/><path class="cls-25" d="M349.21,236.24a49.86,49.86,0,0,0-7.67-16.34c-.08-.11-.26,0-.18.12a60.51,60.51,0,0,1,4.49,7.71,70.62,70.62,0,0,1,3.31,8.53s.06,0,0,0Z"/><path class="cls-25" d="M345.65,232.78a45.46,45.46,0,0,0-2-7.67,50.33,50.33,0,0,0-2.79-7.43c0-.06-.13,0-.11,0,.85,2.5,1.87,4.93,2.68,7.45s1.35,5.1,2.15,7.61a0,0,0,0,0,0,0Z"/><path class="cls-25" d="M343.26,230.6a40.83,40.83,0,0,0-3.86-12.49c0-.06-.14,0-.11,0,.82,2,1.64,4,2.29,6.12a57.08,57.08,0,0,1,1.64,6.33s0,0,0,0Z"/><path class="cls-25" d="M340.74,229.34c0-1.17,0-2.34,0-3.52a31.67,31.67,0,0,0-.12-3.51.11.11,0,0,0-.22,0,31.58,31.58,0,0,0,.08,3.51c.06,1.17.1,2.34.21,3.51a0,0,0,1,0,0,0Z"/><path class="cls-25" d="M330.36,236.2a29.43,29.43,0,0,1,1.89-9.62,31.42,31.42,0,0,1,4.9-7.49c.09-.11-.07-.26-.16-.15a26.58,26.58,0,0,0-5.05,7.71c-1.26,3.09-1.43,6.27-1.59,9.55Z"/><path class="cls-25" d="M331.8,233.12a30.76,30.76,0,0,1,2.48-7.15,15.84,15.84,0,0,1,3.86-5.53c.09-.08-.05-.22-.15-.14a16,16,0,0,0-3.85,5.59,26.74,26.74,0,0,0-2.35,7.23Z"/><path class="cls-25" d="M333.76,233.89a19.79,19.79,0,0,1,1.4-6.4,41.41,41.41,0,0,1,2.89-5.42c0-.07-.06-.11-.1-.06-2.34,3.35-4.62,7.66-4.23,11.88,0,0,0,0,0,0Z"/><path class="cls-25" d="M336.31,231.08a30.33,30.33,0,0,1,1.29-5.58,53.47,53.47,0,0,1,2.47-5.39c0-.07-.06-.15-.11-.08a18.39,18.39,0,0,0-2.51,5.2,25.36,25.36,0,0,0-1.26,5.84c0,.06.11.08.12,0Z"/><path class="cls-25" d="M338.21,229.85a15,15,0,0,1,.72-4.1c.4-1.28,1-2.48,1.42-3.76a.11.11,0,0,0-.21-.08,17.81,17.81,0,0,0-1.53,3.88,10.18,10.18,0,0,0-.42,4.06Z"/><path class="cls-26" d="M334,131.3a3,3,0,0,1,1.79.35c8.89,3.88,15.17,12.21,19,21.11,4.4,10.12,6.14,21.77,2.77,32.28-2,6.17-5.59,11.66-8.67,17.36s-5.71,11.95-5.43,18.42a2.28,2.28,0,0,1-.26,1.51,1.84,1.84,0,0,1-.9.56,8.47,8.47,0,0,1-6.26-.19,2.14,2.14,0,0,1-1-.72c-.62-.94.2-2.11.7-3.11a7.69,7.69,0,0,0-.07-6.2,29.23,29.23,0,0,0-3.29-5.46,73.75,73.75,0,0,1-11.94-30.44c-1.46-9.54-1-19.54,2.55-28.5,1.77-4.43,4.3-8.56,5.76-13.11A6.16,6.16,0,0,1,330,132.6a2,2,0,0,1,2.89,0c.22-.53.45-1.12,1.1-1.26"/><path class="cls-27" d="M339.87,137.49c4.49,6,8.73,12.23,11.7,19.1s4.62,14.44,3.74,21.87c-1.66,14-11.94,25.87-13.35,39.88a20.63,20.63,0,0,1-.76,4.87,7.17,7.17,0,0,0,1.12-.32,1.84,1.84,0,0,0,.9-.56,2.28,2.28,0,0,0,.27-1.51c-.29-6.47,2.34-12.72,5.42-18.42s6.69-11.19,8.67-17.36c3.37-10.51,1.64-22.16-2.76-32.28-3.87-8.9-10.15-17.23-19-21.11a3,3,0,0,0-1.79-.35c-.65.14-.87.73-1.1,1.26a1.09,1.09,0,0,0-.17-.13c.23,1.76,1,3.58,1.11,5.33a18.07,18.07,0,0,1-1.49,8.3,11.7,11.7,0,0,0,2.78-7.82V138a3.1,3.1,0,0,1,.39-2.05,2,2,0,0,1,2.46-.36,5.78,5.78,0,0,1,1.91,1.87"/><path class="cls-25" d="M335,221.92a2.13,2.13,0,0,0,1,.73,8.33,8.33,0,0,0,2.78.67,4.82,4.82,0,0,1-1.33-3.27,22.81,22.81,0,0,1,1-5.15,17.29,17.29,0,0,0-1-10.53c-.76-1.74-1.8-3.33-2.53-5.08-1.13-2.7-1.5-5.66-2.51-8.41-1.73-4.72-5.28-8.58-7.16-13.25a20.62,20.62,0,0,1,0-15.33c1.13-2.79,2.88-5.34,3.58-8.27,1.28-5.37-1.16-11.35,1.09-16.39a14.32,14.32,0,0,0,1.07-2.53,2.4,2.4,0,0,0-.73-2.49.84.84,0,0,0-.23-.12l0,0a6.22,6.22,0,0,0-1.23,2.56c-1.45,4.55-4,8.68-5.76,13.12-3.59,8.95-4,18.95-2.54,28.49a73.78,73.78,0,0,0,11.93,30.45,28.4,28.4,0,0,1,3.29,5.46,7.67,7.67,0,0,1,.07,6.19c-.5,1-1.31,2.18-.69,3.11Z"/><path class="cls-24" d="M327.91,170.18c.09,3.88,1.51,7.58,2.91,11.19a2.94,2.94,0,0,0,2.55-1.17,6.39,6.39,0,0,0,1.17-2.66c1.42-6-.64-12.35.61-18.38a3.08,3.08,0,0,0,.06-1.62c-.91-2.53-4.76,3.4-5.23,4.27a16.87,16.87,0,0,0-2.07,8.37Z"/><path class="cls-24" d="M336,158.82a2.66,2.66,0,0,0-.2-1.94,2,2,0,0,0-1.59-1,2.8,2.8,0,0,0-2.05,1.08,13.61,13.61,0,0,0-1.9,3.06,23.39,23.39,0,0,0-2.39,6.09,19.79,19.79,0,0,0-.26,4,22.13,22.13,0,0,0,.55,5.07,27.4,27.4,0,0,0,2.7,6.24,32.86,32.86,0,0,0-1.16-4.18,51.42,51.42,0,0,1-1.22-9.1,16.76,16.76,0,0,1,2.27-6.72,7,7,0,0,1,2.26-1.86,25.71,25.71,0,0,0-3.59,12.61c.75-4,1.7-8.71,4.32-11.83a19.82,19.82,0,0,0-.28,9.28,13.33,13.33,0,0,1,.76-7.79c.07,1.16.2,2.46.36,3.62a12.18,12.18,0,0,1,.21-3.56c.19-1.09.95-2,1.21-3Z"/><path class="cls-27" d="M333,131.94a2.81,2.81,0,0,0-.09,2.23,32.88,32.88,0,0,1,.5,3.7c.08.77.15,1.54.22,2.3a7.73,7.73,0,0,1,0,1.52,37.73,37.73,0,0,1-1.3,4.43,16.73,16.73,0,0,0,1.73-10.07,16.66,16.66,0,0,1-.43-3.83,1.66,1.66,0,0,1,.15-.62.64.64,0,0,1,.5-.34,1.76,1.76,0,0,0-1.29.68Z"/><path class="cls-28" d="M352.18,152.22l.29,0a.59.59,0,0,1-.29,0"/><circle class="cls-27" cx="343.88" cy="147.03" r="3.16"/><circle class="cls-29" cx="343.88" cy="147.03" r="2.37"/><circle class="cls-30" cx="343.88" cy="147.03" r="1.69"/><path class="cls-31" d="M344.39,145.89a1.16,1.16,0,0,0-1.15-.06.59.59,0,0,0-.25.22.45.45,0,0,0,.15.58c.31.2.78,0,1.08.17s.27.63.57.72.48-.4.39-.66a1.89,1.89,0,0,0-.79-1Z"/><path class="cls-27" d="M343.83,149.51a43.06,43.06,0,0,1,2.7,36.47s-6.78,19.66-5.36,26.62a44.48,44.48,0,0,1,2.1-21.37,54.6,54.6,0,0,0,3.66-15.75,57.57,57.57,0,0,0-4.32-25.93Z"/><path class="cls-27" d="M343.68,154s-5.91,4.22-15.38-3.6C328.3,150.38,338,155.75,343.68,154Z"/><path class="cls-27" d="M341.15,152s-2,2.52-9.82-1.71C331.33,150.25,336.61,152.46,341.15,152Z"/></g></g></svg>