<svg xmlns="http://www.w3.org/2000/svg" viewBox="0 0 244.91 101.69"><defs><style>.cls-1{isolation:isolate;}.cls-2{mix-blend-mode:overlay;}.cls-3{fill:#555d60;}.cls-4{fill:#93b3c6;}.cls-5{fill:#7d97aa;}.cls-6{fill:#445e72;}.cls-7{fill:#d69861;}.cls-8{fill:#1f2b33;}.cls-9{fill:#fff;}</style></defs><g class="cls-1"><g id="Capa_2" data-name="Capa 2"><g id="Capa_1-2" data-name="Capa 1"><g class="cls-2"><path class="cls-3" d="M119.82,21.76c1.05.18,2.07.49,3.1.74-1,2.64-3.64,4.24-6.18,5.45a34.86,34.86,0,0,1-7.84,2.78,48.54,48.54,0,0,1-7.81.8q-14.7.64-29.42.5A7.78,7.78,0,0,1,68,31.39c-2.89-1.54-1.26-6.34-.6-8.77a44.61,44.61,0,0,1,4.12-9.77c1-1.8,6.7-11.12,7.81-12.85C79.71,5.85,104.08,19,119.82,21.76Z"/><path class="cls-4" d="M79.83,2.71A31.13,31.13,0,0,0,74.59,13a37.72,37.72,0,0,0-1.33,5.77c-.14.92-.25,1.85-.32,2.79a9.3,9.3,0,0,0,0,2.93.2.2,0,0,0,.38,0,13.63,13.63,0,0,0,.15-2.64c.06-1,.17-2.07.32-3.1A38.47,38.47,0,0,1,75,13.28,50.62,50.62,0,0,1,79.89,2.76s0-.08-.06,0"/><path class="cls-4" d="M80.93,5.94A36.76,36.76,0,0,0,75.45,25.4a.34.34,0,0,0,.67,0,47.86,47.86,0,0,1,1.36-10A55.83,55.83,0,0,1,81,6h0"/><path class="cls-4" d="M83.24,11.26a21,21,0,0,0-2.88,5.9,19.56,19.56,0,0,0-1.17,6.46.18.18,0,0,0,.35.05c.53-2.1.86-4.24,1.51-6.32s1.51-4,2.31-6c0-.07-.07-.1-.12-.05"/><path class="cls-4" d="M88.84,14.09a8.23,8.23,0,0,0-2.09,3.37,14.22,14.22,0,0,0-1,4.2.2.2,0,0,0,.39.05c.46-1.23.58-2.59,1-3.85a15.24,15.24,0,0,1,1.71-3.74s0,0,0,0Z"/><path class="cls-4" d="M92.21,15.52a25.85,25.85,0,0,0-2.58,6c0,.16.19.27.27.12a54.4,54.4,0,0,0,2.38-6.06s0-.07-.07,0Z"/><path class="cls-4" d="M97.12,17A8.59,8.59,0,0,0,96,20.24c0,.14.22.22.28.08.44-1,.63-2.16,1.1-3.2.07-.16-.16-.31-.24-.14Z"/><path class="cls-3" d="M145.09,13.4a7.48,7.48,0,0,1,3.77-1.22c-3,1.74-6.1,3.66-7.56,6.78a12.22,12.22,0,0,0-1,4.34,6.89,6.89,0,0,0,.53,3.71,6.67,6.67,0,0,0,1.7,1.93,19.59,19.59,0,0,0,2.59,1.84c.65.38,1.4.85,1.46,1.6a2,2,0,0,1-.86,1.51,8.83,8.83,0,0,1-5.11,1.83,21.08,21.08,0,0,1-5.47-.58,66.58,66.58,0,0,1-8.42-2.36c-1.87-.67-4-1.93-2.94-4.25.91-2.1,4-3.77,5.81-5.11q3.47-2.62,7.11-5,4.1-2.67,8.39-5Z"/><path class="cls-3" d="M172.2,37.51A5.38,5.38,0,0,0,169,39.28c4.51-.16,9.18-.29,13.38,1.36-1.62.11-3.54.4-4.26,1.85a23.32,23.32,0,0,1,12.44.92A7.73,7.73,0,0,0,186.93,45a16.63,16.63,0,0,1,9.67.71,5.76,5.76,0,0,0-3.2,1.23c2.68-.4,5.5-.79,8,.2a7.05,7.05,0,0,0-3.93,2.2,16.07,16.07,0,0,1-2.09,2.4c-1.4,1.05-3.3,1-5.05.92a114.31,114.31,0,0,1-16.73-1.83A44.09,44.09,0,0,1,158,44.66c-1.12-.74-2.31-1.79-2.19-3.13.21-2.37,3.66-4.37,5.79-4.66a27.24,27.24,0,0,1,10.56.64Z"/><path class="cls-3" d="M157.71,65.55a37.88,37.88,0,0,0,10.06,1.06.9.9,0,0,1-1.12-.83,1.43,1.43,0,0,1,.85-1.27,4.06,4.06,0,0,1,1.58-.33,46.52,46.52,0,0,1,7.83.21c-.71-.11-1.56-.31-1.81-1a1.4,1.4,0,0,1,.64-1.57,4,4,0,0,1,1.75-.49,27.83,27.83,0,0,1,8.2,0,2.36,2.36,0,0,1-.92-.66.8.8,0,0,1,.07-1,1.15,1.15,0,0,1,.52-.18,31.54,31.54,0,0,1,9.65-.08c-.76.11-1.17-1-.72-1.67a2.79,2.79,0,0,1,2.06-.87,36.17,36.17,0,0,1,6-.06c-.66.25-1.38-.51-1.24-1.2a1.56,1.56,0,0,1,1.58-1.12,33.51,33.51,0,0,0-7.75.14c-5.73.54-11.47,1.08-17.19,1.74a106.51,106.51,0,0,0-15.08,2.57c-2.68.72-5.53,1.77-7,4.12-1,1.62.69,2.21,2.06,2.55Z"/><path class="cls-3" d="M213.39,41.5c4.53-5.11,8.78-10.5,13.82-15.11s11-8.46,17.7-9.79c-6.06,5.1-10.59,11.82-14,19-2.43,5.15-4.32,10.66-4.5,16.35A39.41,39.41,0,0,0,228,63.34c2.58,9.62,7.53,18.73,14.86,25.49-13.08-4.58-20.58-16.19-24.74-20.51-2.46-2.57-4.55-5.47-7.09-8a31.52,31.52,0,0,0-10.27-6.72c-1.39-.55-3.24-1.43-2.67-3.27.38-1.21,1.31-1.22,2.4-1.17,3.34.13,6.1-1.33,8.62-3.43a40.13,40.13,0,0,0,4.29-4.26Z"/><path class="cls-3" d="M132.11,67.85a50.08,50.08,0,0,0,11.71,12,26.35,26.35,0,0,0,15.79,5c-3.24-2.41-6.62-5-8.22-8.7-.87-2-1.08-4.55.33-6.23s3.66-2,5-3.51A26.27,26.27,0,0,0,139.5,63a8.06,8.06,0,0,0-4.26,1.67,3.45,3.45,0,0,0-.92,4.18c.08.13.22.27.36.21s-.07-.33-.11-.18l-2.46-1Z"/><path class="cls-3" d="M72.61,86.33A78,78,0,0,0,78,95.54c2.12,2.84,5,5.32,8.43,6.15a3.91,3.91,0,0,1-1.83-2.28,11.79,11.79,0,0,1-.46-3,21.06,21.06,0,0,1,0-4.49c.23-1.5.77-2.94,1-4.43a5.86,5.86,0,0,0-.68-4.39,7.09,7.09,0,0,0-2.11-1.77A35.42,35.42,0,0,0,71,76.86a7.89,7.89,0,0,0-4,0c-.34.11-1.12.46-1.18.89s.12.28.4.58c.71.76,1.75,1.37,2.48,2.21a33.18,33.18,0,0,1,3.91,5.83Z"/><path class="cls-5" d="M.1,53.34A138.15,138.15,0,0,1,152.22,32.86c8.4,4.11,17.33,7.08,25.83,11,9,4.13,18.77,3.26,35.13,6.3-1.38,4.34.83,4.9-6.27,5.1-33.95,1-64,20.5-96.62,25.53-10.25,1.59-20.66,1.57-31,1.56C71.17,82.32,63,82.3,55,81c-9.2-1.47-18-4.58-26.84-7.67C18.62,70,8.94,66.58.32,61.21c3.87-.47,10-.09,13.4-1.85-4.06-2.55-9.2-4.1-13.62-6"/><path class="cls-3" d="M81,43.37c6.7-.15,13.76.81,19.16,4.78a14,14,0,0,0-8.57,2.76c-1.52,1.13-2.8,2.57-4.4,3.57s-3.72,1.51-5.37.59a13,13,0,0,1-2.62-2.56,12.49,12.49,0,0,0-8-3.24c-2.91-.24-5.84.09-8.77.06a1.93,1.93,0,0,1-1.56-.52,1.33,1.33,0,0,1,.35-1.72c2.13-1.79,6.24-2.13,8.87-2.61A69.54,69.54,0,0,1,81,43.37Z"/><path class="cls-5" d="M213.18,50.14c-16.36-3-26.16-2.17-35.13-6.3-8.5-3.9-17.43-6.87-25.83-11A138.15,138.15,0,0,0,.1,53.34c2.48,1.08,5.19,2,7.81,3.13.39-1.5,0-3.41,1.08-4.78,1.45-1.88,3.75-2.85,5.95-3.72C52.81,33,95.38,24.82,134.25,37c9,2.83,17.69,6.7,26.81,9.15,8.57,2.3,17.42,3.3,26.23,4.3l25.23,2.86a20.86,20.86,0,0,1,.66-3.17"/><path class="cls-6" d="M73,22.59a139.14,139.14,0,0,1,79.17,12.82c8.4,4.12,17.33,7.08,25.83,11,8.87,4.08,18.54,4,34.57,6.91.1-.65,1.25-2.35,1.57-3.38-16.36-3-27.16-2-36.14-6.12-8.5-3.9-17.43-6.87-25.83-11A138.15,138.15,0,0,0,0,53.31l2,.84A139.13,139.13,0,0,1,73,22.59"/><path class="cls-4" d="M204.07,55a21.21,21.21,0,0,0-6.06-.39c-33,1.65-65.77,6-98.4,11.14C89.5,67.31,79.34,69,69.1,68.85c-18.95-.24-37.32-6.61-56-9.57C9.63,60.68,4,60.38.39,60.82,9,66.19,18.69,69.6,28.27,73c8.79,3.1,17.64,6.2,26.84,7.67,8,1.27,16.13,1.29,24.22,1.3,10.37,0,20.78,0,31-1.56C142,75.49,171.3,56.93,204.07,55Z"/><path class="cls-6" d="M57,51.78c.8,6.09.36,13.25-4.14,17-5.48,4.61-13.58,1.68-20.23,3.87C38.39,71.6,44.18,75.86,50,74.82s10-7.53,10.55-13.95-1.46-12.76-3.72-18.74a107.88,107.88,0,0,0-5.76-13.05c.68,1.27.13,4.15.78,5.76.56,1.41,1.5,2.55,2.08,4A55.87,55.87,0,0,1,57,51.78Z"/><path class="cls-6" d="M47.14,65A13.24,13.24,0,0,0,51,56.78a39.46,39.46,0,0,0-.35-9.27q-.39-3.46-.8-6.91c.67,3.34,1.25,6.71,1.72,10.1.66,4.77,1,10-1.62,14a5.44,5.44,0,0,1-2,1.93,8.65,8.65,0,0,1-2.16.75c-2.24.58-1.56.39-7,0,3,.22,6.14-.37,8.34-2.38Z"/><path class="cls-6" d="M1,53.85a13.75,13.75,0,0,1,2.64,1.36,32.21,32.21,0,0,0,3.25,1.41,30.55,30.55,0,0,1,6.76,3.9,1.73,1.73,0,0,0,.93.45,1.53,1.53,0,0,0,.94-.4A11,11,0,0,0,17,59.18a.44.44,0,0,0,.16-.39c0-.18-.28-.23-.47-.25-3.6-.33-6.93-1.95-10.28-3.31-1.31-.54-2.64-1-4-1.51a5.59,5.59,0,0,0-1.94-.6c-.9.11.21.64.5.73Z"/><path class="cls-6" d="M14,59.26a2.46,2.46,0,0,1,.14.55A23.8,23.8,0,0,1,2.78,61.12a16.26,16.26,0,0,0,4.06-.21A43.78,43.78,0,0,0,11.4,60c.87-.22,1.72-.47,2.57-.74Z"/><path class="cls-4" d="M82.6,98.43c-1.09-1.54-2.36-3-3.46-4.48a54.14,54.14,0,0,1-7.56-15.14.14.14,0,0,0-.27.08A54.13,54.13,0,0,0,75.86,89.3a53,53,0,0,0,3,4.78,27.87,27.87,0,0,0,3.63,4.39s.08,0,.06,0Z"/><path class="cls-4" d="M81.86,94.64a36.41,36.41,0,0,1-5.24-7,34.45,34.45,0,0,1-1.91-3.85c-.57-1.37-.94-2.8-1.48-4.18a.13.13,0,0,0-.25.07,20.73,20.73,0,0,0,1.43,4,37.46,37.46,0,0,0,7.4,11s.08,0,0,0Z"/><path class="cls-4" d="M82.3,89.07a20.61,20.61,0,0,1-4.71-3.87A27.73,27.73,0,0,1,74.46,80c-.08-.14-.29,0-.26.11a12.23,12.23,0,0,0,3.09,5.39,13.75,13.75,0,0,0,5,3.63s.06,0,0-.06Z"/><path class="cls-4" d="M80.35,85.82a17.51,17.51,0,0,1-2.89-2.62A36.89,36.89,0,0,1,75.24,80c-.09-.13-.35-.06-.28.12.9,2.42,3.2,4.44,5.36,5.74,0,0,.07,0,0-.06Z"/><path class="cls-4" d="M153.22,82.77a54.9,54.9,0,0,1-10-5.33A35.73,35.73,0,0,1,138.76,74a45.22,45.22,0,0,1-3.73-4.1c-.12-.14-.36,0-.26.2a27.91,27.91,0,0,0,8.09,7.44,72,72,0,0,0,10.35,5.28Z"/><path class="cls-4" d="M150.43,79.49a39.41,39.41,0,0,1-7.6-3.94,35.18,35.18,0,0,1-3.42-2.66c-1-.93-1.95-2-3-3-.11-.09-.32,0-.22.17a17.92,17.92,0,0,0,3,3,35.31,35.31,0,0,0,3.39,2.59,30.09,30.09,0,0,0,7.84,3.8v0Z"/><path class="cls-4" d="M145.74,74.87a24.34,24.34,0,0,1-6.5-4.21.1.1,0,0,0-.14.15,17.86,17.86,0,0,0,6.64,4.07Z"/><path class="cls-4" d="M147.63,72.49a23.38,23.38,0,0,1-4.31-.88,31.1,31.1,0,0,1-4-1.7.14.14,0,0,0-.15.24,14.74,14.74,0,0,0,8.5,2.49c.09,0,.09-.14,0-.15Z"/><circle class="cls-6" cx="31.06" cy="44.5" r="4.61"/><circle class="cls-7" cx="31.06" cy="44.5" r="3.46"/><circle class="cls-8" cx="31.06" cy="44.5" r="2.47"/><path class="cls-9" d="M29.41,43.71a1.74,1.74,0,0,0-.14,1.68.93.93,0,0,0,.31.37.66.66,0,0,0,.85-.19c.31-.45,0-1.15.31-1.58s.92-.36,1.07-.79c.2-.62-.57-.72-.95-.59a2.74,2.74,0,0,0-1.45,1.1Z"/></g></g></g></g></svg>