<svg xmlns="http://www.w3.org/2000/svg" viewBox="0 0 622.5 405.24"><defs><style>.cls-1{isolation:isolate;}.cls-2{fill:#896033;}.cls-3{fill:#684826;}.cls-4{fill:#957042;}.cls-5{fill:#bf8945;}.cls-6{fill:#4c2d14;mix-blend-mode:darken;opacity:0.26;}.cls-7{fill:#ecddd0;}.cls-8{fill:#6d4929;}.cls-9{fill:#d3c2b6;}.cls-10{fill:none;}</style></defs><g class="cls-1"><g id="Capa_2" data-name="Capa 2"><g id="Capa_1-2" data-name="Capa 1"><path class="cls-2" d="M357.94,339.73,243.71,405.24V307l128.47-73.68v81.82A28.35,28.35,0,0,1,357.94,339.73Z"/><polygon class="cls-3" points="421.02 266.48 407.93 273.27 394.81 279.99 368.51 293.32 342.13 306.5 328.92 313.03 315.67 319.49 328.75 312.7 341.88 305.98 368.17 292.65 394.55 279.48 407.77 272.94 421.02 266.48"/><polygon class="cls-3" points="397.19 285.46 384.11 292.25 370.99 298.97 344.69 312.3 318.31 325.48 305.1 332.01 291.84 338.48 304.93 331.69 318.05 324.97 344.35 311.63 370.73 298.46 383.94 291.93 397.19 285.46"/><polygon class="cls-3" points="412.63 287.54 399.55 294.33 386.43 301.05 360.13 314.38 333.75 327.56 320.54 334.09 307.28 340.56 320.37 333.76 333.49 327.05 359.79 313.71 386.17 300.54 399.38 294 412.63 287.54"/><polygon class="cls-3" points="369.18 314.98 356.09 321.77 342.97 328.49 316.67 341.82 290.3 355 277.08 361.53 263.83 367.99 276.92 361.2 290.04 354.48 316.33 341.15 342.71 327.98 355.93 321.44 369.18 314.98"/><polygon class="cls-3" points="394.43 312.83 381.35 319.62 368.23 326.34 341.93 339.67 315.55 352.85 302.33 359.38 289.08 365.85 302.17 359.06 315.29 352.33 341.59 339 367.97 325.83 381.18 319.3 394.43 312.83"/><path class="cls-4" d="M20.72,343l223,62.23V307L0,239v76.72A28.34,28.34,0,0,0,20.72,343Z"/><path class="cls-5" d="M139.89,168.5l232.29,64.82L243.71,307,0,239l118.18-67.78A28.3,28.3,0,0,1,139.89,168.5Z"/><path class="cls-6" d="M160.47,174.24s-16.89,13.74,36,49.63,84.78,61.59,84.78,61.59,54.13,39.47,55.52,66.4L360,338.44s12.22-8.77,12.22-22V233.32Z"/><polygon class="cls-5" points="335.34 0 622.5 168.14 471.36 334.39 170.97 130.36 335.34 0"/><polygon class="cls-4" points="47.01 231.42 67.97 237.55 88.89 243.76 130.75 256.18 172.56 268.75 193.46 275.04 214.34 281.41 193.39 275.28 172.46 269.07 130.61 256.65 88.8 244.08 67.89 237.79 47.01 231.42"/><polygon class="cls-4" points="175.97 242.85 185.27 245.39 194.55 248 213.11 253.22 231.62 258.6 240.88 261.29 250.11 264.06 240.81 261.52 231.53 258.92 212.97 253.69 194.46 248.31 185.21 245.62 175.97 242.85"/><path class="cls-4" d="M62.1,211.94q7.8,2.09,15.56,4.26l15.51,4.38,15.49,4.5q7.73,2.28,15.44,4.63-7.78-2.09-15.55-4.26L93,221.07l-15.48-4.5Q69.81,214.29,62.1,211.94Z"/><path class="cls-4" d="M53.32,215q7.8,2.08,15.56,4.26l15.51,4.39,15.49,4.49q7.73,2.28,15.44,4.63-7.78-2.09-15.55-4.26l-15.52-4.38-15.48-4.5Q61,217.35,53.32,215Z"/><path class="cls-4" d="M128.18,212.47q7.78,2.09,15.55,4.26l15.52,4.39,15.48,4.49q7.74,2.28,15.45,4.63-7.8-2.09-15.56-4.26l-15.51-4.38-15.49-4.5Q135.89,214.82,128.18,212.47Z"/><path class="cls-4" d="M168.17,245.58q7.79,2.08,15.55,4.25l15.52,4.39,15.48,4.5q7.74,2.26,15.45,4.63-7.78-2.09-15.56-4.26L199.1,254.7l-15.48-4.5Q175.88,247.94,168.17,245.58Z"/><path class="cls-4" d="M160.38,273.46q7.78,2.09,15.55,4.25l15.52,4.39,15.48,4.5q7.74,2.28,15.45,4.63-7.78-2.09-15.55-4.26l-15.52-4.39-15.48-4.5Q168.09,275.82,160.38,273.46Z"/><path class="cls-4" d="M163.7,253.15q5.25,1.47,10.47,3l10.44,3.16,10.4,3.26q5.19,1.65,10.36,3.39-5.25-1.47-10.47-3l-10.44-3.15-10.4-3.26Q168.87,254.89,163.7,253.15Z"/><path class="cls-4" d="M196.63,200.09c3.49,1,7,2,10.47,3l10.44,3.15,10.4,3.26q5.19,1.65,10.36,3.39-5.25-1.47-10.48-3l-10.43-3.15L207,203.48Q201.79,201.83,196.63,200.09Z"/><path class="cls-4" d="M185,207.44q5.25,1.47,10.48,3l10.43,3.15,10.4,3.26q5.21,1.65,10.37,3.39-5.25-1.47-10.48-3l-10.43-3.15-10.41-3.26Q190.13,209.18,185,207.44Z"/><path class="cls-4" d="M171.19,227.56q5.25,1.47,10.47,3l10.44,3.15L202.5,237q5.19,1.65,10.36,3.39-5.25-1.47-10.47-3L192,234.21,181.55,231Q176.36,229.3,171.19,227.56Z"/><path class="cls-4" d="M118.13,194.63c3.5,1,7,2,10.48,3L139,200.81l10.4,3.26q5.2,1.65,10.36,3.39-5.25-1.47-10.47-3l-10.44-3.15L128.49,198Q123.3,196.37,118.13,194.63Z"/><path class="cls-4" d="M64.91,226.28q7.8,2.08,15.56,4.26L96,234.92l15.49,4.5q7.73,2.28,15.44,4.63-7.78-2.09-15.55-4.26L95.85,235.4l-15.49-4.5Q72.62,228.64,64.91,226.28Z"/><path class="cls-4" d="M63.23,246.56q7.79,2.08,15.55,4.26L94.3,255.2l15.48,4.5q7.74,2.28,15.45,4.63-7.78-2.08-15.55-4.26l-15.52-4.39-15.48-4.49Q70.94,248.91,63.23,246.56Z"/><polygon class="cls-4" points="161.19 213 172.59 216.85 183.98 220.78 206.74 228.64 229.45 236.66 240.8 240.67 252.13 244.75 240.72 240.9 229.34 236.97 206.58 229.11 183.87 221.09 172.51 217.08 161.19 213"/><polygon class="cls-4" points="120.18 176.96 139.91 181.19 159.62 185.49 199.05 194.1 238.44 202.87 258.14 207.26 277.82 211.72 258.09 207.5 238.37 203.2 198.94 194.59 159.55 185.81 139.85 181.43 120.18 176.96"/><polygon class="cls-4" points="110.76 181.34 119.82 183.96 128.85 186.65 146.93 192.04 164.95 197.59 173.96 200.37 182.94 203.22 173.89 200.6 164.85 197.91 146.78 192.52 128.76 186.97 119.75 184.19 110.76 181.34"/><path class="cls-7" d="M179.46,179.54S107.69,239,102,267.33l28.34,7.55s57.32-80,81.56-86.28Z"/><path class="cls-4" d="M171,130.36s-32.11,39.67,9.45,71.79c36.92,28.53,256.94,177.58,256.94,177.58s47.31,28.32,79.34-7.55c47.23-52.9,68-81.24,68-81.24l-38.54-38.85-74.82,82.3Z"/><path class="cls-2" d="M471.36,334.39v55.14s21.12,3.39,38.9-11.7C525.35,365,587.49,289.62,606,267.07a28.18,28.18,0,0,0,6.2-14.5l10.34-84.43Z"/><polygon class="cls-8" points="170.03 129.41 472.31 335.34 578.53 216.51 470.42 331.56 173.53 128.33 170.03 129.41"/><path class="cls-9" d="M338.17,242.77s-19.3,17.35-26.65,51.18L279.61,271.1s11.33-30.22,26.44-49.12"/><polygon class="cls-3" points="107.72 325.93 121.97 329.72 136.2 333.59 164.62 341.45 192.99 349.47 207.16 353.54 221.3 357.69 207.06 353.89 192.83 350.02 164.41 342.17 136.04 334.14 121.87 330.07 107.72 325.93"/><polygon class="cls-3" points="138.01 346.23 149.85 349.25 161.67 352.35 185.28 358.65 208.84 365.13 220.6 368.43 232.35 371.8 220.51 368.79 208.69 365.69 185.08 359.38 161.52 352.9 149.76 349.6 138.01 346.23"/><polygon class="cls-3" points="121.42 353.14 135.67 356.93 149.89 360.8 178.31 368.66 206.68 376.68 220.85 380.75 235 384.9 220.75 381.1 206.53 377.24 178.11 369.38 149.74 361.36 135.57 357.28 121.42 353.14"/><polygon class="cls-3" points="105.4 358.84 119.65 362.63 133.88 366.5 162.29 374.36 190.67 382.38 204.84 386.45 218.98 390.6 204.74 386.81 190.51 382.94 162.09 375.08 133.72 367.06 119.55 362.99 105.4 358.84"/><polygon class="cls-3" points="6.37 252.2 16.27 254.71 26.15 257.29 45.87 262.58 65.55 268.03 75.38 270.81 85.18 273.67 75.28 271.17 65.4 268.58 45.67 263.3 26 257.85 16.17 255.06 6.37 252.2"/><polygon class="cls-3" points="23.76 266.45 33.66 268.95 43.54 271.54 63.27 276.82 82.95 282.27 92.77 285.06 102.57 287.92 92.67 285.41 82.79 282.83 63.07 277.54 43.39 272.09 33.57 269.31 23.76 266.45"/><polygon class="cls-3" points="2.74 271.26 12.63 273.76 22.51 276.35 42.24 281.63 61.92 287.08 71.74 289.87 81.55 292.73 71.65 290.22 61.77 287.64 42.04 282.35 22.36 276.9 12.54 274.12 2.74 271.26"/><polygon class="cls-3" points="13.56 289.36 23.46 291.86 33.34 294.44 53.06 299.73 72.74 305.18 82.56 307.96 92.37 310.82 82.47 308.32 72.59 305.74 52.86 300.45 33.18 295 23.36 292.21 13.56 289.36"/><path class="cls-9" d="M101.19,267.23S93.7,341.14,95,363.75l26.83,7.48s-2.56-84,8.64-95.83Z"/><line class="cls-10" x1="466.64" y1="140.75" x2="568.66" y2="212.54"/><polygon class="cls-3" points="177.59 142.64 189.74 150.99 201.84 159.41 225.98 176.34 250.02 193.41 262 202 273.94 210.65 261.79 202.3 249.68 193.88 225.55 176.95 201.51 159.87 189.53 151.29 177.59 142.64"/><polygon class="cls-3" points="196.48 167.2 208.63 175.55 220.73 183.97 244.87 200.9 268.91 217.97 280.89 226.56 292.83 235.21 280.68 226.86 268.58 218.44 244.44 201.51 220.4 184.43 208.42 175.85 196.48 167.2"/><polygon class="cls-3" points="168.14 159.64 180.29 167.99 192.39 176.41 216.53 193.34 240.57 210.41 252.55 219 264.49 227.65 252.34 219.3 240.24 210.88 216.1 193.95 192.06 176.88 180.08 168.29 168.14 159.64"/><polygon class="cls-3" points="177.59 184.2 189.74 192.55 201.84 200.97 225.98 217.9 250.02 234.97 262 243.56 273.94 252.21 261.79 243.86 249.68 235.44 225.55 218.51 201.51 201.44 189.53 192.85 177.59 184.2"/><polygon class="cls-3" points="612.52 191.1 602.87 202.25 593.16 213.34 573.66 235.46 554.03 257.45 544.16 268.41 534.24 279.32 543.89 268.17 553.6 257.07 573.1 234.96 592.73 212.96 602.6 202.01 612.52 191.1"/><polygon class="cls-3" points="597.4 217.55 587.75 228.7 578.05 239.79 558.55 261.91 538.91 283.9 529.05 294.86 519.13 305.77 528.78 294.62 538.48 283.52 557.99 261.41 577.62 239.41 587.48 228.46 597.4 217.55"/><polygon class="cls-3" points="612.52 213.77 602.87 224.92 593.16 236.02 573.66 258.13 554.03 280.13 544.16 291.08 534.24 301.99 543.89 290.84 553.6 279.74 573.1 257.63 592.73 235.63 602.6 224.68 612.52 213.77"/><polygon class="cls-3" points="582.29 255.33 572.64 266.48 562.94 277.58 543.43 299.69 523.8 321.69 513.94 332.65 504.02 343.55 513.66 332.4 523.37 321.31 542.87 299.19 562.51 277.2 572.37 266.24 582.29 255.33"/><polygon class="cls-3" points="604.96 244 595.31 255.15 585.61 266.24 566.1 288.36 546.47 310.35 536.61 321.31 526.69 332.22 536.33 321.07 546.04 309.97 565.54 287.86 585.18 265.86 595.04 254.9 604.96 244"/><polygon class="cls-3" points="364.62 276.77 376.77 285.12 388.87 293.54 413.01 310.47 437.05 327.55 449.03 336.13 460.97 344.78 448.82 336.43 436.72 328.02 412.58 311.08 388.54 294.01 376.56 285.42 364.62 276.77"/><polygon class="cls-3" points="386.35 306.06 396.49 312.87 406.58 319.75 426.71 333.61 446.73 347.62 456.71 354.67 466.64 361.79 456.5 354.97 446.4 348.09 426.28 334.23 406.26 320.22 396.28 313.17 386.35 306.06"/><polygon class="cls-3" points="368.4 307 380.55 315.35 392.65 323.77 416.79 340.7 440.83 357.77 452.81 366.36 464.75 375.01 452.6 366.66 440.5 358.24 416.36 341.31 392.32 324.24 380.34 315.65 368.4 307"/><polygon class="cls-3" points="351.4 307 363.55 315.35 375.65 323.77 399.79 340.7 423.82 357.77 435.81 366.36 447.75 375.01 435.6 366.66 423.49 358.24 399.36 341.31 375.32 324.24 363.33 315.65 351.4 307"/><path class="cls-4" d="M221,106.74c10.92,7.61,21.76,15.33,32.64,23l32.51,23.15c21.67,15.45,43.23,31.05,64.85,46.57l64.57,46.94L447.8,270c10.68,7.93,21.41,15.8,32.06,23.77-10.91-7.6-21.76-15.32-32.64-23l-32.51-23.15-64.84-46.57c-21.52-15.66-43.1-31.23-64.57-46.95l-32.19-23.6C242.42,122.59,231.69,114.72,221,106.74Z"/><path class="cls-4" d="M389.18,172.86q14.74,9.69,29.26,19.68t28.94,20.13q14.39,10.17,28.68,20.48t28.36,20.95q-14.73-9.67-29.26-19.67c-9.69-6.64-19.32-13.38-28.93-20.13s-19.18-13.59-28.69-20.49S398.56,180,389.18,172.86Z"/><path class="cls-4" d="M258.82,82.18q12.39,8,24.54,16.37c8.12,5.54,16.17,11.17,24.22,16.82s16,11.39,24,17.18,15.83,11.66,23.63,17.64q-12.37-8-24.53-16.36T306.42,117c-8-5.68-16-11.38-24-17.18S266.63,88.16,258.82,82.18Z"/><path class="cls-4" d="M241.82,82.18q12.38,8,24.54,16.37c8.12,5.54,16.17,11.17,24.21,16.82s16,11.39,24,17.18,15.84,11.66,23.64,17.64q-12.37-8-24.54-16.36T289.42,117c-8-5.68-16-11.38-24-17.18S249.63,88.16,241.82,82.18Z"/><path class="cls-4" d="M325,91.63q12.38,8,24.53,16.37c8.12,5.53,16.18,11.17,24.22,16.82s16,11.38,24,17.18,15.83,11.65,23.64,17.64q-12.39-8-24.54-16.37c-8.12-5.53-16.17-11.17-24.21-16.82s-16-11.39-24-17.18S332.75,97.61,325,91.63Z"/><path class="cls-4" d="M374.07,172.86q12.38,8,24.53,16.37c8.12,5.54,16.18,11.17,24.22,16.82s16,11.39,24,17.19,15.83,11.65,23.64,17.64q-12.39-8-24.54-16.37c-8.12-5.54-16.17-11.17-24.21-16.82s-16-11.39-24-17.19S381.87,178.85,374.07,172.86Z"/><path class="cls-4" d="M343.84,216.32q12.38,8,24.54,16.36t24.21,16.83c8,5.68,16,11.38,24,17.18s15.83,11.65,23.64,17.64q-12.37-8-24.54-16.37c-8.12-5.53-16.17-11.17-24.21-16.82s-16-11.39-24-17.19S351.65,222.3,343.84,216.32Z"/><path class="cls-4" d="M361.79,183.25q8.37,5.44,16.52,11.19c5.44,3.8,10.82,7.71,16.19,11.63s10.67,7.92,15.92,12,10.48,8.19,15.6,12.44q-8.37-5.44-16.52-11.18c-5.45-3.81-10.83-7.71-16.19-11.63s-10.67-7.93-15.93-12S366.91,187.5,361.79,183.25Z"/><path class="cls-4" d="M450.58,111.46q8.37,5.45,16.52,11.19c5.45,3.8,10.82,7.7,16.19,11.62s10.67,7.92,15.93,12,10.47,8.19,15.59,12.44q-8.37-5.44-16.52-11.18c-5.44-3.81-10.82-7.71-16.18-11.64s-10.67-7.92-15.93-12S455.7,115.71,450.58,111.46Z"/><path class="cls-4" d="M426,117.13q8.37,5.45,16.52,11.18c5.45,3.81,10.82,7.71,16.19,11.63s10.67,7.92,15.93,12,10.47,8.18,15.59,12.43q-8.37-5.43-16.52-11.18c-5.44-3.8-10.82-7.71-16.18-11.63s-10.67-7.92-15.93-12S431.14,121.38,426,117.13Z"/><path class="cls-4" d="M390.13,143.58q8.37,5.44,16.51,11.18c5.45,3.81,10.83,7.71,16.19,11.63s10.67,7.92,15.93,12,10.48,8.18,15.6,12.43q-8.37-5.43-16.52-11.18c-5.45-3.8-10.83-7.71-16.19-11.63s-10.67-7.92-15.93-12S395.25,147.83,390.13,143.58Z"/><path class="cls-4" d="M318.33,54.79q8.39,5.43,16.52,11.18c5.45,3.81,10.83,7.71,16.19,11.63s10.67,7.92,15.93,12,10.48,8.19,15.6,12.44q-8.37-5.43-16.52-11.18c-5.45-3.81-10.83-7.71-16.19-11.63s-10.67-7.92-15.93-12S323.46,59,318.33,54.79Z"/><path class="cls-4" d="M255.05,108.63q12.38,8,24.53,16.37c8.12,5.54,16.18,11.17,24.22,16.82s16,11.38,24,17.18,15.83,11.66,23.64,17.64q-12.39-8-24.54-16.36t-24.22-16.83c-8-5.68-16-11.38-24-17.18S262.85,114.61,255.05,108.63Z"/><path class="cls-4" d="M239.93,142.64q12.38,8,24.54,16.36t24.21,16.83c8,5.68,16,11.38,24,17.18s15.84,11.65,23.64,17.64q-12.37-8-24.54-16.37c-8.12-5.53-16.17-11.17-24.21-16.82s-16-11.39-24-17.19S247.74,148.62,239.93,142.64Z"/><path class="cls-4" d="M381.62,112.41c5.89,4.39,11.7,8.88,17.55,13.31l17.41,13.48c11.59,9,23.08,18.15,34.62,27.21s22.94,18.32,34.34,27.58L502.6,207.9c5.65,4.7,11.33,9.34,16.94,14.08-5.89-4.38-11.7-8.87-17.55-13.31l-17.41-13.48C473,186.19,461.5,177.05,450,168S427,149.66,415.63,140.4l-17.07-13.91C392.92,121.79,387.23,117.15,381.62,112.41Z"/><path class="cls-4" d="M332.5,25.5c10.59,6.27,21.11,12.64,31.67,19l31.55,19.13c21,12.77,42,25.69,62.94,38.53S500.5,128,521.36,141l31.26,19.6c10.38,6.6,20.8,13.13,31.15,19.78-10.59-6.26-21.11-12.63-31.66-18.95l-31.56-19.12c-21-12.78-42-25.69-62.94-38.54s-41.84-25.87-62.69-38.92L363.66,45.28C353.27,38.69,342.85,32.15,332.5,25.5Z"/><path class="cls-4" d="M313.61,27.39q14.28,9.69,28.33,19.68t28,20.13c9.28,6.79,18.54,13.59,27.74,20.49s18.35,13.86,27.41,20.94Q410.8,98.94,396.75,89t-28-20.13C359.48,62,350.21,55.23,341,48.33S322.67,34.48,313.61,27.39Z"/><path class="cls-7" d="M497.65,95S377.21,190.17,337.38,243.39L305.45,221.7S425.78,85.28,464.63,75.7Z"/></g></g></g></svg>