<svg xmlns="http://www.w3.org/2000/svg" xmlns:xlink="http://www.w3.org/1999/xlink" viewBox="0 0 1110.45 354.33"><defs><style>.cls-1,.cls-2{fill:none;}.cls-1,.cls-11,.cls-12,.cls-14,.cls-15,.cls-16,.cls-17,.cls-18,.cls-20,.cls-21,.cls-22,.cls-23,.cls-25,.cls-26,.cls-28,.cls-30,.cls-31,.cls-4,.cls-5,.cls-6,.cls-8,.cls-9{stroke:#c69c6d;stroke-linecap:round;stroke-linejoin:round;stroke-width:11.22px;}.cls-3{clip-path:url(#clip-path);}.cls-33,.cls-4{fill:#16182c;}.cls-34,.cls-5{fill:#5175af;}.cls-35,.cls-6{fill:#90afd3;}.cls-7{clip-path:url(#clip-path-2);}.cls-37,.cls-8{fill:#721c26;}.cls-38,.cls-9{fill:#d37d89;}.cls-10{clip-path:url(#clip-path-3);}.cls-11,.cls-40{fill:#828134;}.cls-12,.cls-41{fill:#7c91c1;}.cls-13{clip-path:url(#clip-path-4);}.cls-14,.cls-43{fill:#28443b;}.cls-15,.cls-44{fill:#435e3c;}.cls-16,.cls-45{fill:#747f52;}.cls-17,.cls-46{fill:#8d873a;}.cls-18,.cls-47{fill:#8d8d5e;}.cls-19{clip-path:url(#clip-path-5);}.cls-20,.cls-49{fill:#4d5270;}.cls-21,.cls-50{fill:#ccc0ac;}.cls-22,.cls-51{fill:#868339;}.cls-23,.cls-52{fill:#28334b;}.cls-24{clip-path:url(#clip-path-6);}.cls-25,.cls-54{fill:#a34864;}.cls-26,.cls-55{fill:#4d1319;}.cls-27{clip-path:url(#clip-path-7);}.cls-28,.cls-57,.cls-58{fill:#0f0d0d;}.cls-29{clip-path:url(#clip-path-8);}.cls-30,.cls-60{fill:#7c2326;}.cls-31,.cls-61{fill:#c66b76;}.cls-32{clip-path:url(#clip-path-9);}.cls-36{clip-path:url(#clip-path-10);}.cls-39{clip-path:url(#clip-path-11);}.cls-42{clip-path:url(#clip-path-12);}.cls-48{clip-path:url(#clip-path-13);}.cls-53{clip-path:url(#clip-path-14);}.cls-56{clip-path:url(#clip-path-15);}.cls-58{stroke:#fff;stroke-width:0.62px;}.cls-59{clip-path:url(#clip-path-16);}</style><clipPath id="clip-path" transform="translate(113.98 120.21)"><path class="cls-1" d="M930.31,71.29c-.76,0-3.37.35-2.21.19a33.41,33.41,0,0,0,5-2.18,33.84,33.84,0,0,0,7.53-5.64A32.85,32.85,0,0,0,917.37,7.6H848.71V120h35.82V97.16a11.61,11.61,0,0,1,1.62-6,11.91,11.91,0,0,1,20.65,0,11.61,11.61,0,0,1,1.62,6V120h35.82V85.22A13.92,13.92,0,0,0,930.31,71.29ZM884.53,31.48h23.89a12,12,0,0,1,11.94,11.94,12,12,0,0,1-11.94,11.94H884.53Z"/></clipPath><clipPath id="clip-path-2" transform="translate(113.98 120.21)"><path class="cls-1" d="M834.66,120H797l-4.47-19H763.6l-4.33,19H721.42L755.51,6.61h44.92ZM767,85.22h20.93L777.41,47Z"/></clipPath><clipPath id="clip-path-3" transform="translate(113.98 120.21)"><path class="cls-1" d="M570.24,120h-37.7l-4.48-19H499.18l-4.34,19H457L491.09,6.61H536ZM502.53,85.22h20.93L513,47Z"/></clipPath><clipPath id="clip-path-4" transform="translate(113.98 120.21)"><path class="cls-1" d="M705.56,6.61V120h-38.7V62.15l-8.06,41H634.92l-12.18-41V120H584V6.61l33,1,27.87,53.73L668.75,7.6Z"/></clipPath><clipPath id="clip-path-5" transform="translate(113.98 120.21)"><path class="cls-1" d="M198.9,6.61H161.37a34,34,0,0,0-34,34V86.07a34,34,0,0,0,34,34H198.9a34,34,0,0,0,34-34V40.58A34,34,0,0,0,198.9,6.61ZM204,74.41a18.76,18.76,0,0,1-18.76,18.77H177a18.77,18.77,0,0,1-18.77-18.77V54.23A18.77,18.77,0,0,1,177,35.46h8.24A18.76,18.76,0,0,1,204,54.23Z"/></clipPath><clipPath id="clip-path-6" transform="translate(113.98 120.21)"><path class="cls-1" d="M330.43,71.29c-.76,0-3.37.35-2.21.19a33.41,33.41,0,0,0,5-2.18,33.84,33.84,0,0,0,7.53-5.64A32.85,32.85,0,0,0,317.49,7.6H248.83V120h35.82V97.16a11.61,11.61,0,0,1,1.62-6,11.91,11.91,0,0,1,20.65,0,11.61,11.61,0,0,1,1.62,6V120h35.82V85.22A13.92,13.92,0,0,0,330.43,71.29ZM284.65,31.48h23.89a12,12,0,0,1,11.94,11.94,12,12,0,0,1-11.94,11.94H284.65Z"/></clipPath><clipPath id="clip-path-7" transform="translate(113.98 120.21)"><polygon class="cls-1" points="398.09 87.21 398.09 5.61 364.26 5.61 364.26 87.21 364.26 119.05 364.26 121.04 447.85 121.04 447.85 87.21 398.09 87.21"/></clipPath><clipPath id="clip-path-8" transform="translate(113.98 120.21)"><path class="cls-1" d="M103.7,17A38.7,38.7,0,0,0,76.26,5.61H5.61V119.05H39.44V83.23H76.26A38.81,38.81,0,0,0,103.7,17ZM80.84,57a14.89,14.89,0,0,1-10.55,4.37H41.43V31.48H70.29A14.92,14.92,0,0,1,80.84,57Z"/></clipPath><clipPath id="clip-path-9" transform="translate(113.98 120.21)"><path class="cls-2" d="M930.31,71.29c-.76,0-3.37.35-2.21.19a33.41,33.41,0,0,0,5-2.18,33.84,33.84,0,0,0,7.53-5.64A32.85,32.85,0,0,0,917.37,7.6H848.71V120h35.82V97.16a11.61,11.61,0,0,1,1.62-6,11.91,11.91,0,0,1,20.65,0,11.61,11.61,0,0,1,1.62,6V120h35.82V85.22A13.92,13.92,0,0,0,930.31,71.29ZM884.53,31.48h23.89a12,12,0,0,1,11.94,11.94,12,12,0,0,1-11.94,11.94H884.53Z"/></clipPath><clipPath id="clip-path-10" transform="translate(113.98 120.21)"><path class="cls-2" d="M834.66,120H797l-4.47-19H763.6l-4.33,19H721.42L755.51,6.61h44.92ZM767,85.22h20.93L777.41,47Z"/></clipPath><clipPath id="clip-path-11" transform="translate(113.98 120.21)"><path class="cls-2" d="M570.24,120h-37.7l-4.48-19H499.18l-4.34,19H457L491.09,6.61H536ZM502.53,85.22h20.93L513,47Z"/></clipPath><clipPath id="clip-path-12" transform="translate(113.98 120.21)"><path class="cls-2" d="M705.56,6.61V120h-38.7V62.15l-8.06,41H634.92l-12.18-41V120H584V6.61l33,1,27.87,53.73L668.75,7.6Z"/></clipPath><clipPath id="clip-path-13" transform="translate(113.98 120.21)"><path class="cls-2" d="M198.9,6.61H161.37a34,34,0,0,0-34,34V86.07a34,34,0,0,0,34,34H198.9a34,34,0,0,0,34-34V40.58A34,34,0,0,0,198.9,6.61ZM204,74.41a18.76,18.76,0,0,1-18.76,18.77H177a18.77,18.77,0,0,1-18.77-18.77V54.23A18.77,18.77,0,0,1,177,35.46h8.24A18.76,18.76,0,0,1,204,54.23Z"/></clipPath><clipPath id="clip-path-14" transform="translate(113.98 120.21)"><path class="cls-2" d="M330.43,71.29c-.76,0-3.37.35-2.21.19a33.41,33.41,0,0,0,5-2.18,33.84,33.84,0,0,0,7.53-5.64A32.85,32.85,0,0,0,317.49,7.6H248.83V120h35.82V97.16a11.61,11.61,0,0,1,1.62-6,11.91,11.91,0,0,1,20.65,0,11.61,11.61,0,0,1,1.62,6V120h35.82V85.22A13.92,13.92,0,0,0,330.43,71.29ZM284.65,31.48h23.89a12,12,0,0,1,11.94,11.94,12,12,0,0,1-11.94,11.94H284.65Z"/></clipPath><clipPath id="clip-path-15" transform="translate(113.98 120.21)"><polygon class="cls-2" points="398.09 87.21 398.09 5.61 364.26 5.61 364.26 87.21 364.26 119.05 364.26 121.04 447.85 121.04 447.85 87.21 398.09 87.21"/></clipPath><clipPath id="clip-path-16" transform="translate(113.98 120.21)"><path class="cls-2" d="M103.7,17A38.7,38.7,0,0,0,76.26,5.61H5.61V119.05H39.44V83.23H76.26A38.81,38.81,0,0,0,103.7,17ZM80.84,57a14.89,14.89,0,0,1-10.55,4.37H41.43V31.48H70.29A14.92,14.92,0,0,1,80.84,57Z"/></clipPath></defs><g id="Capa_2" data-name="Capa 2"><g id="Capa_1-2" data-name="Capa 1"><g class="cls-3"><rect class="cls-4" x="938.71" y="122.06" width="166.13" height="61.31"/><rect class="cls-5" x="938.71" y="147.77" width="166.13" height="61.31"/><rect class="cls-6" x="938.71" y="191.28" width="166.13" height="61.31"/></g><path class="cls-1" d="M930.31,71.29c-.76,0-3.37.35-2.21.19a33.41,33.41,0,0,0,5-2.18,33.84,33.84,0,0,0,7.53-5.64A32.85,32.85,0,0,0,917.37,7.6H848.71V120h35.82V97.16a11.61,11.61,0,0,1,1.62-6,11.91,11.91,0,0,1,20.65,0,11.61,11.61,0,0,1,1.62,6V120h35.82V85.22A13.92,13.92,0,0,0,930.31,71.29ZM884.53,31.48h23.89a12,12,0,0,1,11.94,11.94,12,12,0,0,1-11.94,11.94H884.53Z" transform="translate(113.98 120.21)"/><g class="cls-7"><rect class="cls-8" x="831.8" y="100.68" width="118.06" height="161.19"/><rect class="cls-9" x="831.8" y="139.9" width="118.06" height="81.73"/></g><path class="cls-1" d="M834.66,120H797l-4.47-19H763.6l-4.33,19H721.42L755.51,6.61h44.92ZM767,85.22h20.93L777.41,47Z" transform="translate(113.98 120.21)"/><g class="cls-10"><rect class="cls-11" x="563.7" y="120.42" width="141.22" height="12.67"/><rect class="cls-12" x="563.7" y="133.08" width="141.22" height="12.67"/><rect class="cls-11" x="563.7" y="145.75" width="141.22" height="12.67"/><rect class="cls-12" x="563.7" y="158.41" width="141.22" height="12.67"/><rect class="cls-11" x="563.7" y="171.08" width="141.22" height="12.67"/><rect class="cls-12" x="563.7" y="183.74" width="141.22" height="12.67"/><rect class="cls-11" x="563.7" y="196.41" width="141.22" height="12.67"/><rect class="cls-12" x="563.7" y="209.07" width="141.22" height="12.67"/><rect class="cls-11" x="563.7" y="221.74" width="141.22" height="12.67"/><rect class="cls-12" x="563.7" y="234.4" width="141.22" height="12.67"/></g><path class="cls-1" d="M570.24,120h-37.7l-4.48-19H499.18l-4.34,19H457L491.09,6.61H536ZM502.53,85.22h20.93L513,47Z" transform="translate(113.98 120.21)"/><g class="cls-13"><rect class="cls-14" x="675.54" y="120.42" width="166.13" height="41.45"/><rect class="cls-15" x="675.54" y="134.23" width="166.13" height="59.87"/><rect class="cls-16" x="675.54" y="175.68" width="166.13" height="59.87"/><rect class="cls-17" x="675.54" y="198.71" width="166.13" height="59.87"/><rect class="cls-18" x="675.54" y="143.44" width="166.13" height="18.42"/></g><path class="cls-1" d="M705.56,6.61V120h-38.7V62.15l-8.06,41H634.92l-12.18-41V120H584V6.61l33,1,27.87,53.73L668.75,7.6Z" transform="translate(113.98 120.21)"/><g class="cls-19"><rect class="cls-20" x="215.16" y="135.69" width="159.66" height="49.89"/><ellipse class="cls-21" cx="294.99" cy="220.5" rx="82.32" ry="54.88"/><ellipse class="cls-22" cx="294.99" cy="262.91" rx="82.32" ry="54.88"/><ellipse class="cls-23" cx="293.95" cy="122.06" rx="80.6" ry="28.78"/></g><path class="cls-1" d="M198.9,6.61H161.37a34,34,0,0,0-34,34V86.07a34,34,0,0,0,34,34H198.9a34,34,0,0,0,34-34V40.58A34,34,0,0,0,198.9,6.61ZM204,74.41a18.76,18.76,0,0,1-18.76,18.77H177a18.77,18.77,0,0,1-18.77-18.77V54.23A18.77,18.77,0,0,1,177,35.46h8.24A18.76,18.76,0,0,1,204,54.23Z" transform="translate(113.98 120.21)"/><g class="cls-24"><ellipse class="cls-25" cx="406.62" cy="140.15" rx="64.97" ry="26.32"/><ellipse class="cls-26" cx="406.62" cy="154.96" rx="64.97" ry="26.32"/><ellipse class="cls-25" cx="406.62" cy="173.05" rx="64.97" ry="26.32"/><ellipse class="cls-26" cx="406.62" cy="189.5" rx="64.97" ry="26.32"/><ellipse class="cls-25" cx="406.62" cy="205.95" rx="64.97" ry="26.32"/><ellipse class="cls-26" cx="406.62" cy="225.69" rx="64.97" ry="26.32"/></g><path class="cls-1" d="M330.43,71.29c-.76,0-3.37.35-2.21.19a33.41,33.41,0,0,0,5-2.18,33.84,33.84,0,0,0,7.53-5.64A32.85,32.85,0,0,0,317.49,7.6H248.83V120h35.82V97.16a11.61,11.61,0,0,1,1.62-6,11.91,11.91,0,0,1,20.65,0,11.61,11.61,0,0,1,1.62,6V120h35.82V85.22A13.92,13.92,0,0,0,330.43,71.29ZM284.65,31.48h23.89a12,12,0,0,1,11.94,11.94,12,12,0,0,1-11.94,11.94H284.65Z" transform="translate(113.98 120.21)"/><g class="cls-27"><rect class="cls-28" x="465.01" y="117.13" width="98.69" height="136.52"/><circle class="cls-28" cx="539.02" cy="146.73" r="18.92"/><circle class="cls-28" cx="484.74" cy="176.34" r="18.92"/><circle class="cls-28" cx="496.26" cy="127" r="18.92"/><circle class="cls-28" cx="522.58" cy="199.37" r="18.92"/><circle class="cls-28" cx="486.39" cy="230.62" r="18.92"/><circle class="cls-28" cx="532.44" cy="247.07" r="18.92"/><circle class="cls-28" cx="570.28" cy="217.46" r="18.92"/></g><polygon class="cls-1" points="512.08 207.42 512.08 125.82 478.24 125.82 478.24 207.42 478.24 239.26 478.24 241.25 561.83 241.25 561.83 207.42 512.08 207.42"/><g class="cls-29"><rect class="cls-30" x="35.49" y="-97.11" width="141.45" height="222.05" transform="translate(135.25 199.39) rotate(-45)"/><rect class="cls-31" x="-50.58" y="-11.04" width="141.45" height="222.05" transform="translate(49.18 163.74) rotate(-45)"/></g><path class="cls-1" d="M103.7,17A38.7,38.7,0,0,0,76.26,5.61H5.61V119.05H39.44V83.23H76.26A38.81,38.81,0,0,0,103.7,17ZM80.84,57a14.89,14.89,0,0,1-10.55,4.37H41.43V31.48H70.29A14.92,14.92,0,0,1,80.84,57Z" transform="translate(113.98 120.21)"/><g class="cls-32"><rect class="cls-33" x="938.71" y="122.06" width="166.13" height="61.31"/><rect class="cls-34" x="938.71" y="147.77" width="166.13" height="61.31"/><rect class="cls-35" x="938.71" y="191.28" width="166.13" height="61.31"/></g><g class="cls-36"><rect class="cls-37" x="831.8" y="100.68" width="118.06" height="161.19"/><rect class="cls-38" x="831.8" y="139.9" width="118.06" height="81.73"/></g><g class="cls-39"><rect class="cls-40" x="563.7" y="120.42" width="141.22" height="12.67"/><rect class="cls-41" x="563.7" y="133.08" width="141.22" height="12.67"/><rect class="cls-40" x="563.7" y="145.75" width="141.22" height="12.67"/><rect class="cls-41" x="563.7" y="158.41" width="141.22" height="12.67"/><rect class="cls-40" x="563.7" y="171.08" width="141.22" height="12.67"/><rect class="cls-41" x="563.7" y="183.74" width="141.22" height="12.67"/><rect class="cls-40" x="563.7" y="196.41" width="141.22" height="12.67"/><rect class="cls-41" x="563.7" y="209.07" width="141.22" height="12.67"/><rect class="cls-40" x="563.7" y="221.74" width="141.22" height="12.67"/><rect class="cls-41" x="563.7" y="234.4" width="141.22" height="12.67"/></g><g class="cls-42"><rect class="cls-43" x="675.54" y="120.42" width="166.13" height="41.45"/><rect class="cls-44" x="675.54" y="134.23" width="166.13" height="59.87"/><rect class="cls-45" x="675.54" y="175.68" width="166.13" height="59.87"/><rect class="cls-46" x="675.54" y="198.71" width="166.13" height="59.87"/><rect class="cls-47" x="675.54" y="143.44" width="166.13" height="18.42"/></g><g class="cls-48"><rect class="cls-49" x="215.16" y="135.69" width="159.66" height="49.89"/><ellipse class="cls-50" cx="294.99" cy="220.5" rx="82.32" ry="54.88"/><ellipse class="cls-51" cx="294.99" cy="262.91" rx="82.32" ry="54.88"/><ellipse class="cls-52" cx="293.95" cy="122.06" rx="80.6" ry="28.78"/></g><g class="cls-53"><ellipse class="cls-54" cx="406.62" cy="140.15" rx="64.97" ry="26.32"/><ellipse class="cls-55" cx="406.62" cy="154.96" rx="64.97" ry="26.32"/><ellipse class="cls-54" cx="406.62" cy="173.05" rx="64.97" ry="26.32"/><ellipse class="cls-55" cx="406.62" cy="189.5" rx="64.97" ry="26.32"/><ellipse class="cls-54" cx="406.62" cy="205.95" rx="64.97" ry="26.32"/><ellipse class="cls-55" cx="406.62" cy="225.69" rx="64.97" ry="26.32"/></g><g class="cls-56"><rect class="cls-57" x="465.01" y="117.13" width="98.69" height="136.52"/><circle class="cls-58" cx="539.02" cy="146.73" r="18.92"/><circle class="cls-58" cx="484.74" cy="176.34" r="18.92"/><circle class="cls-58" cx="496.26" cy="127" r="18.92"/><circle class="cls-58" cx="522.58" cy="199.37" r="18.92"/><circle class="cls-58" cx="486.39" cy="230.62" r="18.92"/><circle class="cls-58" cx="532.44" cy="247.07" r="18.92"/><circle class="cls-58" cx="570.28" cy="217.46" r="18.92"/></g><g class="cls-59"><rect class="cls-60" x="35.49" y="-97.11" width="141.45" height="222.05" transform="translate(135.25 199.39) rotate(-45)"/><rect class="cls-61" x="-50.58" y="-11.04" width="141.45" height="222.05" transform="translate(49.18 163.74) rotate(-45)"/></g></g></g></svg>