<svg xmlns="http://www.w3.org/2000/svg" viewBox="0 0 253.42 97.04"><defs><style>.cls-1{fill:#f9b800;}.cls-2{fill:#1a4089;}.cls-3{fill:#009440;}.cls-4{fill:#ffca00;}.cls-5{fill:#c13a4b;}</style></defs><g id="Capa_2" data-name="Capa 2"><g id="Capa_1-2" data-name="Capa 1"><rect class="cls-1" x="148.16" y="12.76" width="105.26" height="47.71"/><path class="cls-2" d="M148.35,60.47H94.8V12.76h53.55Z"/><rect class="cls-1" x="0.53" y="12.74" width="94.16" height="47.73"/><path class="cls-2" d="M77.53,12.74H69.84L52.11,51.23V12.74H46.73L26.06,41,5.4,12.74H0V60.46h12.9V42.16L26,60.46h.2l1-1.38,1.35-1.88,10.7-15v18.3h23v0l2.21-5.06H83l1.91,4.43.28.65h9.5l0-10.39ZM68.6,45.8l5.1-11.7,5.07,11.7Z"/><path class="cls-3" d="M192.74,1.87C191.49,8,187.37,9.6,184.22,9.6A8.27,8.27,0,0,1,181.06,9c-2-.8-3.26-2.2-4.61-2.82a3.1,3.1,0,0,0-1.33-.32c-1.66,0-2.42,1.61-2.89,3.6l-5.68-1.73c1.22-6,5.19-7.72,8.51-7.72a8.34,8.34,0,0,1,3.84.9,15.72,15.72,0,0,1,2.16,1.36,5.77,5.77,0,0,0,3.13,1.46c1.61,0,2.39-1.59,2.89-3.58Z"/><path class="cls-3" d="M126.26,43.82a15.53,15.53,0,0,0,9.45-14.12c0-9.19-8.32-16.67-20-16.77h-.23l-20.88-.17V60.47h14.72V42.12l11.94,18.35H138Zm-11.06-8.2-5.92,0V25.25h5.92c3,0,5.89,2,5.89,5.19S118.28,35.66,115.2,35.62Z"/><rect class="cls-3" x="139" y="12.76" width="14.08" height="47.71"/><polygon class="cls-3" points="203.61 29.91 203.61 29.92 203.61 12.76 189.89 12.76 189.89 37.86 165.48 14.22 163.98 12.76 158.6 12.76 158.6 60.45 172.75 60.45 172.75 39.17 194.7 60.45 203.61 60.45 203.61 49.45 203.61 49.45 203.61 29.91"/><path class="cls-3" d="M203.57,36.65c0-13.63,10.81-24,24.92-24s24.92,10.34,24.92,24-10.81,23.8-24.95,23.8S203.57,50.17,203.57,36.65Zm37.65-.09a12.74,12.74,0,1,0-12.73,12.37A12.36,12.36,0,0,0,241.22,36.56Z"/><rect class="cls-4" y="60.45" width="253.38" height="36.6"/><path class="cls-5" d="M35.38,72.81A9.72,9.72,0,0,0,16.92,70.5a9.73,9.73,0,0,0-16.8,8A9.63,9.63,0,0,0,2,82.85H2c.12.16.25.31.38.46A41.64,41.64,0,0,0,5.93,87,43.84,43.84,0,0,0,21.2,96.2,37.19,37.19,0,0,0,32.36,83.68,36.79,36.79,0,0,0,35,77.52h0A9.66,9.66,0,0,0,35.38,72.81Z"/><path class="cls-2" d="M88.13,68.24V92.48H81.75V83l-6.46,9.12h-.05L68.76,83v9.52H62.38V68.24H65L75.26,82.36l10.3-14.12Z"/><path class="cls-2" d="M105.91,89.68h-9l-1.22,2.8h-7L99.9,68.17h3L114.1,92.48h-7Zm-2-4.66-2.46-5.7L99,85Z"/><path class="cls-2" d="M127.44,92.48,121,82.05V92.48h-6.37l0-24h9.12c5.18,0,8.89,3.51,8.89,7.81a7.22,7.22,0,0,1-4.16,6.57l6.44,9.64ZM121,79l2.61,0a2.42,2.42,0,1,0,0-4.83H121Z"/><path class="cls-2" d="M159.32,81c0,7.3-5.51,12-12.33,12-7.63,0-13.4-5.7-13.4-12.55a12.92,12.92,0,0,1,13.23-12.62,13.93,13.93,0,0,1,8.57,3.18l-3.53,4.84a7.73,7.73,0,0,0-5-2.06,6.65,6.65,0,1,0,.42,13.29c2.9,0,5-1.4,5.06-3.69h-5.49V78.68h12.32A15.91,15.91,0,0,1,159.32,81Z"/><path class="cls-2" d="M174.68,89.68h-9l-1.22,2.8h-7l11.15-24.31h3l11.17,24.31h-7Zm-2-4.66-2.46-5.7L167.72,85Z"/><path class="cls-2" d="M196.62,92.48,190.2,82.05V92.48h-6.37l0-24h9.11c5.19,0,8.9,3.51,8.9,7.81a7.24,7.24,0,0,1-4.16,6.57l6.44,9.64ZM190.17,79l2.61,0a2.42,2.42,0,1,0,0-4.83h-2.61Z"/><path class="cls-2" d="M205.12,68.46h6.38v24h-6.38Z"/><path class="cls-2" d="M230.7,74.42H225V92.48h-6.39V74.42h-5.77v-6H230.7Z"/><path class="cls-2" d="M245.19,89.68h-9L235,92.48h-7l11.15-24.31h3l11.17,24.31h-7Zm-2-4.66-2.46-5.7L238.23,85Z"/><path class="cls-2" d="M48.71,63.06s-.05.21-.1.37c-5.39,14.63-4.36,28.2-3.79,29.24.26.84-2,1.42-2.51-.2-1.15-4.87-1-5.26-.55-9.86C40.19,89.14,39.35,92.8,37.68,93c-2.56.26-3.34-2.35-3.61-4.29-.62-5.59,2-10.35,7.69-10.35.63-5.8,1.36-11.5,3.19-15.37C45.26,62.33,46.41,61.49,48.71,63.06ZM36.64,87.47c-.06,1.57-.06,4.24,1.46,1.41,1.46-2.66,1.83-5.64,2.66-7.89-3,1.46-5.64,6-4.6,9.51C36.06,88.73,36.22,87.42,36.64,87.47Z"/><path class="cls-2" d="M51,92.49c-5.07-.68-4-8.26-2.56-11.4,1.2-2.61,3.34-3.66,5.75-3.08,4,1.52-1.2,7.89-3.24,8.36a8.06,8.06,0,0,0,.52,3.24c1.05,2,5.33-1.93,8.1-5.9,2-2.09.94.73.32,1.67C58.28,88.31,54.72,92.91,51,92.49Zm.16-7.58c.94-1.26,3.66-4.29,3-5.65-.21-.41-.68-.47-1.15.11A7.93,7.93,0,0,0,51.17,84.91Z"/></g></g></svg>