<svg xmlns="http://www.w3.org/2000/svg" xmlns:xlink="http://www.w3.org/1999/xlink" viewBox="0 0 2569.82 262.79"><defs><style>.cls-1{fill:none;}.cls-2{clip-path:url(#clip-path);}.cls-3{fill:#ca977a;}.cls-4{fill:#b58167;}.cls-5{fill:#c39576;}.cls-6{fill:#925b4e;}.cls-7{fill:#9f766a;}</style><clipPath id="clip-path" transform="translate(98.96 -17.74)"><rect class="cls-1" width="2495" height="263.93"/></clipPath></defs><g id="Capa_2" data-name="Capa 2"><g id="Capa_1-2" data-name="Capa 1"><g class="cls-2"><path class="cls-3" d="M2272.92,271.45l163.38,3.44s103.15-62.36-47-85.19l-117-1.93Z" transform="translate(98.96 -17.74)"/><path class="cls-4" d="M2105.22,271.45l163.38,3.44s103.14-62.36-47-85.19l-117-1.93Z" transform="translate(98.96 -17.74)"/><path class="cls-5" d="M1921,271.45l163.38,3.44s103.15-62.36-47-85.19l-117-1.93Z" transform="translate(98.96 -17.74)"/><path class="cls-6" d="M1756.05,271.45l163.38,3.44s103.15-62.36-47-85.19l-117-1.93Z" transform="translate(98.96 -17.74)"/><path class="cls-4" d="M1588.34,271.45l163.38,3.44s103.15-62.36-47-85.19l-117-1.93Z" transform="translate(98.96 -17.74)"/><path class="cls-6" d="M1420.64,271.45,1584,274.89s103.14-62.36-47-85.19l-117-1.93Z" transform="translate(98.96 -17.74)"/><path class="cls-7" d="M1252.93,271.45l163.38,3.44s103.14-62.36-47-85.19l-117-1.93Z" transform="translate(98.96 -17.74)"/><path class="cls-5" d="M1129.21,271.45l163.38,3.44s103.14-62.36-47-85.19l-117-1.93Z" transform="translate(98.96 -17.74)"/><path class="cls-7" d="M967,271.45l163.38,3.44s103.14-62.36-47-85.19l-117-1.93Z" transform="translate(98.96 -17.74)"/><path class="cls-7" d="M837.78,271.45l163.38,3.44s103.15-62.36-47-85.19l-117-1.93Z" transform="translate(98.96 -17.74)"/><path class="cls-5" d="M697.57,268.7,861,272.15s103.14-62.37-47-85.2L697,185Z" transform="translate(98.96 -17.74)"/><path class="cls-6" d="M568.35,268.7l163.38,3.45s103.14-62.37-47-85.2l-117-1.93Z" transform="translate(98.96 -17.74)"/><path class="cls-7" d="M433.63,268.7,597,272.15s103.15-62.37-47-85.2L433,185Z" transform="translate(98.96 -17.74)"/><path class="cls-6" d="M276.92,268.7l163.38,3.45s103.15-62.37-47-85.2l-117-1.93Z" transform="translate(98.96 -17.74)"/><path class="cls-6" d="M-22.75,268.7l163.38,3.45s103.14-62.37-47-85.2l-117-1.93a44.28,44.28,0,0,0-30.24,43.17A44.26,44.26,0,0,0-22.75,268.7Z" transform="translate(98.96 -17.74)"/><path class="cls-7" d="M117.46,277l163.38,3.44S384,218,233.88,195.2l-117-1.94Z" transform="translate(98.96 -17.74)"/><path class="cls-7" d="M2258.56,250.19,2418,214.45s85.23-85.23-66-71.49l-114.1,26.12c-21,16.77-26.23,44-15.12,61.86C2233.71,248.43,2256,250,2258.56,250.19Z" transform="translate(98.96 -17.74)"/><path class="cls-5" d="M2250.31,219.94l159.46-35.74s85.23-85.22-66-71.48l-114.1,26.12Z" transform="translate(98.96 -17.74)"/><path class="cls-6" d="M2079.85,280.43l159.46-35.74s85.23-85.23-66-71.48l-114.1,26.12c-20.9,9.85-30.63,33.63-23.36,53.61C2042.16,270.25,2060.16,281.77,2079.85,280.43Z" transform="translate(98.96 -17.74)"/><path class="cls-4" d="M2115.6,219.94l159.46-35.74s85.22-85.22-66-71.48L2095,138.84a42.62,42.62,0,0,0,20.62,81.1Z" transform="translate(98.96 -17.74)"/><path class="cls-7" d="M1978.13,241.94l159.46-35.74s85.23-85.23-66-71.48l-114.1,26.11Z" transform="translate(98.96 -17.74)"/><path class="cls-5" d="M1719.69,255.69l159.46-35.75s85.23-85.22-66-71.48l-114.1,26.12c-5.33,4.41-12.72,12.17-15.12,23.37C1679.56,218.44,1693.55,242.66,1719.69,255.69Z" transform="translate(98.96 -17.74)"/><path class="cls-7" d="M1563,255.69l159.46-35.75s85.23-85.22-66-71.48l-114.1,26.12c-2.94,2.89-15.2,15.6-15.12,34.37C1527.34,229,1541.54,247.89,1563,255.69Z" transform="translate(98.96 -17.74)"/><path class="cls-5" d="M1400.77,255.69l159.46-35.75s85.23-85.22-66-71.48l-114.1,26.12c-13.69,13.49-18.54,33.39-12.37,50.86C1375.87,248.35,1398.63,255.09,1400.77,255.69Z" transform="translate(98.96 -17.74)"/><path class="cls-4" d="M1268.81,241.94l159.46-35.74s85.23-85.23-66-71.48l-114.09,26.11c-2.31,4-11.55,20.87-6.88,42.62C1246.58,228,1265.51,239.93,1268.81,241.94Z" transform="translate(98.96 -17.74)"/><path class="cls-7" d="M1142.34,214.45l159.46-35.74s85.23-85.23-66-71.49l-114.1,26.12Z" transform="translate(98.96 -17.74)"/><path class="cls-4" d="M960.88,181.45l159.46-35.74s85.23-85.23-66-71.48l-114.1,26.12Z" transform="translate(98.96 -17.74)"/><path class="cls-5" d="M1010.37,236.44l159.46-35.74s85.23-85.23-66-71.48l-114.1,26.12c-20.9,9.85-30.64,33.63-23.37,53.61C972.68,226.26,990.68,237.78,1010.37,236.44Z" transform="translate(98.96 -17.74)"/><path class="cls-6" d="M845.41,258.44l159.46-35.75s85.23-85.22-66-71.48l-114.1,26.12c-20.63,6.8-32.86,27.84-28.86,48.11C800.23,247.31,822.28,262.56,845.41,258.44Z" transform="translate(98.96 -17.74)"/><path class="cls-5" d="M787.68,228.19l159.46-35.74s85.23-85.23-66-71.48L767.06,147.09Z" transform="translate(98.96 -17.74)"/><path class="cls-6" d="M661.21,200.7,820.67,165s85.23-85.23-66-71.48L640.59,119.6Z" transform="translate(98.96 -17.74)"/><path class="cls-4" d="M702.45,263.93l159.46-35.74s85.23-85.23-66-71.48l-114.1,26.12c-19.38,7.75-30.34,28.33-26.12,48.11C660.18,251.87,680.48,266.49,702.45,263.93Z" transform="translate(98.96 -17.74)"/><path class="cls-5" d="M672.21,126.47,831.67,90.73s85.23-85.23-66-71.48L651.59,45.36Z" transform="translate(98.96 -17.74)"/><path class="cls-7" d="M795.93,165l159.46-35.74s85.22-85.23-66-71.48L775.31,83.85c-20.9,9.86-30.64,33.63-23.37,53.62C758.24,154.78,776.24,166.3,795.93,165Z" transform="translate(98.96 -17.74)"/><path class="cls-7" d="M518.25,145.71,677.71,110s85.22-85.23-66-71.48L497.63,64.61a43.41,43.41,0,0,0,20.62,81.1Z" transform="translate(98.96 -17.74)"/><path class="cls-6" d="M441.26,241.94,600.72,206.2s85.23-85.23-66-71.48l-114.1,26.11Z" transform="translate(98.96 -17.74)"/><path class="cls-4" d="M567.73,214.45l159.46-35.74s85.23-85.23-66-71.49l-114.1,26.12a42.62,42.62,0,0,0,20.62,81.11Z" transform="translate(98.96 -17.74)"/><path class="cls-5" d="M158.09,219.94,317.55,184.2s85.22-85.22-66-71.48L137.47,138.84a44.59,44.59,0,0,0,20.62,81.1Z" transform="translate(98.96 -17.74)"/><path class="cls-4" d="M138.84,277.68,298.3,241.94s85.23-85.23-66-71.48l-114.1,26.12c-22.64,13.15-30.48,40.08-20.62,59.11C104.87,269.71,121.16,278.28,138.84,277.68Z" transform="translate(98.96 -17.74)"/><path class="cls-4" d="M-48.11,244.69,111.35,209s85.23-85.23-66-71.48L-68.73,163.58A42.16,42.16,0,0,0-97.6,214.45,42.14,42.14,0,0,0-48.11,244.69Z" transform="translate(98.96 -17.74)"/><path class="cls-4" d="M334,187,493.5,151.21s85.23-85.23-66-71.48l-114.1,26.12A44.93,44.93,0,0,0,334,187Z" transform="translate(98.96 -17.74)"/><path class="cls-7" d="M279.06,241.94,438.52,206.2s85.22-85.23-66-71.48L258.44,160.83c-22.18,8.53-33.33,32.88-26.12,53.62C238.71,232.86,258.34,244.83,279.06,241.94Z" transform="translate(98.96 -17.74)"/><path class="cls-4" d="M1833.43,241.89l163.41.32s101.93-64.33-48.59-84.28l-117,.3c-22,1.61-39,19.23-40,39.72C1790.08,220.61,1808.93,241.26,1833.43,241.89Z" transform="translate(98.96 -17.74)"/></g></g></g></svg>