<svg xmlns="http://www.w3.org/2000/svg" viewBox="0 0 45.35 45.35"><defs><style>.cls-1{fill:#fff;}</style></defs><g id="Capa_2" data-name="Capa 2"><g id="Capa_1-2" data-name="Capa 1"><path class="cls-1" d="M40.49,0H4.86A4.87,4.87,0,0,0,0,4.86V40.49a4.87,4.87,0,0,0,4.86,4.86H40.49a4.87,4.87,0,0,0,4.86-4.86V4.86A4.87,4.87,0,0,0,40.49,0Zm-5,16.07c0,.29,0,.58,0,.87,0,8.77-6.68,18.88-18.89,18.88a18.81,18.81,0,0,1-10.19-3,14.05,14.05,0,0,0,1.6.08,13.27,13.27,0,0,0,8.24-2.84,6.65,6.65,0,0,1-6.21-4.6,7.26,7.26,0,0,0,3-.12,6.64,6.64,0,0,1-5.32-6.52v-.08a6.77,6.77,0,0,0,3,.84,6.64,6.64,0,0,1-3-5.53,6.54,6.54,0,0,1,.91-3.35,18.81,18.81,0,0,0,13.68,6.94,6.66,6.66,0,0,1,11.33-6.06A12.93,12.93,0,0,0,38,10,6.64,6.64,0,0,1,35,13.67a13.32,13.32,0,0,0,3.83-1A13.78,13.78,0,0,1,35.54,16.07Z"/></g></g></svg>