<svg xmlns="http://www.w3.org/2000/svg" viewBox="0 0 478.23 111.28"><defs><style>.cls-1{fill:#ffbc0d;}.cls-2{fill:#1a4089;}.cls-3{fill:#009440;}</style></defs><g id="Capa_2" data-name="Capa 2"><g id="Capa_1-2" data-name="Capa 1"><rect class="cls-1" x="0.77" y="0.28" width="135.75" height="111"/><rect class="cls-2" x="136.53" y="0.28" width="268.75" height="111"/><rect class="cls-1" x="405.28" y="0.28" width="72.95" height="111"/><path class="cls-2" d="M49.25,111.28,46.94,106,0,0H23.2l26,58.61L75.17,0H98.63Z"/><path class="cls-2" d="M103,0h22V111.28H103Z"/><path class="cls-3" d="M197.21,16.36a54,54,0,0,1,16.12,39.28A53.92,53.92,0,0,1,197.21,95q-16.12,16.33-38.71,16.33h-22V0h22Q181.09,0,197.21,16.36ZM181.7,79.21a32.3,32.3,0,0,0,9.66-23.57,32.47,32.47,0,0,0-9.66-23.58,31.37,31.37,0,0,0-23.2-9.83V89A31.47,31.47,0,0,0,181.7,79.21Z"/><path class="cls-3" d="M286.53,0V22.23H242.72V44.52h32.86V66.75H242.72V89h43.81v22.3H220.75V0Z"/><path class="cls-3" d="M389.93,16.36a54,54,0,0,1,16.12,39.28A54,54,0,0,1,389.93,95q-16.12,16.33-38.71,16.33T312.48,95a54,54,0,0,1-16.09-39.31,54.05,54.05,0,0,1,16.09-39.28Q328.57,0,351.22,0T389.93,16.36ZM328,32.06a32.51,32.51,0,0,0-9.62,23.58A32.34,32.34,0,0,0,328,79.21a32.5,32.5,0,0,0,46.46,0,32.26,32.26,0,0,0,9.7-23.57,32.43,32.43,0,0,0-9.7-23.58,32.36,32.36,0,0,0-46.46,0Z"/><path class="cls-3" d="M437.31,63.85a46.27,46.27,0,0,1-10.47-5.45,39.71,39.71,0,0,1-10-9.84q-4.42-6.11-4.42-15.22A32.34,32.34,0,0,1,422.11,9.8a32.43,32.43,0,0,1,46.46,0,32.34,32.34,0,0,1,9.66,23.54H456.32a10.72,10.72,0,0,0-3.23-7.83,10.76,10.76,0,0,0-15.47,0,10.81,10.81,0,0,0-3.2,7.83,10.08,10.08,0,0,0,4.73,9,29.93,29.93,0,0,0,7.18,3.76c.77.28,2.86.92,6.29,1.94a45,45,0,0,1,10.81,5,38.43,38.43,0,0,1,10.24,9.5q4.56,6,4.56,15.29a32.44,32.44,0,0,1-9.66,23.61,32.43,32.43,0,0,1-46.46,0,32.44,32.44,0,0,1-9.66-23.61h22a10.82,10.82,0,0,0,3.2,7.87,10.85,10.85,0,0,0,15.47,0,10.73,10.73,0,0,0,3.23-7.87c0-4.7-1.84-7.73-5.54-9.12s-6.2-2.32-7.52-2.83Z"/></g></g></svg>